<svg xmlns="http://www.w3.org/2000/svg" viewBox="0 0 421.78 153.92"><g data-name="Слой 2"><g data-name="Layer 1"><path d="M81.8 53.44c-1.79-7.74 12.71-10.91 14-3 3.77 12.31 9.94 26.12 23 30.73 15.2 4.62 32.81-1.07 42.91-13.27 4.48 11.91 2.46 25.22-1 37.13v.17c-12.5 10.35-24.85 20.9-36.3 32.41-21.92 2.46-44.42 3.26-66.3.15-16-2.15-23.22-20-23.32-33.93 14.52 6.33 33.65 3.92 43.36-9.53 8.92-11.63 6.08-27.49 3.65-40.86zM92 85.7c2.33 2.48 6 2.37 9.07 3 1.69 4.61 3.3 9.25 5.18 13.8-2.66 1.52-5.44 3.15-6.94 6 5.56-3.62 12-5.14 18.19-6.84a43.82 43.82 0 0 0-10 .36c-1.09-4.64-2.89-9.06-4.33-13.58 1.44-2.45 3.49-4.74 3.47-7.76C103.37 86.36 98 87.32 92 85.7zm25.67 5.1a80.48 80.48 0 0 0 15.42-4.8c-5.37-.13-11.74.37-15.44 4.8zm1.79 6.2a69 69 0 0 0 15.67 0c-4.91-.77-11.54-3.29-15.67 0zm-48.27 7.17c5.35-1.19 11.32-2 15.94-4.91-5.66-.66-11.42 1.66-15.94 4.93zm6.09 11.42A36.56 36.56 0 0 0 89 105.85c-5.32.41-8.68 5.87-11.72 9.76zm32.07-5.85c-4.21.67-7.41 6.23-3.85 9.5 5.11 2.77 15.45-.36 13.46-7.48-1.68-3.71-6.44-3.06-9.61-2zm12.2 35.01c7.07-8.38 15.22-15.77 23-23.43 10.21 15.84 31.95 5.25 46.45 12.31-21.81 7.92-47 10.94-69.45 11.12zm-102.97-6.38c4.85-1.1 10.21 1.62 12.82 5.71-8.92 1.63-18 .71-27 1.28 4.68-2.45 9.36-4.86 14.18-6.99z" fill="#fff"/><path d="M115.42 27.55C119 18.08 121.78 5.7 130.33 0c9.53 3.4 13 15.26 18.64 23.1 33.38-9.8 71.5-13 102.27 6.2 44.33 14 64.29 67.05 111.9 73.91 15.46 4.24 36-7.86 29-25.73-7.3-16.18 17.52-28.41 25.56-12.64 10.73 19.69-.91 45.34-19.48 55.77-20.23 11.12-44.85 7.11-65.53-.67-21.32-9.54-37-27.42-53.19-43.61 3.81 16.43 7.63 32.68 17.14 46.85 4.47 5.17 5.16 16.19-4.31 15.06-55.38.61-110.12 9.57-165.11 15.32-4.12.64-9.79 1-11.69-3.69-22.41 2-44.88-2.29-67.2.53-14 .77-28.14 1.38-42.2.94-3.89.13-8.5-4.32-4.66-7.67 10-5.91 20.89-10.23 31.57-14.76-11-28.17-14.6-58.55-18.52-88.34-1.27-3.77 2.25-8.17 6.23-6.45 8.28 3.48 15.42 9.17 22.8 14.2 21.79-12.72 47.13-17.49 71.87-20.77zM81.8 53.44c2.43 13.37 5.27 29.23-3.68 40.86-9.71 13.45-28.84 15.86-43.36 9.53l.08-.2a27.12 27.12 0 0 1-7.63-4c4 17.68 9 40.94 29.82 45.42 19.6 2.53 39.61 2.52 59.38 1.78 2.45-3.26 5.24-6.22 8-9.23 11.45-11.51 23.8-22.06 36.3-32.41v-.17c3.57-2.61 6.77-5.69 10.29-8.37 1.33-11.62.33-24.13-6.28-34.12a45.32 45.32 0 0 1-3 5.36C151.61 80.1 134 85.79 118.77 81.15c-13.08-4.61-19.25-18.42-23-30.73C94.51 42.53 80 45.7 81.8 53.44zM125.91 58c5.26 1.27 2.52 7.78 3 11.6-3.7-1.58-10-2.49-9.19-7.79a65.36 65.36 0 0 0-7.17 6.95c2.92 7.31 13 10.11 19.25 5.49 5.65-5.13 3.51-13.58 2.16-20.11a25.52 25.52 0 0 0-8.05 3.86zM66.65 77.74c3.94 3.27.88 8.09-1.07 11.6a44.66 44.66 0 0 1-7.45-7.09c.54-1.48 1.09-3 1.65-4.44-4.14.9-13.74-.53-9.22 6.24 3.44 15.18 28.65 11.58 24.31-5.2-2.65-.85-5.48-.85-8.22-1.11zm54.9 67c-1.7 1.68-4.68 5.88-.2 6.1 25.73-1.83 51.34-5.51 76.94-8.84a15.66 15.66 0 0 0-7.25-8.38c-14.5-7.06-36.24 3.53-46.45-12.31-7.82 7.69-15.97 15.06-23.04 23.44zm-103-6.38c-4.82 2.13-9.5 4.54-14.15 7-.38.49-1.14 1.48-1.51 2 17.1 2.73 34.83.13 52.14-.35a59.31 59.31 0 0 1-12.6-6.77c-6.23 1.23-13.2-.11-18-4.49-1.91.88-3.89 1.73-5.85 2.62z" fill="#060606"/><path d="M117.65 90.8c3.7-4.43 10.07-4.93 15.44-4.79a80.48 80.48 0 0 1-15.44 4.79zm-46.46 13.39c4.52-3.27 10.28-5.59 15.94-4.91-4.62 2.92-10.59 3.72-15.94 4.91zm6.09 11.42c3-3.89 6.4-9.35 11.72-9.76a36.56 36.56 0 0 1-11.72 9.76z" fill="#060606"/><path d="M125.91 58a25.52 25.52 0 0 1 8.09-3.91c1.35 6.53 3.49 15-2.16 20.11-6.27 4.62-16.33 1.82-19.25-5.49a65.36 65.36 0 0 1 7.17-6.95c-.77 5.3 5.49 6.21 9.19 7.79-.52-3.82 2.22-10.33-3.04-11.55zM66.65 77.74c2.74.3 5.57.25 8.22 1.11 4.34 16.78-20.87 20.38-24.31 5.2-4.52-6.77 5.08-5.34 9.22-6.24-.56 1.46-1.11 3-1.65 4.44a44.66 44.66 0 0 0 7.45 7.09c1.95-3.51 5.01-8.34 1.07-11.6zm3.68 3a7 7 0 0 0-.24 4.84h3.31a28.19 28.19 0 0 0 .06-5z" fill="#c0d9a2"/><path d="M164.71 62.54c6.61 10 7.61 22.5 6.28 34.12-3.52 2.68-6.72 5.76-10.29 8.37 3.47-11.91 5.49-25.22 1-37.13a45.32 45.32 0 0 0 3.01-5.36zm-137.5 37.1a27.12 27.12 0 0 0 7.63 4l-.08.2c.1 13.91 7.3 31.78 23.32 33.93 21.88 3.11 44.38 2.31 66.3-.15-2.73 3-5.52 6-8 9.23-19.77.74-39.78.75-59.38-1.78-20.76-4.49-25.76-27.75-29.79-45.43zm82.14 10.12c3.17-1.06 7.93-1.71 9.61 2 2 7.12-8.35 10.25-13.46 7.48-3.56-3.24-.36-8.81 3.85-9.48zM191 133.63a15.66 15.66 0 0 1 7.25 8.38c-25.6 3.33-51.21 7-76.94 8.84-4.48-.22-1.5-4.42.2-6.1 22.49-.18 47.68-3.2 69.49-11.12z" fill="#cabfcd"/><path d="M18.58 138.37c2-.89 3.94-1.74 5.9-2.64 4.78 4.38 11.75 5.72 18 4.49A59.31 59.31 0 0 0 55.06 147c-17.31.48-35 3.08-52.14.35.37-.5 1.13-1.49 1.51-2 9-.57 18.05.35 27-1.28-2.64-4.07-8-6.8-12.85-5.7z" fill="#cabfcd"/><path d="M92 85.7c6 1.62 11.39.66 14.6-5 0 3-2 5.31-3.47 7.76 1.44 4.52 3.24 8.94 4.33 13.58a43.82 43.82 0 0 1 10-.36c-6.19 1.7-12.63 3.22-18.19 6.84 1.5-2.81 4.28-4.44 6.94-6-1.88-4.55-3.49-9.19-5.18-13.8-3.03-.65-6.72-.54-9.03-3.02z" fill="#dd7f7f"/><path d="M119.46 97c4.13-3.31 10.76-.79 15.67 0a69 69 0 0 1-15.67 0z" fill="#25201c"/><path d="M70.33 80.72l3.13-.19a28.19 28.19 0 0 1-.06 5h-3.31a7 7 0 0 1 .24-4.81z" fill="#f5f4f4"/></g></g></svg>