<svg width="194" height="123" fill="none" xmlns="http://www.w3.org/2000/svg"><path d="M89.839 84.603c-1.132.504-1.33 1.15-.552 2.21.203.299.48.533.802.677.321.144.675.193 1.024.142.604-.072 1.211-.11 1.819-.114.692.01 1.312-.094 1.683-.788.173-.294.256-.635.24-.977a1.707 1.707 0 0 0-.336-.938c-.346-.514-.6-1.032-.313-1.739.195-.49-.65-1.401-1.394-1.622a1.067 1.067 0 0 0-.86.055 1.15 1.15 0 0 0-.353.28 1.21 1.21 0 0 0-.224.4 7.176 7.176 0 0 1-.629.98l-.907 1.434zM60.866 60.342c-.902-.727-1.807-.458-2.198.573a6.046 6.046 0 0 1-.592.845c-.317.528-.589 1.085-.906 1.607a1.065 1.065 0 0 1-.442.427c-.983.432-1.132.88-.56 1.843.636 1.07 1.38 1.34 2.572 1.05.46-.092.935-.082 1.397.031.857.19 1.638.139 2.145-.64a1.76 1.76 0 0 0 .37-1.194 1.85 1.85 0 0 0-.508-1.168 1.748 1.748 0 0 1-.389-1.366c.37-1.06-.436-1.434-.889-2.008zM1.413 5.587C.403 5.584.299 6.54.95 7.452c.28.395.667.704 1.105.885.438.18.906.223 1.34.123a5.197 5.197 0 0 1 1.499.044c.724.068 1.417.146 1.876-.542.46-.687.29-1.322-.14-2.026a2.652 2.652 0 0 1-.476-1 2.36 2.36 0 0 1-.007-1.068c.138-.487-.934-1.53-1.64-1.713-.705-.182-1.182.166-1.412.899a3.048 3.048 0 0 1-.47.695c-.349.536-.707 1.087-1.212 1.838zM23.969 28.68c-.41.114-1.162.18-1.12 1.11.058 1.121 1.517 2.155 2.556 1.936a6.244 6.244 0 0 1 1.907-.074c.838.095 1.592-.014 2.029-.786.208-.332.304-.729.272-1.128a1.88 1.88 0 0 0-.451-1.078c-.395-.51-.751-1.111-.35-1.875.101-.196-.151-.677-.345-.945-.966-1.31-2.28-1.151-2.896.266a9.743 9.743 0 0 1-.97 1.317c-.238.404-.448.823-.632 1.257zm74.394 61.397a8.363 8.363 0 0 0-1.315-.72c-.726-.258-1.476-.316-2.064.361-.587.677-.543 1.362-.138 2.137a2.71 2.71 0 0 0 1.34 1.371 2.53 2.53 0 0 0 1.866.103c.51-.165.894-1.085 1.12-1.744.224-.659-.148-1.223-.809-1.508zm2.713-3.847a23.114 23.114 0 0 0-2.63-.867 1.6 1.6 0 0 0-1.158.246 1.765 1.765 0 0 0-.718.992c-.25.847.231 1.392.86 1.724.813.391 1.661.697 2.533.914.34.127.714.118 1.052-.025.338-.144.615-.412.78-.754.312-.592-.038-1.478-.719-2.23zM10.83 10.457c-.873-.611-1.713-1.276-2.84-1.056a1.509 1.509 0 0 0-1.14.783 1.63 1.63 0 0 0-.192.704c-.01.25.033.505.128.744.264.701.743 1.31 1.361 1.73a3.332 3.332 0 0 0 2.049.586c.735-.024 1.398-.76 1.585-1.751.118-.682-.167-1.189-.95-1.74zm54.965 58.141a20.21 20.21 0 0 0-2.065-.78 1.318 1.318 0 0 0-.94.111 1.44 1.44 0 0 0-.656.722c-.146.287-.213.61-.194.931.02.323.126.63.305.89.632 1.228 1.732 1.572 2.968 1.414.882-.113 1-1.049 1.252-1.7.252-.65-.02-1.222-.67-1.588zM98.567 81.66c-1.082-.872-2.195-.567-3.262-.36-.188.038-.385.635-.36.967.038.697-.242 1.69.637 2.008a6.96 6.96 0 0 0 2.651.352 1.46 1.46 0 0 0 .66-.304c.191-.155.342-.357.44-.59.128-.451-.141-1.058-.312-1.574-.071-.218-.332-.373-.454-.499zM32.803 33.455a14.885 14.885 0 0 0-2.378-.707 1.362 1.362 0 0 0-.671.139 1.404 1.404 0 0 0-.526.45 1.491 1.491 0 0 0-.258.657c-.033.24-.01.483.069.712.613 1.739 1.706 2.432 3.33 2.126.484-.091.902-1.062 1.162-1.716.259-.654-.15-1.183-.811-1.44l.083-.22zM92.38 89.427a2.342 2.342 0 0 0-1.513-.666 2.087 2.087 0 0 0-1.498.53 1.269 1.269 0 0 0-.274.549c-.047.205-.044.422.007.632.507 1.509 2.402 2.393 3.797 1.87.729-.257.752-1.753.057-2.45a7.352 7.352 0 0 0-.575-.465zm88.861 23.78c-1.132.503-1.329 1.15-.552 2.21.203.298.48.532.802.676.322.144.675.194 1.024.143.604-.072 1.211-.11 1.819-.114.692.009 1.312-.095 1.684-.788.172-.294.256-.635.238-.977a1.71 1.71 0 0 0-.334-.938c-.346-.515-.601-1.033-.314-1.739.195-.49-.65-1.402-1.394-1.623a1.067 1.067 0 0 0-.86.056 1.2 1.2 0 0 0-.577.679 7.157 7.157 0 0 1-.628.98l-.908 1.435zm8.525 5.474a8.333 8.333 0 0 0-1.316-.721c-.726-.257-1.476-.315-2.063.362-.588.676-.544 1.362-.139 2.137a2.721 2.721 0 0 0 1.34 1.371 2.525 2.525 0 0 0 1.867.102c.509-.164.894-1.085 1.119-1.744.224-.658-.148-1.222-.808-1.507zm2.713-3.848c-.86-.341-1.739-.63-2.632-.866-.399-.07-.81.018-1.156.246a1.77 1.77 0 0 0-.719.992c-.25.847.232 1.392.86 1.724.813.391 1.662.697 2.534.914.339.127.713.118 1.051-.025.338-.144.616-.412.781-.754.312-.592-.039-1.478-.719-2.231zm-2.512-4.57c-1.082-.872-2.194-.567-3.262-.36-.188.038-.385.635-.359.967.037.697-.242 1.689.636 2.008.86.289 1.76.408 2.651.352.243-.044.469-.148.66-.304.191-.155.342-.357.44-.589.129-.452-.141-1.059-.312-1.575-.071-.218-.332-.372-.454-.499zm-6.184 7.769a2.338 2.338 0 0 0-1.514-.667 2.084 2.084 0 0 0-1.498.529 1.264 1.264 0 0 0-.274.55c-.046.205-.044.422.007.632.508 1.509 2.403 2.393 3.797 1.87.729-.257.752-1.753.058-2.451a7.478 7.478 0 0 0-.576-.463zM12.5 6.701c-.858-.465-1.897-1.247-3.058-.853-.224.1-.421.248-.58.434a1.695 1.695 0 0 0-.339.65c-.008.22.036.445.127.657.092.213.228.407.4.567.913.774 1.968 1.404 3.113 1.373a2.015 2.015 0 0 0 1.531-.62c.372-.577-.134-1.26-.663-1.78-.106-.101-.23-.185-.531-.428zm52.197 60.126c1.086.383 2.182.71 3.283.983.218.01.426-.035.607-.128.18-.094.326-.234.427-.41a1.48 1.48 0 0 0-.007-.658 1.82 1.82 0 0 0-.293-.643 5.174 5.174 0 0 0-1.482-1.259 4.592 4.592 0 0 0-1.776-.577c-.677-.107-1.504.45-1.464 1.064.035.477.411.984.705 1.628zM35.01 30.139a23.788 23.788 0 0 0-2.517-.958 1.396 1.396 0 0 0-1.051.155c-.3.185-.503.488-.569.848-.034.313.047.643.229.934.181.29.451.52.761.649.761.397 1.55.722 2.352.97.733.232 1.502.212 1.725-.596.224-.807-.324-1.368-.93-2.002zm-2.169-4.879c-1.011-1.041-2.115-.512-3.177-.477-.15.003-.377.511-.347.8.087.713-.248 1.737.55 2.062.975.32 1.986.441 2.972.355.22-.061.416-.18.568-.347.152-.166.257-.374.303-.603-.032-.619-.419-1.255-.654-1.881l-.215.091zM4.707 9.755c-1.164-.82-2.82-.88-3.487-.001-.06.14-.086.296-.078.459.01.163.054.329.13.486a4.166 4.166 0 0 0 1.76 1.87c.766.42 1.611.56 2.364.39.6-.118.812-.867.374-1.725a11.817 11.817 0 0 0-1.063-1.479zM59.93 67.563a2.407 2.407 0 0 0-1.527-.424 2.774 2.774 0 0 0-1.55.61c-.48.384-.541 1.477-.015 2.02.874.915 1.886 1.519 3.27 1.03.686-.248 1.083-.668.877-1.399a17.77 17.77 0 0 0-.813-1.972l-.242.135zM27.38 33.345a2.37 2.37 0 0 0-1.543-.68 2.22 2.22 0 0 0-1.557.538 1.004 1.004 0 0 0-.257.344c-.06.134-.092.28-.094.429.165 1.638 2.636 2.946 4.027 2.16.552-.31.538-1.787-.015-2.333-.152-.15-.369-.303-.562-.458zm38.515 26.804c-.95-.698-2.09-.417-3.238-.149a.634.634 0 0 0-.326.28c-.62 1.056.186 2.8 1.286 2.826.336.018.669.062.995.131 1.112.189 1.666-.036 2.009-.843.274-.64-.05-1.682-.726-2.245zm70.969 35.306c-.902-.727-1.807-.458-2.198.573a6.01 6.01 0 0 1-.592.844c-.317.528-.589 1.086-.906 1.607a1.066 1.066 0 0 1-.442.428c-.983.431-1.132.88-.561 1.843.638 1.07 1.382 1.339 2.573 1.05a3.2 3.2 0 0 1 1.397.031c.857.189 1.638.139 2.145-.64.263-.332.395-.758.369-1.195a1.848 1.848 0 0 0-.507-1.167 1.74 1.74 0 0 1-.389-1.366c.37-1.06-.435-1.434-.889-2.008zm4.929 8.256a20.252 20.252 0 0 0-2.065-.781 1.318 1.318 0 0 0-.939.112 1.443 1.443 0 0 0-.657.722 1.819 1.819 0 0 0-.194.931c.02.322.126.631.305.89.632 1.227 1.732 1.572 2.968 1.414.882-.114 1-1.049 1.252-1.7.253-.65-.019-1.222-.67-1.588zm-1.096-1.771c1.086.382 2.182.711 3.283.983.218.009.426-.035.607-.128.18-.094.326-.234.427-.409a1.473 1.473 0 0 0-.007-.66 1.83 1.83 0 0 0-.293-.643 5.181 5.181 0 0 0-1.482-1.258 4.594 4.594 0 0 0-1.776-.577c-.677-.107-1.504.45-1.464 1.064.035.476.412.984.705 1.628zm-4.769.735a2.405 2.405 0 0 0-1.527-.423 2.767 2.767 0 0 0-1.55.61c-.48.383-.541 1.477-.015 2.019.874.916 1.886 1.52 3.269 1.031.687-.248 1.084-.668.878-1.399a17.673 17.673 0 0 0-.813-1.972l-.242.134zm5.965-7.413c-.95-.698-2.09-.417-3.238-.148a.634.634 0 0 0-.326.278c-.62 1.057.186 2.802 1.286 2.827.336.018.669.062.996.132 1.111.188 1.665-.037 2.008-.843.274-.64-.05-1.682-.726-2.246zM10.77 1.904a4.567 4.567 0 0 0-1.723-.485 4.14 4.14 0 0 0-1.716.232.613.613 0 0 0-.288.2c-.538.731.323 2.828 1.251 3.033.556.079 1.11.19 1.658.336a1.4 1.4 0 0 0 1.02.08c.328-.103.596-.332.752-.64.45-.673.113-1.257-.15-1.847a4.1 4.1 0 0 0-.804-.91z" fill="#000" fill-opacity=".7"/></svg>