<svg width="205" height="335" fill="none" xmlns="http://www.w3.org/2000/svg"><path d="M112.107 84.62c1.195.34 1.485.953.872 2.11a1.896 1.896 0 0 1-.693.782c-.297.188-.64.286-.993.285-.608.014-1.215.061-1.816.142-.684.107-1.313.091-1.783-.543a1.764 1.764 0 0 1-.38-.933 1.688 1.688 0 0 1 .193-.975c.266-.558.442-1.107.053-1.765-.265-.458.437-1.479 1.14-1.801.13-.07.273-.112.421-.123.147-.012.296.008.439.056a1.172 1.172 0 0 1 .67.592c.233.314.489.61.767.88l1.11 1.294zm23.198-34.466c.785-.846 1.72-.707 2.259.258.216.272.454.524.711.753.391.478.743.992 1.134 1.463.13.168.303.293.5.361 1.036.29 1.251.712.827 1.745-.473 1.148-1.169 1.52-2.391 1.401a3.194 3.194 0 0 0-1.378.227c-.82.307-1.6.367-2.216-.333a1.767 1.767 0 0 1-.542-1.13c-.04-.436.078-.873.329-1.227a1.73 1.73 0 0 0 .183-1.406c-.522-.997.22-1.48.584-2.111zm67.828-44.951c.999-.145 1.243.788.733 1.78a2.53 2.53 0 0 1-.963 1.032 2.2 2.2 0 0 1-1.308.31 5.193 5.193 0 0 0-1.477.253c-.706.17-1.381.344-1.936-.272-.556-.616-.482-1.268-.161-2.024.183-.329.293-.69.324-1.058a2.363 2.363 0 0 0-.151-1.057c-.208-.462.699-1.645 1.37-1.925.671-.28 1.195-.002 1.531.69.161.235.352.443.568.622.423.483.859.977 1.47 1.65zm-26.097 27.866c.422.055 1.177.016 1.272.942.108 1.117-1.183 2.344-2.244 2.274a6.24 6.24 0 0 0-1.898.194c-.815.212-1.577.21-2.123-.493a1.866 1.866 0 0 1-.149-2.208c.315-.56.579-1.205.07-1.905-.13-.179.049-.69.202-.983.762-1.431 2.085-1.46 2.905-.144a9.72 9.72 0 0 0 1.155 1.167c.293.367.564.753.81 1.155zm-72.557 58.166a8.258 8.258 0 0 1 1.196-.898c.68-.356 1.414-.52 2.095.068.681.588.739 1.272.453 2.096a2.69 2.69 0 0 1-1.124 1.544 2.52 2.52 0 0 1-1.832.364c-.528-.091-1.045-.948-1.364-1.569-.32-.62-.035-1.23.576-1.605zm-3.252-3.427a23.135 23.135 0 0 1 2.476-1.227 1.602 1.602 0 0 1 1.181.082c.376.178.682.49.858.88.373.803-.024 1.41-.597 1.827-.747.501-1.541.924-2.372 1.26a1.414 1.414 0 0 1-1.045.123 1.56 1.56 0 0 1-.883-.636c-.396-.543-.18-1.468.382-2.309zm93.305-76.463c.774-.728 1.508-1.503 2.656-1.444a1.525 1.525 0 0 1 1.244.614c.145.195.245.424.293.67.048.247.042.505-.017.755a3.617 3.617 0 0 1-1.092 1.902 3.308 3.308 0 0 1-1.94.869c-.731.079-1.496-.556-1.827-1.51-.218-.659-.011-1.2.683-1.856zm-62.885 47.672a20.03 20.03 0 0 1 1.928-1.063c.299-.123.634-.131.946-.021.312.11.58.33.756.623.187.262.301.572.329.894.028.321-.031.641-.17.923-.444 1.303-1.481 1.798-2.728 1.816-.89.011-1.145-.898-1.49-1.506-.346-.609-.162-1.213.429-1.666zm-28.61 23.917c.943-1.015 2.088-.87 3.176-.815.191.011.474.575.498.906.066.696.489 1.639-.334 2.078a6.926 6.926 0 0 1-2.571.72 1.47 1.47 0 0 1-.698-.208 1.535 1.535 0 0 1-.522-.522c-.194-.429-.017-1.067.076-1.602.038-.225.273-.415.375-.557zM169 39.035a14.747 14.747 0 0 1 2.249-1.034 1.37 1.37 0 0 1 .684.043c.222.073.423.2.587.372a1.541 1.541 0 0 1 .389 1.328c-.35 1.807-1.33 2.647-2.981 2.572-.493-.023-1.05-.925-1.403-1.535-.353-.611-.027-1.192.59-1.54l-.115-.206zm-58.697 50.717a2.32 2.32 0 0 1 1.4-.872 2.097 2.097 0 0 1 1.56.314c.156.135.276.308.353.505a1.4 1.4 0 0 1 .086.627c-.28 1.564-2.024 2.705-3.482 2.383-.759-.152-1.003-1.629-.418-2.417.158-.189.325-.369.501-.54zm-69.241 47.199c1.195.339 1.486.952.872 2.11a1.9 1.9 0 0 1-.693.781c-.297.188-.64.287-.992.285-.61.014-1.216.061-1.817.142-.684.107-1.313.091-1.783-.543a1.767 1.767 0 0 1-.38-.933 1.698 1.698 0 0 1 .193-.975c.266-.558.442-1.107.053-1.765-.265-.458.437-1.479 1.14-1.801.13-.07.273-.112.42-.123.148-.011.297.008.44.057.142.048.274.126.39.227.115.102.21.225.28.364.233.314.49.609.767.881l1.11 1.293zm-7.63 6.614a8.289 8.289 0 0 1 1.196-.898c.68-.356 1.414-.519 2.095.068.682.588.74 1.272.453 2.096a2.69 2.69 0 0 1-1.123 1.545 2.525 2.525 0 0 1-1.833.363c-.528-.091-1.045-.948-1.364-1.569-.32-.62-.035-1.23.576-1.605zm-3.25-3.427c.8-.458 1.628-.867 2.476-1.226a1.605 1.605 0 0 1 1.181.081c.377.178.682.491.858.88.373.804-.024 1.411-.597 1.827-.747.502-1.541.924-2.372 1.261a1.412 1.412 0 0 1-1.044.122 1.561 1.561 0 0 1-.884-.636c-.396-.542-.18-1.468.382-2.309zm1.808-4.874c.943-1.015 2.088-.87 3.176-.815.191.011.474.575.498.907.066.695.489 1.638-.333 2.077a6.944 6.944 0 0 1-2.572.72 1.473 1.473 0 0 1-.698-.208 1.53 1.53 0 0 1-.522-.522c-.194-.429-.017-1.067.076-1.601.038-.226.273-.416.376-.558zm7.268 6.818a2.322 2.322 0 0 1 1.4-.872 2.095 2.095 0 0 1 1.56.314c.156.135.276.308.353.505a1.4 1.4 0 0 1 .086.627c-.28 1.564-2.024 2.705-3.482 2.383-.759-.152-1.002-1.629-.418-2.417.158-.189.325-.369.5-.54zM192.327 7.863c.78-.58 1.693-1.5 2.9-1.274.237.068.453.187.637.349.184.162.33.364.432.595.041.216.031.445-.028.668a1.67 1.67 0 0 1-.313.617c-.788.895-1.74 1.666-2.878 1.796a2.027 2.027 0 0 1-1.606-.398c-.453-.519-.054-1.266.393-1.855.09-.115.2-.215.463-.498zM132.473 57.11a35.542 35.542 0 0 1-3.104 1.434c-.215.04-.428.025-.62-.042a1.054 1.054 0 0 1-.483-.345 1.48 1.48 0 0 1-.091-.653c.018-.23.085-.462.195-.678a5.12 5.12 0 0 1 1.282-1.453 4.554 4.554 0 0 1 1.672-.82c.654-.202 1.555.234 1.606.847.035.477-.262 1.031-.457 1.71zm33.851-21.047c.763-.48 1.548-.915 2.35-1.3.36-.14.739-.137 1.063.004.324.141.569.412.688.76.08.304.048.643-.089.956-.136.313-.37.578-.657.75-.695.499-1.427.931-2.185 1.29-.691.332-1.454.42-1.795-.348-.341-.767.119-1.4.625-2.112zm1.426-5.132c.847-1.173 2.018-.804 3.074-.919.149-.017.448.453.461.744.019.717.502 1.684-.239 2.117a7.421 7.421 0 0 1-2.89.77 1.221 1.221 0 0 1-.613-.265 1.267 1.267 0 0 1-.388-.554c-.06-.617.229-1.3.369-1.953l.226.06zm32.739-21.14c1.031-.976 2.662-1.267 3.451-.491.08.13.129.28.145.443a1.27 1.27 0 0 1-.057.5 4.13 4.13 0 0 1-1.466 2.098c-.696.523-1.512.78-2.281.717-.611-.032-.932-.744-.625-1.654a11.78 11.78 0 0 1 .833-1.613zm-63.193 47.377a2.39 2.39 0 0 1 1.45-.633 2.79 2.79 0 0 1 1.623.385c.532.313.754 1.387.313 1.997-.73 1.029-1.642 1.768-3.083 1.48-.716-.15-1.171-.51-1.075-1.262a17.84 17.84 0 0 1 .513-2.066l.259.099zm37.053-19.003a2.35 2.35 0 0 1 1.426-.89 2.23 2.23 0 0 1 1.62.314c.122.078.226.182.305.305.079.124.133.264.156.41.079 1.645-2.173 3.286-3.665 2.705-.593-.23-.797-1.694-.33-2.312.128-.17.32-.351.488-.532zM130.301 50.67c.836-.824 2.006-.707 3.182-.602.14.03.27.112.364.23.769.959.229 2.798-.856 2.978a6.37 6.37 0 0 0-.966.27c-1.072.342-1.653.197-2.111-.552-.367-.595-.2-1.672.387-2.325zm-65.699 51.006c.785-.846 1.72-.708 2.26.257.215.272.453.524.71.753.391.478.743.992 1.134 1.463.13.168.303.293.5.361 1.036.289 1.25.712.827 1.745-.473 1.148-1.17 1.519-2.39 1.401a3.196 3.196 0 0 0-1.379.227c-.82.307-1.6.367-2.217-.332a1.771 1.771 0 0 1-.542-1.131 1.84 1.84 0 0 1 .33-1.227 1.734 1.734 0 0 0 .183-1.406c-.523-.997.22-1.48.584-2.111zm-3.658 8.862a20.08 20.08 0 0 1 1.928-1.063c.299-.124.634-.131.946-.021.312.11.58.331.756.622.187.263.301.573.33.895a1.74 1.74 0 0 1-.171.923c-.444 1.303-1.482 1.798-2.728 1.816-.89.011-1.145-.898-1.49-1.506-.346-.609-.162-1.213.429-1.666zm.823-1.907a35.466 35.466 0 0 1-3.103 1.434c-.215.04-.428.025-.62-.042a1.059 1.059 0 0 1-.483-.345 1.483 1.483 0 0 1-.09-.653c.017-.23.084-.462.194-.678a5.13 5.13 0 0 1 1.281-1.453 4.566 4.566 0 0 1 1.673-.821c.654-.201 1.555.235 1.605.848.036.477-.262 1.031-.456 1.71zm4.826.058a2.39 2.39 0 0 1 1.45-.633c.55-.045 1.116.09 1.623.385.531.313.754 1.387.313 1.997-.73 1.029-1.642 1.768-3.083 1.479-.716-.149-1.17-.509-1.075-1.261.13-.703.302-1.393.513-2.066l.26.099zm-6.997-6.499c.836-.823 2.006-.706 3.182-.601.14.03.27.112.364.23.77.959.23 2.798-.856 2.978a6.36 6.36 0 0 0-.966.27c-1.072.342-1.653.198-2.111-.552-.367-.595-.2-1.672.387-2.325zm-46.881 67.458c.918-.819 1.606-.742 2.301.37.202.299.314.64.324.985.01.345-.082.682-.266.974a15.501 15.501 0 0 0-.82 1.588c-.262.625-.603 1.141-1.403 1.203a1.883 1.883 0 0 1-1.015-.168 1.769 1.769 0 0 1-.754-.668c-.35-.512-.739-.944-1.518-.962-.538-.017-1.067-1.133-.984-1.886a1 1 0 0 1 .11-.415c.068-.129.162-.243.279-.336.116-.093.253-.163.402-.206a1.27 1.27 0 0 1 .464-.046c.397-.029.788-.09 1.17-.18l1.71-.253zm1.829 9.794a7.898 7.898 0 0 1-.165-1.463c.042-.752.28-1.448 1.149-1.71.868-.262 1.498.045 2.07.712.47.484.745 1.102.77 1.739a2.377 2.377 0 0 1-.635 1.716c-.355.393-1.374.378-2.083.321-.71-.056-1.096-.61-1.106-1.315zm-4.694.928c.016-.905.087-1.807.214-2.701.09-.385.334-.72.685-.941a1.845 1.845 0 0 1 1.217-.257c.897.107 1.223.753 1.29 1.447.05.883.007 1.764-.13 2.632a1.33 1.33 0 0 1-.436.933 1.58 1.58 0 0 1-1.016.406c-.681.048-1.38-.613-1.823-1.519zm-3.326-4.042c-.399-1.313.324-2.192.938-3.069.109-.154.75-.097 1.053.056.643.306 1.688.444 1.645 1.358a6.506 6.506 0 0 1-.706 2.517c-.136.2-.323.362-.545.473a1.584 1.584 0 0 1-.728.164c-.477-.061-.944-.541-1.363-.896-.179-.149-.222-.444-.294-.603zm9.748-2.508a2.208 2.208 0 0 1-.037-1.62 2.03 2.03 0 0 1 1.086-1.137c.2-.059.414-.07.626-.031.212.039.416.126.594.254 1.224 1.046 1.317 3.093.277 4.14-.528.553-1.948-.012-2.334-.908a7.104 7.104 0 0 1-.212-.698zm5.338 82.228c.918-.819 1.605-.743 2.3.37.203.299.315.639.325.984.01.345-.082.682-.267.975a15.317 15.317 0 0 0-.82 1.588c-.262.625-.602 1.141-1.402 1.203A1.883 1.883 0 0 1 20.73 261a1.768 1.768 0 0 1-.754-.668c-.35-.512-.74-.944-1.518-.962-.539-.017-1.068-1.133-.985-1.887a1 1 0 0 1 .111-.414c.067-.129.162-.243.278-.336.117-.093.254-.164.402-.207.149-.043.307-.058.465-.045.396-.03.788-.09 1.17-.181l1.71-.252zm1.826 9.794a7.897 7.897 0 0 1-.165-1.462c.042-.752.281-1.448 1.15-1.711.868-.262 1.497.046 2.07.713.47.483.744 1.102.769 1.739.025.637-.2 1.247-.634 1.716-.355.392-1.374.377-2.084.321-.709-.056-1.095-.611-1.106-1.316zm-4.691.929a21.81 21.81 0 0 1 .213-2.701 1.53 1.53 0 0 1 .686-.942 1.85 1.85 0 0 1 1.216-.257c.898.107 1.223.754 1.29 1.447.051.883.008 1.765-.13 2.632a1.332 1.332 0 0 1-.435.934c-.268.247-.63.391-1.016.406-.681.048-1.38-.614-1.824-1.519zm-3.328-4.041c-.4-1.313.324-2.192.937-3.069.11-.154.75-.097 1.053.056.643.306 1.689.444 1.646 1.357a6.506 6.506 0 0 1-.707 2.518c-.136.2-.323.362-.544.473a1.584 1.584 0 0 1-.729.164c-.477-.062-.943-.541-1.363-.897-.178-.149-.222-.443-.293-.602zm9.749-2.51a2.207 2.207 0 0 1-.036-1.62c.194-.51.581-.915 1.086-1.137.199-.059.413-.07.626-.031.212.039.415.126.594.254 1.224 1.046 1.316 3.093.277 4.139-.528.554-1.948-.011-2.335-.907a7.104 7.104 0 0 1-.212-.698zM2.954 218.096c-.333-1.094.274-1.801 1.4-1.748.35-.039.694-.106 1.029-.201.622-.078 1.255-.103 1.87-.184.215-.021.415-.101.577-.23.792-.712 1.274-.671 1.958.219.76.991.723 1.764-.016 2.72a3.005 3.005 0 0 0-.518 1.266c-.157.844-.51 1.524-1.443 1.674a1.87 1.87 0 0 1-1.272-.136 1.898 1.898 0 0 1-.903-.912 1.776 1.776 0 0 0-.473-.557 1.838 1.838 0 0 0-.664-.327c-1.145-.083-1.182-.952-1.545-1.584zm5.859 7.655c-.017-.722.007-1.442.072-2.158.047-.314.215-.597.473-.8.259-.203.592-.311.939-.306.327-.02.658.046.954.19.296.144.546.36.72.622.91 1.048.805 2.169.172 3.217-.453.748-1.381.487-2.094.459-.712-.029-1.146-.496-1.236-1.224zm-1.241-1.678a33.406 33.406 0 0 1-.358 3.332c-.077.199-.2.369-.359.494a1.075 1.075 0 0 1-.553.224 1.582 1.582 0 0 1-.62-.264 1.867 1.867 0 0 1-.491-.515 5 5 0 0 1-.607-1.823 4.302 4.302 0 0 1 .151-1.821c.164-.649 1.014-1.173 1.577-.897.436.219.767.755 1.26 1.27zm2.561-3.99a2.254 2.254 0 0 1 .199-1.537 2.697 2.697 0 0 1 1.181-1.152c.55-.28 1.606.093 1.912.777.521 1.143.695 2.287-.308 3.338-.503.519-1.054.711-1.663.24a18.277 18.277 0 0 1-1.543-1.502l.222-.164zm-9.33 2.45c-.287-1.126.425-2.039 1.127-2.965a.647.647 0 0 1 .391-.183c1.24-.143 2.57 1.264 2.163 2.261a5.985 5.985 0 0 0-.265.945c-.258 1.072-.687 1.48-1.582 1.472-.711-.003-1.568-.702-1.834-1.53zm79.88 103.105c-.266-1.185.147-1.727 1.483-1.756.366-.02.724.056 1.035.22.311.165.564.412.73.714.304.515.637 1.012.998 1.489.422.535.709 1.081.362 1.787-.137.31-.367.58-.658.772-.291.192-.63.297-.97.301-.63.038-1.208.15-1.615.798-.285.446-1.54.333-2.167-.116a1.027 1.027 0 0 1-.47-.704 1.1 1.1 0 0 1 .018-.443c.036-.147.102-.288.193-.415a7.15 7.15 0 0 0 .427-1.078l.634-1.569zm9.603 3.372a8.371 8.371 0 0 1-1.38-.595c-.646-.412-1.144-.963-.94-1.827.202-.864.791-1.241 1.67-1.389a2.816 2.816 0 0 1 1.928.223 2.428 2.428 0 0 1 1.204 1.396c.17.496-.355 1.349-.76 1.919-.406.57-1.092.618-1.722.273zm-1.53 4.424a22.833 22.833 0 0 1-2.288-1.535 1.511 1.511 0 0 1-.492-1.051c-.02-.407.117-.818.383-1.155.545-.703 1.282-.654 1.93-.362.809.4 1.569.878 2.27 1.43.308.188.524.486.61.835a1.5 1.5 0 0 1-.15 1.061c-.3.599-1.237.856-2.263.777zm-5.253.781c-1.365-.322-1.781-1.373-2.252-2.331-.081-.169.29-.681.578-.86.595-.389 1.242-1.202 2.03-.707a6.703 6.703 0 0 1 1.878 1.859c.109.215.16.454.146.697a1.486 1.486 0 0 1-.22.696c-.293.372-.953.525-1.478.701-.222.076-.505-.035-.682-.055zm2.664-9.485a2.334 2.334 0 0 1-1.455-.782 1.971 1.971 0 0 1-.463-1.487c.047-.198.145-.384.286-.543.14-.16.32-.288.524-.374 1.541-.508 3.403.441 3.81 1.843.226.723-.987 1.638-1.976 1.514a7.384 7.384 0 0 1-.726-.171zM37.56 305.772c-1.138-.268-1.46-1.136-.849-2.059.142-.315.255-.639.339-.969.243-.563.538-1.11.775-1.671.089-.191.119-.4.085-.601-.234-1.026.044-1.411 1.177-1.542 1.26-.145 1.927.275 2.404 1.378.2.414.493.78.863 1.072.67.556 1.096 1.195.761 2.058a1.793 1.793 0 0 1-.759 1.005c-.373.241-.823.35-1.262.304a1.85 1.85 0 0 0-1.354.515c-.648.925-1.438.52-2.18.51zm9.728-1.104a20.094 20.094 0 0 1-1.878-1.144 1.25 1.25 0 0 1-.472-.8c-.05-.32.02-.655.199-.945a1.865 1.865 0 0 1 1.56-1.005c1.386-.243 2.328.409 2.94 1.469.436.756-.26 1.409-.644 1.996-.382.587-1.015.718-1.705.429zm-2.111.206a35.39 35.39 0 0 1 2.776 1.973c.138.166.227.355.258.551a1.01 1.01 0 0 1-.079.579c-.143.163-.33.296-.545.39a1.925 1.925 0 0 1-.704.157 5.319 5.319 0 0 1-1.92-.403 4.516 4.516 0 0 1-1.54-1.04c-.493-.464-.532-1.444-.004-1.78.412-.259 1.054-.269 1.758-.427zm-2.254-4.163a2.353 2.353 0 0 1-1.263-.939 2.616 2.616 0 0 1-.429-1.574c.027-.605.888-1.309 1.648-1.223 1.276.133 2.378.561 2.806 1.933.208.685.102 1.247-.621 1.525-.696.224-1.399.407-2.106.547l-.035-.269zm-2.508 9.102c-1.142-.323-1.595-1.382-2.063-2.439a.61.61 0 0 1 .034-.422c.495-1.117 2.41-1.534 3.09-.69.216.251.452.485.705.698.82.755.968 1.321.512 2.073-.36.598-1.41.97-2.278.78zM193.33 2.873a4.53 4.53 0 0 1 1.633-.722 4.15 4.15 0 0 1 1.733-.012.617.617 0 0 1 .314.159c.641.647.097 2.843-.791 3.177-.538.155-1.069.344-1.59.564a1.4 1.4 0 0 1-.998.223 1.277 1.277 0 0 1-.838-.528c-.546-.603-.297-1.228-.124-1.849.169-.369.392-.71.661-1.012z" fill="#000" fill-opacity=".7"/></svg>