<svg width="290" height="218" fill="none" xmlns="http://www.w3.org/2000/svg"><path d="M207.932 152.726c.04-1.213.576-1.64 1.879-1.348.36.068.688.227.948.461s.443.533.529.867c.165.571.363 1.133.593 1.681.275.619.416 1.218-.097 1.819a1.84 1.84 0 0 1-.833.591 1.81 1.81 0 0 1-1.016.06c-.62-.113-1.209-.143-1.766.388-.388.364-1.577-.046-2.072-.63a1.012 1.012 0 0 1-.279-.796c.013-.146.057-.291.129-.425.072-.133.171-.254.292-.355.254-.298.484-.613.684-.944l1.009-1.369zm-39.991-13.36c-1.035-.532-1.13-1.45-.305-2.199.216-.271.407-.558.571-.858.378-.488.801-.948 1.171-1.435.135-.164.216-.359.235-.562.03-1.051.397-1.358 1.527-1.215 1.258.162 1.799.728 1.985 1.911.089.449.283.874.567 1.246.51.699.762 1.421.221 2.177a1.826 1.826 0 0 1-.988.793 1.965 1.965 0 0 1-1.3-.007 1.859 1.859 0 0 0-1.442.176c-.861.742-1.525.16-2.242-.027zm-61.486-52.921c-.392-.908.473-1.37 1.586-1.135.482.1.924.329 1.263.653.34.325.561.73.632 1.16.135.465.343.913.619 1.332.344.625.685 1.22.211 1.897-.474.678-1.14.77-1.971.655a2.806 2.806 0 0 0-1.13-.043 2.517 2.517 0 0 0-1.013.404c-.407.312-1.807-.251-2.252-.816-.444-.565-.298-1.129.306-1.618.192-.21.352-.442.476-.69.374-.52.757-1.055 1.273-1.799zm34.154 17.737c-.049-.412-.276-1.115.62-1.435 1.083-.38 2.622.535 2.815 1.555.126.611.35 1.199.665 1.745.413.718.6 1.438.038 2.128a1.929 1.929 0 0 1-.963.68c-.39.124-.81.128-1.193.009-.634-.159-1.341-.248-1.91.407-.145.167-.698.125-1.026.054-1.611-.365-1.967-1.608-.864-2.709.331-.439.623-.901.872-1.381.291-.369.607-.72.946-1.053zm75.785 54.109a8.33 8.33 0 0 1-1.189-.907c-.522-.554-.866-1.207-.452-1.997.414-.789 1.079-1.013 1.969-.947.683.009 1.328.25 1.813.677.485.428.775 1.011.816 1.641.041.522-.682 1.223-1.219 1.679-.537.456-1.214.338-1.738-.146zm-2.595 3.923a22.447 22.447 0 0 1-1.833-2.035 1.493 1.493 0 0 1-.212-1.136c.082-.399.318-.766.661-1.029.705-.551 1.407-.327 1.962.11a12.71 12.71 0 0 1 1.841 1.929c.251.256.387.597.381.956a1.504 1.504 0 0 1-.412.993c-.44.509-1.413.534-2.388.212zM114.69 93.046c-.915-.55-1.868-1.051-2.094-2.15a1.418 1.418 0 0 1-.017-.698c.052-.23.161-.444.318-.63a1.71 1.71 0 0 1 .593-.444c.233-.106.49-.165.754-.171a3.809 3.809 0 0 1 2.16.559c.635.394 1.108.964 1.344 1.618.26.67-.181 1.551-1.046 2.1-.599.37-1.189.309-2.012-.184zm62.961 47.577a19.933 19.933 0 0 1-1.533-1.558 1.233 1.233 0 0 1-.257-.889c.032-.322.185-.63.431-.869a1.89 1.89 0 0 1 .806-.533c.312-.106.645-.13.959-.068 1.405.096 2.154.953 2.481 2.127.233.837-.607 1.304-1.126 1.781-.518.478-1.164.454-1.761.009zm30.858 21.092c-1.242-.639-1.382-1.757-1.597-2.798-.037-.183.452-.591.776-.696.674-.235 1.505-.869 2.145-.201a6.593 6.593 0 0 1 1.354 2.251c.052.235.04.479-.033.711a1.51 1.51 0 0 1-.388.623c-.378.29-1.056.281-1.61.326-.234.02-.481-.155-.647-.216zm-59.979-51.421a14.33 14.33 0 0 1-1.585-1.868 1.264 1.264 0 0 1-.127-.657c.016-.227.093-.449.223-.647.13-.197.31-.364.523-.486.213-.121.453-.194.7-.212 1.881-.117 2.958.6 3.294 2.179.1.47-.658 1.222-1.177 1.707-.518.485-1.177.321-1.674-.176l-.177.16zm64.947 42.862a2.291 2.291 0 0 1-1.214-1.106 1.955 1.955 0 0 1-.076-1.552c.095-.181.237-.338.414-.459.176-.121.383-.202.601-.237 1.623-.124 3.189 1.241 3.231 2.698.038.755-1.368 1.352-2.296.995a7.323 7.323 0 0 1-.66-.339zm64.068 53.7c.04-1.213.577-1.64 1.879-1.348.36.067.688.227.948.461.261.234.444.533.529.867.165.571.363 1.133.593 1.681.276.619.416 1.217-.097 1.819a1.836 1.836 0 0 1-.832.591 1.814 1.814 0 0 1-1.017.06c-.62-.113-1.208-.143-1.766.388-.388.364-1.576-.046-2.072-.63a1.02 1.02 0 0 1-.279-.796 1.11 1.11 0 0 1 .13-.425 1.22 1.22 0 0 1 .291-.355 7.2 7.2 0 0 0 .685-.944l1.008-1.369zm8.462 5.564a8.249 8.249 0 0 1-1.188-.907c-.523-.554-.867-1.207-.453-1.996.414-.79 1.08-1.014 1.969-.948a2.79 2.79 0 0 1 1.813.678c.485.427.775 1.011.816 1.64.041.522-.682 1.223-1.219 1.679-.536.456-1.213.339-1.738-.146zm-2.595 3.924a22.598 22.598 0 0 1-1.833-2.035 1.498 1.498 0 0 1-.212-1.136c.083-.4.318-.766.661-1.029.705-.552 1.407-.328 1.963.11a12.76 12.76 0 0 1 1.841 1.929c.251.256.386.597.38.956a1.5 1.5 0 0 1-.412.993c-.44.509-1.413.534-2.388.212zm-5.29-.5c-1.242-.638-1.382-1.757-1.597-2.798-.037-.183.452-.591.776-.696.674-.235 1.506-.868 2.146-.2a6.615 6.615 0 0 1 1.354 2.251c.051.235.04.478-.034.71a1.493 1.493 0 0 1-.388.623c-.378.291-1.056.281-1.61.326-.233.021-.48-.155-.647-.216zm4.968-8.559a2.287 2.287 0 0 1-1.214-1.106 1.955 1.955 0 0 1-.076-1.552c.095-.18.237-.337.414-.458s.383-.203.602-.237c1.622-.125 3.189 1.24 3.231 2.697.037.755-1.369 1.352-2.297.996a7.467 7.467 0 0 1-.66-.34zM111.779 95.995c-.771-.593-1.911-1.227-1.986-2.424.009-.24.073-.475.189-.688a1.72 1.72 0 0 1 .483-.557c.205-.091.435-.139.671-.138.237 0 .473.049.691.141 1.083.524 2.086 1.23 2.498 2.274a1.9 1.9 0 0 1 .004 1.616c-.404.557-1.245.365-1.941.089-.136-.056-.263-.136-.609-.313zm63.774 44.323c.78.83 1.513 1.69 2.195 2.576.093.193.131.398.112.596a1.015 1.015 0 0 1-.222.542 1.58 1.58 0 0 1-.627.248c-.233.04-.479.034-.721-.016a5.275 5.275 0 0 1-1.762-.85 4.44 4.44 0 0 1-1.23-1.376c-.362-.568-.153-1.527.443-1.727.465-.152 1.089-.009 1.812.007zm-29.311-26.759a23.125 23.125 0 0 1-1.875-1.897 1.308 1.308 0 0 1-.26-1.006c.06-.341.269-.64.584-.839.283-.15.627-.205.972-.153.344.051.666.206.907.435.669.532 1.28 1.116 1.824 1.743.502.571.779 1.27.101 1.783-.678.512-1.42.235-2.253-.066zm-5.45-.073c-1.375-.509-1.299-1.707-1.676-2.676-.054-.136.339-.536.624-.62.708-.196 1.548-.893 2.162-.3a7.063 7.063 0 0 1 1.482 2.539c.026.221-.012.443-.11.645a1.275 1.275 0 0 1-.454.504c-.598.21-1.348.107-2.032.137l.004-.229zm-29.124-25.682c-1.225-.731-1.92-2.2-1.345-3.138.109-.108.246-.192.404-.247a1.37 1.37 0 0 1 .511-.07c.88.027 1.755.336 2.447.864.692.527 1.149 1.234 1.279 1.977.12.585-.508 1.065-1.488 1.001a12.374 12.374 0 0 1-1.808-.387zm62.744 47.939a2.321 2.321 0 0 1-.989-1.212 2.61 2.61 0 0 1-.02-1.629c.178-.58 1.19-1.057 1.905-.792 1.203.434 2.164 1.112 2.235 2.545.029.714-.215 1.233-.986 1.329-.73.052-1.458.061-2.179.028l.034-.269zm-28.075-30.288a2.326 2.326 0 0 1-1.238-1.126 2.088 2.088 0 0 1-.091-1.61.995.995 0 0 1 .228-.363 1.11 1.11 0 0 1 .369-.25c1.613-.482 3.802 1.238 3.595 2.792-.081.617-1.484 1.173-2.213.886-.201-.079-.429-.216-.65-.329zm23.357 38.513c-1.025-.586-1.199-1.721-1.387-2.858a.611.611 0 0 1 .138-.4c.761-.966 2.722-.912 3.17.069.146.295.316.578.508.845.606.928.607 1.512-.024 2.132-.5.494-1.611.604-2.405.212zm66.971 49.405c-1.035-.532-1.129-1.449-.304-2.198.216-.272.407-.559.571-.859.377-.488.8-.948 1.171-1.435.134-.164.216-.359.234-.562.03-1.051.397-1.358 1.528-1.214 1.258.161 1.799.727 1.985 1.91.089.45.282.875.567 1.246.509.699.762 1.421.221 2.177a1.822 1.822 0 0 1-.988.793 1.968 1.968 0 0 1-1.301-.007 1.838 1.838 0 0 0-.739-.058c-.249.03-.489.11-.703.234-.86.742-1.524.161-2.242-.027zm9.711 1.257a19.433 19.433 0 0 1-1.534-1.558 1.234 1.234 0 0 1-.256-.888c.032-.322.184-.63.43-.87a1.902 1.902 0 0 1 1.766-.601c1.405.096 2.154.953 2.481 2.127.232.838-.607 1.304-1.126 1.782-.518.477-1.164.453-1.761.008zm-2.099-.305c.781.83 1.513 1.69 2.195 2.576.093.193.132.398.113.596a1.023 1.023 0 0 1-.223.543 1.573 1.573 0 0 1-.626.247c-.233.04-.479.035-.721-.016a5.273 5.273 0 0 1-1.762-.849 4.43 4.43 0 0 1-1.23-1.377c-.362-.568-.153-1.527.442-1.727.465-.152 1.09-.009 1.812.007zm-1.14-4.575a2.304 2.304 0 0 1-.989-1.212 2.596 2.596 0 0 1-.02-1.629c.178-.58 1.189-1.057 1.904-.792 1.204.434 2.165 1.112 2.235 2.546.03.713-.214 1.232-.985 1.329-.731.051-1.459.06-2.18.028l.035-.27zm-4.716 8.225c-1.026-.586-1.2-1.721-1.388-2.857a.615.615 0 0 1 .139-.401c.761-.965 2.722-.912 3.17.069.146.295.316.578.507.845.607.928.607 1.513-.024 2.132-.499.494-1.61.604-2.404.212zM106.575 96.286a4.39 4.39 0 0 1-1.122-1.364 3.867 3.867 0 0 1-.442-1.634.587.587 0 0 1 .079-.336c.484-.766 2.799-.798 3.351-.042.289.47.608.925.956 1.363.274.236.441.552.469.887.028.335-.084.664-.316.923-.463.665-1.145.586-1.805.576a4.245 4.245 0 0 1-1.17-.373zM49.914 46.725c-.392-.909.473-1.37 1.586-1.135.482.1.924.328 1.263.653.34.325.56.73.632 1.16.135.464.343.913.62 1.332.343.625.684 1.219.21 1.897-.474.678-1.14.77-1.97.655a2.808 2.808 0 0 0-1.131-.044 2.514 2.514 0 0 0-1.013.405c-.407.312-1.807-.251-2.252-.816-.444-.565-.299-1.129.306-1.618a3.05 3.05 0 0 0 .476-.69c.374-.52.757-1.055 1.273-1.8zm34.154 17.737c-.05-.413-.276-1.116.62-1.435 1.083-.38 2.622.535 2.816 1.554.125.612.35 1.2.664 1.746.412.718.6 1.438.038 2.128a1.925 1.925 0 0 1-.963.68c-.39.124-.81.128-1.193.009-.634-.159-1.341-.248-1.91.407-.145.167-.698.125-1.026.053-1.61-.365-1.967-1.608-.864-2.709.33-.438.623-.9.872-1.38.29-.369.607-.72.946-1.053zM58.149 53.326c-.915-.55-1.868-1.051-2.094-2.151a1.426 1.426 0 0 1-.017-.697c.052-.23.16-.445.318-.63.158-.186.36-.338.593-.444.233-.106.49-.165.754-.172a3.808 3.808 0 0 1 2.16.56c.635.394 1.108.963 1.344 1.618.26.67-.18 1.551-1.046 2.1-.6.37-1.19.309-2.012-.184zm33.84 17.248a14.342 14.342 0 0 1-1.585-1.868c-.1-.205-.144-.43-.127-.657.016-.228.093-.45.223-.647s.31-.364.523-.486c.213-.121.453-.194.7-.212 1.881-.117 2.958.6 3.294 2.178.1.471-.658 1.222-1.177 1.708-.518.485-1.177.32-1.674-.176l-.177.16zM55.238 56.275c-.771-.593-1.911-1.227-1.986-2.424a1.57 1.57 0 0 1 .189-.689 1.74 1.74 0 0 1 .483-.556c.205-.092.435-.14.671-.139.237 0 .473.05.69.142 1.084.523 2.087 1.23 2.499 2.273.242.532.243 1.111.004 1.617-.404.557-1.245.365-1.94.089-.137-.056-.264-.136-.61-.313zm34.463 17.564a23.134 23.134 0 0 1-1.875-1.897 1.308 1.308 0 0 1-.26-1.006c.06-.341.269-.64.584-.839.283-.15.627-.205.972-.154.344.052.666.206.907.436.669.532 1.28 1.116 1.824 1.743.502.57.779 1.27.101 1.783-.678.512-1.42.235-2.253-.066zm-5.451-.073c-1.374-.51-1.298-1.707-1.675-2.677-.054-.136.339-.536.624-.62.707-.195 1.548-.892 2.162-.3a7.054 7.054 0 0 1 1.481 2.54 1.13 1.13 0 0 1-.11.644 1.276 1.276 0 0 1-.453.505c-.598.21-1.349.107-2.032.136l.004-.228zM55.127 48.084c-1.225-.731-1.92-2.2-1.345-3.138.109-.108.246-.192.404-.247a1.37 1.37 0 0 1 .51-.07 4.303 4.303 0 0 1 2.448.863c.692.528 1.15 1.235 1.279 1.978.12.585-.508 1.065-1.488 1.001a12.372 12.372 0 0 1-1.808-.387zm34.669 17.65a2.32 2.32 0 0 1-1.238-1.126 2.085 2.085 0 0 1-.09-1.609 1 1 0 0 1 .227-.363 1.11 1.11 0 0 1 .369-.25c1.613-.483 3.802 1.238 3.595 2.792-.08.617-1.484 1.173-2.213.886-.201-.08-.43-.216-.65-.33zm-39.762-9.168a4.394 4.394 0 0 1-1.122-1.364 3.868 3.868 0 0 1-.442-1.634.586.586 0 0 1 .079-.336c.484-.767 2.8-.799 3.351-.042.289.47.608.925.956 1.363.274.236.441.552.47.887.027.335-.086.664-.317.923-.463.665-1.145.586-1.806.576a4.251 4.251 0 0 1-1.17-.373zM2.914 2.725c-.393-.909.473-1.37 1.586-1.135.482.1.924.328 1.263.653.34.325.56.73.632 1.16.135.464.343.913.62 1.332.343.625.684 1.219.21 1.897-.474.678-1.14.77-1.97.655a2.808 2.808 0 0 0-1.131-.043 2.514 2.514 0 0 0-1.013.404c-.407.312-1.807-.251-2.252-.816-.444-.565-.299-1.129.306-1.618a3.05 3.05 0 0 0 .476-.69c.374-.52.757-1.055 1.273-1.8zm34.154 17.737c-.05-.413-.276-1.116.62-1.435 1.083-.38 2.622.535 2.816 1.554.125.612.35 1.2.664 1.746.413.718.6 1.438.038 2.128a1.925 1.925 0 0 1-.963.68c-.39.124-.81.128-1.193.009-.634-.159-1.341-.248-1.91.407-.145.167-.698.125-1.026.054-1.61-.366-1.967-1.609-.864-2.71.33-.438.623-.9.872-1.38.29-.369.607-.72.946-1.053zM11.149 9.326c-.915-.55-1.868-1.051-2.094-2.151a1.425 1.425 0 0 1-.017-.697c.052-.23.16-.445.318-.63.158-.186.36-.338.593-.444.233-.106.49-.165.754-.172a3.81 3.81 0 0 1 2.16.56c.635.394 1.108.963 1.344 1.618.26.67-.18 1.551-1.046 2.1-.6.37-1.19.309-2.012-.184zm33.84 17.248a14.342 14.342 0 0 1-1.585-1.868c-.1-.204-.144-.43-.128-.657.017-.228.094-.45.224-.647s.31-.364.523-.486c.213-.121.453-.194.7-.212 1.881-.117 2.958.6 3.294 2.178.1.471-.658 1.222-1.177 1.708-.518.485-1.177.32-1.674-.176l-.177.16zM8.238 12.275c-.771-.594-1.911-1.227-1.986-2.424.01-.24.073-.475.189-.689a1.74 1.74 0 0 1 .483-.556c.205-.092.435-.14.671-.139.237 0 .473.05.69.142 1.084.523 2.087 1.23 2.499 2.274a1.9 1.9 0 0 1 .004 1.616c-.404.557-1.245.365-1.94.089-.137-.056-.264-.136-.61-.313zm34.463 17.564a23.134 23.134 0 0 1-1.876-1.897 1.308 1.308 0 0 1-.259-1.006c.06-.341.269-.64.584-.839.283-.15.627-.205.972-.154.344.052.666.206.907.436.669.532 1.28 1.116 1.824 1.743.502.57.779 1.27.101 1.783-.678.512-1.42.235-2.253-.066zm-5.451-.073c-1.374-.51-1.298-1.707-1.675-2.676-.054-.137.339-.537.624-.62.708-.197 1.548-.893 2.162-.3a7.054 7.054 0 0 1 1.482 2.539c.026.221-.012.443-.11.644a1.276 1.276 0 0 1-.454.505c-.598.21-1.349.107-2.032.136l.004-.228zM8.127 4.084c-1.225-.731-1.92-2.2-1.345-3.138.109-.108.246-.192.404-.247.158-.055.332-.079.51-.07a4.303 4.303 0 0 1 2.448.863c.692.528 1.15 1.235 1.279 1.978.12.585-.508 1.065-1.488 1.001a12.373 12.373 0 0 1-1.808-.387zm34.669 17.65a2.32 2.32 0 0 1-1.238-1.126 2.085 2.085 0 0 1-.09-1.609 1 1 0 0 1 .227-.363 1.11 1.11 0 0 1 .369-.25c1.613-.483 3.802 1.238 3.595 2.792-.08.616-1.484 1.173-2.213.886-.201-.08-.43-.216-.65-.33zM3.034 12.566a4.394 4.394 0 0 1-1.122-1.364 3.87 3.87 0 0 1-.442-1.634.587.587 0 0 1 .079-.336c.484-.767 2.8-.799 3.351-.042.289.47.608.925.956 1.363.274.236.441.552.47.887.027.335-.085.664-.317.923-.463.665-1.145.585-1.805.576a4.252 4.252 0 0 1-1.17-.373z" fill="#000" fill-opacity=".7"/></svg>