<svg width="206" height="335" fill="none" xmlns="http://www.w3.org/2000/svg"><path d="M93.623 84.62c-1.194.34-1.485.953-.872 2.11.157.324.397.594.694.782.297.188.64.286.992.285.609.014 1.215.061 1.817.142.683.107 1.312.091 1.782-.543.214-.266.347-.592.38-.933a1.697 1.697 0 0 0-.192-.975c-.266-.558-.442-1.107-.054-1.765.266-.458-.436-1.479-1.14-1.801a1.06 1.06 0 0 0-.42-.123 1.095 1.095 0 0 0-.44.056 1.16 1.16 0 0 0-.389.228c-.115.102-.21.225-.281.364-.232.314-.489.61-.767.88l-1.11 1.294zM70.426 50.154c-.786-.846-1.72-.707-2.26.258a6.109 6.109 0 0 1-.71.753c-.392.478-.743.992-1.135 1.463-.13.168-.303.293-.5.361-1.036.29-1.25.712-.826 1.745.472 1.148 1.169 1.52 2.39 1.401.468-.027.938.05 1.378.227.82.307 1.6.367 2.217-.333a1.77 1.77 0 0 0 .542-1.13 1.839 1.839 0 0 0-.33-1.227 1.735 1.735 0 0 1-.183-1.406c.523-.997-.22-1.48-.583-2.111zM2.598 5.203c-1-.145-1.244.788-.733 1.78.219.432.555.792.962 1.032.407.24.864.348 1.308.31.496.011.993.097 1.477.253.706.17 1.381.344 1.937-.272.555-.616.481-1.268.16-2.024a2.625 2.625 0 0 1-.323-1.058c-.03-.367.021-.729.15-1.057.209-.462-.698-1.645-1.37-1.925-.67-.28-1.195-.002-1.53.69a3.08 3.08 0 0 1-.568.622c-.424.483-.86.977-1.47 1.65zm26.096 27.866c-.422.055-1.176.016-1.271.942-.108 1.117 1.183 2.344 2.243 2.274a6.24 6.24 0 0 1 1.898.194c.816.212 1.578.21 2.124-.493.255-.299.408-.678.435-1.078.027-.4-.074-.797-.287-1.13-.315-.56-.579-1.205-.07-1.905.13-.179-.049-.69-.201-.983-.763-1.431-2.086-1.46-2.905-.144-.354.422-.74.813-1.155 1.167a11.07 11.07 0 0 0-.81 1.155zm72.557 58.166a8.304 8.304 0 0 0-1.195-.898c-.68-.356-1.415-.52-2.096.068-.681.588-.738 1.272-.452 2.096a2.688 2.688 0 0 0 1.123 1.544 2.522 2.522 0 0 0 1.832.364c.529-.091 1.045-.948 1.365-1.569.319-.62.035-1.23-.577-1.605zm3.252-3.427c-.8-.458-1.627-.868-2.476-1.227a1.603 1.603 0 0 0-1.181.082c-.376.178-.681.49-.857.88-.373.803.024 1.41.597 1.827.746.501 1.541.924 2.372 1.26.317.174.689.218 1.044.123.355-.095.67-.321.884-.636.396-.543.18-1.468-.383-2.309zM11.198 11.345c-.774-.728-1.507-1.503-2.656-1.444a1.528 1.528 0 0 0-1.243.614 1.644 1.644 0 0 0-.293.67c-.048.247-.042.505.016.755.158.731.543 1.4 1.092 1.902a3.31 3.31 0 0 0 1.941.869c.73.079 1.496-.556 1.827-1.51.218-.659.01-1.2-.684-1.856zm62.886 47.672a20.054 20.054 0 0 0-1.928-1.063 1.32 1.32 0 0 0-.947-.021c-.311.11-.58.33-.756.623a1.817 1.817 0 0 0-.329.894 1.74 1.74 0 0 0 .17.923c.445 1.303 1.482 1.798 2.729 1.816.89.011 1.144-.898 1.49-1.506.345-.609.161-1.213-.43-1.666zm28.609 23.917c-.942-1.015-2.088-.87-3.175-.815-.191.011-.475.575-.499.906-.066.696-.488 1.639.334 2.078.809.406 1.681.65 2.572.72a1.47 1.47 0 0 0 .697-.208c.213-.127.392-.306.522-.522.195-.429.017-1.067-.076-1.602-.037-.225-.273-.415-.375-.557zM36.73 39.035a14.785 14.785 0 0 0-2.248-1.034 1.367 1.367 0 0 0-.685.043 1.42 1.42 0 0 0-.586.372 1.505 1.505 0 0 0-.353.615c-.068.231-.08.476-.037.714.35 1.806 1.33 2.646 2.982 2.571.492-.023 1.05-.925 1.403-1.535.353-.611.026-1.192-.59-1.54l.114-.206zm58.698 50.717a2.323 2.323 0 0 0-1.4-.872 2.098 2.098 0 0 0-1.56.314 1.28 1.28 0 0 0-.353.505 1.388 1.388 0 0 0-.086.627c.279 1.564 2.024 2.705 3.481 2.383.76-.152 1.003-1.629.419-2.417a7.296 7.296 0 0 0-.501-.54zm69.24 47.199c-1.194.339-1.485.952-.872 2.11.157.323.397.594.694.781.297.188.64.287.992.285.609.014 1.215.061 1.817.142.683.107 1.312.091 1.782-.543.214-.266.347-.592.381-.933a1.703 1.703 0 0 0-.193-.975c-.266-.558-.442-1.107-.054-1.765.266-.458-.436-1.479-1.14-1.801a1.051 1.051 0 0 0-.42-.123 1.145 1.145 0 0 0-.829.284 1.221 1.221 0 0 0-.281.364 7.315 7.315 0 0 1-.767.881l-1.11 1.293zm7.63 6.614a8.265 8.265 0 0 0-1.196-.898c-.68-.356-1.414-.519-2.095.068-.681.588-.739 1.272-.452 2.096a2.686 2.686 0 0 0 1.123 1.545 2.524 2.524 0 0 0 1.832.363c.529-.091 1.045-.948 1.365-1.569.319-.62.035-1.23-.577-1.605zm3.25-3.427c-.8-.458-1.627-.867-2.476-1.226a1.604 1.604 0 0 0-1.181.081 1.786 1.786 0 0 0-.857.88c-.373.804.024 1.411.596 1.827.747.502 1.542.924 2.373 1.261.317.173.688.217 1.044.122.355-.095.67-.321.884-.636.396-.542.179-1.468-.383-2.309zm-1.808-4.874c-.943-1.015-2.088-.87-3.175-.815-.192.011-.475.575-.499.907-.066.695-.488 1.638.334 2.077.809.406 1.681.65 2.572.72a1.47 1.47 0 0 0 .697-.208c.212-.127.392-.306.522-.522.195-.429.017-1.067-.076-1.601-.038-.226-.273-.416-.375-.558zm-7.267 6.818a2.323 2.323 0 0 0-1.4-.872 2.096 2.096 0 0 0-1.561.314 1.279 1.279 0 0 0-.352.505 1.373 1.373 0 0 0-.086.627c.279 1.564 2.024 2.705 3.481 2.383.759-.152 1.003-1.629.419-2.417a7.326 7.326 0 0 0-.501-.54zM13.404 7.863c-.78-.58-1.694-1.5-2.9-1.274a1.65 1.65 0 0 0-.638.349c-.183.162-.33.364-.432.595-.04.216-.03.445.029.668.06.224.166.435.312.617.789.895 1.74 1.666 2.878 1.796a2.027 2.027 0 0 0 1.607-.398c.453-.519.053-1.266-.394-1.855-.09-.115-.2-.215-.462-.498zM73.258 57.11a35.47 35.47 0 0 0 3.104 1.434c.215.04.427.025.62-.042a1.06 1.06 0 0 0 .483-.345c.078-.2.108-.423.09-.653a1.806 1.806 0 0 0-.195-.677 5.118 5.118 0 0 0-1.281-1.454 4.556 4.556 0 0 0-1.673-.82c-.654-.202-1.554.234-1.605.847-.036.477.262 1.031.457 1.71zM39.407 36.063a23.6 23.6 0 0 0-2.35-1.3 1.399 1.399 0 0 0-1.064.004 1.26 1.26 0 0 0-.687.76 1.47 1.47 0 0 0 .088.956c.137.313.37.578.658.75.695.499 1.426.931 2.184 1.29.691.332 1.455.42 1.795-.348.341-.767-.119-1.4-.624-2.112zm-1.427-5.132c-.847-1.173-2.017-.804-3.074-.919-.148-.017-.448.453-.46.744-.02.717-.503 1.684.239 2.117a7.42 7.42 0 0 0 2.89.77 1.22 1.22 0 0 0 .612-.265c.175-.143.31-.334.389-.554.06-.617-.23-1.3-.37-1.953l-.226.06zM5.241 9.791c-1.03-.976-2.662-1.267-3.45-.491-.08.13-.13.28-.145.443-.015.163.004.333.056.5a4.13 4.13 0 0 0 1.466 2.098c.696.523 1.512.78 2.282.717.61-.032.931-.744.625-1.654A11.702 11.702 0 0 0 5.24 9.79zm63.193 47.377a2.391 2.391 0 0 0-1.45-.633 2.79 2.79 0 0 0-1.622.385c-.532.313-.754 1.387-.314 1.997.73 1.029 1.642 1.768 3.083 1.48.716-.15 1.171-.51 1.076-1.262a17.66 17.66 0 0 0-.514-2.066l-.259.099zM31.381 38.165a2.35 2.35 0 0 0-1.425-.89 2.233 2.233 0 0 0-1.621.314 1.017 1.017 0 0 0-.305.305 1.094 1.094 0 0 0-.156.41c-.078 1.645 2.174 3.286 3.666 2.705.592-.23.796-1.694.33-2.312-.129-.17-.32-.351-.489-.532zM75.43 50.67c-.837-.824-2.007-.707-3.183-.602a.64.64 0 0 0-.363.23c-.77.959-.23 2.798.856 2.978.33.065.652.155.965.27 1.072.342 1.653.197 2.112-.552.366-.595.2-1.672-.387-2.325zm65.699 51.006c-.786-.846-1.72-.708-2.26.257a6.029 6.029 0 0 1-.71.753c-.392.478-.743.992-1.134 1.463a1.08 1.08 0 0 1-.501.361c-1.036.289-1.25.712-.826 1.745.472 1.148 1.169 1.519 2.39 1.401.469-.027.938.05 1.378.227.821.307 1.6.367 2.217-.332.31-.292.503-.695.542-1.131a1.842 1.842 0 0 0-.329-1.227 1.731 1.731 0 0 1-.184-1.406c.523-.997-.219-1.48-.583-2.111zm3.658 8.862a20.08 20.08 0 0 0-1.928-1.063 1.318 1.318 0 0 0-.946-.021 1.46 1.46 0 0 0-.757.622 1.819 1.819 0 0 0-.329.895c-.028.321.031.641.171.923.444 1.303 1.481 1.798 2.728 1.816.89.011 1.145-.898 1.49-1.506.346-.609.161-1.213-.429-1.666zm-.824-1.907a35.54 35.54 0 0 0 3.104 1.434c.215.04.427.025.619-.042s.358-.186.484-.345c.078-.2.108-.423.09-.653a1.796 1.796 0 0 0-.195-.678 5.143 5.143 0 0 0-1.281-1.453 4.56 4.56 0 0 0-1.673-.821c-.654-.201-1.554.235-1.605.848-.036.477.262 1.031.457 1.71zm-4.826.058a2.39 2.39 0 0 0-1.449-.633 2.785 2.785 0 0 0-1.623.385c-.532.313-.754 1.387-.314 1.997.73 1.029 1.642 1.768 3.083 1.479.717-.149 1.171-.509 1.076-1.261a17.615 17.615 0 0 0-.514-2.066l-.259.099zm6.998-6.499c-.837-.823-2.007-.706-3.183-.601a.64.64 0 0 0-.363.23c-.77.959-.23 2.798.856 2.978.33.065.652.155.965.27 1.072.342 1.653.198 2.112-.552.366-.595.199-1.672-.387-2.325zm46.88 67.458c-.918-.819-1.605-.742-2.301.37-.202.299-.314.64-.324.985-.01.345.082.682.267.974.304.515.578 1.045.82 1.588.262.625.602 1.141 1.402 1.203.345.04.699-.019 1.015-.168.317-.15.58-.383.754-.668.35-.512.739-.944 1.518-.962.539-.017 1.068-1.133.985-1.886a1.018 1.018 0 0 0-.389-.751 1.17 1.17 0 0 0-.402-.206 1.274 1.274 0 0 0-.465-.046 7.495 7.495 0 0 1-1.17-.18l-1.71-.253zm-1.828 9.794c.1-.484.156-.974.165-1.463-.042-.752-.281-1.448-1.149-1.71-.869-.262-1.498.045-2.071.712a2.658 2.658 0 0 0-.769 1.739 2.377 2.377 0 0 0 .634 1.716c.355.393 1.374.378 2.084.321.709-.056 1.095-.61 1.106-1.315zm4.693.928a21.768 21.768 0 0 0-.213-2.701 1.531 1.531 0 0 0-.686-.941 1.843 1.843 0 0 0-1.216-.257c-.898.107-1.223.753-1.29 1.447-.051.883-.008 1.764.129 2.632.013.354.168.687.436.933a1.58 1.58 0 0 0 1.016.406c.682.048 1.38-.613 1.824-1.519zm3.326-4.042c.399-1.313-.324-2.192-.937-3.069-.109-.154-.75-.097-1.053.056-.643.306-1.689.444-1.646 1.358.065.885.305 1.739.707 2.517.136.2.323.362.544.473.222.111.472.167.729.164.477-.061.943-.541 1.363-.896.178-.149.222-.444.293-.603zm-9.747-2.508a2.21 2.21 0 0 0 .036-1.62 2.024 2.024 0 0 0-1.086-1.137 1.347 1.347 0 0 0-.626-.031 1.485 1.485 0 0 0-.594.254c-1.224 1.046-1.316 3.093-.277 4.14.528.553 1.948-.012 2.335-.908a7.27 7.27 0 0 0 .212-.698zm-5.338 82.228c-.918-.819-1.606-.743-2.301.37a1.855 1.855 0 0 0-.324.984c-.01.345.082.682.266.975.305.514.578 1.044.82 1.588.262.625.603 1.141 1.403 1.203.344.04.699-.019 1.015-.168.316-.15.579-.383.754-.668.35-.512.739-.944 1.518-.962.538-.017 1.067-1.133.984-1.887a.987.987 0 0 0-.111-.414 1.043 1.043 0 0 0-.278-.336 1.164 1.164 0 0 0-.402-.207 1.29 1.29 0 0 0-.464-.045 7.509 7.509 0 0 1-1.171-.181l-1.709-.252zm-1.827 9.794c.101-.484.156-.974.165-1.462-.042-.752-.281-1.448-1.149-1.711-.869-.262-1.498.046-2.07.713a2.652 2.652 0 0 0-.77 1.739 2.379 2.379 0 0 0 .635 1.716c.354.392 1.374.377 2.083.321.709-.056 1.096-.611 1.106-1.316zm4.691.929a21.753 21.753 0 0 0-.213-2.701 1.528 1.528 0 0 0-.685-.942 1.85 1.85 0 0 0-1.217-.257c-.897.107-1.223.754-1.29 1.447-.051.883-.007 1.765.13 2.632.013.355.168.687.436.934.267.247.629.391 1.016.406.681.048 1.379-.614 1.823-1.519zm3.328-4.041c.4-1.313-.323-2.192-.937-3.069-.109-.154-.749-.097-1.053.056-.643.306-1.688.444-1.645 1.357.064.886.304 1.74.706 2.518.136.2.323.362.545.473.221.111.471.167.728.164.477-.062.944-.541 1.363-.897.179-.149.222-.443.293-.602zm-9.749-2.51a2.204 2.204 0 0 0 .037-1.62 2.03 2.03 0 0 0-1.086-1.137c-.2-.059-.414-.07-.626-.031a1.48 1.48 0 0 0-.594.254c-1.225 1.046-1.317 3.093-.277 4.139.528.554 1.948-.011 2.334-.907.083-.23.154-.463.212-.698zm22.213-42.124c.332-1.094-.275-1.801-1.401-1.748a6.313 6.313 0 0 1-1.028-.201c-.623-.078-1.255-.103-1.871-.184a1.088 1.088 0 0 1-.576-.23c-.793-.712-1.274-.671-1.959.219-.76.991-.722 1.764.016 2.72a3 3 0 0 1 .518 1.266c.158.844.511 1.524 1.444 1.674.416.107.87.058 1.272-.136a1.9 1.9 0 0 0 .903-.912c.115-.214.277-.404.473-.557.196-.153.423-.264.663-.327 1.145-.083 1.182-.952 1.546-1.584zm-5.86 7.655a18.932 18.932 0 0 0-.072-2.158 1.25 1.25 0 0 0-.473-.8 1.482 1.482 0 0 0-.938-.306 1.925 1.925 0 0 0-.955.19c-.296.144-.545.36-.72.622-.91 1.048-.804 2.169-.172 3.217.453.748 1.382.487 2.094.459.713-.029 1.146-.496 1.236-1.224zm1.242-1.678c.064 1.125.183 2.237.357 3.332.077.199.2.369.359.494.159.125.349.202.554.224a1.59 1.59 0 0 0 .619-.264c.192-.135.36-.311.492-.515.32-.569.527-1.193.606-1.823a4.29 4.29 0 0 0-.151-1.821c-.164-.649-1.013-1.173-1.576-.897-.436.219-.767.755-1.26 1.27zm-2.561-3.99a2.256 2.256 0 0 0-.199-1.537 2.7 2.7 0 0 0-1.182-1.152c-.55-.28-1.606.093-1.911.777-.522 1.143-.695 2.287.307 3.338.503.519 1.055.711 1.664.24a18.103 18.103 0 0 0 1.542-1.502l-.221-.164zm9.33 2.45c.286-1.126-.425-2.039-1.128-2.965a.646.646 0 0 0-.391-.183c-1.239-.143-2.57 1.264-2.163 2.261.115.309.204.625.266.945.257 1.072.686 1.48 1.581 1.472.711-.003 1.568-.702 1.835-1.53zm-79.88 103.105c.266-1.185-.147-1.727-1.483-1.756a1.985 1.985 0 0 0-1.035.22 1.783 1.783 0 0 0-.731.714 15.45 15.45 0 0 1-.997 1.489c-.423.535-.709 1.081-.363 1.787.137.31.367.58.658.772.292.192.63.297.971.301.629.038 1.207.15 1.615.798.285.446 1.54.333 2.166-.116a1.03 1.03 0 0 0 .452-1.147 1.19 1.19 0 0 0-.193-.415 7.15 7.15 0 0 1-.427-1.078l-.633-1.569zm-9.603 3.372c.48-.158.942-.357 1.38-.595.646-.412 1.143-.963.94-1.827-.203-.864-.792-1.241-1.67-1.389a2.818 2.818 0 0 0-1.929.223 2.428 2.428 0 0 0-1.203 1.396c-.171.496.354 1.349.76 1.919.406.57 1.092.618 1.722.273zm1.529 4.424c.796-.467 1.56-.979 2.289-1.535.296-.269.471-.644.491-1.051a1.731 1.731 0 0 0-.383-1.155c-.545-.703-1.281-.654-1.93-.362-.808.4-1.568.878-2.269 1.43a1.348 1.348 0 0 0-.61.835c-.084.35-.031.728.15 1.061.3.599 1.236.856 2.262.777zm5.253.781c1.365-.322 1.782-1.373 2.252-2.331.082-.169-.29-.681-.578-.86-.594-.389-1.241-1.202-2.029-.707a6.708 6.708 0 0 0-1.879 1.859 1.374 1.374 0 0 0-.146.697c.013.242.089.481.22.696.294.372.953.525 1.479.701.221.076.505-.035.681-.055zm-2.664-9.485a2.334 2.334 0 0 0 1.455-.782 1.97 1.97 0 0 0 .464-1.487 1.27 1.27 0 0 0-.287-.543c-.14-.16-.32-.288-.523-.374-1.542-.508-3.404.441-3.811 1.843-.226.723.988 1.638 1.977 1.514.245-.045.487-.102.725-.171zm48.608-18.958c1.137-.268 1.459-1.136.848-2.059a5.986 5.986 0 0 1-.338-.969c-.243-.563-.538-1.11-.775-1.671a1.028 1.028 0 0 1-.086-.601c.235-1.026-.044-1.411-1.176-1.542-1.26-.145-1.927.275-2.405 1.378-.199.414-.493.78-.862 1.072-.67.556-1.096 1.195-.761 2.058.114.405.385.763.758 1.005.374.241.824.35 1.263.304a1.852 1.852 0 0 1 1.354.515c.648.925 1.438.52 2.18.51zm-9.728-1.104a20.22 20.22 0 0 0 1.878-1.144c.255-.197.422-.48.472-.8.05-.32-.021-.655-.199-.945a1.872 1.872 0 0 0-1.561-1.005c-1.386-.243-2.328.409-2.94 1.469-.435.756.261 1.409.644 1.996s1.015.718 1.706.429zm2.11.206a35.514 35.514 0 0 0-2.775 1.973 1.147 1.147 0 0 0-.259.551c-.031.197-.004.396.079.579.143.163.33.296.546.39.215.095.456.148.703.157a5.318 5.318 0 0 0 1.921-.403 4.524 4.524 0 0 0 1.539-1.04c.494-.465.532-1.444.005-1.78-.413-.259-1.055-.269-1.759-.427zm2.254-4.163c.52-.161.961-.489 1.263-.939a2.61 2.61 0 0 0 .429-1.574c-.027-.605-.888-1.309-1.648-1.223-1.275.133-2.377.561-2.806 1.933-.208.685-.102 1.247.622 1.525.695.224 1.398.407 2.106.547l.034-.269zm2.509 9.102c1.141-.323 1.595-1.382 2.063-2.439a.607.607 0 0 0-.034-.422c-.495-1.117-2.41-1.534-3.091-.69a6.187 6.187 0 0 1-.704.698c-.821.755-.969 1.321-.513 2.073.361.598 1.41.97 2.279.78zM12.4 2.873a4.537 4.537 0 0 0-1.633-.722 4.145 4.145 0 0 0-1.732-.012.62.62 0 0 0-.315.159c-.64.647-.097 2.843.791 3.177.539.155 1.07.344 1.59.564.303.2.66.28.999.223.339-.056.638-.245.838-.528.546-.603.297-1.228.123-1.849a4.058 4.058 0 0 0-.66-1.012z" fill="#000" fill-opacity=".5"/></svg>