<svg width="195" height="124" fill="none" xmlns="http://www.w3.org/2000/svg"><path d="M104.741 84.95c1.132.504 1.33 1.151.552 2.211-.203.298-.48.532-.802.676a1.845 1.845 0 0 1-1.024.142 16.313 16.313 0 0 0-1.818-.114c-.693.01-1.313-.094-1.684-.788a1.757 1.757 0 0 1-.239-.977c.017-.342.134-.67.335-.938.346-.514.601-1.032.313-1.739-.195-.49.65-1.401 1.394-1.622a1.067 1.067 0 0 1 .861.055 1.175 1.175 0 0 1 .576.68c.183.344.394.671.629.98l.907 1.435zm28.973-24.26c.902-.727 1.807-.459 2.198.572.174.3.372.582.592.845.317.528.589 1.086.906 1.607.104.184.257.332.442.427.983.432 1.132.88.561 1.843-.637 1.07-1.382 1.34-2.573 1.05a3.197 3.197 0 0 0-1.397.031c-.857.19-1.637.139-2.145-.64a1.756 1.756 0 0 1-.369-1.194c.025-.437.206-.853.507-1.168a1.74 1.74 0 0 0 .389-1.366c-.37-1.06.436-1.434.889-2.007zm59.453-54.756c1.011-.003 1.114.954.463 1.865a2.563 2.563 0 0 1-1.105.885c-.438.18-.906.224-1.34.123a5.198 5.198 0 0 0-1.499.044c-.724.068-1.417.146-1.876-.542-.459-.687-.289-1.322.139-2.025.23-.3.393-.643.477-1.002a2.36 2.36 0 0 0 .007-1.067c-.138-.487.934-1.53 1.64-1.712.705-.183 1.183.165 1.412.898.126.254.284.487.471.695.348.536.706 1.087 1.211 1.838zm-22.556 23.093c.41.114 1.162.18 1.12 1.11-.058 1.122-1.517 2.155-2.556 1.936a6.245 6.245 0 0 0-1.907-.074c-.838.095-1.592-.014-2.029-.786a1.849 1.849 0 0 1-.272-1.128c.033-.4.191-.778.451-1.078.395-.51.751-1.111.351-1.875-.102-.196.15-.677.344-.945.966-1.309 2.28-1.15 2.896.266.288.467.612.907.971 1.317.237.404.447.824.631 1.257zM96.217 90.424c.417-.28.858-.521 1.315-.72.726-.257 1.476-.316 2.064.361.587.677.543 1.362.138 2.137a2.716 2.716 0 0 1-1.34 1.371 2.53 2.53 0 0 1-1.866.103c-.51-.165-.894-1.085-1.12-1.744-.224-.659.148-1.223.809-1.508zm-2.713-3.848c.86-.34 1.738-.63 2.63-.866a1.6 1.6 0 0 1 1.158.247c.346.228.602.58.718.99.25.848-.231 1.394-.86 1.725-.813.391-1.661.698-2.534.914a1.413 1.413 0 0 1-1.05-.025 1.543 1.543 0 0 1-.781-.754c-.312-.592.038-1.478.719-2.23zm90.245-75.772c.874-.611 1.714-1.276 2.842-1.056a1.509 1.509 0 0 1 1.14.783c.115.213.18.454.191.704a1.81 1.81 0 0 1-.128.745 3.66 3.66 0 0 1-1.361 1.729 3.334 3.334 0 0 1-2.049.587c-.735-.025-1.398-.761-1.585-1.752-.118-.681.167-1.189.95-1.74zm-54.964 58.141a20.296 20.296 0 0 1 2.065-.78c.314-.08.647-.041.94.111.292.153.524.41.656.723.146.286.213.609.194.93a1.76 1.76 0 0 1-.305.89c-.632 1.228-1.731 1.572-2.968 1.414-.882-.113-1-1.049-1.252-1.7-.252-.65.019-1.222.67-1.588zM96.013 82.007c1.083-.872 2.195-.567 3.262-.36.188.038.385.635.36.967-.038.697.242 1.69-.637 2.008a6.96 6.96 0 0 1-2.651.352 1.46 1.46 0 0 1-.66-.304 1.514 1.514 0 0 1-.44-.59c-.128-.451.141-1.058.312-1.573.071-.219.332-.373.454-.5zm65.764-48.205a14.92 14.92 0 0 1 2.378-.707c.232-.011.463.036.671.139.209.102.389.257.526.45s.225.419.258.658c.033.238.01.483-.069.712-.613 1.738-1.706 2.431-3.33 2.125-.483-.091-.902-1.062-1.162-1.716-.259-.654.15-1.183.811-1.44l-.083-.22zm-59.578 55.973a2.346 2.346 0 0 1 1.514-.667 2.087 2.087 0 0 1 1.498.53c.134.155.228.343.274.549a1.38 1.38 0 0 1-.007.633c-.507 1.508-2.402 2.392-3.797 1.869-.729-.257-.752-1.753-.057-2.45.184-.165.376-.32.575-.464zM13.34 113.554c1.131.503 1.328 1.151.55 2.21-.202.299-.48.532-.8.676a1.839 1.839 0 0 1-1.025.143 16.28 16.28 0 0 0-1.819-.114c-.692.009-1.312-.095-1.683-.788a1.759 1.759 0 0 1-.24-.977c.018-.343.135-.67.335-.938.346-.515.601-1.033.314-1.739-.195-.49.65-1.402 1.394-1.622a1.071 1.071 0 0 1 .86.055 1.184 1.184 0 0 1 .577.679c.183.344.393.672.629.98l.907 1.435zm-8.526 5.474c.418-.28.858-.521 1.316-.721.726-.257 1.476-.315 2.063.362.588.677.544 1.362.139 2.137a2.718 2.718 0 0 1-1.34 1.371 2.53 2.53 0 0 1-1.867.103c-.51-.165-.894-1.086-1.118-1.744-.225-.659.147-1.223.807-1.508zm-2.713-3.848c.86-.341 1.739-.63 2.632-.866.399-.07.81.018 1.157.247.346.228.601.581.718.991.25.847-.232 1.393-.86 1.724-.813.391-1.661.698-2.534.914-.34.127-.713.118-1.051-.025a1.547 1.547 0 0 1-.78-.753c-.313-.593.038-1.478.718-2.232zm2.512-4.569c1.082-.873 2.194-.568 3.262-.361.188.038.385.635.36.967-.038.697.241 1.69-.637 2.008-.86.289-1.76.408-2.651.352a1.453 1.453 0 0 1-.66-.304 1.509 1.509 0 0 1-.44-.589c-.129-.452.141-1.059.312-1.574.07-.219.332-.373.454-.499zm6.184 7.768a2.34 2.34 0 0 1 1.514-.667 2.089 2.089 0 0 1 1.498.529c.134.156.228.344.274.55.046.205.044.422-.007.633-.508 1.508-2.403 2.392-3.797 1.869-.73-.257-.752-1.753-.058-2.451.185-.164.377-.319.576-.463zM182.08 7.048c.858-.465 1.897-1.247 3.058-.853.225.1.421.248.579.435.158.186.273.406.34.65.008.219-.036.444-.127.657a1.683 1.683 0 0 1-.4.566c-.913.774-1.968 1.404-3.113 1.373a2.015 2.015 0 0 1-1.531-.619c-.372-.577.134-1.26.663-1.78.106-.102.23-.186.531-.429zm-52.196 60.126a35.83 35.83 0 0 1-3.284.983 1.206 1.206 0 0 1-.607-.128 1.048 1.048 0 0 1-.427-.409 1.47 1.47 0 0 1 .007-.66c.052-.224.152-.444.293-.642.411-.51.918-.94 1.482-1.259a4.595 4.595 0 0 1 1.777-.577c.677-.107 1.503.45 1.463 1.064-.035.477-.411.984-.704 1.628zm29.686-36.688a23.807 23.807 0 0 1 2.517-.957 1.399 1.399 0 0 1 1.052.154c.299.185.502.488.568.848.034.313-.047.644-.229.934-.181.29-.451.52-.761.649a14.06 14.06 0 0 1-2.352.97c-.733.232-1.502.212-1.725-.596-.224-.807.324-1.368.93-2.002zm2.169-4.878c1.011-1.042 2.115-.513 3.177-.478.15.003.377.511.347.8-.087.713.248 1.737-.549 2.062a7.45 7.45 0 0 1-2.973.355 1.208 1.208 0 0 1-.568-.347 1.258 1.258 0 0 1-.302-.603c.031-.619.418-1.254.653-1.881l.215.092zm28.134-15.505c1.164-.821 2.821-.88 3.487-.002.06.14.086.296.078.459a1.276 1.276 0 0 1-.13.487 4.175 4.175 0 0 1-1.76 1.87c-.766.42-1.611.559-2.364.389-.6-.118-.812-.867-.374-1.725.313-.516.669-1.011 1.063-1.478zM134.65 67.91a2.405 2.405 0 0 1 1.527-.424 2.773 2.773 0 0 1 1.55.61c.48.384.541 1.478.015 2.02-.874.915-1.885 1.519-3.269 1.03-.687-.248-1.084-.667-.878-1.398a17.88 17.88 0 0 1 .813-1.973l.242.135zm32.551-34.218a2.369 2.369 0 0 1 1.542-.68 2.22 2.22 0 0 1 1.557.538 1 1 0 0 1 .257.345c.06.133.092.279.094.428-.165 1.638-2.636 2.946-4.027 2.161-.552-.31-.538-1.788.015-2.334.152-.15.369-.303.562-.458zm-38.516 26.804c.95-.698 2.09-.417 3.238-.149a.63.63 0 0 1 .326.28c.62 1.056-.186 2.8-1.286 2.826a6.374 6.374 0 0 0-.995.131c-1.112.189-1.665-.036-2.008-.842-.275-.64.049-1.682.725-2.246zM57.716 95.802c.902-.727 1.807-.458 2.198.573a6 6 0 0 0 .592.844c.317.529.589 1.086.906 1.608.104.184.257.332.442.427.983.432 1.132.88.56 1.843-.636 1.07-1.38 1.339-2.572 1.051a3.2 3.2 0 0 0-1.397.03c-.857.189-1.638.139-2.145-.64a1.756 1.756 0 0 1-.37-1.194c.026-.437.207-.853.508-1.168a1.747 1.747 0 0 0 .389-1.366c-.37-1.06.436-1.434.889-2.008zm-4.929 8.256a20.16 20.16 0 0 1 2.065-.78c.314-.081.647-.042.94.111.292.153.524.409.656.722.146.287.213.609.194.931a1.75 1.75 0 0 1-.305.89c-.632 1.228-1.732 1.572-2.968 1.414-.882-.113-1-1.049-1.252-1.699-.252-.651.02-1.223.67-1.589zm1.096-1.771a35.76 35.76 0 0 1-3.283.983 1.21 1.21 0 0 1-.607-.128 1.051 1.051 0 0 1-.427-.409 1.48 1.48 0 0 1 .007-.659c.052-.226.152-.445.293-.643a5.168 5.168 0 0 1 1.482-1.259 4.593 4.593 0 0 1 1.777-.577c.676-.107 1.503.45 1.463 1.064-.035.477-.411.984-.705 1.628zm4.769.735a2.413 2.413 0 0 1 1.527-.423 2.77 2.77 0 0 1 1.55.61c.48.384.541 1.477.015 2.019-.874.916-1.886 1.52-3.27 1.031-.686-.248-1.083-.668-.877-1.399a17.73 17.73 0 0 1 .813-1.972l.242.134zm-5.965-7.413c.95-.697 2.09-.417 3.238-.148.135.05.25.148.326.279.62 1.056-.186 2.8-1.286 2.826a6.372 6.372 0 0 0-.995.132c-1.112.188-1.665-.037-2.008-.843-.275-.64.049-1.682.725-2.246zM183.81 2.25a4.566 4.566 0 0 1 1.723-.483 4.14 4.14 0 0 1 1.716.23.616.616 0 0 1 .288.202c.538.73-.323 2.827-1.251 3.032-.556.079-1.11.19-1.658.336a1.402 1.402 0 0 1-1.02.08 1.264 1.264 0 0 1-.751-.64c-.452-.673-.114-1.256.15-1.847.221-.341.493-.648.803-.91z" fill="#000" fill-opacity=".7"/></svg>