<svg width="264" height="463" fill="none" xmlns="http://www.w3.org/2000/svg"><path d="M114.741 5.563c1.132.503 1.33 1.15.552 2.21-.203.299-.48.532-.802.676a1.844 1.844 0 0 1-1.024.143 16.291 16.291 0 0 0-1.818-.114c-.693.009-1.313-.095-1.684-.788a1.756 1.756 0 0 1-.239-.977c.017-.343.134-.67.335-.938.346-.515.601-1.033.313-1.74-.195-.49.65-1.4 1.394-1.622a1.069 1.069 0 0 1 .861.056c.133.068.253.163.352.28.099.116.175.252.224.399.183.344.394.672.629.98l.907 1.435zm-8.524 5.474c.417-.28.858-.522 1.315-.721.726-.257 1.476-.315 2.064.362.587.676.543 1.362.138 2.137a2.716 2.716 0 0 1-1.339 1.37 2.53 2.53 0 0 1-1.867.103c-.51-.164-.894-1.085-1.119-1.744-.225-.658.147-1.222.808-1.507zm-2.713-3.848c.86-.341 1.738-.63 2.631-.867a1.6 1.6 0 0 1 1.157.247c.346.228.602.581.718.991.251.848-.231 1.393-.86 1.724a13.13 13.13 0 0 1-2.533.915c-.34.127-.714.118-1.052-.026a1.545 1.545 0 0 1-.78-.753c-.312-.593.038-1.478.719-2.231zm2.511-4.569c1.083-.873 2.195-.568 3.262-.36.188.037.385.634.36.966-.038.697.242 1.69-.637 2.008a6.96 6.96 0 0 1-2.651.352 1.465 1.465 0 0 1-.66-.304 1.51 1.51 0 0 1-.439-.59c-.129-.451.14-1.058.311-1.574.071-.218.332-.372.454-.499zm6.184 7.767a2.345 2.345 0 0 1 1.514-.667 2.087 2.087 0 0 1 1.498.53c.134.155.228.344.274.55a1.38 1.38 0 0 1-.007.632c-.507 1.508-2.402 2.393-3.797 1.87-.729-.258-.752-1.753-.057-2.451.184-.165.376-.32.575-.464zM41.062 54.83c1.195.34 1.486.952.872 2.11a1.904 1.904 0 0 1-.693.782c-.297.188-.64.286-.992.284-.61.014-1.216.062-1.817.143-.684.106-1.313.09-1.783-.544a1.768 1.768 0 0 1-.38-.933 1.698 1.698 0 0 1 .193-.975c.266-.558.442-1.107.053-1.765-.265-.458.437-1.478 1.14-1.801a1.06 1.06 0 0 1 .86-.066 1.18 1.18 0 0 1 .67.591c.233.315.49.61.767.881l1.11 1.293zm-7.628 6.615a8.267 8.267 0 0 1 1.196-.898c.68-.356 1.414-.52 2.095.068.681.587.74 1.272.453 2.095a2.688 2.688 0 0 1-1.123 1.545 2.523 2.523 0 0 1-1.833.364c-.528-.092-1.045-.949-1.364-1.569-.32-.62-.035-1.23.577-1.605zm-3.252-3.428c.8-.458 1.628-.867 2.476-1.226a1.603 1.603 0 0 1 1.181.081c.377.178.682.491.858.88.373.804-.024 1.411-.597 1.827-.747.502-1.541.924-2.372 1.26a1.412 1.412 0 0 1-1.044.123 1.56 1.56 0 0 1-.884-.636c-.396-.542-.18-1.468.382-2.309zm1.808-4.873c.943-1.016 2.088-.87 3.176-.815.191.01.474.574.498.906.066.695.489 1.638-.333 2.077a6.934 6.934 0 0 1-2.572.72 1.47 1.47 0 0 1-.698-.208 1.531 1.531 0 0 1-.522-.521c-.194-.43-.017-1.067.076-1.602.038-.226.273-.416.376-.557zm7.268 6.818c.353-.458.853-.77 1.4-.873a2.098 2.098 0 0 1 1.56.314c.156.135.276.308.353.505a1.4 1.4 0 0 1 .086.627c-.28 1.564-2.024 2.705-3.482 2.383-.759-.152-1.002-1.629-.418-2.416.158-.19.325-.37.5-.54zm25.344-40.407c.785-.846 1.72-.708 2.26.258.215.271.453.523.71.752.391.478.743.992 1.134 1.463.13.168.303.293.5.361 1.036.29 1.25.713.827 1.745-.473 1.149-1.17 1.52-2.39 1.401a3.193 3.193 0 0 0-1.379.227c-.82.307-1.6.367-2.217-.332a1.77 1.77 0 0 1-.541-1.13c-.04-.436.078-.874.329-1.228a1.733 1.733 0 0 0 .183-1.406c-.523-.997.22-1.48.584-2.111zm-3.658 8.862c.623-.39 1.267-.744 1.928-1.062.299-.124.634-.132.946-.021.312.11.58.33.756.622.187.263.301.573.33.894.027.322-.032.641-.171.923-.444 1.304-1.482 1.799-2.728 1.816-.89.012-1.145-.897-1.49-1.506-.346-.608-.162-1.213.429-1.666zm.823-1.907a35.497 35.497 0 0 1-3.103 1.434c-.215.04-.428.026-.62-.042a1.06 1.06 0 0 1-.483-.344 1.482 1.482 0 0 1-.09-.654 1.79 1.79 0 0 1 .194-.677c.332-.563.77-1.06 1.281-1.454a4.558 4.558 0 0 1 1.673-.82c.654-.201 1.555.234 1.605.847.036.477-.262 1.032-.456 1.71zm4.826.059c.394-.368.9-.59 1.45-.634a2.79 2.79 0 0 1 1.623.386c.531.312.754 1.386.313 1.996-.73 1.03-1.642 1.769-3.083 1.48-.716-.15-1.17-.51-1.075-1.262.13-.703.302-1.393.513-2.066l.26.1zm-6.996-6.499c.837-.824 2.007-.706 3.183-.602.14.03.27.113.363.23.77.96.23 2.799-.855 2.979-.33.064-.653.154-.966.27-1.072.342-1.653.197-2.111-.553-.367-.594-.2-1.671.386-2.324zM12.715 87.528c.918-.82 1.606-.743 2.301.37.202.299.314.639.324.984.01.345-.082.682-.266.975a15.364 15.364 0 0 0-.82 1.588c-.262.624-.603 1.14-1.403 1.202a1.88 1.88 0 0 1-1.015-.168 1.763 1.763 0 0 1-.754-.668c-.35-.512-.739-.943-1.518-.962-.538-.016-1.067-1.132-.984-1.886a.997.997 0 0 1 .11-.414c.068-.13.162-.243.279-.337.116-.093.253-.163.402-.206.148-.043.306-.059.464-.045.397-.03.788-.09 1.17-.18l1.71-.253zm1.829 9.794a7.895 7.895 0 0 1-.165-1.463c.042-.752.28-1.448 1.149-1.71.868-.263 1.498.045 2.07.712.47.483.745 1.102.77 1.74a2.377 2.377 0 0 1-.635 1.715c-.355.393-1.374.377-2.083.321-.71-.056-1.096-.61-1.106-1.315zm-4.694.928c.016-.905.087-1.807.214-2.7.09-.386.334-.721.685-.942a1.839 1.839 0 0 1 1.217-.257c.897.107 1.223.753 1.29 1.447.05.883.007 1.764-.13 2.632a1.332 1.332 0 0 1-.436.933 1.578 1.578 0 0 1-1.016.406c-.681.048-1.38-.613-1.823-1.519zm-3.326-4.043c-.399-1.313.324-2.191.938-3.069.109-.153.75-.097 1.053.056.643.307 1.688.445 1.645 1.358a6.507 6.507 0 0 1-.706 2.517c-.136.2-.323.362-.545.473a1.58 1.58 0 0 1-.728.164c-.477-.061-.944-.54-1.363-.896-.179-.149-.222-.444-.294-.603zm9.748-2.507a2.207 2.207 0 0 1-.037-1.62c.195-.51.582-.916 1.086-1.138.2-.06.414-.07.626-.03.212.038.416.125.594.253 1.224 1.046 1.317 3.093.277 4.14-.528.554-1.948-.011-2.334-.908a7.065 7.065 0 0 1-.212-.698zm5.338 82.228c.918-.819 1.605-.743 2.3.37.203.299.315.639.325.984.01.345-.082.682-.267.975a15.403 15.403 0 0 0-.82 1.587c-.262.625-.602 1.141-1.402 1.203a1.883 1.883 0 0 1-1.015-.168 1.769 1.769 0 0 1-.754-.668c-.35-.512-.74-.943-1.518-.962-.539-.017-1.068-1.132-.985-1.886a.994.994 0 0 1 .111-.414 1.07 1.07 0 0 1 .278-.337 1.17 1.17 0 0 1 .402-.206 1.27 1.27 0 0 1 .465-.045c.396-.03.788-.091 1.17-.181l1.71-.252zm1.826 9.794a7.907 7.907 0 0 1-.165-1.463c.042-.752.281-1.448 1.15-1.71.868-.263 1.497.045 2.07.712.47.483.744 1.102.769 1.739.025.637-.2 1.248-.634 1.716-.355.393-1.374.377-2.084.321-.709-.056-1.095-.611-1.106-1.315zm-4.691.928c.015-.905.086-1.807.213-2.701.09-.385.335-.72.686-.942.35-.221.784-.312 1.216-.256.898.107 1.223.753 1.29 1.447.051.882.008 1.764-.13 2.632a1.332 1.332 0 0 1-.435.933 1.58 1.58 0 0 1-1.016.406c-.681.048-1.38-.613-1.824-1.519zm-3.328-4.041c-.4-1.313.324-2.192.937-3.069.11-.154.75-.097 1.053.055.643.307 1.689.445 1.646 1.358a6.515 6.515 0 0 1-.707 2.518c-.136.2-.323.362-.544.473-.222.11-.472.167-.729.163-.477-.061-.943-.54-1.363-.896-.178-.149-.222-.443-.293-.602zm9.749-2.51a2.207 2.207 0 0 1-.036-1.62c.194-.51.581-.915 1.086-1.137.199-.059.413-.07.626-.031.212.039.415.126.594.254 1.224 1.046 1.316 3.093.277 4.14-.528.554-1.948-.011-2.335-.908a7.076 7.076 0 0 1-.212-.698zM2.954 135.976c-.333-1.095.274-1.801 1.4-1.749.35-.039.694-.106 1.029-.201.622-.077 1.255-.103 1.87-.184.215-.021.415-.1.577-.229.792-.713 1.274-.671 1.958.218.76.991.723 1.764-.016 2.72a3.005 3.005 0 0 0-.518 1.266c-.157.844-.51 1.524-1.443 1.675a1.88 1.88 0 0 1-1.272-.136 1.895 1.895 0 0 1-.903-.913 1.776 1.776 0 0 0-.473-.557 1.854 1.854 0 0 0-.664-.327c-1.145-.082-1.182-.952-1.545-1.583zm5.859 7.655a18.95 18.95 0 0 1 .072-2.159c.047-.314.215-.597.473-.8a1.49 1.49 0 0 1 .939-.306c.327-.019.658.047.954.191.296.143.546.359.72.622.91 1.047.805 2.169.172 3.217-.453.747-1.381.487-2.094.458-.712-.028-1.146-.496-1.236-1.223zm-1.241-1.679a33.409 33.409 0 0 1-.358 3.332c-.077.2-.2.369-.359.495a1.074 1.074 0 0 1-.553.223 1.567 1.567 0 0 1-.62-.264 1.867 1.867 0 0 1-.491-.515 4.993 4.993 0 0 1-.607-1.823 4.296 4.296 0 0 1 .151-1.82c.164-.65 1.014-1.174 1.577-.897.436.218.767.754 1.26 1.269zm2.561-3.99a2.255 2.255 0 0 1 .199-1.537 2.697 2.697 0 0 1 1.181-1.152c.55-.28 1.606.093 1.912.777.521 1.143.695 2.288-.308 3.338-.503.519-1.054.711-1.663.24a18.277 18.277 0 0 1-1.543-1.502l.222-.164zm-9.33 2.45c-.287-1.125.425-2.039 1.127-2.964a.647.647 0 0 1 .391-.183c1.24-.143 2.57 1.263 2.163 2.261a5.926 5.926 0 0 0-.265.945c-.258 1.071-.687 1.48-1.582 1.472-.711-.004-1.568-.703-1.834-1.531zm79.88 103.105c-.266-1.185.147-1.727 1.483-1.756.366-.02.724.056 1.035.221.311.164.564.411.73.714.304.515.637 1.012.998 1.488.422.535.709 1.081.362 1.787a1.8 1.8 0 0 1-.658.772c-.291.192-.63.297-.97.301-.63.039-1.208.15-1.615.798-.285.446-1.54.333-2.167-.115a1.027 1.027 0 0 1-.47-.705 1.099 1.099 0 0 1 .018-.443c.036-.147.102-.288.193-.414.172-.35.315-.711.427-1.079l.634-1.569zm9.603 3.373a8.371 8.371 0 0 1-1.38-.595c-.646-.412-1.144-.963-.94-1.828.202-.864.791-1.24 1.67-1.389a2.81 2.81 0 0 1 1.928.224 2.426 2.426 0 0 1 1.204 1.395c.17.497-.355 1.349-.76 1.919-.406.571-1.092.619-1.722.274zm-1.53 4.423a22.835 22.835 0 0 1-2.288-1.534 1.513 1.513 0 0 1-.492-1.051c-.02-.407.117-.819.383-1.156.545-.703 1.282-.654 1.93-.362.809.4 1.569.879 2.27 1.43.308.189.524.486.61.836a1.5 1.5 0 0 1-.15 1.061c-.3.599-1.237.856-2.263.776zm-5.253.781c-1.365-.322-1.781-1.373-2.252-2.33-.081-.169.29-.681.578-.861.595-.388 1.242-1.202 2.03-.707a6.716 6.716 0 0 1 1.878 1.859c.109.215.16.454.146.697a1.493 1.493 0 0 1-.22.697c-.293.371-.953.524-1.478.7-.222.076-.505-.035-.682-.055zm2.664-9.485a2.334 2.334 0 0 1-1.455-.782 1.973 1.973 0 0 1-.463-1.487c.047-.198.145-.384.286-.543.14-.16.32-.288.524-.374 1.541-.508 3.403.441 3.81 1.843.226.723-.987 1.638-1.976 1.514a7.384 7.384 0 0 1-.726-.171zM37.56 223.651c-1.138-.268-1.46-1.135-.848-2.059a5.97 5.97 0 0 0 .337-.968c.244-.564.539-1.111.776-1.671.089-.192.119-.4.085-.601-.234-1.026.044-1.412 1.177-1.543 1.26-.144 1.927.275 2.404 1.378.2.414.493.78.863 1.072.67.556 1.096 1.195.761 2.058a1.793 1.793 0 0 1-.759 1.005c-.373.242-.823.35-1.262.304a1.851 1.851 0 0 0-1.354.515c-.648.925-1.438.52-2.18.51zm9.728-1.103a20.094 20.094 0 0 1-1.878-1.144 1.251 1.251 0 0 1-.472-.801c-.05-.319.02-.654.199-.945a1.865 1.865 0 0 1 1.56-1.005c1.386-.243 2.328.409 2.94 1.469.436.757-.26 1.41-.644 1.997-.382.587-1.015.718-1.705.429zm-2.111.205a35.109 35.109 0 0 1 2.776 1.973c.138.165.227.354.258.551a1.01 1.01 0 0 1-.079.579c-.143.163-.33.296-.545.39a1.925 1.925 0 0 1-.704.157 5.319 5.319 0 0 1-1.92-.403 4.517 4.517 0 0 1-1.54-1.04c-.493-.465-.532-1.444-.004-1.781.412-.258 1.054-.268 1.758-.426zm-2.254-4.162a2.358 2.358 0 0 1-1.263-.939 2.618 2.618 0 0 1-.429-1.575c.027-.605.888-1.309 1.648-1.223 1.276.133 2.378.561 2.806 1.934.208.685.102 1.246-.621 1.524-.696.224-1.399.407-2.106.548l-.035-.269zm-2.508 9.101c-1.142-.323-1.595-1.381-2.063-2.438a.61.61 0 0 1 .034-.422c.495-1.117 2.41-1.534 3.09-.691a6.2 6.2 0 0 0 .705.699c.82.755.968 1.321.512 2.072-.36.599-1.41.971-2.278.78zm89.195 92.766c.917-.819 1.605-.742 2.301.371.202.298.314.639.324.984a1.72 1.72 0 0 1-.267.974 15.685 15.685 0 0 0-.82 1.588c-.262.625-.602 1.141-1.402 1.203a1.881 1.881 0 0 1-1.015-.168 1.763 1.763 0 0 1-.754-.668c-.35-.512-.739-.944-1.518-.962-.539-.017-1.068-1.133-.985-1.886a1.018 1.018 0 0 1 .389-.751 1.17 1.17 0 0 1 .402-.206c.149-.044.307-.059.465-.045.396-.03.788-.091 1.17-.181l1.71-.253zm1.826 9.795a7.968 7.968 0 0 1-.165-1.463c.042-.752.281-1.448 1.15-1.711.868-.262 1.497.046 2.07.713.47.483.744 1.102.769 1.739a2.378 2.378 0 0 1-.634 1.716c-.355.392-1.374.377-2.083.321-.71-.056-1.096-.611-1.107-1.315zm-4.691.928c.015-.906.086-1.807.213-2.701.091-.385.335-.721.686-.942a1.849 1.849 0 0 1 1.216-.257c.898.107 1.223.754 1.29 1.447.051.883.008 1.765-.129 2.632a1.332 1.332 0 0 1-.436.934 1.585 1.585 0 0 1-1.016.406c-.682.048-1.38-.614-1.824-1.519zm-3.328-4.041c-.399-1.313.324-2.192.937-3.069.109-.154.75-.097 1.053.056.643.306 1.689.444 1.646 1.358a6.53 6.53 0 0 1-.706 2.517c-.137.2-.324.362-.545.473a1.587 1.587 0 0 1-.729.164c-.477-.061-.943-.541-1.363-.896-.178-.149-.222-.444-.293-.603zm9.749-2.51a2.21 2.21 0 0 1-.036-1.62c.194-.51.581-.915 1.086-1.137.199-.059.414-.07.626-.031.212.039.415.126.594.254 1.224 1.046 1.316 3.093.277 4.14-.528.553-1.948-.012-2.335-.908a7.27 7.27 0 0 1-.212-.698zm-22.212-42.124c-.333-1.094.274-1.801 1.4-1.748.35-.039.694-.106 1.029-.201.622-.077 1.255-.103 1.871-.184.214-.021.414-.101.576-.229.792-.713 1.274-.672 1.958.218.76.991.723 1.764-.016 2.72a3.014 3.014 0 0 0-.518 1.266c-.157.844-.51 1.524-1.443 1.675-.417.106-.87.057-1.272-.137a1.891 1.891 0 0 1-.903-.912 1.79 1.79 0 0 0-.473-.557 1.842 1.842 0 0 0-.664-.327c-1.145-.083-1.182-.952-1.545-1.584zm5.859 7.655c-.017-.722.007-1.442.072-2.158.047-.314.215-.597.473-.8.259-.203.592-.311.939-.306.327-.02.658.046.954.19.296.144.546.36.72.622.911 1.048.805 2.17.172 3.218-.452.747-1.381.487-2.094.458-.712-.028-1.146-.496-1.236-1.224zm-1.241-1.678a33.57 33.57 0 0 1-.358 3.332c-.077.2-.2.369-.359.494a1.07 1.07 0 0 1-.553.224 1.577 1.577 0 0 1-.619-.264 1.874 1.874 0 0 1-.492-.515 4.985 4.985 0 0 1-.607-1.823 4.3 4.3 0 0 1 .151-1.82c.164-.65 1.014-1.174 1.577-.897.436.218.767.754 1.26 1.269zm2.561-3.99a2.25 2.25 0 0 1 .199-1.537 2.697 2.697 0 0 1 1.181-1.152c.55-.28 1.606.093 1.912.777.521 1.143.695 2.287-.308 3.338-.503.519-1.054.711-1.663.24a18.265 18.265 0 0 1-1.543-1.502l.222-.164zm-9.33 2.45c-.287-1.125.425-2.039 1.127-2.964a.646.646 0 0 1 .391-.183c1.24-.143 2.57 1.263 2.163 2.261a6.021 6.021 0 0 0-.265.944c-.258 1.072-.687 1.48-1.582 1.473-.711-.004-1.568-.703-1.834-1.531zm79.88 103.105c-.266-1.185.147-1.727 1.483-1.756.366-.02.724.056 1.035.221.311.164.564.411.731.714.303.515.636 1.011.997 1.488.422.535.709 1.081.362 1.787a1.8 1.8 0 0 1-.658.772c-.291.192-.63.297-.97.301-.63.038-1.208.15-1.615.798-.285.446-1.54.333-2.167-.115a1.045 1.045 0 0 1-.312-.302 1.037 1.037 0 0 1-.158-.403 1.087 1.087 0 0 1 .018-.443c.036-.147.102-.288.193-.415a7.15 7.15 0 0 0 .427-1.078l.634-1.569zm9.603 3.373a8.546 8.546 0 0 1-1.38-.595c-.646-.413-1.144-.963-.941-1.828.203-.864.792-1.241 1.671-1.389a2.815 2.815 0 0 1 1.928.223 2.433 2.433 0 0 1 1.204 1.396c.17.496-.355 1.349-.761 1.919-.405.57-1.091.618-1.721.274zm-1.53 4.423a23.047 23.047 0 0 1-2.288-1.534 1.515 1.515 0 0 1-.492-1.051c-.02-.407.117-.819.383-1.156.545-.703 1.282-.654 1.93-.362.809.4 1.569.879 2.27 1.43.308.188.524.486.609.836.085.349.031.727-.15 1.061-.299.599-1.236.856-2.262.776zm-5.253.781c-1.365-.322-1.781-1.372-2.252-2.33-.081-.169.29-.681.578-.86.595-.389 1.241-1.202 2.03-.708a6.73 6.73 0 0 1 1.878 1.859c.109.215.159.455.146.697a1.483 1.483 0 0 1-.22.697c-.293.371-.953.525-1.479.7-.221.076-.504-.035-.681-.055zm2.664-9.485a2.337 2.337 0 0 1-1.455-.782 1.97 1.97 0 0 1-.463-1.487c.047-.197.145-.384.286-.543.141-.16.32-.288.524-.374 1.541-.508 3.403.441 3.81 1.843.226.724-.987 1.638-1.976 1.514a7.365 7.365 0 0 1-.726-.171zm-48.607-18.958c-1.138-.268-1.46-1.135-.848-2.059.141-.315.254-.639.338-.969.243-.563.538-1.11.775-1.671.089-.191.119-.4.086-.601-.235-1.026.043-1.411 1.176-1.542 1.26-.144 1.927.275 2.404 1.378.199.414.493.78.863 1.072.669.556 1.096 1.195.761 2.058a1.79 1.79 0 0 1-.759 1.005c-.373.242-.823.35-1.262.304a1.849 1.849 0 0 0-1.354.515c-.648.925-1.438.52-2.18.51zm9.728-1.103a19.96 19.96 0 0 1-1.878-1.144 1.25 1.25 0 0 1-.472-.8c-.05-.32.02-.655.199-.946.147-.286.372-.532.648-.709a1.86 1.86 0 0 1 .913-.296c1.385-.242 2.327.409 2.939 1.469.436.757-.261 1.41-.644 1.997-.382.587-1.015.718-1.705.429zm-2.111.206a34.826 34.826 0 0 1 2.776 1.973c.138.165.227.354.258.55.031.197.004.396-.079.579a1.536 1.536 0 0 1-.545.39 1.924 1.924 0 0 1-.704.157 5.318 5.318 0 0 1-1.921-.403 4.51 4.51 0 0 1-1.539-1.04c-.493-.464-.532-1.444-.004-1.78.412-.259 1.054-.269 1.758-.426zm-2.254-4.163a2.36 2.36 0 0 1-1.263-.939 2.618 2.618 0 0 1-.429-1.575c.027-.605.888-1.308 1.648-1.223 1.276.134 2.378.561 2.806 1.934.208.685.102 1.246-.621 1.524-.696.224-1.399.407-2.106.548l-.035-.269zm-2.508 9.101c-1.142-.323-1.595-1.382-2.063-2.439a.61.61 0 0 1 .033-.421c.496-1.118 2.41-1.535 3.091-.691.216.251.452.485.705.698.821.755.968 1.322.512 2.073-.36.598-1.41.97-2.278.78zm102.268 79.524c-.266-1.185.147-1.727 1.483-1.756.366-.02.724.056 1.035.221.311.164.564.411.731.714.303.515.636 1.012.997 1.488.422.535.709 1.081.362 1.787a1.8 1.8 0 0 1-.658.772c-.291.192-.63.297-.97.301-.63.039-1.208.15-1.615.798-.285.446-1.54.333-2.167-.115a1.045 1.045 0 0 1-.312-.302 1.037 1.037 0 0 1-.158-.403 1.088 1.088 0 0 1 .018-.443c.036-.147.102-.288.193-.414.172-.35.315-.711.427-1.079l.634-1.569zm9.603 3.373a8.373 8.373 0 0 1-1.38-.595c-.646-.412-1.144-.963-.941-1.828.203-.864.792-1.24 1.671-1.389a2.815 2.815 0 0 1 1.928.223 2.433 2.433 0 0 1 1.204 1.396c.17.497-.355 1.349-.761 1.919-.405.57-1.091.619-1.721.274zm-1.53 4.423a23.047 23.047 0 0 1-2.288-1.534 1.515 1.515 0 0 1-.492-1.051c-.02-.407.117-.819.383-1.156.545-.703 1.282-.653 1.93-.362.809.4 1.569.879 2.27 1.43.308.189.524.486.609.836.085.35.031.727-.15 1.061-.299.599-1.236.856-2.262.776zm-5.253.782c-1.365-.322-1.781-1.373-2.252-2.331-.081-.169.29-.681.578-.86.595-.389 1.241-1.202 2.03-.707a6.714 6.714 0 0 1 1.878 1.858c.109.216.159.455.146.697a1.483 1.483 0 0 1-.22.697c-.293.372-.953.525-1.479.701-.221.075-.504-.036-.681-.055zm2.664-9.486a2.332 2.332 0 0 1-1.455-.782 1.97 1.97 0 0 1-.463-1.486c.047-.198.145-.384.286-.544.141-.159.32-.287.524-.373 1.541-.509 3.403.44 3.81 1.842.226.724-.987 1.638-1.976 1.515a7.664 7.664 0 0 1-.726-.172zm-48.607-18.958c-1.138-.269-1.46-1.136-.848-2.059.141-.315.254-.639.338-.969.243-.564.538-1.111.775-1.671.089-.191.119-.4.086-.601-.235-1.026.043-1.412 1.176-1.542 1.26-.145 1.927.275 2.404 1.377.199.415.493.78.863 1.073.669.556 1.096 1.195.761 2.058a1.792 1.792 0 0 1-.759 1.004 1.957 1.957 0 0 1-1.262.305c-.248-.01-.497.03-.731.12a1.817 1.817 0 0 0-.623.395c-.648.925-1.438.52-2.18.51zm9.728-1.103a19.96 19.96 0 0 1-1.878-1.144 1.25 1.25 0 0 1-.472-.801c-.05-.319.02-.654.199-.945a1.864 1.864 0 0 1 1.561-1.005c1.385-.243 2.327.409 2.939 1.469.436.757-.261 1.41-.644 1.997-.382.587-1.015.718-1.705.429zm-2.111.206a34.826 34.826 0 0 1 2.776 1.973c.138.165.227.354.258.551.031.196.004.395-.079.579a1.561 1.561 0 0 1-.545.39 1.924 1.924 0 0 1-.704.156 5.318 5.318 0 0 1-1.921-.402 4.526 4.526 0 0 1-1.539-1.041c-.493-.464-.532-1.444-.004-1.78.412-.259 1.054-.269 1.758-.426zm-2.254-4.163a2.366 2.366 0 0 1-1.263-.939 2.62 2.62 0 0 1-.429-1.575c.027-.605.888-1.309 1.648-1.223 1.276.134 2.378.561 2.806 1.934.208.685.102 1.246-.621 1.524-.696.224-1.399.407-2.106.548l-.035-.269zm-2.508 9.101c-1.142-.323-1.595-1.382-2.063-2.439a.61.61 0 0 1 .033-.421c.496-1.118 2.41-1.535 3.091-.691.216.252.452.485.705.698.821.755.968 1.322.512 2.073-.36.598-1.41.97-2.278.78z" fill="#000" fill-opacity=".7"/></svg>