<svg width="949" height="3301" fill="none" xmlns="http://www.w3.org/2000/svg"><path d="M840.741 84.95c1.132.504 1.33 1.151.552 2.211-.203.298-.48.532-.802.676a1.845 1.845 0 0 1-1.024.142 16.313 16.313 0 0 0-1.818-.114c-.693.01-1.313-.094-1.684-.788a1.756 1.756 0 0 1-.239-.977c.017-.342.134-.67.335-.938.346-.514.601-1.032.313-1.739-.195-.49.65-1.401 1.394-1.622a1.067 1.067 0 0 1 .861.055 1.175 1.175 0 0 1 .576.68c.183.344.394.671.629.98l.907 1.435zm28.973-24.26c.902-.727 1.807-.459 2.198.572.174.3.372.582.592.845.317.528.589 1.086.906 1.607.104.184.257.332.442.427.983.432 1.132.88.561 1.843-.637 1.07-1.382 1.34-2.573 1.05a3.197 3.197 0 0 0-1.397.031c-.857.19-1.637.139-2.145-.64a1.756 1.756 0 0 1-.369-1.194c.025-.437.206-.853.507-1.168a1.74 1.74 0 0 0 .389-1.366c-.37-1.06.436-1.434.889-2.007zm59.453-54.756c1.011-.003 1.114.954.463 1.865a2.563 2.563 0 0 1-1.105.885c-.438.18-.906.224-1.34.123a5.198 5.198 0 0 0-1.499.044c-.724.068-1.417.146-1.876-.542-.459-.687-.289-1.322.139-2.025.23-.3.393-.643.477-1.002a2.36 2.36 0 0 0 .007-1.067c-.138-.487.934-1.53 1.64-1.712.705-.183 1.183.165 1.412.898.126.254.284.487.471.695.348.536.706 1.087 1.211 1.838zm-22.556 23.093c.41.114 1.162.18 1.12 1.11-.058 1.122-1.517 2.155-2.556 1.936a6.245 6.245 0 0 0-1.907-.074c-.838.095-1.592-.014-2.029-.786a1.849 1.849 0 0 1-.272-1.128c.033-.4.191-.778.451-1.078.395-.51.751-1.111.351-1.875-.102-.196.15-.677.344-.945.966-1.309 2.28-1.15 2.896.266.288.467.612.907.971 1.317.237.404.447.824.631 1.257zm-74.394 61.397c.417-.28.858-.521 1.315-.72.726-.257 1.476-.316 2.064.361.587.677.543 1.362.138 2.137a2.716 2.716 0 0 1-1.339 1.371 2.53 2.53 0 0 1-1.867.103c-.51-.165-.894-1.085-1.119-1.744-.225-.659.147-1.223.808-1.508zm-2.713-3.847a23.28 23.28 0 0 1 2.631-.867 1.6 1.6 0 0 1 1.157.247c.346.229.602.581.718.991.251.848-.231 1.393-.86 1.725a13.26 13.26 0 0 1-2.533.914c-.34.127-.714.118-1.052-.026a1.545 1.545 0 0 1-.78-.753c-.312-.593.038-1.478.719-2.231zm90.245-75.773c.874-.611 1.714-1.276 2.842-1.056a1.509 1.509 0 0 1 1.14.783c.115.213.18.454.191.704a1.81 1.81 0 0 1-.128.745 3.66 3.66 0 0 1-1.361 1.729 3.334 3.334 0 0 1-2.049.587c-.735-.025-1.398-.761-1.585-1.752-.118-.681.167-1.189.95-1.74zm-54.964 58.142a20.32 20.32 0 0 1 2.065-.78 1.32 1.32 0 0 1 .94.11c.292.154.524.41.656.723.146.287.213.61.194.931a1.76 1.76 0 0 1-.305.89c-.632 1.227-1.731 1.572-2.968 1.414-.882-.114-1-1.05-1.252-1.7-.252-.65.019-1.223.67-1.588zm-32.772 13.061c1.083-.872 2.195-.567 3.262-.36.188.038.385.635.36.967-.037.697.242 1.69-.637 2.008-.86.289-1.76.408-2.651.352a1.465 1.465 0 0 1-.66-.304 1.51 1.51 0 0 1-.439-.59c-.129-.451.14-1.058.311-1.573.071-.219.332-.373.454-.5zm65.764-48.205a14.92 14.92 0 0 1 2.378-.707c.232-.011.463.036.671.139.209.102.389.257.526.45s.225.419.258.658c.033.238.01.483-.069.712-.613 1.738-1.706 2.431-3.33 2.125-.483-.091-.902-1.062-1.162-1.716-.259-.654.15-1.183.811-1.44l-.083-.22zm-59.578 55.973a2.346 2.346 0 0 1 1.514-.667 2.087 2.087 0 0 1 1.498.53c.134.155.228.343.274.549a1.38 1.38 0 0 1-.007.633c-.507 1.508-2.402 2.392-3.797 1.869-.729-.257-.752-1.753-.057-2.45.184-.165.376-.32.575-.464zm-88.86 23.779c1.132.503 1.329 1.151.552 2.21-.203.299-.48.532-.802.676a1.837 1.837 0 0 1-1.024.143 16.268 16.268 0 0 0-1.819-.114c-.692.009-1.312-.095-1.683-.788a1.75 1.75 0 0 1 .095-1.915c.346-.515.601-1.033.314-1.739-.195-.49.65-1.402 1.394-1.622a1.068 1.068 0 0 1 .86.055 1.2 1.2 0 0 1 .577.679c.183.344.393.672.629.98l.907 1.435zm-8.525 5.474c.418-.28.858-.521 1.316-.721.726-.257 1.476-.315 2.063.362.588.677.544 1.362.139 2.137a2.721 2.721 0 0 1-1.34 1.371 2.53 2.53 0 0 1-1.867.103c-.509-.165-.894-1.086-1.118-1.744-.225-.659.147-1.223.807-1.508zm-2.713-3.848c.86-.341 1.739-.63 2.632-.866.399-.07.811.018 1.157.247.346.228.601.581.718.991.25.847-.232 1.393-.86 1.724-.813.391-1.661.698-2.534.914a1.415 1.415 0 0 1-1.051-.025 1.547 1.547 0 0 1-.781-.753c-.312-.593.039-1.478.719-2.232zm2.512-4.569c1.082-.872 2.194-.567 3.262-.36.188.037.385.634.36.966-.038.698.241 1.69-.637 2.009-.86.288-1.76.408-2.651.352a1.464 1.464 0 0 1-.66-.304 1.527 1.527 0 0 1-.44-.59c-.129-.452.141-1.058.312-1.574.071-.218.332-.373.454-.499zm6.184 7.768a2.338 2.338 0 0 1 1.514-.667 2.088 2.088 0 0 1 1.498.529c.134.156.228.344.274.55.047.205.044.422-.007.633-.507 1.508-2.403 2.392-3.797 1.869-.729-.257-.752-1.753-.058-2.451.185-.164.377-.319.576-.463zM918.08 7.048c.858-.465 1.897-1.247 3.058-.853.225.1.421.248.579.435.158.186.273.406.34.65.008.219-.036.444-.127.657a1.683 1.683 0 0 1-.4.566c-.913.774-1.968 1.404-3.113 1.373a2.015 2.015 0 0 1-1.531-.619c-.372-.577.134-1.26.663-1.78.106-.102.23-.186.531-.429zm-52.196 60.126a35.8 35.8 0 0 1-3.284.984 1.206 1.206 0 0 1-.607-.129 1.048 1.048 0 0 1-.427-.409 1.469 1.469 0 0 1 .007-.659c.052-.225.152-.445.293-.643a5.18 5.18 0 0 1 1.482-1.258 4.591 4.591 0 0 1 1.777-.577c.677-.107 1.503.45 1.463 1.063-.035.477-.411.984-.704 1.628zm29.686-36.688a23.807 23.807 0 0 1 2.517-.957 1.399 1.399 0 0 1 1.052.154c.299.185.502.488.568.848.034.313-.047.644-.229.934-.181.29-.451.52-.761.649a14.06 14.06 0 0 1-2.352.97c-.733.232-1.502.212-1.725-.596-.224-.807.324-1.368.93-2.002zm2.169-4.878c1.011-1.042 2.115-.513 3.177-.478.15.003.377.511.347.8-.087.713.248 1.737-.549 2.062a7.45 7.45 0 0 1-2.973.355 1.208 1.208 0 0 1-.568-.347 1.258 1.258 0 0 1-.302-.603c.031-.619.418-1.254.653-1.881l.215.092zm28.134-15.505c1.164-.821 2.821-.88 3.487-.002.06.14.086.296.078.459a1.276 1.276 0 0 1-.13.487 4.175 4.175 0 0 1-1.76 1.87c-.766.42-1.611.559-2.364.389-.6-.118-.812-.867-.374-1.725.313-.516.669-1.011 1.063-1.478zM870.65 67.91a2.405 2.405 0 0 1 1.527-.424 2.773 2.773 0 0 1 1.55.61c.48.384.541 1.478.015 2.02-.874.915-1.885 1.519-3.269 1.03-.687-.248-1.084-.667-.878-1.398a17.88 17.88 0 0 1 .813-1.973l.242.135zm32.551-34.218a2.37 2.37 0 0 1 1.542-.68 2.22 2.22 0 0 1 1.557.538c.109.094.196.212.257.345.06.133.092.28.094.428-.165 1.638-2.636 2.946-4.027 2.161-.552-.31-.538-1.788.015-2.333.152-.15.369-.303.562-.459zm-38.516 26.804c.95-.698 2.09-.417 3.238-.149a.63.63 0 0 1 .326.28c.62 1.056-.186 2.8-1.286 2.826a6.374 6.374 0 0 0-.995.131c-1.112.189-1.665-.036-2.008-.842-.275-.64.049-1.682.725-2.246zm-70.969 35.306c.902-.727 1.807-.458 2.198.573.174.299.372.581.592.844.317.529.589 1.086.906 1.608.104.184.257.332.442.427.983.432 1.132.88.561 1.843-.637 1.07-1.382 1.339-2.573 1.051a3.2 3.2 0 0 0-1.397.03c-.857.189-1.638.139-2.145-.64a1.754 1.754 0 0 1-.369-1.194c.025-.437.206-.853.507-1.168a1.74 1.74 0 0 0 .389-1.366c-.37-1.06.435-1.434.889-2.008zm-4.929 8.256a20.246 20.246 0 0 1 2.065-.78c.314-.081.647-.042.939.111.293.153.525.409.657.722.146.287.213.609.194.931-.02.322-.126.631-.305.89-.632 1.228-1.731 1.572-2.968 1.414-.882-.113-1-1.049-1.252-1.699-.252-.651.019-1.223.67-1.589zm1.097-1.771a35.826 35.826 0 0 1-3.284.983 1.214 1.214 0 0 1-.607-.128 1.051 1.051 0 0 1-.427-.409 1.468 1.468 0 0 1 .007-.659c.052-.226.152-.445.293-.643a5.167 5.167 0 0 1 1.482-1.259 4.595 4.595 0 0 1 1.777-.577c.677-.107 1.503.45 1.463 1.064-.035.477-.411.984-.704 1.628zm4.768.735a2.412 2.412 0 0 1 1.527-.423 2.767 2.767 0 0 1 1.55.61c.48.384.541 1.477.015 2.019-.874.916-1.885 1.52-3.269 1.031-.687-.248-1.084-.668-.878-1.399.233-.677.505-1.336.813-1.972l.242.134zm-5.965-7.413c.95-.697 2.09-.417 3.238-.148a.63.63 0 0 1 .326.279c.62 1.056-.186 2.8-1.286 2.826a6.362 6.362 0 0 0-.995.132c-1.112.188-1.665-.037-2.008-.843-.275-.64.049-1.682.725-2.246zm92.457 3166.101c1.132.5 1.329 1.15.551 2.21-.202.3-.48.53-.801.68-.322.14-.676.19-1.024.14-.605-.07-1.212-.11-1.819-.12-.692.01-1.312-.09-1.684-.78-.172-.3-.256-.64-.239-.98.017-.34.134-.67.335-.94.346-.51.601-1.03.314-1.74-.196-.49.65-1.4 1.393-1.62a1.073 1.073 0 0 1 .861.06c.133.06.253.16.352.28.099.11.175.25.224.39.184.35.394.68.629.98l.908 1.44zm28.972-24.26c.902-.73 1.807-.46 2.198.57.174.3.372.58.592.85.317.52.589 1.08.907 1.6.103.19.257.34.441.43.983.43 1.133.88.561 1.84-.637 1.07-1.381 1.34-2.572 1.05-.46-.09-.936-.08-1.397.03-.858.19-1.638.14-2.145-.64a1.74 1.74 0 0 1-.37-1.19c.026-.44.206-.85.507-1.17.157-.18.273-.4.34-.64.068-.24.084-.48.049-.72-.37-1.06.436-1.44.889-2.01zm36.898-31.66c.409.11 1.162.18 1.119 1.11-.058 1.12-1.516 2.15-2.555 1.93a6.423 6.423 0 0 0-1.908-.07c-.838.09-1.592-.02-2.028-.79a1.836 1.836 0 0 1-.272-1.13c.032-.39.191-.77.451-1.07.394-.51.75-1.11.35-1.88-.102-.19.151-.68.345-.94.966-1.31 2.279-1.15 2.896.26.287.47.612.91.97 1.32.237.4.448.82.632 1.26zm-74.395 61.39c.418-.28.858-.52 1.316-.72.725-.25 1.476-.31 2.063.36.587.68.543 1.37.138 2.14a2.71 2.71 0 0 1-1.339 1.37c-.591.27-1.256.31-1.867.11-.509-.17-.894-1.09-1.119-1.75-.224-.66.147-1.22.808-1.51zm-2.713-3.84c.86-.34 1.738-.63 2.631-.87.399-.07.811.02 1.157.25.346.22.602.58.719.99.25.85-.232 1.39-.86 1.72-.813.39-1.662.7-2.534.92-.34.12-.714.11-1.051-.03a1.53 1.53 0 0 1-.781-.75c-.312-.6.039-1.48.719-2.23zm35.282-17.63c.674-.3 1.363-.56 2.064-.79.315-.08.648-.04.94.12.292.15.525.4.656.72a1.785 1.785 0 0 1-.111 1.82c-.632 1.23-1.731 1.57-2.968 1.41-.882-.11-1-1.05-1.252-1.7-.252-.65.02-1.22.671-1.58zm-32.773 13.06c1.083-.88 2.195-.57 3.263-.36.187.03.385.63.359.96-.037.7.242 1.69-.636 2.01a6.86 6.86 0 0 1-2.652.35 1.365 1.365 0 0 1-.659-.3 1.563 1.563 0 0 1-.44-.59c-.129-.45.141-1.06.312-1.57.07-.22.331-.38.453-.5zm65.765-48.21c.774-.3 1.569-.54 2.378-.71.232-.01.462.04.671.14.208.11.389.26.525.45a1.525 1.525 0 0 1 .19 1.37c-.614 1.74-1.707 2.43-3.33 2.13-.484-.09-.903-1.06-1.162-1.72-.259-.65.15-1.18.811-1.44l-.083-.22zm-59.578 55.97c.417-.4.957-.64 1.514-.66.556-.03 1.09.16 1.498.53.133.15.227.34.274.55.046.2.044.42-.008.63-.507 1.51-2.402 2.39-3.796 1.87-.729-.26-.752-1.75-.058-2.45.184-.17.376-.32.576-.47zm-88.861 23.78c1.132.51 1.33 1.15.552 2.21-.203.3-.48.54-.802.68-.321.14-.675.19-1.024.14-.604-.07-1.211-.11-1.818-.11-.693.01-1.313-.1-1.684-.79a1.743 1.743 0 0 1-.239-.98c.017-.34.134-.67.335-.93.346-.52.601-1.04.313-1.74-.195-.49.65-1.41 1.394-1.63a1.07 1.07 0 0 1 .861.06c.133.07.253.16.352.28.099.12.175.25.224.4.183.34.394.67.629.98l.907 1.43zm-8.524 5.48c.417-.28.858-.52 1.315-.72.726-.26 1.476-.32 2.064.36.587.68.543 1.36.138 2.14-.272.61-.748 1.1-1.339 1.37s-1.256.31-1.867.1c-.51-.17-.894-1.09-1.119-1.74-.225-.66.147-1.23.808-1.51zm-2.713-3.85c.86-.34 1.738-.63 2.631-.87.399-.07.811.02 1.157.25s.602.58.718.99c.251.85-.231 1.39-.86 1.73-.813.39-1.661.69-2.533.91-.34.13-.714.12-1.052-.03a1.531 1.531 0 0 1-.78-.75c-.312-.59.038-1.48.719-2.23zm2.511-4.57c1.083-.87 2.195-.57 3.262-.36.188.04.385.63.36.97-.038.69.242 1.69-.637 2.01-.86.28-1.76.4-2.651.35a1.49 1.49 0 0 1-.66-.31 1.42 1.42 0 0 1-.439-.59c-.129-.45.14-1.05.311-1.57.071-.22.332-.37.454-.5zm6.184 7.77a2.34 2.34 0 0 1 1.514-.67c.557-.02 1.091.16 1.498.53.134.16.228.34.274.55.047.21.044.42-.007.63-.507 1.51-2.402 2.4-3.797 1.87-.729-.25-.752-1.75-.057-2.45.184-.16.376-.32.575-.46zm119.087-51.21a35.86 35.86 0 0 1-3.283.99c-.219.01-.427-.04-.607-.13s-.327-.24-.428-.41c-.047-.21-.045-.43.007-.66.052-.22.152-.44.293-.64.412-.51.918-.94 1.483-1.26a4.525 4.525 0 0 1 1.776-.58c.677-.11 1.504.45 1.463 1.07-.035.47-.411.98-.704 1.62zm29.686-36.68c.826-.37 1.667-.69 2.517-.96.378-.09.752-.03 1.052.15.299.19.502.49.568.85.034.31-.047.64-.228.93-.182.29-.452.52-.762.65-.761.4-1.549.73-2.352.97-.733.24-1.501.22-1.725-.59-.224-.81.325-1.37.93-2zm2.169-4.88c1.011-1.04 2.116-.52 3.178-.48.15 0 .377.51.346.8-.087.71.249 1.74-.549 2.06-.975.32-1.987.44-2.973.36-.22-.06-.415-.18-.568-.35a1.259 1.259 0 0 1-.302-.6c.031-.62.418-1.26.653-1.88l.215.09zm-27.089 42.3c.444-.31.977-.46 1.528-.42.55.03 1.091.24 1.549.61.48.38.542 1.47.016 2.02-.875.91-1.886 1.51-3.27 1.03-.686-.25-1.083-.67-.877-1.4.232-.68.504-1.34.813-1.98l.241.14zm32.551-34.22a2.4 2.4 0 0 1 1.542-.68c.571-.03 1.125.17 1.558.54a.98.98 0 0 1 .256.34c.06.14.092.28.094.43-.165 1.64-2.636 2.95-4.026 2.16-.553-.31-.539-1.78.014-2.33.153-.15.369-.3.562-.46zm-38.515 26.81c.949-.7 2.09-.42 3.238-.15.134.05.25.15.325.28.621 1.05-.185 2.8-1.286 2.82-.336.02-.668.06-.995.13-1.112.19-1.665-.03-2.008-.84-.275-.64.049-1.68.726-2.24zm-70.97 35.3c.902-.73 1.807-.46 2.198.57.174.3.372.59.592.85.317.53.589 1.08.907 1.61.103.18.257.33.441.42.983.43 1.133.88.561 1.85-.637 1.07-1.381 1.34-2.572 1.05-.46-.1-.936-.09-1.398.03-.857.19-1.637.14-2.144-.64a1.761 1.761 0 0 1-.37-1.2c.026-.43.206-.85.507-1.17.157-.18.273-.4.34-.64.068-.23.084-.48.049-.72-.37-1.06.436-1.43.889-2.01zm-4.928 8.26c.674-.3 1.363-.56 2.064-.78.315-.08.647-.04.94.11.292.15.525.41.656.72.147.29.214.61.194.93-.02.32-.125.63-.305.89-.632 1.23-1.731 1.57-2.968 1.42-.882-.12-1-1.05-1.252-1.7-.252-.65.019-1.23.671-1.59zm1.096-1.77c-1.087.38-2.182.71-3.283.98-.219.01-.427-.03-.607-.13-.18-.09-.327-.23-.428-.41-.047-.21-.045-.43.007-.66.052-.22.152-.44.293-.64.412-.51.918-.94 1.483-1.26a4.693 4.693 0 0 1 1.776-.58c.677-.1 1.504.45 1.463 1.07-.035.48-.411.98-.704 1.63zm4.768.73c.444-.31.977-.45 1.528-.42.55.03 1.091.24 1.549.61.48.38.542 1.48.016 2.02-.875.91-1.886 1.52-3.27 1.03-.686-.25-1.083-.67-.878-1.4.233-.68.505-1.34.814-1.97l.241.13zm-5.964-7.41c.949-.7 2.09-.42 3.238-.15.134.05.25.15.325.28.621 1.06-.185 2.8-1.286 2.83-.336.01-.669.06-.995.13-1.112.19-1.665-.04-2.008-.85-.275-.64.049-1.68.726-2.24zm-56.349-1653.81c1.132.51 1.33 1.15.552 2.21-.203.3-.48.54-.802.68a1.89 1.89 0 0 1-1.024.14c-.604-.07-1.211-.11-1.818-.11-.693.01-1.313-.1-1.684-.79a1.763 1.763 0 0 1-.239-.98c.017-.34.134-.67.335-.94.346-.51.601-1.03.313-1.73-.195-.49.65-1.41 1.394-1.63a1.07 1.07 0 0 1 .861.06c.133.07.253.16.352.28.099.12.175.25.224.4.183.34.394.67.629.98l.907 1.43zm-8.524 5.48c.417-.28.858-.52 1.315-.72.726-.26 1.476-.32 2.064.36.587.67.543 1.36.138 2.13-.272.62-.748 1.1-1.339 1.38-.591.27-1.256.3-1.867.1-.51-.17-.894-1.09-1.119-1.75-.225-.65.147-1.22.808-1.5zm-2.713-3.85c.86-.34 1.738-.63 2.631-.87.399-.07.811.02 1.157.25s.602.58.718.99c.251.85-.231 1.39-.86 1.72-.813.4-1.661.7-2.533.92-.34.13-.714.12-1.052-.03a1.531 1.531 0 0 1-.78-.75c-.312-.59.038-1.48.719-2.23zm2.511-4.57c1.083-.87 2.195-.57 3.262-.36.188.04.385.63.36.97-.038.69.242 1.69-.637 2-.86.29-1.76.41-2.651.36a1.49 1.49 0 0 1-.66-.31 1.487 1.487 0 0 1-.439-.59c-.129-.45.14-1.06.311-1.57.071-.22.332-.37.454-.5zm6.184 7.77a2.34 2.34 0 0 1 1.514-.67c.557-.02 1.091.16 1.498.53.134.16.228.34.274.55.047.2.044.42-.007.63-.507 1.51-2.402 2.39-3.797 1.87-.729-.26-.752-1.75-.057-2.45.184-.16.376-.32.575-.46zm-30.131-682.585c.002-1.213.524-1.656 1.835-1.404.363.057.695.207.963.433.267.226.46.52.556.85.183.567.398 1.122.646 1.663.294.611.454 1.204-.04 1.821-.203.275-.487.49-.813.616a1.819 1.819 0 0 1-1.014.09c-.624-.094-1.213-.106-1.753.441-.377.376-1.578.002-2.091-.567a1.015 1.015 0 0 1-.304-.787c.008-.147.048-.293.116-.429s.163-.26.28-.364c.245-.305.464-.628.654-.964l.965-1.399zm-34.626-15.7c-1.052-.501-1.175-1.415-.374-2.189.207-.278.389-.571.543-.875.362-.5.771-.972 1.126-1.47.129-.168.204-.365.216-.569-.003-1.051.354-1.369 1.489-1.259 1.262.123 1.821.673 2.044 1.85.103.446.31.865.606 1.228.531.683.807 1.397.29 2.169a1.824 1.824 0 0 1-.963.822c-.418.158-.881.17-1.3.033a1.843 1.843 0 0 0-.74-.036 1.843 1.843 0 0 0-.696.255c-.836.767-1.518.206-2.241.041zm43.26 21.008a8.4 8.4 0 0 1-1.217-.871c-.54-.538-.904-1.18-.515-1.982.389-.801 1.047-1.046 1.938-1.006a2.795 2.795 0 0 1 1.833.622c.498.413.807.988.868 1.616.057.52-.644 1.243-1.166 1.715-.521.471-1.202.374-1.741-.094zm-2.47 4a22.54 22.54 0 0 1-1.896-1.979 1.496 1.496 0 0 1-.248-1.13c.07-.401.293-.774.628-1.048.687-.572 1.396-.369 1.965.052.701.56 1.338 1.187 1.901 1.872.259.249.405.585.411.944.005.359-.13.717-.381 1.005-.424.522-1.395.576-2.38.284zm-31.045-24.045a19.485 19.485 0 0 1-1.582-1.511 1.233 1.233 0 0 1-.285-.88c.022-.323.165-.635.403-.882a1.903 1.903 0 0 1 1.746-.654c1.407.054 2.183.888 2.547 2.051.259.831-.566 1.322-1.069 1.815-.503.493-1.15.488-1.76.061zm25.742 23.705c-1.262-.601-1.437-1.715-1.685-2.749-.042-.182.433-.604.754-.719.666-.255 1.477-.913 2.138-.265a6.633 6.633 0 0 1 1.425 2.21c.059.233.055.477-.011.711a1.502 1.502 0 0 1-.369.634c-.368.302-1.046.313-1.598.374-.233.028-.486-.14-.654-.196zm4.694-8.705a2.3 2.3 0 0 1-1.248-1.069 1.964 1.964 0 0 1-.125-1.55c.09-.183.227-.344.4-.47.172-.127.376-.214.593-.255 1.618-.174 3.227 1.144 3.315 2.599.061.754-1.325 1.392-2.264 1.064a7.772 7.772 0 0 1-.671-.319zm58.937 69.082c.002-1.21.525-1.65 1.836-1.4.362.06.695.21.962.43.268.23.46.52.556.85.183.57.398 1.12.646 1.67.295.61.454 1.2-.04 1.82-.203.27-.486.49-.813.61-.327.13-.681.16-1.014.09-.623-.09-1.213-.1-1.753.44-.377.38-1.577.01-2.091-.56a1.15 1.15 0 0 1-.238-.36 1.049 1.049 0 0 1-.066-.43c.009-.15.048-.29.116-.43s.163-.26.28-.36c.245-.31.464-.63.654-.97l.965-1.4zm8.634 5.31a7.568 7.568 0 0 1-1.217-.87c-.54-.54-.904-1.18-.515-1.98s1.047-1.05 1.938-1.01c.683-.01 1.336.21 1.834.63.498.41.806.98.867 1.61.057.52-.643 1.24-1.165 1.72-.522.47-1.203.37-1.742-.1zm-2.469 4a21.495 21.495 0 0 1-1.897-1.98c-.23-.32-.318-.73-.248-1.13.07-.4.294-.77.628-1.04.688-.58 1.396-.37 1.965.05a12.5 12.5 0 0 1 1.901 1.87c.259.25.405.58.411.94.006.36-.13.72-.38 1.01-.425.52-1.396.57-2.38.28zm-5.306-.34c-1.261-.6-1.437-1.71-1.685-2.75-.042-.18.434-.6.754-.72.667-.25 1.478-.91 2.138-.26a6.519 6.519 0 0 1 1.425 2.21c.059.23.055.47-.011.71a1.49 1.49 0 0 1-.369.63c-.368.3-1.046.32-1.598.38-.233.02-.485-.14-.654-.2zm4.697-8.7c-.55-.21-.995-.59-1.249-1.07a1.967 1.967 0 0 1-.125-1.55c.09-.18.227-.35.4-.47.172-.13.376-.22.593-.26 1.618-.17 3.227 1.15 3.315 2.6.062.76-1.325 1.39-2.264 1.07-.229-.1-.453-.21-.67-.32zm-97.036-84.595a34.733 34.733 0 0 1 2.275 2.509c.099.191.144.394.131.593a1.012 1.012 0 0 1-.205.549 1.574 1.574 0 0 1-.618.266 1.92 1.92 0 0 1-.721.005 5.26 5.26 0 0 1-1.788-.796 4.433 4.433 0 0 1-1.273-1.339c-.38-.557-.202-1.521.388-1.739.46-.166 1.089-.042 1.811-.048zm-1.285-4.537a2.323 2.323 0 0 1-1.027-1.182 2.607 2.607 0 0 1-.071-1.628c.159-.585 1.155-1.092 1.878-.849 1.217.398 2.199 1.047 2.315 2.478.052.712-.176 1.238-.943 1.358-.729.073-1.456.104-2.178.093l.026-.27zm-4.455 8.362c-1.044-.555-1.253-1.684-1.477-2.814a.61.61 0 0 1 .125-.405c.73-.988 2.692-.993 3.171-.026.155.291.334.568.534.829.635.91.654 1.494.043 2.132-.483.509-1.59.652-2.396.284zm62.301 48.432c-1.051-.501-1.175-1.415-.374-2.189.207-.277.389-.57.543-.875.363-.499.771-.971 1.126-1.469.129-.168.204-.366.216-.569-.003-1.051.354-1.37 1.489-1.26 1.262.124 1.821.673 2.045 1.85a3 3 0 0 0 .606 1.228c.531.684.806 1.398.289 2.17a1.817 1.817 0 0 1-.963.822 1.964 1.964 0 0 1-1.299.032 1.867 1.867 0 0 0-1.436.22c-.837.767-1.519.206-2.242.04zm9.745.963a19.485 19.485 0 0 1-1.582-1.511 1.233 1.233 0 0 1-.284-.88 1.41 1.41 0 0 1 .402-.882 1.903 1.903 0 0 1 1.746-.654c1.407.054 2.183.888 2.547 2.051.259.831-.566 1.322-1.069 1.815-.503.493-1.149.489-1.76.061zm-2.107-.241a34.538 34.538 0 0 1 2.276 2.509c.099.19.144.394.131.592a1.024 1.024 0 0 1-.205.549c-.176.129-.387.22-.619.267a1.94 1.94 0 0 1-.721.005 5.26 5.26 0 0 1-1.788-.796 4.456 4.456 0 0 1-1.273-1.339c-.38-.557-.201-1.522.388-1.74.46-.166 1.089-.041 1.811-.047zm-1.285-4.539a2.321 2.321 0 0 1-1.027-1.181 2.608 2.608 0 0 1-.071-1.628c.16-.585 1.155-1.092 1.879-.849 1.216.398 2.198 1.046 2.314 2.477.052.713-.176 1.239-.943 1.358a18.96 18.96 0 0 1-2.178.094l.026-.271zm-4.455 8.363c-1.044-.555-1.253-1.684-1.477-2.815a.605.605 0 0 1 .126-.404c.73-.988 2.691-.994 3.17-.027.156.291.334.569.534.83.636.909.655 1.494.044 2.132-.484.508-1.591.652-2.397.284zM919.81 2.25a4.566 4.566 0 0 1 1.723-.483 4.14 4.14 0 0 1 1.716.23.616.616 0 0 1 .288.202c.538.73-.323 2.827-1.251 3.032-.556.079-1.11.19-1.658.336a1.402 1.402 0 0 1-1.02.08 1.264 1.264 0 0 1-.751-.64c-.452-.673-.114-1.256.15-1.847.221-.341.493-.648.803-.91zM112.107 325.621c1.195.339 1.485.952.872 2.11a1.9 1.9 0 0 1-.693.781c-.297.188-.64.286-.993.285-.608.014-1.215.061-1.816.142-.684.107-1.313.091-1.783-.543a1.763 1.763 0 0 1-.38-.933 1.685 1.685 0 0 1 .193-.975c.266-.558.442-1.107.053-1.765-.265-.458.437-1.479 1.14-1.801a1.082 1.082 0 0 1 .86-.066c.142.048.274.126.39.227.115.102.21.225.28.364.233.314.489.609.767.881l1.11 1.293zm23.2-34.466c.785-.846 1.72-.708 2.259.257.216.272.454.524.711.753.391.478.743.992 1.134 1.463.13.168.303.293.5.361 1.036.289 1.25.712.827 1.745-.473 1.148-1.169 1.519-2.391 1.401a3.197 3.197 0 0 0-1.378.227c-.82.307-1.6.367-2.217-.332a1.771 1.771 0 0 1-.541-1.131c-.04-.436.078-.873.329-1.227a1.747 1.747 0 0 0 .183-1.406c-.523-.997.22-1.48.584-2.111zm67.826-44.952c.999-.145 1.243.788.733 1.781a2.528 2.528 0 0 1-.963 1.031c-.406.24-.863.348-1.308.309a5.24 5.24 0 0 0-1.477.254c-.706.17-1.381.344-1.936-.272-.556-.616-.482-1.268-.161-2.024.183-.329.293-.691.324-1.058a2.363 2.363 0 0 0-.151-1.057c-.208-.462.699-1.645 1.37-1.925.671-.28 1.195-.002 1.531.691.161.234.352.442.568.621.423.483.859.977 1.47 1.649zm-26.097 27.866c.422.056 1.177.016 1.272.942.108 1.118-1.183 2.345-2.244 2.274a6.264 6.264 0 0 0-1.898.194c-.815.212-1.577.21-2.123-.492a1.866 1.866 0 0 1-.149-2.208c.315-.56.579-1.206.07-1.905-.13-.179.049-.691.202-.983.762-1.432 2.085-1.46 2.905-.144.353.422.739.812 1.155 1.167.293.366.564.752.81 1.155zm-72.557 58.166a8.265 8.265 0 0 1 1.196-.898c.68-.356 1.414-.519 2.095.068.681.587.739 1.272.453 2.096a2.692 2.692 0 0 1-1.124 1.545 2.522 2.522 0 0 1-1.832.363c-.528-.091-1.045-.948-1.364-1.569-.32-.62-.035-1.23.576-1.605zm-3.252-3.427a23.156 23.156 0 0 1 2.476-1.227 1.609 1.609 0 0 1 1.181.082c.376.178.682.491.858.88.373.804-.024 1.411-.597 1.827-.747.502-1.541.924-2.372 1.261a1.414 1.414 0 0 1-1.045.122 1.562 1.562 0 0 1-.883-.636c-.396-.542-.18-1.468.382-2.309zm93.305-76.463c.774-.727 1.508-1.503 2.656-1.444a1.527 1.527 0 0 1 1.244.614c.145.195.245.424.293.671.048.246.042.504-.017.754a3.613 3.613 0 0 1-1.092 1.902 3.31 3.31 0 0 1-1.94.869c-.731.078-1.496-.556-1.827-1.511-.218-.658-.011-1.2.683-1.855zm-62.885 47.672a20.08 20.08 0 0 1 1.928-1.063c.299-.124.634-.131.946-.021.312.11.58.331.756.622.187.263.301.573.329.895.028.321-.031.641-.17.923-.444 1.303-1.481 1.798-2.728 1.816-.89.011-1.145-.898-1.49-1.506-.346-.609-.162-1.213.429-1.666zm-28.61 23.917c.943-1.015 2.088-.87 3.176-.815.191.011.474.575.498.907.066.695.489 1.638-.334 2.077a6.939 6.939 0 0 1-2.571.72 1.474 1.474 0 0 1-.698-.208 1.534 1.534 0 0 1-.522-.522c-.194-.429-.017-1.067.076-1.602.038-.225.273-.415.375-.557zM169 280.035a14.787 14.787 0 0 1 2.249-1.034 1.37 1.37 0 0 1 .684.043c.222.073.423.2.587.372a1.54 1.54 0 0 1 .389 1.329c-.35 1.806-1.33 2.646-2.981 2.571-.493-.022-1.05-.925-1.403-1.535-.353-.611-.027-1.192.59-1.539l-.115-.207zm-58.695 50.717a2.318 2.318 0 0 1 1.4-.872 2.098 2.098 0 0 1 1.56.313c.156.136.276.309.353.506a1.4 1.4 0 0 1 .086.627c-.28 1.564-2.024 2.705-3.482 2.383-.759-.152-1.003-1.629-.418-2.417.158-.189.325-.369.501-.54zm-69.243 47.199c1.195.339 1.486.952.872 2.11a1.9 1.9 0 0 1-.693.781c-.297.188-.64.287-.992.285-.61.014-1.216.061-1.817.142-.684.107-1.313.091-1.783-.543a1.767 1.767 0 0 1-.38-.933 1.698 1.698 0 0 1 .193-.975c.266-.558.442-1.107.053-1.765-.265-.458.437-1.479 1.14-1.801.13-.07.273-.112.42-.123.148-.011.297.008.44.057.142.048.274.126.39.227.115.102.21.225.28.364.233.314.49.609.767.881l1.11 1.293zm-7.628 6.614a8.282 8.282 0 0 1 1.196-.898c.68-.356 1.414-.519 2.095.068.681.588.74 1.272.453 2.096a2.69 2.69 0 0 1-1.123 1.545 2.525 2.525 0 0 1-1.833.363c-.528-.091-1.045-.948-1.364-1.569-.32-.62-.035-1.23.577-1.605zm-3.252-3.427c.8-.458 1.628-.867 2.476-1.226a1.605 1.605 0 0 1 1.181.081c.377.178.682.491.858.88.373.804-.024 1.411-.597 1.827-.747.502-1.541.924-2.372 1.261a1.412 1.412 0 0 1-1.044.122 1.561 1.561 0 0 1-.884-.636c-.396-.542-.18-1.468.382-2.309zm1.81-4.874c.943-1.015 2.088-.87 3.176-.815.19.011.474.575.498.907.066.695.489 1.638-.333 2.077a6.944 6.944 0 0 1-2.572.72 1.474 1.474 0 0 1-.698-.208 1.53 1.53 0 0 1-.522-.522c-.194-.429-.017-1.067.076-1.601.038-.226.273-.416.375-.558zm7.266 6.818a2.322 2.322 0 0 1 1.4-.872 2.095 2.095 0 0 1 1.56.314c.156.135.276.308.353.505a1.4 1.4 0 0 1 .086.627c-.28 1.564-2.024 2.705-3.482 2.383-.759-.152-1.002-1.629-.418-2.417.158-.189.325-.369.5-.54zm153.069-134.219c.78-.581 1.693-1.501 2.9-1.274.237.068.453.187.637.349.184.162.33.364.432.595.041.216.031.445-.028.668a1.67 1.67 0 0 1-.313.617c-.788.895-1.74 1.666-2.878 1.796a2.024 2.024 0 0 1-1.606-.398c-.453-.519-.054-1.266.393-1.855.09-.115.2-.215.463-.498zm-59.854 49.247a35.54 35.54 0 0 1-3.104 1.434c-.215.04-.428.025-.62-.042a1.053 1.053 0 0 1-.483-.345 1.478 1.478 0 0 1-.091-.653c.018-.23.085-.462.195-.678a5.131 5.131 0 0 1 1.282-1.453 4.563 4.563 0 0 1 1.672-.821c.654-.201 1.555.235 1.606.848.035.477-.262 1.031-.457 1.71zm33.853-21.047a23.597 23.597 0 0 1 2.35-1.301 1.4 1.4 0 0 1 1.063.005c.324.142.569.412.688.76.08.304.048.643-.089.956-.136.313-.37.578-.657.749-.695.5-1.427.932-2.185 1.29-.691.333-1.454.421-1.795-.347-.341-.767.119-1.4.625-2.112zm1.424-5.132c.847-1.173 2.018-.804 3.074-.919.149-.017.448.453.461.744.019.717.502 1.684-.239 2.117a7.422 7.422 0 0 1-2.89.769 1.225 1.225 0 0 1-1.001-.818c-.06-.617.229-1.3.369-1.953l.226.06zm32.739-21.14c1.031-.976 2.662-1.267 3.451-.491.08.129.129.281.145.443a1.27 1.27 0 0 1-.057.5 4.131 4.131 0 0 1-1.466 2.098c-.696.523-1.512.779-2.281.717-.611-.032-.932-.744-.625-1.654a11.78 11.78 0 0 1 .833-1.613zm-63.191 47.377a2.39 2.39 0 0 1 1.45-.633 2.787 2.787 0 0 1 1.623.385c.531.313.754 1.387.313 1.997-.73 1.029-1.642 1.768-3.083 1.479-.716-.149-1.171-.509-1.075-1.261.13-.703.302-1.393.513-2.066l.259.099zm37.053-19.003a2.351 2.351 0 0 1 1.426-.89 2.233 2.233 0 0 1 1.62.314c.122.078.225.182.305.305.079.124.133.264.156.411.079 1.644-2.173 3.285-3.665 2.704-.593-.23-.797-1.694-.33-2.311.128-.171.32-.352.488-.533zm-44.05 12.504c.836-.823 2.006-.706 3.182-.601.14.03.27.112.364.23.769.959.229 2.798-.856 2.978a6.37 6.37 0 0 0-.966.27c-1.072.342-1.653.198-2.111-.552-.367-.595-.2-1.672.387-2.325zm-65.697 51.007c.785-.846 1.72-.708 2.26.257.215.272.453.524.71.753.391.478.743.992 1.134 1.463.13.168.303.293.5.361 1.036.289 1.25.712.827 1.745-.473 1.148-1.17 1.519-2.39 1.401a3.196 3.196 0 0 0-1.379.227c-.82.307-1.6.367-2.217-.332a1.771 1.771 0 0 1-.542-1.131 1.842 1.842 0 0 1 .33-1.227 1.735 1.735 0 0 0 .183-1.406c-.523-.997.22-1.48.584-2.111zm-3.66 8.862a20.08 20.08 0 0 1 1.928-1.063c.299-.124.634-.131.946-.021.312.11.58.331.756.622.187.263.301.573.33.895a1.74 1.74 0 0 1-.171.923c-.444 1.303-1.482 1.798-2.728 1.816-.89.011-1.145-.898-1.49-1.506-.346-.609-.162-1.213.429-1.666zm.823-1.907a35.466 35.466 0 0 1-3.103 1.434c-.215.04-.428.025-.62-.042a1.059 1.059 0 0 1-.483-.345 1.483 1.483 0 0 1-.09-.653c.017-.23.084-.462.194-.678a5.13 5.13 0 0 1 1.281-1.453 4.566 4.566 0 0 1 1.673-.821c.654-.201 1.555.235 1.605.848.036.477-.262 1.031-.456 1.71zm4.828.058a2.39 2.39 0 0 1 1.45-.633 2.787 2.787 0 0 1 1.623.385c.531.313.754 1.387.313 1.997-.73 1.029-1.642 1.768-3.083 1.479-.716-.149-1.17-.509-1.075-1.261.13-.703.302-1.393.513-2.066l.26.099zm-6.998-6.499c.837-.823 2.007-.706 3.183-.601.14.03.27.112.363.23.77.959.23 2.798-.855 2.978a6.37 6.37 0 0 0-.966.27c-1.072.342-1.653.198-2.111-.552-.367-.595-.2-1.672.386-2.325zm-46.882 67.458c.918-.819 1.606-.742 2.301.37.202.299.314.64.324.985.01.345-.082.682-.266.974a15.501 15.501 0 0 0-.82 1.588c-.262.625-.603 1.141-1.403 1.203a1.883 1.883 0 0 1-1.015-.168 1.769 1.769 0 0 1-.754-.668c-.35-.512-.739-.944-1.518-.962-.538-.017-1.067-1.133-.984-1.886a1 1 0 0 1 .11-.415c.068-.129.162-.243.279-.336.116-.093.253-.163.402-.206a1.27 1.27 0 0 1 .464-.046c.397-.029.788-.09 1.17-.18l1.71-.253zm1.829 9.794a7.898 7.898 0 0 1-.165-1.463c.042-.752.28-1.448 1.149-1.71.868-.262 1.498.045 2.07.712.47.484.745 1.102.77 1.739a2.377 2.377 0 0 1-.635 1.716c-.355.393-1.374.378-2.083.321-.71-.056-1.096-.61-1.106-1.315zm-4.694.928c.016-.905.087-1.807.214-2.701.09-.385.334-.72.685-.941a1.845 1.845 0 0 1 1.217-.257c.897.107 1.223.753 1.29 1.447.05.883.007 1.764-.13 2.632a1.33 1.33 0 0 1-.436.933 1.58 1.58 0 0 1-1.016.406c-.681.048-1.38-.613-1.823-1.519zm-3.326-4.042c-.399-1.313.324-2.192.938-3.069.109-.154.75-.097 1.053.056.643.306 1.688.444 1.645 1.358a6.506 6.506 0 0 1-.706 2.517c-.136.2-.323.362-.545.473a1.584 1.584 0 0 1-.728.164c-.477-.061-.944-.541-1.363-.896-.179-.149-.222-.444-.294-.603zm9.748-2.508a2.208 2.208 0 0 1-.037-1.62 2.03 2.03 0 0 1 1.086-1.137c.2-.059.414-.07.626-.031.212.039.416.126.594.254 1.224 1.046 1.317 3.093.277 4.14-.528.553-1.948-.012-2.334-.908a7.104 7.104 0 0 1-.212-.698zm5.338 82.228c.918-.819 1.605-.743 2.3.37.203.299.315.639.325.984.01.345-.082.682-.267.975a15.317 15.317 0 0 0-.82 1.588c-.262.625-.602 1.141-1.402 1.203A1.883 1.883 0 0 1 20.73 502a1.768 1.768 0 0 1-.754-.668c-.35-.512-.74-.944-1.518-.962-.539-.017-1.068-1.133-.985-1.887a1 1 0 0 1 .111-.414c.067-.129.162-.243.278-.336.117-.093.254-.164.402-.207.149-.043.307-.058.465-.045.396-.03.788-.09 1.17-.181l1.71-.252zm1.826 9.794a7.897 7.897 0 0 1-.165-1.462c.042-.752.281-1.448 1.15-1.711.868-.262 1.497.046 2.07.713.47.483.744 1.102.769 1.739.025.637-.2 1.247-.634 1.716-.355.392-1.374.377-2.084.321-.709-.056-1.095-.611-1.106-1.316zm-4.691.929a21.81 21.81 0 0 1 .213-2.701 1.53 1.53 0 0 1 .686-.942 1.85 1.85 0 0 1 1.216-.257c.898.107 1.223.754 1.29 1.447.051.883.008 1.765-.13 2.632a1.332 1.332 0 0 1-.435.934c-.268.247-.63.391-1.016.406-.681.048-1.38-.614-1.824-1.519zm-3.328-4.041c-.4-1.313.324-2.192.937-3.069.11-.154.75-.097 1.053.056.643.306 1.689.444 1.646 1.357a6.506 6.506 0 0 1-.707 2.518c-.136.2-.323.362-.544.473a1.584 1.584 0 0 1-.729.164c-.477-.062-.943-.541-1.363-.897-.178-.149-.222-.443-.293-.602zm9.749-2.51a2.207 2.207 0 0 1-.036-1.62c.194-.51.581-.915 1.086-1.137.199-.059.413-.07.626-.031.212.039.415.126.594.254 1.224 1.046 1.316 3.093.277 4.139-.528.554-1.948-.011-2.335-.907a7.104 7.104 0 0 1-.212-.698zM2.954 459.096c-.333-1.094.274-1.801 1.4-1.748.35-.039.694-.106 1.029-.201.622-.078 1.255-.103 1.87-.184.215-.021.415-.101.577-.23.792-.712 1.274-.671 1.958.219.76.991.723 1.764-.016 2.72a3.005 3.005 0 0 0-.518 1.266c-.157.844-.51 1.524-1.443 1.674a1.87 1.87 0 0 1-1.272-.136 1.898 1.898 0 0 1-.903-.912 1.776 1.776 0 0 0-.473-.557 1.838 1.838 0 0 0-.664-.327c-1.145-.083-1.182-.952-1.545-1.584zm5.859 7.655c-.017-.722.007-1.442.072-2.158.047-.314.215-.597.473-.8.259-.203.592-.311.939-.306.327-.02.658.046.954.19.296.144.546.36.72.622.91 1.048.805 2.169.172 3.217-.453.748-1.381.487-2.094.459-.712-.029-1.146-.496-1.236-1.224zm-1.241-1.678a33.406 33.406 0 0 1-.358 3.332c-.077.199-.2.369-.359.494a1.075 1.075 0 0 1-.553.224 1.582 1.582 0 0 1-.62-.264 1.867 1.867 0 0 1-.491-.515 5 5 0 0 1-.607-1.823 4.302 4.302 0 0 1 .151-1.821c.164-.649 1.014-1.173 1.577-.897.436.219.767.755 1.26 1.27zm2.561-3.99a2.254 2.254 0 0 1 .199-1.537 2.697 2.697 0 0 1 1.181-1.152c.55-.28 1.606.093 1.912.777.521 1.143.695 2.287-.308 3.338-.503.519-1.054.711-1.663.24a18.277 18.277 0 0 1-1.543-1.502l.222-.164zm-9.33 2.45c-.287-1.126.425-2.039 1.127-2.965a.647.647 0 0 1 .391-.183c1.24-.143 2.57 1.264 2.163 2.261a5.985 5.985 0 0 0-.265.945c-.258 1.072-.687 1.48-1.582 1.472-.711-.003-1.568-.702-1.834-1.53zm79.88 103.105c-.266-1.185.147-1.727 1.483-1.756.366-.02.724.056 1.035.22.311.165.564.412.73.714.304.515.637 1.012.998 1.489.422.535.709 1.081.362 1.787-.137.31-.367.58-.658.772-.291.192-.63.297-.97.301-.63.038-1.208.15-1.615.798-.285.446-1.54.333-2.167-.116a1.027 1.027 0 0 1-.47-.704 1.1 1.1 0 0 1 .018-.443c.036-.147.102-.288.193-.415a7.15 7.15 0 0 0 .427-1.078l.634-1.569zm9.603 3.372a8.371 8.371 0 0 1-1.38-.595c-.646-.412-1.144-.963-.94-1.827.202-.864.791-1.241 1.67-1.389a2.816 2.816 0 0 1 1.928.223 2.428 2.428 0 0 1 1.204 1.396c.17.496-.355 1.349-.76 1.919-.406.57-1.092.618-1.722.273zm-1.53 4.424a22.833 22.833 0 0 1-2.288-1.535 1.511 1.511 0 0 1-.492-1.051c-.02-.407.117-.818.383-1.155.545-.703 1.282-.654 1.93-.362.809.4 1.569.878 2.27 1.43.308.188.524.486.61.835a1.5 1.5 0 0 1-.15 1.061c-.3.599-1.237.856-2.263.777zm-5.253.781c-1.365-.322-1.781-1.373-2.252-2.331-.081-.169.29-.681.578-.86.595-.389 1.242-1.202 2.03-.707a6.703 6.703 0 0 1 1.878 1.859c.109.215.16.454.146.697a1.486 1.486 0 0 1-.22.696c-.293.372-.953.525-1.478.701-.222.076-.505-.035-.682-.055zm2.664-9.485a2.334 2.334 0 0 1-1.455-.782 1.971 1.971 0 0 1-.463-1.487c.047-.198.145-.384.286-.543.14-.16.32-.288.524-.374 1.541-.508 3.403.441 3.81 1.843.226.723-.987 1.638-1.976 1.514a7.384 7.384 0 0 1-.726-.171zM37.56 546.772c-1.138-.268-1.46-1.136-.849-2.059.142-.315.255-.639.339-.969.243-.563.538-1.11.775-1.671.089-.191.119-.4.085-.601-.234-1.026.044-1.411 1.177-1.542 1.26-.145 1.927.275 2.404 1.378.2.414.493.78.863 1.072.67.556 1.096 1.195.761 2.058a1.793 1.793 0 0 1-.759 1.005c-.373.241-.823.35-1.262.304a1.85 1.85 0 0 0-1.354.515c-.648.925-1.438.52-2.18.51zm9.728-1.104a20.094 20.094 0 0 1-1.878-1.144 1.25 1.25 0 0 1-.472-.8c-.05-.32.02-.655.199-.945a1.865 1.865 0 0 1 1.56-1.005c1.386-.243 2.328.409 2.94 1.469.436.756-.26 1.409-.644 1.996-.382.587-1.015.718-1.705.429zm-2.111.206a35.39 35.39 0 0 1 2.776 1.973c.138.166.227.355.258.551a1.01 1.01 0 0 1-.079.579c-.143.163-.33.296-.545.39a1.925 1.925 0 0 1-.704.157 5.319 5.319 0 0 1-1.92-.403 4.516 4.516 0 0 1-1.54-1.04c-.493-.464-.532-1.444-.004-1.78.412-.259 1.054-.269 1.758-.427zm-2.254-4.163a2.353 2.353 0 0 1-1.263-.939 2.616 2.616 0 0 1-.429-1.574c.027-.605.888-1.309 1.648-1.223 1.276.133 2.378.561 2.806 1.933.208.685.102 1.247-.621 1.525-.696.224-1.399.407-2.106.547l-.035-.269zm-2.508 9.102c-1.142-.323-1.595-1.382-2.063-2.439a.61.61 0 0 1 .034-.422c.495-1.117 2.41-1.534 3.09-.69.216.251.452.485.705.698.82.755.968 1.321.512 2.073-.36.598-1.41.97-2.278.78zM699.062 1667.83c1.195.34 1.486.95.872 2.11-.156.32-.396.59-.693.78-.297.19-.64.29-.992.29-.609.01-1.216.06-1.817.14-.684.11-1.313.09-1.783-.54-.214-.27-.347-.6-.38-.94-.034-.34.033-.68.193-.97.266-.56.442-1.11.053-1.77-.265-.46.437-1.48 1.14-1.8.13-.07.273-.11.421-.12.147-.01.296.01.439.05.142.05.274.13.39.23.115.1.21.23.281.37.232.31.488.61.766.88l1.11 1.29zm-7.628 6.61a8.57 8.57 0 0 1 1.196-.89c.68-.36 1.414-.52 2.095.07.682.58.739 1.27.453 2.09a2.742 2.742 0 0 1-1.123 1.55 2.52 2.52 0 0 1-1.833.36c-.528-.09-1.045-.95-1.364-1.57-.32-.62-.035-1.23.576-1.61zm-3.252-3.42c.801-.46 1.627-.87 2.476-1.23.385-.12.805-.09 1.181.08.377.18.682.49.858.88.373.81-.024 1.41-.597 1.83-.746.5-1.541.92-2.372 1.26-.317.17-.689.22-1.044.12a1.55 1.55 0 0 1-.884-.63c-.396-.55-.18-1.47.382-2.31zm1.809-4.88c.942-1.01 2.088-.87 3.175-.81.191.01.474.57.498.91.066.69.489 1.63-.333 2.07-.809.41-1.682.65-2.572.72a1.447 1.447 0 0 1-.698-.21c-.212-.12-.391-.3-.522-.52-.194-.43-.017-1.06.076-1.6.038-.22.273-.41.376-.56zm7.267 6.82c.354-.46.853-.77 1.4-.87.547-.1 1.103.01 1.56.31.156.14.276.31.353.51.076.2.105.41.086.63-.279 1.56-2.024 2.7-3.482 2.38-.759-.15-1.002-1.63-.418-2.42.158-.19.325-.37.501-.54zm25.344-40.4c.785-.85 1.72-.71 2.259.25.216.27.454.53.711.76.391.47.743.99 1.134 1.46.13.17.303.29.5.36 1.036.29 1.25.71.827 1.74-.473 1.15-1.169 1.52-2.391 1.41-.468-.03-.938.05-1.378.22-.82.31-1.6.37-2.217-.33a1.76 1.76 0 0 1-.542-1.13c-.039-.44.079-.87.33-1.23a1.707 1.707 0 0 0 .183-1.4c-.523-1 .22-1.48.584-2.11zm-3.658 8.86c.623-.39 1.267-.75 1.928-1.07.299-.12.634-.13.946-.02.312.11.58.33.756.63.187.26.301.57.329.89.028.32-.031.64-.17.92-.444 1.31-1.481 1.8-2.728 1.82-.89.01-1.145-.9-1.491-1.51-.345-.61-.161-1.21.43-1.66zm.823-1.91a34.493 34.493 0 0 1-3.103 1.43c-.215.04-.428.03-.62-.04a.989.989 0 0 1-.483-.34c-.078-.2-.109-.42-.091-.66.018-.23.085-.46.195-.67.332-.57.77-1.06 1.281-1.46a4.685 4.685 0 0 1 1.673-.82c.654-.2 1.555.24 1.605.85.036.48-.262 1.03-.457 1.71zm4.826.06c.394-.37.9-.59 1.45-.63.549-.05 1.116.09 1.623.38.531.31.754 1.39.313 2-.73 1.03-1.642 1.77-3.083 1.48-.716-.15-1.171-.51-1.075-1.26.13-.71.302-1.4.513-2.07l.259.1zm-6.995-6.5c.836-.82 2.006-.71 3.182-.6.14.03.27.11.363.23.77.96.23 2.8-.855 2.98-.33.06-.653.15-.966.27-1.072.34-1.653.19-2.111-.56-.367-.59-.2-1.67.387-2.32zm-46.883 67.46c.918-.82 1.606-.74 2.301.37.202.3.314.64.324.98.01.35-.082.68-.266.98-.305.51-.578 1.04-.82 1.59-.262.62-.603 1.14-1.403 1.2-.344.04-.699-.02-1.015-.17a1.747 1.747 0 0 1-.754-.67c-.35-.51-.739-.94-1.518-.96-.538-.02-1.067-1.13-.984-1.89a.99.99 0 0 1 .111-.41c.067-.13.161-.24.278-.34.116-.09.253-.16.402-.2.148-.05.306-.06.464-.05.397-.03.788-.09 1.171-.18l1.709-.25zm1.829 9.79a7.793 7.793 0 0 1-.165-1.46c.042-.75.28-1.45 1.149-1.71.868-.26 1.498.04 2.07.71.471.48.745 1.1.769 1.74.025.64-.2 1.25-.634 1.72-.354.39-1.374.37-2.083.32-.709-.06-1.096-.61-1.106-1.32zm-4.693.93c.015-.91.086-1.81.213-2.7.09-.39.334-.72.685-.94.351-.22.784-.31 1.217-.26.897.11 1.223.75 1.29 1.45.051.88.007 1.76-.13 2.63-.013.35-.168.69-.436.93-.267.25-.629.39-1.016.41-.681.05-1.379-.61-1.823-1.52zm-3.327-4.04c-.399-1.32.324-2.19.938-3.07.109-.16.749-.1 1.053.05.643.31 1.688.45 1.645 1.36a6.512 6.512 0 0 1-.706 2.52c-.136.2-.323.36-.545.47-.221.11-.471.17-.728.17-.477-.07-.944-.54-1.363-.9-.179-.15-.222-.44-.294-.6zm9.748-2.51a2.204 2.204 0 0 1-.037-1.62c.194-.51.582-.92 1.086-1.14.199-.06.414-.07.626-.03.212.04.416.13.594.26 1.225 1.04 1.317 3.09.277 4.13-.528.56-1.948-.01-2.334-.9a7.457 7.457 0 0 1-.212-.7zm5.338 82.23c.917-.82 1.605-.75 2.301.37.202.3.314.64.324.98.01.35-.082.68-.267.98-.304.51-.578 1.04-.82 1.58-.262.63-.602 1.15-1.402 1.21-.345.04-.699-.02-1.015-.17-.317-.15-.58-.38-.754-.67-.35-.51-.739-.94-1.518-.96-.539-.02-1.068-1.13-.985-1.89a1.02 1.02 0 0 1 .389-.75c.117-.09.254-.16.402-.2.149-.05.307-.06.465-.05.396-.03.788-.09 1.17-.18l1.71-.25zm1.826 9.79c-.1-.48-.156-.97-.165-1.46.042-.75.281-1.45 1.15-1.71.868-.26 1.497.04 2.07.71.47.48.744 1.1.769 1.74.025.64-.201 1.25-.634 1.72-.355.39-1.374.37-2.083.32-.71-.06-1.096-.61-1.107-1.32zm-4.691.93c.015-.91.086-1.81.213-2.7.091-.39.335-.72.686-.94.351-.22.784-.32 1.216-.26.898.11 1.223.75 1.29 1.45.051.88.008 1.76-.129 2.63-.013.35-.168.69-.436.93a1.6 1.6 0 0 1-1.016.41c-.682.05-1.38-.61-1.824-1.52zm-3.328-4.04c-.399-1.31.324-2.19.937-3.07.109-.15.75-.1 1.053.06.643.3 1.689.44 1.646 1.35a6.53 6.53 0 0 1-.706 2.52c-.137.2-.324.36-.545.47-.222.11-.472.17-.729.17-.477-.06-.943-.54-1.363-.9-.178-.15-.222-.44-.293-.6zm9.749-2.51a2.209 2.209 0 0 1-.036-1.62c.194-.51.581-.92 1.086-1.14.199-.06.414-.07.626-.03.212.04.415.13.594.26 1.224 1.04 1.316 3.09.277 4.13-.528.56-1.948-.01-2.335-.9a7.767 7.767 0 0 1-.212-.7zm-22.212-42.12c-.333-1.1.274-1.81 1.4-1.75.35-.04.694-.11 1.029-.2.622-.08 1.255-.11 1.871-.19.214-.02.414-.1.576-.23.792-.71 1.274-.67 1.958.22.76.99.723 1.77-.016 2.72a3.04 3.04 0 0 0-.518 1.27c-.157.84-.51 1.52-1.443 1.67-.417.11-.87.06-1.272-.13-.402-.2-.724-.52-.903-.92-.116-.21-.277-.4-.473-.55a1.7 1.7 0 0 0-.664-.33c-1.145-.08-1.182-.95-1.545-1.58zm5.859 7.65c-.017-.72.007-1.44.072-2.16.047-.31.215-.6.473-.8.259-.2.592-.31.939-.3.327-.02.658.04.954.19.296.14.546.36.72.62.911 1.05.805 2.17.172 3.22-.452.74-1.381.48-2.094.45-.712-.02-1.146-.49-1.236-1.22zm-1.241-1.68a33.211 33.211 0 0 1-.358 3.33c-.077.2-.2.37-.359.5-.158.12-.348.2-.553.22a1.645 1.645 0 0 1-.619-.26 1.88 1.88 0 0 1-.492-.52 4.983 4.983 0 0 1-.607-1.82 4.306 4.306 0 0 1 .151-1.82c.164-.65 1.014-1.17 1.577-.9.436.22.767.76 1.26 1.27zm2.561-3.99a2.23 2.23 0 0 1 .199-1.53c.246-.49.659-.89 1.181-1.16.55-.28 1.606.1 1.912.78.521 1.14.695 2.29-.308 3.34-.503.52-1.054.71-1.663.24-.548-.48-1.063-.98-1.543-1.5l.222-.17zm-9.33 2.45c-.287-1.12.425-2.04 1.127-2.96.1-.1.239-.17.391-.19 1.24-.14 2.57 1.27 2.163 2.27-.114.3-.203.62-.265.94-.258 1.07-.687 1.48-1.582 1.47-.711 0-1.568-.7-1.834-1.53zm79.88 103.11c-.266-1.19.147-1.73 1.483-1.76.366-.02.724.06 1.035.22.311.17.564.41.731.72.303.51.636 1.01.997 1.48.422.54.709 1.09.362 1.79a1.79 1.79 0 0 1-.658.77c-.291.19-.63.3-.97.3-.63.04-1.208.15-1.615.8-.285.45-1.54.33-2.167-.11a.982.982 0 0 1-.312-.31.989.989 0 0 1-.158-.4c-.025-.14-.018-.29.018-.44.036-.15.102-.29.193-.42.172-.34.315-.71.427-1.07l.634-1.57zm9.603 3.37c-.48-.16-.942-.36-1.38-.6-.646-.41-1.144-.96-.941-1.82.203-.87.792-1.24 1.671-1.39a2.775 2.775 0 0 1 1.928.22c.577.3 1.006.8 1.204 1.4.17.49-.355 1.35-.761 1.92-.405.57-1.091.61-1.721.27zm-1.53 4.42c-.795-.46-1.559-.98-2.288-1.53a1.526 1.526 0 0 1-.492-1.05c-.02-.41.117-.82.383-1.16.545-.7 1.282-.65 1.93-.36.809.4 1.569.88 2.27 1.43.308.19.524.49.609.84.085.35.031.72-.15 1.06-.299.6-1.236.85-2.262.77zm-5.253.78c-1.365-.32-1.781-1.37-2.252-2.33-.081-.16.29-.68.578-.86.595-.38 1.241-1.2 2.03-.7.752.5 1.39 1.13 1.878 1.86.109.21.159.45.146.69-.013.24-.088.48-.22.7-.293.37-.953.52-1.479.7-.221.08-.504-.04-.681-.06zm2.664-9.48a2.31 2.31 0 0 1-1.455-.78c-.354-.42-.52-.95-.463-1.49.047-.2.145-.38.286-.54.141-.16.32-.29.524-.38 1.541-.5 3.403.44 3.81 1.85.226.72-.987 1.63-1.976 1.51-.246-.04-.488-.1-.726-.17zm-48.607-18.96c-1.138-.27-1.46-1.13-.848-2.06.141-.31.254-.64.338-.97.243-.56.538-1.11.775-1.67.089-.19.119-.4.086-.6-.235-1.02.043-1.41 1.176-1.54 1.26-.15 1.927.27 2.404 1.38.199.41.493.78.863 1.07.669.56 1.096 1.19.761 2.06-.115.4-.385.76-.759 1a2.01 2.01 0 0 1-1.262.31c-.248-.01-.497.03-.731.12-.235.09-.447.22-.623.39-.648.93-1.438.52-2.18.51zm9.728-1.1c-.649-.35-1.276-.73-1.878-1.15a1.23 1.23 0 0 1-.472-.8c-.05-.32.02-.65.199-.94.147-.29.372-.53.648-.71.276-.18.592-.28.913-.3 1.385-.24 2.327.41 2.939 1.47.436.76-.261 1.41-.644 2-.382.59-1.015.72-1.705.43zm-2.111.2c.966.62 1.892 1.28 2.776 1.98.138.16.227.35.258.55.031.19.004.39-.079.58-.143.16-.329.29-.545.39a2.05 2.05 0 0 1-.704.15 5.213 5.213 0 0 1-1.921-.4 4.596 4.596 0 0 1-1.539-1.04c-.493-.46-.532-1.44-.004-1.78.412-.26 1.054-.27 1.758-.43zm-2.254-4.16c-.519-.16-.96-.49-1.263-.94-.303-.45-.452-1-.429-1.57.027-.61.888-1.31 1.648-1.23 1.276.14 2.378.57 2.806 1.94.208.68.102 1.24-.621 1.52-.696.23-1.399.41-2.106.55l-.035-.27zm-2.508 9.1c-1.142-.32-1.595-1.38-2.063-2.44a.61.61 0 0 1 .033-.42c.496-1.12 2.41-1.53 3.091-.69.216.25.452.49.705.7.821.75.968 1.32.512 2.07-.36.6-1.41.97-2.278.78zm89.195 92.77c.917-.82 1.605-.74 2.301.37.202.3.314.64.324.98.01.35-.082.68-.267.98a14.54 14.54 0 0 0-.82 1.59c-.262.62-.602 1.14-1.402 1.2-.345.04-.699-.02-1.015-.17-.317-.15-.58-.38-.754-.67-.35-.51-.739-.94-1.518-.96-.539-.02-1.068-1.13-.985-1.89a1.02 1.02 0 0 1 .389-.75c.117-.09.254-.16.402-.2.149-.05.307-.06.465-.05.396-.03.788-.09 1.17-.18l1.71-.25zm1.826 9.79c-.1-.48-.156-.97-.165-1.46.042-.75.281-1.45 1.15-1.71.868-.26 1.497.05 2.07.71.47.49.744 1.1.769 1.74.025.64-.201 1.25-.634 1.72-.355.39-1.374.37-2.083.32-.71-.06-1.096-.61-1.107-1.32zm-4.691.93c.015-.9.086-1.81.213-2.7.091-.39.335-.72.686-.94.351-.22.784-.31 1.216-.26.898.11 1.223.75 1.29 1.45.051.88.008 1.76-.129 2.63-.013.35-.168.69-.436.93-.268.25-.629.4-1.016.41-.682.05-1.38-.61-1.824-1.52zm-3.328-4.04c-.399-1.31.324-2.19.937-3.07.109-.15.75-.1 1.053.06.643.3 1.689.44 1.646 1.35a6.53 6.53 0 0 1-.706 2.52c-.137.2-.324.36-.545.47a1.52 1.52 0 0 1-.729.17c-.477-.06-.943-.54-1.363-.9-.178-.15-.222-.44-.293-.6zm9.749-2.51a2.209 2.209 0 0 1-.036-1.62c.194-.51.581-.91 1.086-1.14.199-.06.414-.07.626-.03.212.04.415.13.594.26 1.224 1.04 1.316 3.09.277 4.14-.528.55-1.948-.02-2.335-.91a6.898 6.898 0 0 1-.212-.7zm-22.212-42.12c-.333-1.1.274-1.8 1.4-1.75.35-.04.694-.11 1.029-.2.622-.08 1.255-.11 1.871-.19.214-.02.414-.1.576-.23.792-.71 1.274-.67 1.958.22.76.99.723 1.77-.016 2.72a3.04 3.04 0 0 0-.518 1.27c-.157.84-.51 1.52-1.443 1.67-.417.11-.87.06-1.272-.13-.402-.2-.724-.52-.903-.92-.116-.21-.277-.4-.473-.55a1.7 1.7 0 0 0-.664-.33c-1.145-.08-1.182-.95-1.545-1.58zm5.859 7.65c-.017-.72.007-1.44.072-2.16.047-.31.215-.59.473-.8.259-.2.592-.31.939-.3.327-.02.658.04.954.19.296.14.546.36.72.62.911 1.05.805 2.17.172 3.22-.452.74-1.381.48-2.094.46-.712-.03-1.146-.5-1.236-1.23zm-1.241-1.68a33.211 33.211 0 0 1-.358 3.33c-.077.2-.2.37-.359.5-.158.12-.348.2-.553.22a1.645 1.645 0 0 1-.619-.26 1.88 1.88 0 0 1-.492-.52 4.983 4.983 0 0 1-.607-1.82 4.306 4.306 0 0 1 .151-1.82c.164-.65 1.014-1.17 1.577-.9.436.22.767.76 1.26 1.27zm2.561-3.99a2.23 2.23 0 0 1 .199-1.53c.246-.48.659-.89 1.181-1.16.55-.28 1.606.1 1.912.78.521 1.14.695 2.29-.308 3.34-.503.52-1.054.71-1.663.24-.548-.48-1.063-.98-1.543-1.5l.222-.17zm-9.33 2.45c-.287-1.12.425-2.04 1.127-2.96.1-.1.239-.17.391-.18 1.24-.15 2.57 1.26 2.163 2.26-.114.31-.203.62-.265.94-.258 1.07-.687 1.48-1.582 1.47-.711 0-1.568-.7-1.834-1.53zm79.88 103.11c-.266-1.19.147-1.73 1.483-1.76.366-.02.724.06 1.035.22.311.17.564.41.731.72.303.51.636 1.01.997 1.48.422.54.709 1.09.362 1.79a1.79 1.79 0 0 1-.658.77c-.291.2-.63.3-.97.3-.63.04-1.208.16-1.615.8-.285.45-1.54.34-2.167-.11a1.064 1.064 0 0 1-.312-.3 1.094 1.094 0 0 1 .053-1.26c.172-.35.315-.71.427-1.08l.634-1.57zm9.603 3.37c-.48-.16-.942-.36-1.38-.59-.646-.42-1.144-.97-.941-1.83.203-.87.792-1.24 1.671-1.39a2.775 2.775 0 0 1 1.928.22c.577.3 1.006.8 1.204 1.4.17.49-.355 1.35-.761 1.92-.405.57-1.091.62-1.721.27zm-1.53 4.42c-.795-.46-1.559-.98-2.288-1.53a1.507 1.507 0 0 1-.492-1.05c-.02-.41.117-.82.383-1.16.545-.7 1.282-.65 1.93-.36.809.4 1.569.88 2.27 1.43.308.19.524.49.609.84.085.35.031.72-.15 1.06-.299.6-1.236.85-2.262.77zm-5.253.79c-1.365-.33-1.781-1.38-2.252-2.33-.081-.17.29-.69.578-.87.595-.38 1.241-1.2 2.03-.7.752.5 1.39 1.13 1.878 1.86.109.21.159.45.146.69-.013.25-.088.48-.22.7-.293.37-.953.52-1.479.7-.221.08-.504-.03-.681-.05zm2.664-9.49a2.31 2.31 0 0 1-1.455-.78c-.354-.42-.52-.95-.463-1.49.047-.2.145-.38.286-.54.141-.16.32-.29.524-.38 1.541-.5 3.403.44 3.81 1.85.226.72-.987 1.64-1.976 1.51-.246-.04-.488-.1-.726-.17zm-48.607-18.96c-1.138-.27-1.46-1.13-.848-2.06.141-.31.254-.64.338-.97.243-.56.538-1.11.775-1.67.089-.19.119-.4.086-.6-.235-1.02.043-1.41 1.176-1.54 1.26-.14 1.927.27 2.404 1.38.199.41.493.78.863 1.07.669.56 1.096 1.2.761 2.06-.115.4-.385.76-.759 1a2.01 2.01 0 0 1-1.262.31c-.248-.01-.497.03-.731.12-.235.09-.447.22-.623.39-.648.93-1.438.52-2.18.51zm9.728-1.1c-.649-.35-1.276-.73-1.878-1.15a1.23 1.23 0 0 1-.472-.8c-.05-.32.02-.65.199-.94.147-.29.372-.53.648-.71.276-.18.592-.28.913-.3 1.385-.24 2.327.41 2.939 1.47.436.76-.261 1.41-.644 2-.382.59-1.015.72-1.705.43zm-2.111.2c.966.62 1.892 1.28 2.776 1.98.138.16.227.35.258.55.031.2.004.39-.079.58-.143.16-.329.29-.545.39-.216.09-.456.15-.704.15a5.213 5.213 0 0 1-1.921-.4 4.454 4.454 0 0 1-1.539-1.04c-.493-.46-.532-1.44-.004-1.78.412-.26 1.054-.27 1.758-.43zm-2.254-4.16c-.519-.16-.96-.49-1.263-.94-.303-.45-.452-1-.429-1.57.027-.61.888-1.31 1.648-1.22 1.276.13 2.378.56 2.806 1.93.208.68.102 1.25-.621 1.52-.696.23-1.399.41-2.106.55l-.035-.27zm-2.508 9.1c-1.142-.32-1.595-1.38-2.063-2.44a.61.61 0 0 1 .033-.42c.496-1.11 2.41-1.53 3.091-.69.216.25.452.49.705.7.821.76.968 1.32.512 2.07-.36.6-1.41.97-2.278.78zm102.268 79.53c-.266-1.19.147-1.73 1.483-1.76.366-.02.724.06 1.035.22.311.17.564.41.731.72.303.51.636 1.01.997 1.48.422.54.709 1.09.362 1.79a1.79 1.79 0 0 1-.658.77c-.291.19-.63.3-.97.3-.63.04-1.208.15-1.615.8-.285.45-1.54.33-2.167-.11a.982.982 0 0 1-.312-.31.989.989 0 0 1-.158-.4c-.025-.14-.018-.29.018-.44.036-.15.102-.29.193-.42.172-.34.315-.71.427-1.07l.634-1.57zm9.603 3.37c-.48-.16-.942-.36-1.38-.6-.646-.41-1.144-.96-.941-1.82.203-.87.792-1.24 1.671-1.39a2.775 2.775 0 0 1 1.928.22c.577.3 1.006.8 1.204 1.4.17.49-.355 1.35-.761 1.92-.405.57-1.091.61-1.721.27zm-1.53 4.42c-.795-.46-1.559-.98-2.288-1.53a1.526 1.526 0 0 1-.492-1.05c-.02-.41.117-.82.383-1.16.545-.7 1.282-.65 1.93-.36.809.4 1.569.88 2.27 1.43.308.19.524.49.609.84.085.35.031.72-.15 1.06-.299.6-1.236.85-2.262.77zm-5.253.78c-1.365-.32-1.781-1.37-2.252-2.33-.081-.16.29-.68.578-.86.595-.38 1.241-1.2 2.03-.7.752.5 1.39 1.13 1.878 1.86.109.21.159.45.146.69-.013.24-.088.48-.22.7-.293.37-.953.52-1.479.7-.221.08-.504-.04-.681-.06zm2.664-9.48a2.31 2.31 0 0 1-1.455-.78c-.354-.42-.52-.95-.463-1.49.047-.2.145-.38.286-.54.141-.16.32-.29.524-.38 1.541-.5 3.403.44 3.81 1.85.226.72-.987 1.63-1.976 1.51-.246-.04-.488-.1-.726-.17zm-48.607-18.96c-1.138-.27-1.46-1.13-.848-2.06.141-.31.254-.64.338-.97.243-.56.538-1.11.775-1.67.089-.19.119-.4.086-.6-.235-1.02.043-1.41 1.176-1.54 1.26-.15 1.927.27 2.404 1.38.199.41.493.78.863 1.07.669.56 1.096 1.19.761 2.06-.115.4-.385.76-.759 1a2.01 2.01 0 0 1-1.262.31c-.248-.01-.497.03-.731.12-.235.09-.447.22-.623.39-.648.93-1.438.52-2.18.51zm9.728-1.1c-.649-.35-1.276-.73-1.878-1.15a1.23 1.23 0 0 1-.472-.8c-.05-.32.02-.65.199-.94.147-.29.372-.53.648-.71.276-.18.592-.28.913-.3 1.385-.24 2.327.41 2.939 1.47.436.76-.261 1.41-.644 2-.382.59-1.015.72-1.705.43zm-2.111.2c.966.62 1.892 1.28 2.776 1.98.138.16.227.35.258.55.031.19.004.39-.079.58-.143.16-.329.29-.545.39a2.05 2.05 0 0 1-.704.15 5.213 5.213 0 0 1-1.921-.4 4.454 4.454 0 0 1-1.539-1.04c-.493-.46-.532-1.44-.004-1.78.412-.26 1.054-.27 1.758-.43zm-2.254-4.16c-.519-.16-.96-.49-1.263-.94-.303-.45-.452-1-.429-1.57.027-.61.888-1.31 1.648-1.23 1.276.14 2.378.57 2.806 1.94.208.68.102 1.24-.621 1.52-.696.23-1.399.41-2.106.55l-.035-.27zm-2.508 9.1c-1.142-.32-1.595-1.38-2.063-2.44a.61.61 0 0 1 .033-.42c.496-1.12 2.41-1.53 3.091-.69.216.25.452.49.705.7.821.75.968 1.32.512 2.07-.36.6-1.41.97-2.278.78zM595.13 833.347c.298-1.178.914-1.486 2.126-.936.338.14.624.362.829.644.204.282.319.612.332.955.038.593.112 1.182.22 1.765.136.662.146 1.276-.484 1.759-.264.22-.593.363-.941.409a1.818 1.818 0 0 1-1.007-.148c-.582-.237-1.151-.386-1.81.02-.458.277-1.532-.365-1.891-1.038a1.016 1.016 0 0 1-.103-.835c.044-.14.118-.273.217-.389.099-.116.222-.214.361-.288.313-.24.605-.502.872-.784l1.279-1.134zm7.087 7.164a8.156 8.156 0 0 1-.969-1.128c-.392-.649-.589-1.357-.015-2.045s1.272-.772 2.128-.526a2.76 2.76 0 0 1 1.628 1.031c.383.517.542 1.147.448 1.771-.072.519-.929 1.057-1.552 1.394-.622.337-1.259.084-1.668-.497zm-3.376 3.309a22.377 22.377 0 0 1-1.358-2.363 1.495 1.495 0 0 1 .036-1.155c.166-.373.475-.684.866-.871.808-.396 1.446-.034 1.896.507a12.535 12.535 0 0 1 1.388 2.261c.191.302.25.662.168 1.012a1.525 1.525 0 0 1-.615.887c-.54.409-1.497.236-2.381-.278zm-5.068-1.564c-1.079-.877-.977-1.999-.964-3.061.003-.187.568-.486.908-.523.709-.092 1.658-.543 2.141.241.449.771.735 1.612.843 2.477 0 .24-.064.476-.185.688a1.52 1.52 0 0 1-.513.53c-.432.207-1.093.06-1.644-.009-.233-.027-.437-.249-.586-.343zm6.689-7.36a2.257 2.257 0 0 1-.951-1.328 1.965 1.965 0 0 1 .258-1.534c.132-.157.304-.282.503-.364.199-.082.418-.12.639-.109 1.613.208 2.853 1.862 2.583 3.295-.125.747-1.628 1.044-2.459.507a7.197 7.197 0 0 1-.573-.467zm-42.427-23.051c-.898-.731-.794-1.648.172-2.213.27-.222.518-.464.742-.723.474-.401.986-.765 1.453-1.165a1.05 1.05 0 0 0 .349-.502c.254-1.022.679-1.248 1.754-.877 1.196.414 1.604 1.077 1.533 2.272a2.98 2.98 0 0 0 .288 1.334c.348.787.441 1.545-.25 2.174a1.844 1.844 0 0 1-1.136.574 1.958 1.958 0 0 1-1.27-.271 1.856 1.856 0 0 0-1.448-.121c-1 .55-1.525-.153-2.187-.482zm9.227 3.203a19.387 19.387 0 0 1-1.167-1.835 1.231 1.231 0 0 1-.06-.922c.1-.308.315-.578.607-.762a1.91 1.91 0 0 1 1.855-.229c1.353.38 1.903 1.371 1.971 2.585.049.867-.872 1.152-1.482 1.514-.609.361-1.235.206-1.724-.351zm-1.986-.726a34.038 34.038 0 0 1 1.596 2.967c.049.208.043.415-.018.605s-.175.357-.333.486a1.577 1.577 0 0 1-.666.114 1.92 1.92 0 0 1-.702-.162 5.193 5.193 0 0 1-1.541-1.19 4.375 4.375 0 0 1-.909-1.596c-.232-.63.177-1.525.803-1.599.487-.054 1.067.213 1.77.375zm-.136-4.705a2.286 2.286 0 0 1-.708-1.387 2.61 2.61 0 0 1 .329-1.597c.298-.531 1.389-.791 2.032-.387 1.084.67 1.879 1.528 1.641 2.944-.123.704-.473 1.162-1.248 1.1a18.958 18.958 0 0 1-2.138-.417l.092-.256zm-6.373 7.083c-.878-.782-.805-1.927-.746-3.077a.618.618 0 0 1 .221-.363c.951-.79 2.857-.338 3.085.712.08.319.186.63.316.93.395 1.031.27 1.603-.479 2.08-.595.382-1.705.263-2.397-.282zm125.079 42.632c-.895-.843-.859-1.517.237-2.263a1.97 1.97 0 0 1 .987-.377c.352-.031.703.038 1.014.2.545.264 1.104.498 1.675.699.656.217 1.205.517 1.318 1.291a1.758 1.758 0 0 1-.746 1.774c-.502.373-.92.778-.891 1.537.017.526-1.092 1.11-1.869 1.076a1.078 1.078 0 0 1-.792-.333 1.113 1.113 0 0 1-.236-.378 1.198 1.198 0 0 1-.075-.449 7.077 7.077 0 0 0-.257-1.129l-.365-1.648zm9.908-2.385a8.478 8.478 0 0 1-1.487.251c-.772.006-1.499-.184-1.821-1.013-.322-.829-.046-1.461.601-2.06a2.779 2.779 0 0 1 1.732-.856 2.514 2.514 0 0 1 1.795.511c.424.321.471 1.314.458 2.008-.014.694-.557 1.105-1.278 1.159zm1.241 4.509c-.927.041-1.854.028-2.777-.04a1.575 1.575 0 0 1-1.006-.609 1.734 1.734 0 0 1-.338-1.169c.054-.88.695-1.237 1.401-1.345a13.33 13.33 0 0 1 2.701-.037c.364-.009.713.121.982.367.27.245.44.588.479.964.091.66-.543 1.38-1.442 1.869zm-3.928 3.49c-1.319.47-2.263-.179-3.199-.722-.164-.097-.145-.724-.008-1.029.274-.645.351-1.671 1.288-1.686.91.008 1.798.189 2.619.532.213.12.391.292.518.501.127.209.2.449.213.699-.033.468-.495.952-.833 1.383-.141.182-.44.243-.598.322zm-3.172-9.335a2.365 2.365 0 0 1-1.656.135 2.043 2.043 0 0 1-1.23-.986 1.25 1.25 0 0 1-.071-.608c.027-.208.103-.412.224-.594.994-1.256 3.083-1.473 4.218-.526.6.48.109 1.898-.784 2.329-.23.095-.464.179-.701.25zm-51.232 10.499c-1.099.392-1.86-.156-1.876-1.255a5.848 5.848 0 0 0-.269-.989c-.118-.601-.184-1.215-.305-1.81a1.035 1.035 0 0 0-.27-.547c-.778-.727-.766-1.198.103-1.919.966-.802 1.76-.813 2.784-.154.401.238.854.383 1.328.427.872.1 1.591.402 1.802 1.301.135.399.113.843-.06 1.247a1.897 1.897 0 0 1-.878.935 1.799 1.799 0 0 0-.54.495 1.738 1.738 0 0 0-.294.666c-.014 1.12-.901 1.21-1.525 1.603zm7.47-6.178c-.738.061-1.476.083-2.213.064a1.307 1.307 0 0 1-.848-.411 1.41 1.41 0 0 1-.371-.895c-.04-.318.007-.644.135-.941.129-.297.334-.553.593-.739 1.015-.952 2.169-.918 3.281-.367.793.394.584 1.315.599 2.01.015.695-.437 1.146-1.176 1.279zm-1.639 1.313c1.155-.007 2.301.04 3.432.142.209.062.39.172.528.319.138.146.228.327.263.524a1.498 1.498 0 0 1-.232.62 1.866 1.866 0 0 1-.497.51 5.269 5.269 0 0 1-1.828.704c-.64.116-1.28.104-1.872-.034-.674-.12-1.263-.914-1.015-1.48.196-.438.725-.793 1.221-1.305zm-4.241-2.247a2.412 2.412 0 0 1-1.585-.098 2.705 2.705 0 0 1-1.252-1.079c-.321-.518-.005-1.569.676-1.909 1.138-.578 2.298-.818 3.435.093.562.457.793.982.349 1.604a18.247 18.247 0 0 1-1.442 1.595l-.181-.206zm3.084 8.932c-1.134.348-2.113-.287-3.103-.914a.617.617 0 0 1-.211-.369c-.224-1.198 1.133-2.58 2.179-2.246.323.093.652.159.983.2 1.113.185 1.558.577 1.605 1.448.04.693-.622 1.57-1.453 1.881zM193.33 243.873a4.531 4.531 0 0 1 1.633-.722 4.15 4.15 0 0 1 1.733-.012.624.624 0 0 1 .314.159c.641.647.097 2.843-.791 3.177-.538.155-1.069.344-1.59.564-.303.2-.659.28-.998.223a1.276 1.276 0 0 1-.838-.528c-.546-.603-.297-1.228-.124-1.849a4.05 4.05 0 0 1 .661-1.012z" fill="#000" fill-opacity=".7"/></svg>