<svg width="261" height="216" fill="none" xmlns="http://www.w3.org/2000/svg"><path d="M184.068 135.804c.002-1.213.524-1.656 1.835-1.403.363.057.695.206.963.432.267.226.46.52.556.851.183.566.398 1.121.646 1.662.294.611.454 1.205-.04 1.821-.203.275-.487.49-.813.616a1.82 1.82 0 0 1-1.014.091c-.624-.095-1.213-.107-1.753.44-.377.376-1.578.002-2.091-.567a1.006 1.006 0 0 1-.304-.787 1.09 1.09 0 0 1 .116-.428c.068-.136.163-.26.28-.365.245-.305.464-.627.654-.963l.965-1.4zm-34.626-15.699c-1.052-.501-1.175-1.415-.374-2.189.207-.278.389-.571.543-.875.362-.5.771-.972 1.126-1.47.129-.168.204-.365.216-.569-.003-1.051.354-1.369 1.489-1.259 1.262.123 1.821.673 2.044 1.85.103.446.31.865.606 1.228.531.683.807 1.397.29 2.169a1.824 1.824 0 0 1-.963.822c-.418.158-.881.17-1.3.033a1.843 1.843 0 0 0-.74-.036 1.843 1.843 0 0 0-.696.255c-.836.767-1.518.206-2.241.041zm43.26 21.008a8.4 8.4 0 0 1-1.217-.871c-.54-.538-.904-1.18-.515-1.982.389-.801 1.047-1.046 1.938-1.006a2.795 2.795 0 0 1 1.833.622c.498.413.807.988.868 1.616.057.52-.644 1.243-1.166 1.715-.521.471-1.202.374-1.741-.094zm-2.47 4a22.54 22.54 0 0 1-1.896-1.979 1.496 1.496 0 0 1-.248-1.13c.07-.401.293-.774.628-1.048.687-.572 1.396-.369 1.965.052.701.56 1.338 1.187 1.901 1.872.259.249.405.585.411.944.005.359-.13.717-.381 1.005-.424.522-1.395.576-2.38.284zm-31.045-24.045a19.658 19.658 0 0 1-1.582-1.511 1.237 1.237 0 0 1-.285-.881c.022-.322.165-.635.403-.881.207-.249.481-.442.789-.557.309-.116.641-.149.957-.097 1.407.053 2.183.887 2.547 2.051.259.83-.566 1.322-1.069 1.815-.503.493-1.15.488-1.76.061zm25.742 23.705c-1.262-.601-1.437-1.715-1.685-2.749-.042-.182.433-.604.754-.719.666-.255 1.477-.913 2.138-.265a6.633 6.633 0 0 1 1.425 2.21c.059.233.055.477-.011.711a1.502 1.502 0 0 1-.369.634c-.368.302-1.046.313-1.598.374-.233.028-.486-.14-.654-.196zm4.694-8.705a2.3 2.3 0 0 1-1.248-1.069 1.964 1.964 0 0 1-.125-1.55c.09-.183.227-.344.4-.47.172-.127.376-.214.593-.255 1.618-.174 3.227 1.144 3.315 2.599.061.754-1.325 1.392-2.264 1.064a7.772 7.772 0 0 1-.671-.319zm58.937 69.085c.002-1.213.525-1.656 1.836-1.404.362.057.695.207.962.433.268.226.46.52.556.85.183.567.398 1.122.646 1.663.295.611.454 1.204-.04 1.821-.203.275-.486.49-.813.616a1.819 1.819 0 0 1-1.014.09c-.623-.094-1.213-.106-1.753.441-.377.376-1.577.002-2.091-.567a1.029 1.029 0 0 1-.238-.36 1.03 1.03 0 0 1-.066-.427c.009-.147.048-.293.116-.429s.163-.26.28-.364c.245-.305.464-.627.654-.964l.965-1.399zm8.634 5.309a8.324 8.324 0 0 1-1.217-.871c-.54-.538-.904-1.18-.515-1.982.389-.801 1.047-1.046 1.938-1.006a2.798 2.798 0 0 1 1.834.622c.498.413.806.988.867 1.616.057.521-.643 1.243-1.165 1.715-.522.471-1.203.375-1.742-.094zm-2.469 3.999a22.412 22.412 0 0 1-1.897-1.979 1.497 1.497 0 0 1-.248-1.129c.07-.402.294-.775.628-1.048.688-.573 1.396-.37 1.965.051a12.75 12.75 0 0 1 1.901 1.872c.259.249.405.585.411.945.006.359-.13.716-.38 1.004-.425.522-1.396.577-2.38.284zm-5.306-.341c-1.261-.6-1.437-1.714-1.685-2.748-.042-.182.434-.604.754-.719.667-.255 1.478-.913 2.138-.265a6.613 6.613 0 0 1 1.425 2.209c.059.233.055.477-.011.712a1.498 1.498 0 0 1-.369.634c-.368.301-1.046.313-1.598.374-.233.027-.485-.14-.654-.197zm4.697-8.703a2.299 2.299 0 0 1-1.249-1.069 1.961 1.961 0 0 1-.125-1.549c.09-.184.227-.345.4-.471.172-.126.376-.214.593-.255 1.618-.173 3.227 1.144 3.315 2.599.062.754-1.325 1.392-2.264 1.064a7.615 7.615 0 0 1-.67-.319zm-97.036-84.592a34.733 34.733 0 0 1 2.275 2.509c.099.191.144.394.131.593a1.012 1.012 0 0 1-.205.549 1.574 1.574 0 0 1-.618.266 1.92 1.92 0 0 1-.721.005 5.26 5.26 0 0 1-1.788-.796 4.433 4.433 0 0 1-1.273-1.339c-.38-.557-.202-1.521.388-1.739.46-.166 1.089-.042 1.811-.048zm-1.285-4.537a2.323 2.323 0 0 1-1.027-1.182 2.607 2.607 0 0 1-.071-1.628c.159-.585 1.155-1.092 1.878-.849 1.217.398 2.199 1.047 2.315 2.478.052.712-.176 1.238-.943 1.358-.729.073-1.456.104-2.178.093l.026-.27zm-4.455 8.362c-1.044-.555-1.253-1.684-1.477-2.814a.61.61 0 0 1 .125-.405c.73-.988 2.692-.993 3.171-.026.155.291.334.568.534.829.635.91.654 1.494.043 2.132-.483.509-1.59.652-2.396.284zm62.301 48.432c-1.051-.501-1.175-1.415-.374-2.189.207-.277.389-.57.543-.875.363-.499.771-.971 1.126-1.469.129-.168.204-.366.216-.569-.003-1.051.354-1.37 1.489-1.26 1.262.124 1.821.673 2.045 1.85a3 3 0 0 0 .606 1.228c.531.684.806 1.398.289 2.17a1.817 1.817 0 0 1-.963.822 1.964 1.964 0 0 1-1.299.032 1.867 1.867 0 0 0-1.436.22c-.837.767-1.519.206-2.242.04zm9.745.963a19.485 19.485 0 0 1-1.582-1.511 1.233 1.233 0 0 1-.284-.88 1.41 1.41 0 0 1 .402-.882 1.903 1.903 0 0 1 1.746-.654c1.407.054 2.183.888 2.547 2.051.259.831-.566 1.322-1.069 1.815-.503.493-1.149.489-1.76.061zm-2.107-.241a34.538 34.538 0 0 1 2.276 2.509c.099.19.144.394.131.592a1.024 1.024 0 0 1-.205.549c-.176.129-.387.22-.619.267a1.94 1.94 0 0 1-.721.005 5.26 5.26 0 0 1-1.788-.796 4.456 4.456 0 0 1-1.273-1.339c-.38-.557-.201-1.522.388-1.74.46-.166 1.089-.041 1.811-.047zm-1.285-4.539a2.321 2.321 0 0 1-1.027-1.181 2.608 2.608 0 0 1-.071-1.628c.16-.585 1.155-1.092 1.879-.849 1.216.398 2.198 1.046 2.314 2.477.052.713-.176 1.239-.943 1.358a18.96 18.96 0 0 1-2.178.094l.026-.271zm-4.455 8.362c-1.044-.555-1.253-1.684-1.477-2.814a.606.606 0 0 1 .126-.405c.73-.988 2.691-.993 3.17-.026.156.291.334.568.534.829.636.91.655 1.494.044 2.132-.484.509-1.591.652-2.397.284zM39.13 28.347c.298-1.178.914-1.486 2.126-.936.338.14.624.362.829.644.204.282.319.612.332.956.038.592.112 1.181.22 1.764.136.662.146 1.276-.484 1.76a1.861 1.861 0 0 1-1.948.26c-.582-.237-1.151-.386-1.81.02-.458.277-1.532-.365-1.891-1.038a1 1 0 0 1-.103-.835c.044-.14.118-.273.217-.389.1-.116.222-.214.361-.288.313-.24.605-.502.872-.784l1.279-1.134zm7.087 7.164a8.136 8.136 0 0 1-.969-1.128c-.392-.649-.589-1.357-.015-2.045s1.273-.772 2.128-.526a2.759 2.759 0 0 1 1.628 1.031c.383.517.542 1.147.448 1.771-.072.52-.93 1.057-1.552 1.394-.622.337-1.26.084-1.668-.497zM42.84 38.82a22.184 22.184 0 0 1-1.357-2.363 1.5 1.5 0 0 1 .036-1.155c.166-.373.475-.684.866-.871.808-.396 1.446-.034 1.896.507a12.55 12.55 0 0 1 1.388 2.26c.19.303.25.663.168 1.013-.083.35-.302.666-.615.887-.54.409-1.497.236-2.381-.278zm-5.067-1.564c-1.079-.877-.977-2-.964-3.06.003-.188.568-.487.908-.524.71-.092 1.658-.543 2.14.24a6.53 6.53 0 0 1 .844 2.478c0 .24-.064.476-.185.688a1.53 1.53 0 0 1-.513.53c-.432.207-1.093.06-1.644-.009-.233-.027-.437-.249-.586-.343zm6.689-7.36a2.26 2.26 0 0 1-.95-1.328 1.963 1.963 0 0 1 .257-1.534 1.31 1.31 0 0 1 .503-.364c.199-.082.418-.12.639-.11 1.613.21 2.853 1.863 2.583 3.296-.125.747-1.628 1.044-2.459.507a7.348 7.348 0 0 1-.573-.467zM2.035 6.845c-.898-.731-.794-1.648.172-2.213a6.12 6.12 0 0 0 .742-.723c.474-.401.986-.765 1.453-1.165a1.05 1.05 0 0 0 .35-.502c.253-1.022.678-1.248 1.753-.877 1.196.414 1.604 1.077 1.533 2.272-.01.458.089.913.288 1.334.348.787.441 1.545-.25 2.174a1.85 1.85 0 0 1-1.136.574 1.96 1.96 0 0 1-1.27-.27 1.862 1.862 0 0 0-1.448-.121c-1 .55-1.525-.154-2.187-.483zm9.227 3.203a19.344 19.344 0 0 1-1.167-1.835 1.228 1.228 0 0 1-.06-.922c.1-.308.315-.578.607-.762a1.92 1.92 0 0 1 1.855-.229c1.353.38 1.903 1.37 1.971 2.585.049.867-.872 1.152-1.482 1.514-.609.361-1.236.206-1.724-.35zm-1.986-.726a33.914 33.914 0 0 1 1.596 2.967c.05.208.043.415-.018.605s-.175.357-.333.486a1.59 1.59 0 0 1-.666.114 1.925 1.925 0 0 1-.702-.162 5.191 5.191 0 0 1-1.541-1.19 4.372 4.372 0 0 1-.909-1.596c-.232-.63.177-1.525.803-1.6.487-.053 1.067.214 1.77.376zM9.14 4.617a2.284 2.284 0 0 1-.708-1.387 2.613 2.613 0 0 1 .329-1.597c.298-.531 1.39-.791 2.032-.387 1.084.67 1.879 1.528 1.641 2.944-.123.704-.473 1.162-1.248 1.1a18.895 18.895 0 0 1-2.137-.417l.09-.256zM2.767 11.7c-.878-.782-.805-1.927-.746-3.077a.62.62 0 0 1 .221-.363c.95-.79 2.857-.338 3.085.712.08.319.186.63.316.93.395 1.031.27 1.603-.48 2.08-.594.382-1.704.263-2.396-.282zm122.009 59.534c.088-1.226.633-1.624 1.904-1.246.352.091.668.273.915.527.247.253.415.568.487.912.139.59.311 1.17.516 1.74.246.645.361 1.26-.168 1.837a1.753 1.753 0 0 1-1.846.543c-.606-.154-1.184-.221-1.754.281-.397.345-1.551-.146-2.015-.769a1.06 1.06 0 0 1-.243-.824c.019-.148.068-.291.144-.422.077-.132.179-.248.301-.342a7.05 7.05 0 0 0 .712-.913l1.047-1.324zm8.111 6.173a8.462 8.462 0 0 1-1.134-.994c-.493-.595-.805-1.278-.366-2.052.439-.773 1.103-.959 1.976-.835a2.778 2.778 0 0 1 1.758.8c.46.464.723 1.075.738 1.715.019.531-.72 1.196-1.267 1.624-.546.428-1.208.266-1.705-.258zm-2.711 3.811a23.487 23.487 0 0 1-1.723-2.178 1.575 1.575 0 0 1-.164-1.165c.098-.4.344-.755.692-1 .716-.514 1.398-.243 1.928.236a13.246 13.246 0 0 1 1.735 2.07 1.4 1.4 0 0 1 .337.993c-.02.364-.178.712-.445.98-.454.488-1.413.452-2.36.064zm-5.187-.839c-1.198-.726-1.291-1.868-1.462-2.936-.028-.188.469-.57.792-.656.673-.196 1.517-.785 2.121-.068a6.96 6.96 0 0 1 1.243 2.367 1.438 1.438 0 0 1-.469 1.324c-.383.27-1.05.218-1.597.228-.231.006-.467-.187-.628-.26zm5.23-8.359a2.37 2.37 0 0 1-1.151-1.197 2.05 2.05 0 0 1-.013-1.577c.102-.177.248-.327.427-.438a1.39 1.39 0 0 1 .601-.203c1.602-.023 3.09 1.46 3.074 2.938.006.768-1.402 1.283-2.301.863a7.648 7.648 0 0 1-.637-.385zm-51.51-13.896c-1.109-.365-1.374-1.264-.712-2.142.16-.305.29-.621.394-.946.276-.547.6-1.072.87-1.616.1-.185.142-.392.122-.597-.169-1.052.13-1.417 1.258-1.453 1.256-.04 1.89.438 2.293 1.587.172.433.44.826.787 1.15.628.616 1.01 1.294.626 2.134a1.748 1.748 0 0 1-.813.947 1.892 1.892 0 0 1-1.267.201 1.79 1.79 0 0 0-1.371.405c-.698.876-1.454.403-2.188.33zm9.688-.296a20.41 20.41 0 0 1-1.786-1.307 1.3 1.3 0 0 1-.418-.845 1.41 1.41 0 0 1 .256-.934 1.804 1.804 0 0 1 1.606-.88c1.385-.129 2.276.606 2.816 1.723.384.797-.346 1.396-.76 1.954-.415.559-1.049.638-1.714.29zm-2.098.032a35.974 35.974 0 0 1 2.623 2.217c.127.178.203.375.221.576.019.2-.02.398-.114.576-.151.15-.343.27-.563.346-.22.077-.46.11-.705.099a5.286 5.286 0 0 1-1.876-.566 4.624 4.624 0 0 1-1.457-1.175c-.46-.508-.437-1.497.106-1.791.423-.226 1.059-.183 1.765-.282zm-1.972-4.376a2.418 2.418 0 0 1-1.19-1.05 2.715 2.715 0 0 1-.328-1.62c.065-.606.96-1.242 1.706-1.092 1.253.24 2.316.763 2.656 2.18.163.706.023 1.262-.71 1.48-.701.168-1.408.293-2.116.376l-.018-.274zm-3.044 8.946c-1.109-.42-1.492-1.523-1.89-2.626a.62.62 0 0 1 .06-.421c.558-1.083 2.478-1.342 3.099-.437.198.272.416.526.653.762.766.828.877 1.41.38 2.128-.394.571-1.455.858-2.302.594z" fill="#000" fill-opacity=".7"/></svg>