<svg width="369" height="319" fill="none" xmlns="http://www.w3.org/2000/svg"><path d="M104.955 82.367c.04-1.213.577-1.64 1.879-1.348.36.068.688.227.949.461.26.234.443.534.529.867.164.572.362 1.133.592 1.681.276.62.416 1.218-.097 1.82a1.836 1.836 0 0 1-.832.59 1.82 1.82 0 0 1-1.016.06c-.621-.113-1.209-.143-1.767.388-.388.365-1.576-.045-2.071-.63a1.01 1.01 0 0 1-.279-.796c.013-.146.057-.29.129-.424.072-.134.171-.255.291-.356a7.2 7.2 0 0 0 .685-.944l1.008-1.37zm-39.991-13.36c-1.035-.532-1.13-1.45-.305-2.199a6.04 6.04 0 0 0 .571-.858c.378-.488.801-.948 1.172-1.435.134-.164.216-.36.234-.562.03-1.05.397-1.358 1.528-1.214 1.258.16 1.799.727 1.985 1.91.089.45.282.874.567 1.246.51.699.762 1.42.22 2.177a1.825 1.825 0 0 1-.988.793 1.967 1.967 0 0 1-1.3-.007 1.852 1.852 0 0 0-1.442.176c-.86.742-1.525.16-2.242-.027zM3.478 16.086c-.392-.908.474-1.37 1.587-1.135a2.6 2.6 0 0 1 1.263.653c.34.325.56.73.632 1.16.134.465.343.913.619 1.332.344.625.684 1.22.21 1.897-.473.678-1.14.77-1.97.655a2.808 2.808 0 0 0-1.131-.043 2.515 2.515 0 0 0-1.012.404c-.408.312-1.808-.251-2.252-.816-.445-.565-.3-1.128.305-1.617.192-.21.353-.443.477-.692.374-.52.757-1.054 1.272-1.798zm34.154 17.737c-.049-.412-.276-1.115.62-1.435 1.083-.38 2.622.535 2.816 1.555.126.611.35 1.2.664 1.745.413.718.6 1.438.038 2.128a1.924 1.924 0 0 1-.962.68 2 2 0 0 1-1.194.01c-.634-.16-1.34-.248-1.91.406-.145.167-.698.125-1.026.054-1.61-.365-1.967-1.608-.864-2.71.331-.438.623-.9.872-1.38.291-.369.607-.72.946-1.053zm75.786 54.109a8.265 8.265 0 0 1-1.189-.907c-.523-.554-.867-1.207-.453-1.997.414-.789 1.08-1.013 1.969-.947a2.79 2.79 0 0 1 1.813.677c.485.428.776 1.012.817 1.641.04.522-.683 1.223-1.22 1.679-.536.456-1.213.338-1.737-.146zm-2.595 3.924a22.62 22.62 0 0 1-1.834-2.035 1.499 1.499 0 0 1-.212-1.136c.083-.4.318-.766.661-1.03.705-.55 1.407-.327 1.963.111.683.58 1.3 1.227 1.841 1.928.251.257.386.597.38.957a1.5 1.5 0 0 1-.411.992c-.441.51-1.414.535-2.388.213zm-99.11-69.169c-.915-.55-1.867-1.051-2.094-2.15a1.425 1.425 0 0 1-.017-.698c.052-.23.161-.444.319-.63.157-.186.36-.337.593-.444.232-.106.49-.165.753-.171a3.81 3.81 0 0 1 2.16.559c.635.394 1.109.964 1.345 1.618.26.67-.181 1.552-1.047 2.101-.599.37-1.189.308-2.012-.185zm62.962 47.577a19.646 19.646 0 0 1-1.534-1.558 1.235 1.235 0 0 1-.256-.889c.031-.322.184-.63.43-.869a1.896 1.896 0 0 1 1.766-.601c1.404.096 2.154.953 2.48 2.127.233.837-.607 1.304-1.125 1.782-.519.477-1.165.453-1.761.008zm30.858 21.092c-1.243-.639-1.383-1.757-1.598-2.798-.037-.183.452-.591.776-.696.674-.235 1.506-.868 2.146-.2a6.6 6.6 0 0 1 1.354 2.25c.051.235.04.48-.034.711a1.5 1.5 0 0 1-.388.623c-.378.29-1.056.281-1.61.326-.233.02-.48-.155-.646-.216zm-59.98-51.42a14.336 14.336 0 0 1-1.585-1.868c-.1-.205-.144-.43-.127-.658.017-.227.093-.449.224-.646.13-.198.309-.364.522-.486a1.65 1.65 0 0 1 .7-.212c1.882-.118 2.958.6 3.294 2.178.1.471-.657 1.222-1.176 1.707-.519.486-1.177.321-1.675-.175l-.177.16zm64.945 42.861a2.295 2.295 0 0 1-1.214-1.106 1.964 1.964 0 0 1-.076-1.552c.096-.18.238-.338.414-.459.177-.12.383-.202.602-.237 1.622-.124 3.189 1.241 3.231 2.698.037.755-1.369 1.352-2.296.995a7.37 7.37 0 0 1-.661-.339zm64.071 53.7c.04-1.213.576-1.64 1.878-1.348.361.068.689.227.949.461s.443.533.529.867c.165.571.362 1.133.593 1.681.275.619.416 1.218-.098 1.819a1.831 1.831 0 0 1-.832.591 1.81 1.81 0 0 1-1.016.06c-.62-.113-1.209-.143-1.766.388-.389.364-1.577-.046-2.072-.63a1 1 0 0 1-.279-.796c.013-.146.057-.291.129-.425.072-.133.171-.254.291-.355a7.2 7.2 0 0 0 .685-.944l1.009-1.369zm8.462 5.564a8.269 8.269 0 0 1-1.189-.906c-.522-.555-.866-1.208-.452-1.997.414-.79 1.079-1.014 1.968-.948.684.009 1.329.25 1.814.678a2.39 2.39 0 0 1 .816 1.641c.04.522-.683 1.222-1.219 1.678-.537.456-1.214.339-1.738-.146zm-2.595 3.924a22.447 22.447 0 0 1-1.833-2.035 1.498 1.498 0 0 1-.213-1.136c.083-.399.319-.766.661-1.029.706-.551 1.407-.327 1.963.11a12.76 12.76 0 0 1 1.841 1.929c.251.256.387.597.381.956a1.509 1.509 0 0 1-.412.993c-.441.509-1.413.534-2.388.212zm-5.29-.5c-1.242-.638-1.382-1.757-1.598-2.797-.036-.184.453-.592.776-.696.675-.235 1.506-.869 2.146-.201a6.599 6.599 0 0 1 1.354 2.251c.052.235.04.478-.033.711a1.508 1.508 0 0 1-.389.622c-.378.291-1.055.282-1.609.326-.234.021-.481-.155-.647-.216zm4.967-8.559a2.294 2.294 0 0 1-1.214-1.106 1.964 1.964 0 0 1-.076-1.552c.096-.18.238-.337.415-.458a1.47 1.47 0 0 1 .601-.237c1.622-.125 3.189 1.24 3.231 2.697.038.755-1.369 1.352-2.296.996a7.485 7.485 0 0 1-.661-.34zM8.802 25.636c-.77-.593-1.91-1.227-1.985-2.423a1.58 1.58 0 0 1 .188-.69c.115-.213.28-.402.484-.555.205-.092.434-.14.67-.14.237.001.473.05.691.142 1.084.524 2.086 1.23 2.498 2.274.242.531.244 1.11.004 1.616-.403.557-1.244.365-1.94.09-.137-.057-.264-.136-.61-.314zm63.774 44.323c.78.83 1.513 1.69 2.195 2.576.093.193.132.398.112.596a1.02 1.02 0 0 1-.222.542 1.58 1.58 0 0 1-.626.248c-.233.04-.48.034-.721-.016a5.264 5.264 0 0 1-1.762-.85 4.438 4.438 0 0 1-1.23-1.376c-.362-.568-.154-1.527.442-1.727.465-.152 1.09-.009 1.812.007zM43.266 43.2a23.118 23.118 0 0 1-1.876-1.897 1.308 1.308 0 0 1-.26-1.006c.06-.34.269-.64.585-.838.282-.151.627-.206.971-.154.345.051.666.206.908.435.668.532 1.28 1.116 1.823 1.743.502.571.779 1.27.101 1.783-.677.512-1.42.235-2.252-.066zm-5.451-.072c-1.375-.51-1.299-1.707-1.675-2.677-.055-.136.338-.536.623-.62.708-.196 1.548-.893 2.162-.3a7.053 7.053 0 0 1 1.482 2.54 1.14 1.14 0 0 1-.11.644 1.278 1.278 0 0 1-.454.505c-.597.21-1.348.106-2.031.136l.003-.228zM8.691 17.445c-1.225-.731-1.92-2.2-1.345-3.138.109-.107.247-.192.405-.247.157-.054.331-.079.51-.07.88.027 1.756.336 2.448.864s1.149 1.235 1.278 1.977c.12.585-.507 1.065-1.488 1.001a12.385 12.385 0 0 1-1.808-.387zm62.744 47.939a2.316 2.316 0 0 1-.989-1.212 2.605 2.605 0 0 1-.02-1.63c.179-.58 1.19-1.056 1.905-.791 1.204.434 2.164 1.112 2.235 2.545.03.714-.214 1.233-.986 1.33-.73.05-1.458.06-2.179.027l.034-.269zM43.36 35.096a2.32 2.32 0 0 1-1.238-1.126 2.085 2.085 0 0 1-.09-1.61 1 1 0 0 1 .227-.363 1.13 1.13 0 0 1 .37-.25c1.613-.482 3.802 1.238 3.595 2.792-.081.617-1.485 1.173-2.214.886-.2-.08-.429-.216-.65-.33zm23.358 38.513c-1.026-.586-1.2-1.72-1.388-2.858a.613.613 0 0 1 .139-.4c.76-.966 2.722-.912 3.17.069.146.295.315.578.507.845.607.928.607 1.513-.024 2.132-.5.494-1.61.604-2.404.212zm66.971 49.406c-1.035-.532-1.13-1.45-.305-2.199.216-.271.407-.558.571-.858.378-.489.801-.948 1.171-1.435.135-.164.216-.359.235-.562.03-1.051.397-1.358 1.527-1.215 1.258.162 1.8.728 1.985 1.911.089.449.283.874.568 1.246.509.699.761 1.42.22 2.177a1.826 1.826 0 0 1-.988.793 1.971 1.971 0 0 1-1.3-.007 1.859 1.859 0 0 0-1.442.176c-.861.742-1.525.16-2.242-.027zm9.71 1.256a19.59 19.59 0 0 1-1.533-1.558 1.229 1.229 0 0 1-.257-.888c.032-.322.185-.63.431-.869a1.89 1.89 0 0 1 .806-.533c.312-.107.645-.13.959-.069 1.405.096 2.154.953 2.481 2.127.233.838-.607 1.304-1.125 1.782-.519.477-1.165.453-1.762.008zm-2.098-.305c.78.831 1.513 1.69 2.195 2.576.093.194.131.398.112.596a1.018 1.018 0 0 1-.222.543 1.572 1.572 0 0 1-.627.247c-.233.04-.479.035-.721-.016a5.273 5.273 0 0 1-1.762-.849 4.443 4.443 0 0 1-1.23-1.377c-.362-.568-.153-1.527.443-1.727.465-.152 1.09-.009 1.812.007zm-1.141-4.575a2.314 2.314 0 0 1-.989-1.212 2.61 2.61 0 0 1-.02-1.629c.178-.58 1.19-1.057 1.905-.792 1.203.434 2.164 1.112 2.235 2.546.029.713-.215 1.232-.986 1.329-.73.051-1.458.06-2.179.028l.034-.27zm-4.718 8.225c-1.025-.586-1.199-1.721-1.387-2.857a.614.614 0 0 1 .138-.401c.761-.965 2.722-.912 3.17.069.146.296.316.578.508.845.606.928.607 1.513-.024 2.132-.5.494-1.611.604-2.405.212zM3.596 25.927a4.392 4.392 0 0 1-1.122-1.364 3.87 3.87 0 0 1-.442-1.634.586.586 0 0 1 .08-.336c.483-.766 2.799-.798 3.35-.042.29.47.608.925.957 1.363.273.236.44.552.469.887.028.335-.085.664-.317.923-.463.666-1.145.586-1.805.576a4.252 4.252 0 0 1-1.17-.373zm282.336 213.799c.04-1.213.576-1.64 1.879-1.348.36.068.688.227.948.461s.443.533.529.867c.165.571.363 1.133.593 1.681.275.619.416 1.218-.097 1.819a1.84 1.84 0 0 1-.833.591 1.81 1.81 0 0 1-1.016.06c-.62-.113-1.209-.143-1.766.388-.388.364-1.577-.046-2.072-.63a1.012 1.012 0 0 1-.279-.796c.013-.146.057-.291.129-.425.072-.133.171-.254.292-.355.254-.298.484-.613.684-.944l1.009-1.369zm-39.991-13.36c-1.035-.532-1.13-1.45-.305-2.199.216-.271.407-.558.571-.858.378-.488.801-.948 1.171-1.435.135-.164.216-.359.235-.562.03-1.051.397-1.358 1.527-1.215 1.258.162 1.799.728 1.985 1.911.089.449.283.874.567 1.246.51.699.762 1.421.221 2.177a1.826 1.826 0 0 1-.988.793 1.965 1.965 0 0 1-1.3-.007 1.859 1.859 0 0 0-1.442.176c-.861.742-1.525.16-2.242-.027zm-61.486-52.921c-.392-.908.473-1.37 1.586-1.135.482.1.924.329 1.263.653.34.325.561.73.632 1.16.135.465.343.913.619 1.332.344.625.685 1.219.211 1.897-.474.678-1.14.77-1.971.655a2.799 2.799 0 0 0-1.13-.043 2.51 2.51 0 0 0-1.013.404c-.407.312-1.807-.251-2.252-.816-.444-.565-.298-1.129.306-1.617.192-.211.352-.443.476-.692.374-.519.757-1.054 1.273-1.798zm34.154 17.737c-.049-.412-.276-1.115.62-1.435 1.083-.38 2.622.535 2.815 1.555.126.611.35 1.199.665 1.745.413.718.6 1.438.038 2.128a1.929 1.929 0 0 1-.963.68c-.39.124-.81.128-1.193.009-.634-.159-1.341-.248-1.91.407-.145.167-.698.125-1.026.054-1.611-.365-1.967-1.608-.864-2.709.331-.439.623-.901.872-1.381.291-.369.607-.72.946-1.053zm75.785 54.109a8.33 8.33 0 0 1-1.189-.907c-.522-.554-.866-1.207-.452-1.997.414-.789 1.079-1.013 1.969-.947.683.009 1.328.25 1.813.677.485.428.775 1.011.816 1.641.041.522-.682 1.223-1.219 1.679-.537.456-1.214.338-1.738-.146zm-2.595 3.924a22.583 22.583 0 0 1-1.833-2.035 1.496 1.496 0 0 1-.212-1.137c.082-.399.318-.765.661-1.028.705-.552 1.407-.328 1.962.11a12.75 12.75 0 0 1 1.841 1.928c.251.257.387.597.381.956-.006.36-.152.713-.412.993-.44.509-1.413.535-2.388.213zm-99.109-69.169c-.915-.551-1.868-1.051-2.094-2.151a1.419 1.419 0 0 1-.017-.697c.052-.229.161-.445.318-.63a1.71 1.71 0 0 1 .593-.444c.233-.106.49-.165.754-.171a3.804 3.804 0 0 1 2.16.559c.635.394 1.108.964 1.344 1.618.26.671-.181 1.551-1.046 2.101-.599.369-1.189.308-2.012-.185zm62.961 47.577a19.933 19.933 0 0 1-1.533-1.558 1.233 1.233 0 0 1-.257-.889c.032-.322.185-.63.431-.869a1.89 1.89 0 0 1 .806-.533c.312-.106.645-.13.959-.068 1.405.096 2.154.953 2.481 2.127.233.837-.607 1.304-1.126 1.781-.518.478-1.164.454-1.761.009zm30.858 21.092c-1.242-.639-1.382-1.757-1.597-2.798-.037-.183.452-.591.776-.696.674-.235 1.505-.869 2.145-.201a6.593 6.593 0 0 1 1.354 2.251c.052.235.04.479-.033.711a1.51 1.51 0 0 1-.388.623c-.378.29-1.056.281-1.61.326-.234.02-.481-.155-.647-.216zm-59.979-51.42a14.396 14.396 0 0 1-1.585-1.868 1.268 1.268 0 0 1-.127-.658c.016-.227.093-.449.223-.646.13-.198.31-.364.523-.486.213-.122.453-.195.7-.212 1.881-.118 2.958.599 3.294 2.178.1.471-.658 1.222-1.177 1.707-.518.485-1.177.321-1.674-.175l-.177.16zm64.945 42.861a2.291 2.291 0 0 1-1.214-1.106 1.955 1.955 0 0 1-.076-1.552c.095-.181.237-.338.414-.459.176-.121.383-.202.601-.237 1.623-.124 3.189 1.241 3.231 2.698.038.755-1.368 1.352-2.296.995a7.458 7.458 0 0 1-.66-.339zm64.07 53.7c.04-1.213.577-1.64 1.879-1.348.36.067.688.227.948.461.261.234.444.533.529.867.165.571.363 1.133.593 1.681.276.619.416 1.217-.097 1.819a1.836 1.836 0 0 1-.832.591 1.814 1.814 0 0 1-1.017.06c-.62-.113-1.208-.143-1.766.388-.388.364-1.576-.046-2.072-.63a1.02 1.02 0 0 1-.279-.796 1.11 1.11 0 0 1 .13-.425 1.22 1.22 0 0 1 .291-.355 7.2 7.2 0 0 0 .685-.944l1.008-1.369zm8.462 5.564a8.249 8.249 0 0 1-1.188-.907c-.523-.554-.867-1.207-.453-1.996.414-.79 1.08-1.014 1.969-.948a2.79 2.79 0 0 1 1.813.678c.485.427.775 1.011.816 1.64.041.522-.682 1.223-1.219 1.679-.536.456-1.213.339-1.738-.146zm-2.595 3.924a22.598 22.598 0 0 1-1.833-2.035 1.498 1.498 0 0 1-.212-1.136c.083-.4.318-.766.661-1.029.705-.552 1.407-.328 1.963.11a12.76 12.76 0 0 1 1.841 1.929c.251.256.386.597.38.956a1.5 1.5 0 0 1-.412.993c-.44.509-1.413.534-2.388.212zm-5.29-.5c-1.242-.638-1.382-1.757-1.597-2.798-.037-.183.452-.591.776-.696.674-.235 1.506-.868 2.146-.2a6.615 6.615 0 0 1 1.354 2.251c.051.235.04.478-.034.71a1.493 1.493 0 0 1-.388.623c-.378.291-1.056.281-1.61.326-.233.021-.48-.155-.647-.216zm4.968-8.559a2.287 2.287 0 0 1-1.214-1.106 1.955 1.955 0 0 1-.076-1.552c.095-.18.237-.337.414-.458s.383-.203.602-.237c1.622-.125 3.189 1.24 3.231 2.697.037.755-1.369 1.352-2.297.996a7.467 7.467 0 0 1-.66-.34zm-171.311-111.29c-.771-.593-1.911-1.227-1.986-2.424.009-.241.073-.475.189-.688a1.72 1.72 0 0 1 .483-.557c.205-.091.435-.139.671-.138.237 0 .473.049.691.141 1.083.524 2.086 1.231 2.498 2.274a1.9 1.9 0 0 1 .004 1.616c-.404.557-1.245.365-1.941.089-.136-.056-.263-.135-.609-.313zm63.774 44.323c.78.83 1.513 1.69 2.195 2.576.093.193.131.398.112.596a1.015 1.015 0 0 1-.222.542 1.58 1.58 0 0 1-.627.248c-.233.04-.479.034-.721-.016a5.275 5.275 0 0 1-1.762-.85 4.44 4.44 0 0 1-1.23-1.376c-.362-.568-.153-1.527.443-1.727.465-.152 1.089-.009 1.812.007zm-29.311-26.759a23.125 23.125 0 0 1-1.875-1.897 1.308 1.308 0 0 1-.26-1.006c.06-.341.269-.64.584-.839.283-.15.627-.205.972-.153.344.051.666.206.907.435.669.532 1.28 1.116 1.824 1.743.502.571.779 1.27.101 1.783-.678.512-1.42.235-2.253-.066zm-5.45-.072c-1.375-.51-1.299-1.707-1.676-2.677-.054-.136.339-.536.624-.62.708-.196 1.548-.893 2.162-.3a7.071 7.071 0 0 1 1.482 2.539c.026.222-.012.444-.11.645a1.284 1.284 0 0 1-.454.505c-.598.21-1.348.106-2.032.136l.004-.228zm-29.124-25.683c-1.225-.731-1.92-2.2-1.345-3.138.109-.108.246-.192.404-.247.158-.054.332-.079.511-.071.88.028 1.755.337 2.447.865.692.527 1.149 1.234 1.279 1.977.12.585-.508 1.065-1.488 1.001a12.257 12.257 0 0 1-1.808-.387zm62.744 47.939a2.321 2.321 0 0 1-.989-1.212 2.61 2.61 0 0 1-.02-1.629c.178-.58 1.19-1.057 1.905-.792 1.203.434 2.164 1.112 2.235 2.545.029.714-.215 1.233-.986 1.329-.73.052-1.458.061-2.179.028l.034-.269zm-28.075-30.288a2.326 2.326 0 0 1-1.238-1.126 2.088 2.088 0 0 1-.091-1.61.995.995 0 0 1 .228-.363 1.11 1.11 0 0 1 .369-.25c1.613-.482 3.802 1.238 3.595 2.792-.081.617-1.484 1.173-2.213.886-.201-.079-.429-.216-.65-.329zm23.357 38.513c-1.025-.586-1.199-1.721-1.387-2.858a.611.611 0 0 1 .138-.4c.761-.966 2.722-.912 3.17.069.146.295.316.578.508.845.606.928.607 1.512-.024 2.132-.5.494-1.611.604-2.405.212zm66.971 49.406c-1.035-.532-1.129-1.45-.304-2.199.216-.271.407-.559.571-.858.377-.489.8-.948 1.171-1.435a1.04 1.04 0 0 0 .234-.562c.03-1.051.397-1.359 1.528-1.215 1.258.162 1.799.728 1.985 1.911.089.449.282.874.567 1.246.509.699.762 1.42.221 2.177a1.82 1.82 0 0 1-.988.792 1.968 1.968 0 0 1-1.301-.006 1.856 1.856 0 0 0-1.442.176c-.86.741-1.524.16-2.242-.027zm9.711 1.256a19.433 19.433 0 0 1-1.534-1.558 1.234 1.234 0 0 1-.256-.888c.032-.322.184-.63.43-.87a1.902 1.902 0 0 1 1.766-.601c1.405.096 2.154.953 2.481 2.127.232.838-.607 1.304-1.126 1.782-.518.477-1.164.453-1.761.008zm-2.099-.305c.781.83 1.513 1.69 2.195 2.576.093.193.132.398.113.596a1.023 1.023 0 0 1-.223.543 1.573 1.573 0 0 1-.626.247c-.233.04-.479.035-.721-.016a5.273 5.273 0 0 1-1.762-.849 4.43 4.43 0 0 1-1.23-1.377c-.362-.568-.153-1.527.442-1.727.465-.152 1.09-.009 1.812.007zm-1.14-4.575a2.304 2.304 0 0 1-.989-1.212 2.596 2.596 0 0 1-.02-1.629c.178-.58 1.189-1.057 1.904-.792 1.204.434 2.165 1.112 2.235 2.546.03.713-.214 1.232-.985 1.329-.731.051-1.459.06-2.18.028l.035-.27zm-4.718 8.225c-1.026-.586-1.2-1.721-1.388-2.857a.615.615 0 0 1 .139-.401c.761-.965 2.722-.912 3.17.069.146.295.316.578.507.845.607.928.607 1.513-.024 2.132-.499.494-1.61.604-2.404.212zM184.573 183.286a4.388 4.388 0 0 1-1.122-1.364 3.867 3.867 0 0 1-.442-1.634.585.585 0 0 1 .079-.336c.484-.766 2.8-.798 3.351-.042.289.47.608.925.956 1.363.274.236.441.552.469.887.028.335-.084.664-.316.923-.463.665-1.145.586-1.805.576a4.253 4.253 0 0 1-1.17-.373z" fill="#000" fill-opacity=".7"/></svg>