<svg xmlns="http://www.w3.org/2000/svg" viewBox="0 0 325.25 351.84"><g data-name="Слой 2"><g data-name="Layer 1"><path d="M132.41 62.9l1.51-1.52a67.85 67.85 0 0 0 30.68 6.49c-12.3 9.78-25.11 23.3-24.72 40 2.08-1.55 4.23-4.79 6.79-2.17 22.74 14.75 53.07 7.18 72.67-9.4 4.28 14.34 4.84 29.41 7.29 44.11-5.56 18-18.32 35.87-37.62 40.39-9.27 3.26-20.35 2.22-27.85 9.52-6.35 7.16-8.12 18-5.08 27 3.91 10.45 16.44 14.15 20.31 24.6 3.46 9.67 3.23 20.71 9.39 29.37 10.37 12.27 25 19.67 36.92 30.24-2.2 12.82-7.45 25.12-13.93 36.33-8.45 7.9-21.09 5-31.58 5.55-3.06.61-4.05-2.7-3.9-5.09.47-21 5.75-41.61 6.27-62.53l-.12-1.23h.87c-.13-1.89.53-4-.52-5.73l-1 .43c-10.5 22.24-17.39 46.72-28.41 69-2.19 5.31-11.51 6.16-13.12 0-4-14-3.23-28.88-5.82-43.07l-.66-1.14a4 4 0 0 1 .61-3.32l-.78.4c-.25-4.32 0-8.68-.87-12.95-1.32 22.57-1.25 45.26-.87 67.86-.52-1-1-2-1.46-3-7.1.11-14.19 0-21.29.15q-.19 2.67-.39 5.37c.22-21.76-3-43.45-4.62-65.13a29.54 29.54 0 0 0-1-5.05c-.64 7.14.41 14.31-.15 21.46-1.59 13.39-.06 27.06-2.63 40.34-1.68 4.41-7.85 1.77-9.61-1.37-14.38-20.39-25.11-43.16-33.82-66.41 18.2-20.76 26.09-57.07 5.78-78.78-18.83-7.37-34.44-22.52-39.94-42.33 2.67-18.57 5.85-37.16 11.45-55.09a53.05 53.05 0 0 0 15 11.25c13.92 6.18 31.05 6.32 43.56-3.06a20 20 0 0 0 3.8 3.43c.7-7.5-2.57-15-6.91-21 12.75-12.37 34.62-8.93 45.77-23.92zm-28.25 37.57c.35 4.4 5.71 4.45 9 5.08-.14 9.22 4.09 34.22-12.15 24.57 0 4.58 5.78 4.84 9.07 3.94 5.59-5.77 14.39 5.17 19.29-3.78-17 8.48-14.52-14.41-13.17-24.74 3-.51 7-.93 8.34-4.18-5.79-3.99-14.1-3.7-20.38-.89zm-30 13.84c5.67.44 13.63 5.76 17.84 1.63-5.58-1.69-12.4-4.48-17.85-1.63zm63.25 1.9c4.13 4.17 12.19-1.06 17.83-1.64-5.49-2.72-12.24.11-17.84 1.64zM76.22 131c5.83 0 11.94-2.62 16.75-5.87l-1.4-1.13c-5.41 1.41-11.03 3.32-15.35 7zm61.23-6.4c1.42 4.81 10.48 6 15.45 7-3.9-4.06-9.97-6.25-15.45-7.05zm-34.06 31.7c-7.14 17.47 31.32 16 23.75-.32a33.39 33.39 0 0 1-23.75.32zM22.7 296.42c9.12-7.42 18.3-15.87 28.88-20.85v3c.4 22 10.76 43 14.8 64.59-8.52-1-20.08 2.29-25.39-6.57-7.8-12.59-14.64-25.8-18.29-40.17z" fill="#fff"/><path d="M169.87 32.24c5.87-11.33 12.71-22.32 21.26-31.83 7.13-2.56 8.56 7.54 11.54 11.9 27.88 61.35 36.21 129.37 41.73 195.89 2.27 33.65 2.51 67.74-3.61 101 21.41-15.29 37.72-43.1 33.29-70-14.17-28.22-35.2-57.45-28-90.86 3-32.52 29.42-63.57 63.17-65 20 0 21.19 32.22 3.94 37.92-15.66 5-34 14.6-35.92 32.89-5.39 33.71 23.39 57.68 31.27 88 2.6 22.53-6.81 44.6-19.92 62.5-13.68 19.76-30 43.42-56.48 44.74-63.52 4.5-128 .95-191.92 2.09-9 .66-19.05-2.05-23.92-10.23C-.53 312.05-1.14 277.1.73 244.26 7 164.84 15.3 81.36 57.83 11.91 60.77 8.45 63.17.3 69 3.23c7.09 8.28 10 19.29 14.18 29.18C112 29.58 141 30 169.87 32.24zm-45 20.25c.67 4.86 8.65 5.92 7.51 10.41-11.15 15-33 11.55-45.79 24 4.34 6 7.61 13.46 6.91 21a20 20 0 0 1-3.8-3.43c-12.51 9.38-29.64 9.24-43.56 3.06a53.05 53.05 0 0 1-15-11.25v-.13c-1.43-1.8-2.83-3.62-4.14-5.51-4.12 19.8-14.22 40.49-7.35 60.73 5.5 19.81 21.11 35 39.94 42.33 20.31 21.71 12.42 58-5.78 78.78-2.56.55-1.22 3.31-.76 4.88a373.77 373.77 0 0 0 29.16 65.9c3.74 6.67 14.37 7.07 19.87 3.12 1.79-15.52-1.66-31.41-1.58-47.09l-.63.63c.56-7.15-.49-14.32.15-21.46a29.54 29.54 0 0 1 1 5.05c1.62 21.68 4.84 43.37 4.62 65.13 8.08-.19 16.17 0 24.26-.11l-1.12-2.43c-.38-22.6-.45-45.29.87-67.86.84 4.27.62 8.63.87 12.95l.78-.4a4 4 0 0 0-.61 3.32l.66 1.14-.83-1c.75 17.31-.56 35 2.54 52 6.44 4 19.94 4.43 22.61-4.9 9.53-23.38 16.53-48.08 23.67-72h-.64l1-.43c1.05 1.69.39 3.84.52 5.73h-.87l.12 1.23c-7.94 24.09-11.31 50-22.7 72.76 20.08-.37 40.27.73 60.28-.57 19-6.63 22.5-35 5.56-46.45-11.89-10.57-26.55-18-36.92-30.24-6.16-8.66-5.93-19.7-9.39-29.37-3.87-10.45-16.4-14.15-20.31-24.6-3-9-1.27-19.83 5.08-27 7.5-7.3 18.58-6.26 27.85-9.52 19.3-4.52 32.06-22.4 37.62-40.39 8.64-15.78 1.46-33.6-1.68-49.84-1.76 2-3.68 3.88-5.61 5.73-19.6 16.58-49.93 24.15-72.67 9.4-2.56-2.62-4.71.62-6.79 2.17-.39-16.71 12.42-30.23 24.72-40 10.72 0 28.62-5.34 24.33-19.46C181 32 160.26 35.06 145.18 33.85c-9.76-.7-25.44 6.73-20.28 18.64zM50.71 86.13c2.51 17.6 26.22 25.83 39.18 14.31-1.48-8.71-6.68-17.83-15.2-21.18.44 2.9.92 5.8 1.29 8.71v4.74l-.46-.1c-2.07 3.31-3.06 7.5-6 10.11-3.58-8.28-4.37-17.32 1.33-24.86-7.33-.12-15.73 2.07-20.14 8.27zm92.94 14.72c13.41 11.05 36.37 2.8 38.9-14.78-4.5-6.14-12.47-9.09-19.94-8.31 1.27 2.84 2.51 5.7 3.69 8.59.31.84.95 2.51 1.27 3.34a92.86 92.86 0 0 1-3.35 12.92c-6.6-6.37-7.59-15.36-5.27-23.88-8.66 3.84-14.35 12.92-15.3 22.12zm132-1.28a64.05 64.05 0 0 0-21.4 29.43c4.2 3.54 8.33 7.23 13.2 9.84l-.17.22a63.35 63.35 0 0 0 9.84 4.33 42 42 0 0 1 18.17-17.46c-1.11-3.81-3.48-7.05-5.33-10.51l-.09.06c-4.03-5.76-8.16-12.27-14.23-15.91zm-12.31 70.8l.21.36c-5.12.2-10.4.78-15.38-.73a104.19 104.19 0 0 0 11.38 35.26c5-2 9.77-4.61 14.6-7L274 198a34.72 34.72 0 0 0 7.1-4c-3.33-8.72-6.43-17.64-7.17-27a36 36 0 0 1-10.6 3.37zM233 186.85c-24.41 17.85-28.6 59.65-1.52 77l-.06.24c3.49 2.38 7.18 4.48 10.58 7 2.13-30.34-.11-60.79-3.08-91a84.18 84.18 0 0 0-5.92 6.76zM7.71 198.34c-3.34 29.48-5.63 59.2-4 88.87 6.29-1.87 9.17-9.21 14.1-13.31l-.11-.28c15.93-17.76 10.75-45.21-2.93-62.68l.11-.27a140.28 140.28 0 0 1-7.17-12.33zm281.62 29.1c-5.21.77-9.64 3.64-14.09 6.23 3.27 7.1 3.52 15.05 2.4 22.68a23.55 23.55 0 0 1 18.35 3.4c3 2.07 5.24 4.91 7.8 7.43 3.19-13.13 3.68-27.64-4.06-39.35-3.35-1.24-6.95-.73-10.4-.39zm-266.63 69C15.71 302.73 6.14 312 11 322.17c3.75 10.47 8.1 24.48 21.07 26 16.33.76 32.75.28 49.11.25-13.42-21.58-22-45.81-29.64-69.9v-3C41 280.55 31.82 289 22.7 296.42zm244.11-11.74c-3.88 6.8-8.74 12.93-13.63 19 5.46.39 10.08 3.59 14.24 6.88a40.57 40.57 0 0 1 6.16 9c5.32-7.7 19.57-17.87 9.19-26.86-4.13-4.41-9.65-8.26-15.96-8.04z" fill="#060606"/><path d="M74.15 114.31c5.45-2.85 12.27-.06 17.84 1.63-4.21 4.13-12.17-1.19-17.84-1.63zm63.25 1.9c5.59-1.53 12.35-4.36 17.83-1.64-5.64.58-13.7 5.81-17.83 1.64zM76.22 131c4.32-3.63 9.94-5.54 15.35-6.94l1.4 1.07c-4.81 3.2-10.92 5.87-16.75 5.87zm61.23-6.45c5.48.8 11.58 3 15.45 7-4.97-1.05-14.03-2.19-15.45-7z" fill="#060606"/><path d="M124.9 52.49c-5.16-11.91 10.52-19.34 20.28-18.64C160.26 35.06 181 32 188.93 48.41c4.29 14.12-13.61 19.51-24.33 19.46a67.85 67.85 0 0 1-30.68-6.49l-1.51 1.52c1.14-4.49-6.84-5.55-7.51-10.41zm150.74 47.08c6.07 3.64 10.2 10.15 14.23 15.91-9.41 5.8-16.39 14.26-22.42 23.36-4.87-2.61-9-6.3-13.2-9.84a64.05 64.05 0 0 1 21.39-29.43zM248.16 170c5 1.51 10.26.93 15.38.73 3.65 9 5.87 18.61 10.5 27.28l.1.22c-4.83 2.42-9.59 5-14.6 7A104.19 104.19 0 0 1 248.16 170zm-16.69 93.85c-27.08-17.35-22.89-59.15 1.52-77 1.52 25.58 2.85 51.66-1.52 77zM17.7 273.62c-4.14-20.34-6.74-42.19-2.93-62.68 13.68 17.47 18.86 44.92 2.93 62.68zm257.54-39.95c4.45-2.59 8.88-5.46 14.09-6.23 8.15 8.34 9 21.42 6.66 32.31a23.55 23.55 0 0 0-18.35-3.4c1.12-7.63.87-15.58-2.4-22.68zm-8.43 51.01c6.31-.22 11.83 3.63 16 8.05-5.74 5.37-9.32 12.69-15.35 17.84-4.16-3.29-8.78-6.49-14.24-6.88 4.85-6.08 9.71-12.21 13.59-19.01z" fill="#976b4a"/><path d="M166.3 86.35c5.68-9.83 11.48 7 1.27 3.34-.32-.83-.96-2.5-1.27-3.34zM76 88c7.61-5.12 7.58 8.81 0 4.74V88z" fill="#eaf5c2"/><path d="M50.71 86.13c4.41-6.2 12.81-8.39 20.12-8.27-5.7 7.54-4.91 16.58-1.33 24.86 3-2.61 4-6.8 6-10.11l.46.1c7.55 4.07 7.58-9.86 0-4.74-.37-2.91-.85-5.81-1.29-8.71 8.52 3.35 13.72 12.47 15.2 21.18-12.94 11.56-36.65 3.29-39.16-14.31zm92.94 14.72c.95-9.2 6.64-18.28 15.3-22.12-2.32 8.52-1.33 17.51 5.27 23.88a92.86 92.86 0 0 0 3.35-12.92c10.21 3.64 4.41-13.17-1.27-3.34a284.46 284.46 0 0 0-3.69-8.59c7.47-.78 15.44 2.17 19.94 8.31-2.55 17.58-25.49 25.83-38.9 14.78z" fill="#c0d9a2"/><path d="M27 90.62c1.31 1.89 2.71 3.71 4.14 5.51v.13c-5.6 17.93-8.78 36.52-11.45 55.09-6.88-20.24 3.22-40.93 7.31-60.73zm192.34 5.69c1.93-1.85 3.85-3.71 5.61-5.73 3.14 16.24 10.32 34.06 1.68 49.84-2.45-14.7-3.01-29.77-7.29-44.11zM103.39 156.3a33.39 33.39 0 0 0 23.75-.32c7.57 16.33-30.89 17.79-23.75.32zm75.36 112.97h.64c-7.14 23.95-14.14 48.65-23.67 72-2.67 9.33-16.17 8.93-22.61 4.9-3.1-17-1.79-34.72-2.54-52l.83 1c2.59 14.19 1.83 29.09 5.82 43.07 1.61 6.12 10.93 5.27 13.12 0 11.02-22.24 17.91-46.73 28.41-68.97zm-125.67 8.07c-.46-1.57-1.8-4.33.76-4.88 8.71 23.25 19.44 46 33.82 66.41 1.76 3.14 7.93 5.78 9.61 1.37 2.57-13.28 1-26.95 2.63-40.34l.63-.63c-.08 15.68 3.37 31.57 1.58 47.09-5.5 3.95-16.13 3.55-19.87-3.12a373.77 373.77 0 0 1-29.16-65.9zm103.78 71.21c11.39-22.8 14.76-48.67 22.7-72.76-.52 20.92-5.8 41.56-6.27 62.53-.15 2.39.84 5.7 3.9 5.09 10.49-.53 23.13 2.35 31.58-5.55 6.48-11.21 11.73-23.51 13.93-36.33 16.94 11.44 13.41 39.82-5.56 46.45-20.01 1.3-40.2.2-60.28.57zM51.57 278.53c7.65 24.09 16.22 48.32 29.64 69.9-16.36 0-32.78.51-49.11-.25-13-1.53-17.32-15.54-21.07-26-4.89-10.18 4.68-19.45 11.67-25.76C26.35 310.79 33.19 324 41 336.55c5.31 8.86 16.87 5.61 25.39 6.57-4.06-21.61-14.39-42.59-14.82-64.59zm54.51 64.72c7.1-.17 14.19 0 21.29-.15.48 1 .94 2 1.46 3l1.12 2.43c-8.09.12-16.18-.08-24.26.11q.2-2.72.39-5.39z" fill="#cabfcd"/><path d="M104.16 100.47c6.28-2.81 14.59-3.1 20.4.89-1.39 3.25-5.3 3.67-8.34 4.18-1.35 10.33-3.8 33.22 13.17 24.74-4.9 8.95-13.7-2-19.29 3.78-3.29.9-9.1.64-9.07-3.94 16.24 9.65 12-15.35 12.15-24.57-3.31-.63-8.67-.68-9.02-5.08z" fill="#dd7f7f"/><path d="M289.87 115.48l.09-.06c1.85 3.46 4.22 6.7 5.33 10.51a42 42 0 0 0-18.17 17.46 63.35 63.35 0 0 1-9.84-4.33l.17-.22c6.03-9.1 13.01-17.56 22.42-23.36zm-26.54 54.89A36 36 0 0 0 274 167c.74 9.37 3.84 18.29 7.17 27a34.72 34.72 0 0 1-7.1 4c-4.63-8.67-6.85-18.31-10.5-27.28zM233 186.85a84.18 84.18 0 0 1 5.92-6.74c3 30.21 5.21 60.66 3.08 91-3.4-2.54-7.09-4.64-10.58-7l.06-.24c4.36-25.36 3.03-51.44 1.52-77.02zM7.71 198.34a140.28 140.28 0 0 0 7.17 12.33l-.11.27c-3.81 20.49-1.21 42.34 2.93 62.68l.11.28C12.88 278 10 285.34 3.66 287.21c-1.58-29.67.71-59.39 4.05-88.87zm281.62 29.1c3.45-.34 7.05-.85 10.4.39 7.74 11.71 7.25 26.22 4.06 39.35-2.56-2.52-4.84-5.36-7.8-7.43 2.32-10.89 1.49-23.97-6.66-32.31zm-21.91 83.13c6-5.15 9.61-12.47 15.35-17.84 10.38 9-3.87 19.16-9.19 26.86a40.57 40.57 0 0 0-6.16-9.02z" fill="#794e3b"/></g></g></svg>