<svg xmlns="http://www.w3.org/2000/svg" viewBox="0 0 375.03 263.06"><g data-name="Слой 2"><g data-name="Layer 1"><path d="M208.8 53.7c12.58 15.22 31.34 24.3 50.86 26.12-.36.6-1.1 1.79-1.46 2.38h.42c4.78 1.74 9.25 4.29 14.18 5.64-3-4.4-8.44-6.08-13.43-6.75l.53-1.33c12.16 1.67 24.76.85 36.12-4.08 5.43-3.35 12.63 2.82 11 8.71-1.78 24.88 17.83 47.74 41.62 53-4.41 14.61-14 27.53-17 42.4-.92 1.34-1.74 2.74-2.63 4.08-9.52 14.88-18.62 31-21.83 48.51-1.62 11.38 11.8 14.44 20.38 15.3 9.11 2.45 12.45-8.65 20.33-10.59 7 5.19 14.65 9.69 20.68 16-32.73 5.65-64.35-9-95.95-15.29a620.92 620.92 0 0 0-92.1-.52c-20.77 3.16-41.38 10.07-62.65 6.9 5.35-5.83 10.17-12.16 15.79-17.73 7-5.22 4.32-15.26 2.06-22.29-4.63-12.35-10.84-24.1-17.46-35.49-10.84-15.25-30.1-22.37-40-38.39 17.2-4 34.73 2 49.36 10.9 13.65 11.8 31.13 1.54 45.46-3.44l-.28 2.63c-1.14 9.23-4.3 19.87.84 28.37-.59 7.67 10.56 10.2 14.52 4.16 10.28-11.58 19.64-25.22 24.2-40 13.52-17.53-10.85-30.63-13.37-47.53 2.9-10.59 6.16-21.18 9.81-31.67zm81.68 24.11c2.77 9.47-2.06 24.48-15 19.91 2.67 2.38 6.46 2.29 9.83 2.1 1.1 2.41 1.07 6 4.06 6.88-5.34-9.28 3.12-20 12.16-19.78-4.82-1.39-8.05-5.33-11.05-9.11zm-35.84 12.85a30.32 30.32 0 0 0 15.68 2.39c-4.86-2.05-10.44-3.74-15.68-2.39zm49.1 15.77c2.42 3.32 4.74 7.58 8.77 9-1.91-3.65-4.32-8.27-8.77-9zm-32.91 2.31c-8.83 5.81 4.89 18.12 11.42 11.38 3.22-6.27-5.57-13.69-11.42-11.38zm30 1.9c1.2 4.33 3.88 8 6.54 11.56-.56-4.2-2.26-10.08-6.58-11.56z" fill="#fff"/><path d="M178.66 135c8.14-3.76 17.57-.44 23.92 5.26.42.81.85 1.63 1.3 2.45-3.11 3.32-5.58 7.15-8.43 10.67-4.5 1.87-8.59 9.19-13.89 5-4.79-6.76-1.73-15.71-2.9-23.38z" fill="#fff"/><path d="M235.48 29.46c14.78-12.56 31.61-25.09 51-29.46 10.21 4 3.74 20.16 5.6 29.21 18.35 9.33 34.32 22.67 49.55 36.37C351.57 64 370 52.87 375 65.43c-9.78 34.81-15.79 70.77-30.6 104.09a554 554 0 0 1-7.49 57.21 241.06 241.06 0 0 1 32.42 22.84c4.76 3.64 3.5 12.58-3.3 12.59-31.81 4.17-62.87-7.49-94.52-8.56-48.67-4.26-97.32-.06-146-.75-4.69.1-14-.43-12.37-7.29 5.17-7 11.42-13.28 17-20-3.07-9.08-7.2-17.74-10.88-26.57-16 4.47-32.84 3.8-49.21 2.52C39.77 194 6.2 174.17 1.57 140.46-4 107.75 5.17 70.18 32.13 49.05 47 37.56 67 32 85.43 36.23c13.49 2.9 18.35 21.67 9.44 31.58-9 12.36-25.25 5.62-37.45 10.19-27.35 8.33-33.18 43.31-23.27 66.87 13.31 25.23 45.25 30.77 71.16 27.46-5.33-12.88-19.44-19.1-26.67-30.94-3.25-4.27-9.13-11-4.09-16 10.28-4.18 21.52-5 32.48-5.43 28.09-18.27 57.88-33.73 87.39-49.55 9.32-17.29 20-36.77 41.06-40.95zm26.09-15.13c-9 3.83-16.07 10.88-23.2 17.27-11.14 3.8-23.57 8.44-28.68 20a12.53 12.53 0 0 0-1.93 2.4c-3.23 5.19-6.83 10.18-9.54 15.67-1.77 4.71-7.35 5.59-11.2 8-5 2.81-9.86 5.83-15.13 8.08l.1.19c-1.34.64-2.67 1.29-4 2-4.86 3.06-10.1 5.44-14.95 8.5a29.8 29.8 0 0 0-5.39 3c-4.69 2.47-9.08 5.51-13.95 7.63l.07.14c-1.61.86-3.2 1.76-4.74 2.7a150.27 150.27 0 0 1-13.31 8.09l.09.16a29.47 29.47 0 0 0-7.54 5.15c-10 1.24-29.43-2-32.39 9 8.45 16.37 26.65 24.76 33.94 41.58-6.93 3.05-15.18 1.84-22.65 2.38-5.21-.37-10.37-1.1-15.55-1.71-18.1-3.69-35.46-15.12-42.4-32.77-3.85-17.09-4.5-36.53 6.28-51.4 8.57-12.36 24.12-19 39-17.14 8.62.49 18.38-4.11 20.92-12.87 3.32-8.73-2.37-19.8-11.84-21.42-24.8-4.8-51.12 8.06-64.75 28.91C2.8 91.54-.68 122.65 7 150c8.78 24.39 33 38.67 56.39 46.52 18.73 5.36 39.34 2.93 57.93-.48 4.11 10.17 9.05 20 12.27 30.55-5.62 5.57-10.44 11.9-15.79 17.73-4.69 8.61 13.82 4.85 19.45 5.51 52.18-.89 104.69-2.47 156.7 2.09 24.22 5 49.77 11.06 74.52 6.57a5.07 5.07 0 0 0 0-5.26c-6-6.35-13.69-10.85-20.68-16l.43-.18c-3.73-1.33-6.75-4-10-6.11l-2.25-.93.44-.06c-5.32-1.25-1.49-7.68-1.22-11.33a477.11 477.11 0 0 0 6.16-50 302.43 302.43 0 0 0 11.31-29.9c7.34-20.72 9.76-42.58 16.93-63.28 0-4 5.18-10.85 0-13-9.6.88-19.41 2.75-28.27 6.74C335 63.75 328.93 58 322.17 53l.05-.13c-4.51-3.35-8.9-6.83-13.42-10.15-6.34-4.22-12.7-8.51-19.7-11.57.11-9.29 0-18.57-.65-27.84-9.78-.04-18.73 6.15-26.88 11.02z" fill="#060606"/><path d="M258.18 44.42c17-.78 24.21 18.72 21.88 32.92l-2.36-1.17c-7.58 1-17.23 1.24-22.14-5.76-4.56-7.26-2.07-17.16 3.44-23.22zm-1.19 24c4.27 7.42 14.52 7.9 21.84 5.44-.52-6.06-.78-12.51-4.11-17.81-1.48 5.66-8.53 6.31-13 8.84 1.38-5.07.31-13.69 6.44-15.38-1.91-.9-3.79-1.82-5.71-2.64-5.91 5.07-8.99 14.3-5.45 21.56zm1.63 13.82l.75-1.11c5 .67 10.47 2.35 13.43 6.75-4.93-1.35-9.4-3.88-14.18-5.64zm51.52 8.95c11.08-8.48 29.78-3 31.37 11.92l-2.7.17c-7.88 13.52-33.15 4.18-26.46-11.74zM314 101.4c4.59 8.77 19.72 8.24 23.73-.94-1.42-5.22-5-10.32-10.82-10.87 0 .86.08 2.57.11 3.43-2.65 2.62-4.6 6.73-8.48 7.55a62.37 62.37 0 0 1 .41-11.1c-6.74-.68-6.71 7.53-4.95 11.93zm-59.36-10.74c5.24-1.35 10.82.33 15.68 2.39a30.32 30.32 0 0 1-15.68-2.39zm49.1 15.77c4.45.73 6.86 5.35 8.77 9-4.03-1.43-6.35-5.68-8.77-9zm-131.03 34.05c2.14-10.73 5.54-21.64 11.93-30.61-1.31 6-4.66 11.34-6.31 17.27-.84 3-1.43 6-2.15 9-1.39 9.77-4.42 21.76 1.27 30.45 7.66 1.06 13.25-7.95 18-13.15 2.85-3.52 5.32-7.35 8.43-10.67-.45-.82-.88-1.64-1.3-2.45a5.74 5.74 0 0 1 3 1.86c-8.65 10-16.19 30.84-32.06 26.72-5.11-8.55-1.95-19.19-.81-28.42zm128.08-29.84c4.32 1.48 6 7.37 6.54 11.56-2.66-3.55-5.33-7.2-6.54-11.56z" fill="#060606"/><path d="M271.52 62.18l3.94.17c2.41 2.79.93 6.51-2.61 7.15-.79-.79-1.57-1.57-2.35-2.33a8.16 8.16 0 0 1 1.02-4.99zm58.19 32.26c4.1-1.29 5.58 6.3 1.79 7-3.87.85-4.17-5.32-1.79-7z" fill="#eaf5c2"/><path d="M257 68.43c-3.53-7.26-.45-16.49 5.49-21.55 1.92.82 3.8 1.74 5.71 2.64-6.13 1.69-5.06 10.31-6.44 15.38 4.44-2.53 11.49-3.18 13-8.84 3.33 5.3 3.59 11.75 4.11 17.81-7.36 2.46-17.61 1.98-21.87-5.44zm14.53-6.25a8.16 8.16 0 0 0-1 5c.78.76 1.56 1.54 2.35 2.33 3.54-.64 5-4.36 2.61-7.15zM314 101.4c-1.76-4.4-1.79-12.61 4.95-11.93a62.37 62.37 0 0 0-.41 11.1c3.88-.82 5.83-4.93 8.48-7.55 0-.86-.08-2.57-.11-3.43 5.83.55 9.4 5.65 10.82 10.87-4.01 9.18-19.14 9.71-23.73.94zm15.71-7c-2.38 1.68-2.08 7.85 1.79 7 3.79-.66 2.31-8.25-1.79-6.96z" fill="#c0d9a2"/><path d="M207.76 54l1-.26c-3.65 10.49-6.91 21.08-9.9 31.77-.3-1.31-.53-2.63-.7-3.94a39.56 39.56 0 0 1 0-11.9c2.77-5.53 6.37-10.52 9.6-15.67zm63.07 54.74c5.85-2.31 14.64 5.11 11.42 11.38-6.53 6.74-20.25-5.57-11.42-11.38zM75.9 132.2c.73-.62 1.49-1.22 2.27-1.81 10 16 29.21 23.14 40.05 38.39 6.62 11.39 12.83 23.14 17.46 35.49 2.26 7 5 17.07-2.06 22.29-3.22-10.56-8.16-20.38-12.27-30.56-4.17-7.23-7.63-14.84-11.51-22.23-7.29-16.77-25.49-25.2-33.94-41.57zm135.03 2.43l1.34-1.63c-4.56 14.79-13.92 28.43-24.2 40-4 6-15.11 3.51-14.52-4.16 15.87 4.12 23.41-16.77 32.06-26.72 1.82-2.46 3.39-5.12 5.32-7.49z" fill="#cabfcd"/><path d="M177.45 166.54c-5.69-8.69-2.66-20.68-1.27-30.45l2.48-1.08c1.17 7.66-1.89 16.61 2.9 23.34 5.3 4.23 9.39-3.09 13.89-5-4.75 5.24-10.34 14.25-18 13.19zm171.19-29.08l.48.15 3.59 1a302.43 302.43 0 0 1-11.31 29.9c-3.21 3.81-6.6 7.48-9.8 11.3 3-14.81 12.63-27.74 17.04-42.35zm-168.16 99.93a620.92 620.92 0 0 1 92.1.52c31.6 6.24 63.22 20.94 95.95 15.29a5.07 5.07 0 0 1 0 5.26c-24.75 4.49-50.3-1.59-74.52-6.57-12.32-5.31-24.58-12.43-38.43-12.08-27.94-1.2-56.32-3-84 1.45-11.36 3.06-22.39 7.56-34.23 8.54-5.63-.66-24.14 3.1-19.45-5.51 21.2 3.17 41.81-3.74 62.58-6.9z" fill="#cabfcd"/><path d="M290.48 77.81c3 3.78 6.23 7.72 11.1 9.11-9-.17-17.5 10.5-12.16 19.78-3-.93-3-4.47-4.06-6.88-3.37.19-7.16.28-9.83-2.1 12.89 4.57 17.72-10.44 14.95-19.91z" fill="#dd7f7f"/><path d="M261.57 14.33c8.15-4.87 17.1-11.06 26.88-11 .67 9.27.76 18.55.65 27.84 7 3.06 13.36 7.35 19.7 11.57-4.35 5.12-9.74 14.94-2.58 19.94 7.19 4.3 14.47-2.8 15.95-9.66 6.76 4.98 12.83 10.73 19.12 16.2 8.86-4 18.67-5.86 28.27-6.74 5.21 2.11 0 8.93 0 13-.1-.53-.29-1.59-.39-2.12-12.65 19.49-12.42 43-20.08 64.29l-.48-.15c-23.79-5.29-43.4-28.15-41.62-53 1.63-5.89-5.57-12.06-11-8.71-11.36 4.93-24 5.75-36.12 4.08l-.53 1.33-.75 1.11h-.42c.36-.59 1.1-1.78 1.46-2.38C240.14 78 221.38 68.92 208.8 53.7l-1 .26a12.53 12.53 0 0 1 1.93-2.31c8.72-4.93 17.66-9.56 27.19-12.73 11.63-4.1 15.69-17.05 24.65-24.59zm31.32 24.49c-3.65 2.24-5.06 9.3-.47 11.21 7.71 1.97 9.07-14.38.47-11.21zm-58 3.06c-5.83 5.68 6.71 18.91 12.29 12.27.37-5.98-6.24-12.7-12.3-12.27zm23.3 2.54l.81 2.77c-5.5 6.06-8 16-3.43 23.22 4.91 7 14.56 6.71 22.14 5.76l2.36 1.17c2.32-14.2-4.87-33.7-21.89-32.92zm-31.62 8.19c-8.72 7.78 13.67 21.21 15.86 9.73-2.57-5.44-9.57-10.6-15.87-9.73zm98 11c-5.41 1.9-2.68 10.11 2.92 7.75 6.27-1.36 3.01-11.43-2.89-7.76zm-14.43 27.58l2.21.35c-6.69 15.92 18.58 25.26 26.46 11.74l2.7-.17c-1.59-14.94-20.29-20.4-31.37-11.92zm31.86 18.7c-10 4.81 6.52 13.64 10.35 6.6 2.22-5.69-6.35-7.95-10.35-6.6zm-7.38 8.72c-8.37 7 14 17.82 12.29 6-3.26-3.12-7.53-7.1-12.34-6zM189.49 86.58c3-1.37 7.08-1.69 8.71-5 .17 1.31.4 2.63.7 3.94 2.52 16.9 26.89 30 13.37 47.53l-1.34 1.63-.69-.78c-.82.78-1.64 1.56-2.42 2.36-5.64-9.94-19.25-14.22-29.49-9.07 1.65-5.93 5-11.25 6.31-17.27-6.39 9-9.79 19.88-11.93 30.61l.28-2.63c-14.33 5-31.81 15.24-45.46 3.44-14.63-8.94-32.16-14.92-49.36-10.9-.78.59-1.54 1.19-2.27 1.81 3-11 22.44-7.74 32.39-9a13.44 13.44 0 0 0 9.37-1.94c2.59 4.52 8 9.52 13.51 6.86 3.76-3.83 1.18-9.66-.65-13.85q2.88-1.17 5.81-2.27c2.93 4.24 7.49 9.76 13.33 7.64 4.82-3.23 2.31-10 .52-14.39q2.52-1.35 5.13-2.6c3 4.52 7.6 10.26 13.8 8.24 5-3.41 3.13-10.42 1.39-15.18 1.67-.83 3.3-1.74 5-2.61 5.84 8.85 18.3 4.66 13.99-6.57zm-.8 28.18c-5.74-.46-5.68 7.49-.2 7.48 7.93.52 15 7.48 22.72 5.89 2.18-11.5-13.55-16.13-22.52-13.37zM71.64 174.45c5.18.61 10.34 1.34 15.55 1.71 3.76 4.39 9.63 8.61 9.08 15-9.31.69-18.9.81-27.93-1.89a33.83 33.83 0 0 0 3.3-14.82zM329 183.94c1.15 12.31-1.35 24.74-.61 37.14-4 2.61-9.76 7.17-7.05 12.49 5.08 3.29 9.42-3.87 14.71-3.63l2.25.93c-5.57 3.9-13.32 8.78-10.75 16.88-8.58-.86-22-3.92-20.38-15.3 3.18-17.55 12.28-33.63 21.83-48.51z" fill="#756d56"/><path d="M238.37 31.6c7.13-6.39 14.23-13.44 23.2-17.27-9 7.54-13 20.49-24.69 24.59-9.53 3.17-18.47 7.8-27.19 12.73C214.8 40 227.23 35.4 238.37 31.6zM187 77.65c3.85-2.43 9.43-3.31 11.2-8a39.56 39.56 0 0 0 0 11.9c-1.63 3.36-5.67 3.68-8.71 5l-.55.3c-.71-3.04-1.35-6.11-1.94-9.2zm162.12 59.96c7.66-21.31 7.43-44.8 20.08-64.29.1.53.29 1.59.39 2.12-7.17 20.7-9.64 42.51-16.88 63.22zM168 87.87c1.31-.66 2.64-1.31 4-2 1.28 2.34 2.62 4.65 4 7l-.51.24c-1.67.87-3.3 1.78-5 2.61l-.49-1.25a39.24 39.24 0 0 1-2-6.6zm-20.33 11.48a29.8 29.8 0 0 1 5.39-3q1 3.16 2.25 6.3-2.61 1.24-5.13 2.6c-.77-1.99-1.6-3.97-2.51-5.9zm-18.62 10.47c1.54-.94 3.13-1.84 4.74-2.7.8 1.64 1.61 3.3 2.54 4.9q-2.93 1.1-5.81 2.27c-.52-1.47-1.02-2.98-1.47-4.47zm-20.76 13.4a29.47 29.47 0 0 1 7.54-5.15c.58 1.07 1.18 2.15 1.83 3.21a13.44 13.44 0 0 1-9.37 1.94zm223.31 56.64c3.2-3.82 6.59-7.49 9.8-11.3a477.11 477.11 0 0 1-6.16 50 57.18 57.18 0 0 0-6.88 2.53c-.74-12.4 1.76-24.83.61-37.14.89-1.35 1.71-2.75 2.63-4.09zm-221.76-6.08c3.88 7.39 7.34 15 11.51 22.23-18.59 3.41-39.2 5.84-57.93.48a36.69 36.69 0 0 0 4.92-7.18c9 2.7 18.62 2.58 27.93 1.89.55-6.43-5.32-10.65-9.08-15 7.47-.58 15.72.63 22.65-2.42zm61.67 67.48c27.72-4.43 56.1-2.65 84-1.45 13.85-.35 26.11 6.77 38.43 12.08-52-4.56-104.52-3-156.7-2.09 11.88-.98 22.91-5.48 34.27-8.54z" fill="#5d5246"/><path d="M18.82 67.76c13.63-20.85 40-33.71 64.75-28.91C93 40.47 98.73 51.54 95.41 60.27c-8.56 9.28-21.47.32-31.91 3.92-35 3.6-49.25 49.23-34.26 77.49 6.94 17.65 24.3 29.08 42.4 32.77a33.83 33.83 0 0 1-3.3 14.86 36.69 36.69 0 0 1-4.92 7.18C40 188.64 15.81 174.36 7 150c-7.68-27.35-4.2-58.46 11.82-82.24zm274.07-28.94c8.6-3.17 7.24 13.14-.47 11.21-4.59-1.91-3.18-8.97.47-11.21zm-58.01 3.06c6.06-.43 12.67 6.29 12.29 12.27-5.58 6.64-18.12-6.59-12.29-12.27zm73.92.87c4.52 3.32 8.91 6.8 13.42 10.15l-.05.13c-1.48 6.86-8.76 14-15.95 9.66-7.16-5-1.77-14.82 2.58-19.94z" fill="#2f2b22"/><path d="M226.56 52.61c6.3-.87 13.3 4.29 15.86 9.73-2.19 11.48-24.58-1.95-15.86-9.73zM324.6 63.6c5.9-3.67 9.16 6.36 2.92 7.75-5.6 2.36-8.33-5.85-2.92-7.75zM188.94 86.88l.55-.3c4.31 11.23-8.15 15.43-14 6.54l.51-.24a27.74 27.74 0 0 0 12.94-6zM170 94.47l.48 1.26c1.74 4.76 3.64 11.77-1.39 15.18-6.2 2-10.78-3.72-13.8-8.24 5.15-2.03 11.93-2.88 14.71-8.2zM133.72 107c4.87-2.12 9.26-5.16 13.95-7.63.91 1.93 1.74 3.91 2.51 5.92 1.79 4.35 4.3 11.16-.52 14.39-5.84 2.12-10.4-3.4-13.33-7.64-.93-1.6-1.74-3.26-2.54-4.9zm-17.98 10.91a150.27 150.27 0 0 0 13.31-8.09c.45 1.49.91 3 1.47 4.47 1.83 4.19 4.41 10 .65 13.85-5.51 2.66-10.92-2.34-13.51-6.86-.65-1.06-1.25-2.14-1.83-3.21zM342 109.89c4.09-1.35 12.62.91 10.35 6.6-3.88 7.04-20.35-1.79-10.35-6.6zm-153.31 4.87c9-2.78 24.7 1.87 22.52 13.37-7.7 1.59-14.79-5.37-22.72-5.89-5.49.01-5.49-7.94.2-7.48z" fill="#2f2b22"/><path d="M334.57 118.61c4.81-1.1 9.08 2.88 12.29 6 1.68 11.82-20.66.95-12.29-6zm-156.24 8.53c10.24-5.15 23.85-.87 29.49 9.07.78-.8 1.6-1.58 2.42-2.36l.69.78c-2 2.35-3.5 5-5.32 7.5a5.74 5.74 0 0 0-3-1.86c-6.35-5.7-15.78-9-23.92-5.26l-2.48 1.08c.69-2.98 1.28-6 2.12-8.95zm150.03 93.94a57.18 57.18 0 0 1 6.88-2.53c-.27 3.65-4.1 10.08 1.22 11.33l-.44.06c-5.29-.24-9.63 6.92-14.71 3.63-2.71-5.32 3.06-9.88 7.05-12.49zm9.91 9.79c3.26 2.14 6.28 4.78 10 6.11l-.43.18c-7.88 1.94-11.22 13-20.33 10.59-2.51-8.1 5.19-12.98 10.76-16.88z" fill="#2f2b22"/><path d="M63.5 64.19c10.44-3.6 23.35 5.36 31.91-3.92-2.54 8.73-12.3 13.36-20.92 12.87-14.85-1.83-30.4 4.78-39 17.14-10.78 14.87-10.13 34.31-6.28 51.4-14.96-28.26-.76-73.89 34.29-77.49zm108.39 21.54c5.27-2.25 10.15-5.27 15.13-8.08.57 3.09 1.21 6.16 1.92 9.23a27.74 27.74 0 0 1-13 6c-1.37-2.31-2.71-4.62-4-7zm-18.83 10.64c4.85-3.06 10.09-5.44 14.95-8.5a39.24 39.24 0 0 0 2 6.6c-2.8 5.32-9.58 6.17-14.71 8.2q-1.19-3.13-2.24-6.3z" fill="#25201c"/></g></g></svg>