<svg data-name="Layer 1" xmlns="http://www.w3.org/2000/svg" viewBox="0 0 387.16 326.62"><path d="M189.78 64.22a90.45 90.45 0 0 0 9.66-1l.74-.11c1.11-.18 2.22-.39 3.32-.62-.17.7-.39 1.41-.63 2.13 17.09-8.43 28.77-5.77 23 1.23 1.2-2.36-2.53-4.13-4.61-3.27-3.57 1.48-3.72 5.64.17 7.09 7.26 2.71 11.09-6.44 8.16-10.46-3.51-4.85-12.27-2.19-16.88-.62-3.71 1.28-6.79 2.1-9.21 2.75 7-3.7 17.29-9.5 24-13.6 9.6-5.84 21.07-3.75 15.08 3.58 1.2-2.37-2.54-4.29-4.61-3.27-3.45 1.69-3.72 5.63.17 7.09 7.25 2.7 11.07-6.44 8.16-10.46-3.51-4.86-12.61-2.86-16.89-.62-5.31 2.84-23.54 14.69-40.31 19.38-1.25.34-2.47.65-3.69.91 1.43 0 2.9 0 4.4-.13m-59.96 69.66a3.21 3.21 0 0 0 3-.07c.59-.23 1.21-.57 1.93-.9.5-.23 1.24-.57 2.16-1 4.72-2.27 14.13-7 20.43-10.22l4.16-2.2 1.33-.74c2.72-1.58 1.59-3.16-1.16-6.52a131.31 131.31 0 0 1-35.15 16.92c1 1.6 2 4.1 3.33 4.75m-7.85-42.82c.65.7 1.25 1.43 1.85 2.17 1.13 1.4 2.22 2.84 3.44 4.18s4.48 4.66 3.93 5.7a9.11 9.11 0 0 1-9.5 5.19 13.45 13.45 0 0 1-3-.66 24.63 24.63 0 0 0 2.93 2 7.73 7.73 0 0 0 4.79 1c3.84-.44 5.65-4.25 6.57-4.88 1.68-1.15 5.67-.28 7.67-1.79 1.68-1.25 3.65-4.14 2.79-6.46-1.28 3.15-4.49 4.41-8.07 4.31s-8.64-13.42-7-13.58c8.34-.84 22.82-6.06 26.11-14.87-1.59 2.16-6 4.38-8.51 5.68a53.9 53.9 0 0 1-10.37 3.84 29.89 29.89 0 0 1-8.75 1c-1.46 0-3-.08-4.63-.16a11.11 11.11 0 0 1-3.13 4.46 45.27 45.27 0 0 1-10.32 7.06c-2.65 1.31-11.53 3.84-15.06 2.95 2.89 3.17 8.37 2.32 12 1.52a44.11 44.11 0 0 0 9.49-3.93 21.59 21.59 0 0 0 2.36-1.51c1.49-1.06 2.86-2.21 4.42-3.23" fill="#fff"/><path d="M161.5 119.47c-1.08.59-2.52 1.34-4.16 2.2 8 15.07 26.92 19.59 36 20.87.59-1.17 1.15-2.38 1.66-3.61-10.1-1-27.27-6.6-33.49-19.46m-24.6 12.42l-2.16 1c-.72.34-1.34.67-1.93.9-.82 5.83 2 15.5 6.67 23.33a34.51 34.51 0 0 0 12.36 7.43c-8.07-8-16.26-24.62-14.94-32.68m-20.94.03l2.18-.49c2-.47 3.92-1 5.87-1.53.84-.23 1.67-.49 2.5-.75a131.31 131.31 0 0 0 35.15-16.92 129 129 0 0 0 15.65-12.48 136.89 136.89 0 0 0 16.47-18.77c1.33-1.84 2.6-3.71 3.75-5.57a53.14 53.14 0 0 0 5.33-10.76q.36-1.08.63-2.13c-1.1.23-2.21.44-3.32.62l-.74.11a90.45 90.45 0 0 1-9.66 1c-1.5.08-3 .12-4.4.13s-2.78 0-4.1 0c-8-.24-14.21-1.4-15.66-2.58-1.14-.93-3.13-2.91-5.46-5.21-1.82-1.8-3.84-3.8-5.82-5.64-3.68-3.4-7.22-6.27-9-6.33-3.62 1.29-8.59 12.03-11.61 18.03-1.19 2.38-2.08 4-2.47 4.08l-1.27.21c-9.89 1.84-20.89 8.42-26.35 11.38 0 0-27.37-7.58-30.86-3.93-1.38 1.44.69 19.05 4 23.36-4.15 4.5-6 10.2-12 16.74a49.4 49.4 0 0 1-2.34 2.42c-.25.26-.5.51-.75.73l-.5.48-.25.22-1.84 1.69-.06.05c-2 1.68-3.87 3.07-5.44 4.18l-.13.09-1.11.77-.13.08a23.91 23.91 0 0 0-2.87 2.13.24.24 0 0 0 0 .08 1.68 1.68 0 0 0 .64.52 17.25 17.25 0 0 0 2.35 1 86.8 86.8 0 0 0 12.75 3.16c12.92 2.37 32.1 3.88 50.88-.17m26.91-76.54a39.25 39.25 0 0 1 2.7-4 22.41 22.41 0 0 1 2.31 1.53 39.34 39.34 0 0 1 5.25 4.74 24.91 24.91 0 0 1 4.25 5.82c-1-.72-10.64-.07-15.83.24-1.13.08-2.06.13-2.62.15a38.05 38.05 0 0 1 3.93-8.45m-46 26.42c-1.5-.18-12.78 8.82-15.28 10.59a38.35 38.35 0 0 1-2.29-12.84c5-.27 13.81.83 17.58 2.22m-33.31 43.16c-.46-.28-.7-.53-.71-.68l.53-.41c15.46-11.94 16.42-31.89 54.59-48.29q4.17-1.8 8.19-3.09a89.52 89.52 0 0 1 9-2.45c21-4.59 38.24-.72 51.14-.7a39 39 0 0 0 7.12-.54c.74-.13 1.46-.29 2.15-.47a15.51 15.51 0 0 1-.83 2.39 34 34 0 0 1-3.33 5.79c-5.9 8.52-16.2 18.13-21.84 23.4-11.77 11-29.85 20.67-46.57 25.47q-3 .86-5.84 1.49l-1.21.26c-29.36 6.06-48.56.22-52.37-2.17" fill="#fff"/><path d="M49.37 127.39a.24.24 0 0 1 0-.08 23.91 23.91 0 0 1 2.87-2.13 1.48 1.48 0 0 1 .13-.08l1.11-.77a.51.51 0 0 1 .13-.09c1.57-1.11 3.43-2.49 5.44-4.18l.06-.05 1.88-1.66.25-.22.5-.48c-8.51 6.55-34.32 16.3-40.84 19.32-4.39 2-11.22 7.92-8.72 13.27 2.06 4.46 12.5 6.55 14-.5.81-3.78-2.92-5.74-6.37-4-2.06 1-2.36 4.94.45 5.32-10 .57-5.56-9.37 5-13.51 6.37-2.49 14.61-5.08 21.24-8-1.2.9-2.55 1.85-4.06 2.87-4 2.66-11.21 7.91-8.71 13.27 2.05 4.45 12.48 6.55 14-.51.82-3.77-3.06-5.94-6.38-4-1.92 1.1-2.37 4.93.46 5.32-10 .57-6.16-9.37 10.46-17.39l.05-.18a18.39 18.39 0 0 1-2.35-1 1.6 1.6 0 0 1-.64-.52m59.26 99.22c0 2.13 25.29 3.86 56.48 3.86s56.49-1.73 56.49-3.86-25.29-3.9-56.46-3.9-56.48 1.73-56.48 3.85" fill="#fff"/><path d="M110.1 230.26c.6 3.23 42.12 16.56 56.24 16.56 14.45 0 55.65-13.33 56.25-16.56-.88 1.88-48 11.8-56.25 11.8s-55.36-9.92-56.24-11.8m90.26-118.98a71.46 71.46 0 0 1-5.37 27.65c-.52 1.23-1.07 2.44-1.66 3.61-7.1 14.22-18.93 23.54-32.31 23.54a28.62 28.62 0 0 1-9.17-1.51 34.51 34.51 0 0 1-12.36-7.43c-7.07-6.45-12.56-16-15.47-27.26-1.95.56-3.9 1.06-5.87 1.53 4.4 17.63 14.53 31.68 27.38 38a34.3 34.3 0 0 0 31 0c17.35-8.59 29.74-31.21 29.74-57.77a76.72 76.72 0 0 0-8.72-36.29 93.671 93.671 0 0 1-3.75 5.57 70.66 70.66 0 0 1 6.57 30.32M161.02 56.5c7.42 0 14.34 2.86 20.26 7.81 1.32 0 2.69.06 4.1 0 1.22-.26 2.44-.57 3.69-.91-7.71-8.28-17.46-13.22-28.05-13.22a33.63 33.63 0 0 0-6.68.66c2 1.84 4 3.83 5.82 5.64h.86m-27.29 6.15a51.92 51.92 0 0 0-3.74 4.3c.42-.08.85-.15 1.27-.21s1.28-1.71 2.47-4.09" fill="#fff"/><path d="M169.84 0C123.67 0 86.1 25.63 69.43 62.94c-.58 1.26-1.31 5.32 2.38 1a54.79 54.79 0 0 0 3.35-4.55C93.89 26.18 129 6.23 170.28 6.23c58.64 0 104.61 43.81 104.61 99.84a99.55 99.55 0 0 1-22.68 63.42c-2 2.49-4.2 4.89-6.48 7.17-18.9 19-45.52 30.87-75.45 30.87A108.29 108.29 0 0 1 94 176.63q-3.48-3.44-6.61-7.17c-.62-.75-1.24-1.5-1.83-2.25-.88-1.11-10.85-11.61-11-11.84l.32 1.47 2.77 12.62h-.12c6.51 27 11.15 57.19 16 81 1.64 8 7.22 14.76 16.1 14.76h121.78c8.89 0 14.46-6.73 16.09-14.76 4.82-23.77 9.47-53.95 16-80.89a104.13 104.13 0 0 0 20-61.35C283.5 48.46 232.61.02 169.84.02m69.9 243.84c-1.33 6.67-5.85 12.25-13.06 12.25H114.9c-7.21 0-11.72-5.58-13.05-12.25-3.37-17-6.64-37.93-10.84-57.71a117.77 117.77 0 0 0 160-2.24c-4.44 20.43-7.83 42.32-11.32 59.95M0 272.58h10.26v53.01H0zm14.21.05h10.25v9.54H14.21zm0 14.19h10.25v38.81H14.21zm36.3 13.22h9.46v11a19.11 19.11 0 0 1-.9 5.87 13.37 13.37 0 0 1-7.71 8.4 17.9 17.9 0 0 1-7.05 1.32 18.65 18.65 0 0 1-7.21-1.27 13.63 13.63 0 0 1-4.91-3.39 12.93 12.93 0 0 1-2.8-5 20.67 20.67 0 0 1-.87-6v-34.68h10.15v10.49h21.3v7.26h-21.3v15.94a10.14 10.14 0 0 0 1.37 5.72 5.07 5.07 0 0 0 4.51 2 5.24 5.24 0 0 0 4.51-2 9.38 9.38 0 0 0 1.45-5.6zm34.96 0h9.46v11a19.11 19.11 0 0 1-.9 5.87 13.82 13.82 0 0 1-2.84 5 13.65 13.65 0 0 1-4.87 3.43 17.94 17.94 0 0 1-7 1.27 18.58 18.58 0 0 1-7.24-1.27 13.75 13.75 0 0 1-4.98-3.37 12.78 12.78 0 0 1-2.79-5 20.34 20.34 0 0 1-.87-6v-34.68h10.19v10.49h21.3v7.26h-21.3v15.94A10.14 10.14 0 0 0 75 315.7a5.06 5.06 0 0 0 4.51 2 5.22 5.22 0 0 0 4.5-2 9.31 9.31 0 0 0 1.46-5.6zm23.03 8.83a11 11 0 0 0 2.56 7 7.78 7.78 0 0 0 6.11 2.61 8.51 8.51 0 0 0 4.46-1.15 5.2 5.2 0 0 0 2.49-3.19h10.56a17 17 0 0 1-6.31 9.23 17.84 17.84 0 0 1-10.73 3.26q-19.39 0-19.4-21.15a24.62 24.62 0 0 1 1.26-8.12 17.5 17.5 0 0 1 3.67-6.24 15.92 15.92 0 0 1 5.88-4 21.38 21.38 0 0 1 8-1.38q9 0 13.61 5.76t4.62 17.35zm16.17-6.47a10.8 10.8 0 0 0-.75-3.74 8 8 0 0 0-1.78-2.69 7.22 7.22 0 0 0-2.52-1.57 8.59 8.59 0 0 0-2.92-.51 7.32 7.32 0 0 0-5.33 2.24 9.59 9.59 0 0 0-2.56 6.27zm13.77 23.23v-38.85h9.66v4.62a13.11 13.11 0 0 1 2.64-3.1 12 12 0 0 1 2.84-1.71 10.89 10.89 0 0 1 3-.75c1-.1 2-.16 3.07-.16H161v10.57a17.13 17.13 0 0 0-2.85-.24q-9.39 0-9.39 9.39v20.23zm50.98 0v-38.85h9.68v4.62a12.45 12.45 0 0 1 2.64-3.1 11.42 11.42 0 0 1 2.84-1.71 10.83 10.83 0 0 1 3-.75 30.6 30.6 0 0 1 3.07-.16h1.34v10.57a16.92 16.92 0 0 0-2.84-.24q-9.39 0-9.38 9.39v20.23zm43.12 1a22.22 22.22 0 0 1-8.42-1.51 17.72 17.72 0 0 1-6.26-4.19 18.06 18.06 0 0 1-3.9-6.48 24.87 24.87 0 0 1-1.33-8.3 24.25 24.25 0 0 1 1.37-8.37 18.13 18.13 0 0 1 4-6.49 17.81 17.81 0 0 1 6.26-4.15 22.29 22.29 0 0 1 8.3-1.46 21.78 21.78 0 0 1 8.19 1.46 17.35 17.35 0 0 1 10.12 10.55 24.9 24.9 0 0 1 1.38 8.46 24.5 24.5 0 0 1-1.38 8.42 18.38 18.38 0 0 1-3.94 6.44 17.25 17.25 0 0 1-6.22 4.15 21.9 21.9 0 0 1-8.15 1.47m0-8.6q9.39 0 9.39-11.84t-9.39-11.75q-9.37 0-9.39 11.75t9.39 11.84m23.36 7.6v-53h10.11v19.2a13.47 13.47 0 0 1 11.51-6.07 15 15 0 0 1 6.75 1.46 14 14 0 0 1 5 4.14 19.13 19.13 0 0 1 3.12 6.35 28.94 28.94 0 0 1 1.06 8.08 27.86 27.86 0 0 1-1.26 8.76 19.72 19.72 0 0 1-3.47 6.55 14.72 14.72 0 0 1-5.33 4.1 16 16 0 0 1-6.74 1.43q-7.24 0-10.81-5.77l-.08 4.74zm18.39-7.34a7.56 7.56 0 0 0 6.31-3.27 13.82 13.82 0 0 0 2.44-8.48q0-12-8.83-12-8.61 0-8.6 12.62a12.48 12.48 0 0 0 2.48 8.05 7.7 7.7 0 0 0 6.2 3.07m40.97 8.35a22.22 22.22 0 0 1-8.42-1.51 17.54 17.54 0 0 1-6.26-4.19 17.78 17.78 0 0 1-3.9-6.48 24.87 24.87 0 0 1-1.34-8.3 24.25 24.25 0 0 1 1.38-8.37 18 18 0 0 1 4-6.49 17.77 17.77 0 0 1 6.25-4.15 22.35 22.35 0 0 1 8.31-1.46 21.85 21.85 0 0 1 8.19 1.46 17.89 17.89 0 0 1 6.18 4.11 18.08 18.08 0 0 1 3.94 6.44 24.9 24.9 0 0 1 1.38 8.46 24.5 24.5 0 0 1-1.38 8.42 18.53 18.53 0 0 1-3.94 6.44 17.34 17.34 0 0 1-6.22 4.15 21.9 21.9 0 0 1-8.15 1.47m0-8.6q9.39 0 9.39-11.84t-9.39-11.75q-9.39 0-9.39 11.75t9.39 11.84m44.11-17.99h9.47v11a19.11 19.11 0 0 1-.9 5.87 13.82 13.82 0 0 1-2.84 5 13.6 13.6 0 0 1-4.88 3.43 17.89 17.89 0 0 1-7 1.27 18.58 18.58 0 0 1-7.24-1.27 13.67 13.67 0 0 1-4.92-3.39 12.78 12.78 0 0 1-2.79-5 20.34 20.34 0 0 1-.87-6v-34.66h10.18v10.49h21.3v7.26h-21.3v15.94a10.06 10.06 0 0 0 1.37 5.72 5 5 0 0 0 4.51 2 5.23 5.23 0 0 0 4.5-2 9.31 9.31 0 0 0 1.45-5.6zm-178.49 1.59a6.31 6.31 0 1 1-6.3-6.3 6.31 6.31 0 0 1 6.3 6.3m201.42-28.19a4.89 4.89 0 0 1 2.37.63 4.43 4.43 0 0 1 1.81 1.78 4.91 4.91 0 0 1 0 4.83 4.53 4.53 0 0 1-1.79 1.79 4.84 4.84 0 0 1-4.81 0 4.53 4.53 0 0 1-1.79-1.79 4.85 4.85 0 0 1-.64-2.4 5 5 0 0 1 .65-2.43 4.43 4.43 0 0 1 1.81-1.78 4.9 4.9 0 0 1 2.38-.63m0 .8a4.25 4.25 0 0 0-2 .52 3.73 3.73 0 0 0-1.5 1.5 4 4 0 0 0-.55 2 4 4 0 0 0 .54 2 3.75 3.75 0 0 0 1.49 1.49 4 4 0 0 0 4 0 3.75 3.75 0 0 0 1.49-1.49 4 4 0 0 0 .53-2 4.08 4.08 0 0 0-.54-2 3.7 3.7 0 0 0-1.51-1.5 4.17 4.17 0 0 0-2-.52m-2.12 6.71v-5.2h1.78a4.63 4.63 0 0 1 1.33.14 1.35 1.35 0 0 1 .65.5 1.39 1.39 0 0 1-.16 1.76 1.59 1.59 0 0 1-1.08.47 1.45 1.45 0 0 1 .44.28 5.64 5.64 0 0 1 .77 1l.63 1h-1l-.46-.82a4.06 4.06 0 0 0-.88-1.21 1.07 1.07 0 0 0-.67-.18h-.41v2.21zm.83-2.93h1a1.62 1.62 0 0 0 1-.22.68.68 0 0 0 .26-.57.76.76 0 0 0-.12-.42.82.82 0 0 0-.36-.27 2.6 2.6 0 0 0-.84-.09h-1z" fill="#fff"/></svg>