<svg xmlns="http://www.w3.org/2000/svg" viewBox="0 0 853.4 370.73"><g data-name="Слой 2"><g data-name="Layer 1"><path d="M130.09 367.23c-5 0-7.86-1.81-9.48-3.89-3.61.26-7.45.38-11.66.38-6.06 0-12.17-.26-18.09-.51s-11.87-.5-17.76-.5a138.93 138.93 0 0 0-17.36 1h-.25c-10.36.56-21.47 1.09-32.59 1.09-3.38 0-6.69-.05-9.84-.15h-.13a9.89 9.89 0 0 1-9-5.95 7 7 0 0 1 2.19-7.86l.24-.21.28-.17c8.93-5.26 18.54-9.3 27.83-13.21l1-.44c-9.7-26.25-13.37-54.31-16.93-81.48l-.55-4.2a8.86 8.86 0 0 1 1.37-7.62 8 8 0 0 1 6.51-3.46 7.88 7.88 0 0 1 3.17.67c6.88 2.86 12.96 7.12 18.75 11.28l2.91 2c21.37-11.91 45.76-16.65 69.17-19.83.39-1.11.79-2.26 1.2-3.46 3-8.68 6.37-18.51 14.32-23.81l1.46-1 1.66.59c8 2.87 12.27 10.5 16 17.24 1 1.79 1.95 3.51 2.93 5.09 17.08-4.81 33.19-7.25 47.91-7.25a121.92 121.92 0 0 1 17.87 1.28A97.75 97.75 0 0 0 196.53 199c-24.65-15.1-41.2-39.48-44.24-65.2-2.31-18 1.85-42.34 20.42-56.62a43.47 43.47 0 0 1 27.39-9.28c14.14 0 27 6.2 34.56 16.58a17.36 17.36 0 0 1 2.05 3c1.34-14.63 3.22-29.33 5.84-43.91a8.53 8.53 0 0 1 8.45-6.83 8.32 8.32 0 0 1 6.24 2.77c8 8.39 14.54 18.05 20.84 27.39l1.78 2.64c25.39-9.11 52.64-10.85 79-12.53l1-.07c3.26-10.34 8.85-21 16.67-31.6l.23-.32.3-.25a8.78 8.78 0 0 1 5.82-2.41c6.37 0 9.87 7.91 11.19 10.88 7.93 16.64 14.84 35 21.42 57.12 8.39-27.42 19-51.49 32.37-73.28l.14-.23.17-.21a22.84 22.84 0 0 0 1.83-2.77c2-3.28 4.71-7.76 9.64-7.76a8.81 8.81 0 0 1 3.95 1l.63.32.46.53c5.68 6.64 8.76 14.71 11.74 22.52.66 1.72 1.33 3.48 2 5.21 12.72-1.16 26.14-1.75 39.92-1.75 13.53 0 27.45.54 42.47 1.65 6.54-12.32 13.32-22.31 20.69-30.51l.59-.66.83-.29a9.86 9.86 0 0 1 3.33-.62c6 0 8.56 5.82 10.42 10.07a27 27 0 0 0 1.86 3.77l.17.25.13.27c20.94 46.1 30.58 95 36.22 139.7.16-.9.33-1.79.52-2.69a79.79 79.79 0 0 1 21-46c12.54-13.44 28.71-21.22 45.54-21.92h.13c8 0 14.39 4.33 17.55 11.89a27.2 27.2 0 0 1 1.69 14.35c10-7 21.85-13.63 35.21-16.64l1-.24 1 .39c9.24 3.65 8.43 13.9 7.78 22.13a54.26 54.26 0 0 0-.26 8.06c17.58 9.23 33.14 22.13 47.37 34.87 2-.48 4.39-1.28 6.87-2.11 5.16-1.72 11-3.67 16.15-3.67 7.73 0 11.12 4.41 12.6 8.11l.44 1.1-.32 1.15c-2.92 10.39-5.55 21.09-8.1 31.44-5.94 24.16-12.08 49.13-22.43 72.57-1.38 17.75-3.75 36.09-7.05 54.58a240.43 240.43 0 0 1 30.75 21.88 11.24 11.24 0 0 1 3.57 12.32 9.33 9.33 0 0 1-8.83 6.49 113.81 113.81 0 0 1-14.58.9c-14.46 0-28.91-2.45-42.88-4.81-12.27-2.08-25-4.23-37.43-4.65h-.18c-15-1.32-31-1.93-50.3-1.93-13.93 0-28.12.32-41.85.63l-7.59.17a48.9 48.9 0 0 1-17.09 4.06c-23 1.62-47.72 2.35-80.1 2.35-13.75 0-27.75-.12-41.28-.25s-27.49-.25-41.22-.25c-10.75 0-20.35.08-29.34.24-.9.06-1.82.09-2.72.09a33.72 33.72 0 0 1-13.38-2.62c-8.76 3-18.47 3.86-26.88 4.26h-.21c-5.57-.06-11.53-.09-18.22-.09q-12.23 0-24.45.09t-24.49.08c-20.17 0-35.57-.28-49.93-.91-12.61-.88-23.1-3.64-31.29-8.23-20.53 1.87-41.36 4.39-61.51 6.82-15 1.81-30.42 3.68-45.67 5.27a29.3 29.3 0 0 1-4.55.38zm69.8-262.46a9 9 0 0 0-8.52 5.2l-.06.12c-9.77 18.62 1 41.26 16.62 54a156.73 156.73 0 0 0 12.6 9.36 161.66 161.66 0 0 1 13.13 9.77c-.21-24-.08-49.83 1.56-76.24-3.35 5.08-8.58 8.23-14 8.23a15.8 15.8 0 0 1-9.71-3.5l-.53-.41-.35-.59a12.79 12.79 0 0 0-10.74-5.94z" fill="#fff"/><path d="M586.32 7c5.3 0 6.73 8.43 9.38 12.31 23.91 52.61 33.44 110.13 39.15 167.41l4.44-2.4a68.68 68.68 0 0 1-.2-28.92c3-32.52 29.42-63.57 63.17-65 17.12 0 20.4 23.61 10.17 34 13.3-10.76 28.18-20.68 45-24.47 10.21 4 3.74 20.16 5.6 29.21 18.35 9.33 34.32 22.67 49.55 36.37 6.44-1 16.44-6.06 24-6.06 4.14 0 7.58 1.49 9.35 5.91-9.78 34.81-15.79 70.77-30.6 104.09a554 554 0 0 1-7.49 57.21 241.06 241.06 0 0 1 32.42 22.84c4.76 3.64 3.5 12.58-3.3 12.59a109.63 109.63 0 0 1-14.33.9c-26.85 0-53.31-8.55-80.19-9.46-16.87-1.48-33.73-1.94-50.6-1.94s-33.48.46-50.22.82a45 45 0 0 1-16.56 4.06c-26.51 1.88-53.18 2.35-79.91 2.35-27.49 0-55-.5-82.53-.5-9.84 0-19.67.06-29.48.24-.84.06-1.7.09-2.56.09a29.62 29.62 0 0 1-13.21-2.91c-8.57 3.25-18.28 4.13-27.22 4.55q-9.14-.1-18.27-.09c-16.31 0-32.63.17-48.94.17-16.6 0-33.19-.18-49.77-.91-10.27-.71-21.57-2.93-30.65-8.32-36.2 3.27-72.26 8.43-108.42 12.21a26.73 26.73 0 0 1-4.1.36c-3.16 0-6.27-.84-7.59-4.05-4.51.4-9 .54-13.55.54-12 0-23.92-1-35.85-1a141.41 141.41 0 0 0-17.8 1c-10.78.59-21.59 1.09-32.39 1.09q-4.9 0-9.81-.15h-.17c-3.85 0-8.27-4.37-4.49-7.67 10-5.91 20.89-10.23 31.57-14.76-11-28.17-14.6-58.55-18.52-88.34-1.07-3.19 1.28-6.83 4.45-6.83a4.53 4.53 0 0 1 1.78.38c8.28 3.48 15.42 9.17 22.8 14.2 21.82-12.72 47.16-17.49 71.9-20.77 3.6-9.47 6.36-21.85 14.91-27.55 9.53 3.4 13 15.26 18.64 23.1 15.83-4.65 32.73-7.82 49.4-7.82a112.82 112.82 0 0 1 25.37 2.75C223.07 214.7 211.21 204 198.38 196c-22.17-13.58-39.51-36.38-42.62-62.64-2.47-19.3 3.1-41.15 19.08-53.43a40.09 40.09 0 0 1 25.26-8.53c12.28 0 24.56 5.14 31.8 15.25 8.15 9.4-.05 25.07-10.67 25.07a12.39 12.39 0 0 1-7.58-2.78 16.23 16.23 0 0 0-13.76-7.67 12.49 12.49 0 0 0-11.68 7.19c-10.7 20.39 1 44.9 17.51 58.35 10.18 8.69 22.46 14.71 31.52 24.74-.56-49.22 0-98.75 8.75-147.33a5 5 0 0 1 5-4 4.75 4.75 0 0 1 3.66 1.64c9.21 9.62 16.37 20.94 23.84 31.89 26.71-10.17 55.75-11.67 84-13.49 3.34-11.91 9.55-23 16.83-32.87a5.44 5.44 0 0 1 3.53-1.55c3.75 0 6.49 5.41 8 8.8C401.34 56.6 409 79.61 415.5 103c8-29.39 19.23-57.74 35.36-84.08 2.51-2.95 4.62-9.3 8.81-9.3a5.31 5.31 0 0 1 2.38.62c7.09 8.28 9.95 19.29 14.18 29.18 14-1.38 28.09-2 42.17-2 14.85 0 29.7.67 44.5 1.81 5.87-11.33 12.71-22.32 21.26-31.83a6.45 6.45 0 0 1 2.16-.4m83.92 154.59c8.35-14.6 18.69-28.7 36.23-32.18l3.37-2.83a15.39 15.39 0 0 1-3.64 1.78c-15.66 5-34 14.6-35.92 32.89v.34M586.32 0a13.51 13.51 0 0 0-4.52.82l-1.66.6L579 2.73a151.33 151.33 0 0 0-20.1 29.19c-14.24-1-27.52-1.49-40.46-1.49S492.82 31 480.77 32c-.35-.9-.69-1.82-1-2.75-3.08-8.09-6.27-16.45-12.35-23.54l-.92-1.08-1.31-.63a12.35 12.35 0 0 0-5.52-1.36c-6.91 0-10.49 5.91-12.63 9.45a25.8 25.8 0 0 1-1.51 2.32l-.35.41-.29.46a311 311 0 0 0-29.31 63.47 373.07 373.07 0 0 0-18.33-47c-1.6-3.62-5.77-12.88-14.35-12.88a12.28 12.28 0 0 0-8.12 3.27l-.59.51-.46.63A115.57 115.57 0 0 0 357.3 53.6c-25.31 1.62-51.37 3.41-76 11.75L281 65c-6.37-9.45-13-19.21-21.16-27.81a11.84 11.84 0 0 0-8.82-3.9 12 12 0 0 0-11.92 9.69c-2.11 11.75-3.74 23.57-5 35.36-8.35-8.81-20.68-13.94-34-13.94a47 47 0 0 0-29.6 10.07c-19.68 15.17-24.11 40.82-21.68 59.78C152 161 169.14 186.32 194.69 202A99.63 99.63 0 0 1 215 218.44q-4.72-.34-9.6-.35c-14.3 0-29.84 2.24-46.26 6.67-.5-.88-1-1.78-1.52-2.71-4.05-7.28-8.63-15.52-17.91-18.83l-3.34-1.22-2.92 2c-8.93 5.95-12.52 16.38-15.69 25.58-.16.49-.33 1-.49 1.43-22.39 3.13-45.6 7.82-66.34 18.89l-1.13-.8c-6-4.21-12.15-8.57-19.33-11.6a11.39 11.39 0 0 0-4.53-.94 11.61 11.61 0 0 0-9.35 4.92 12.38 12.38 0 0 0-2 10.35l.52 4c3.44 26.29 7 53.41 16 79.09-8.77 3.7-17.76 7.58-26.23 12.58l-.56.33-.49.43a10.42 10.42 0 0 0-3.16 11.66 13.37 13.37 0 0 0 12.26 8.23h.13c3.15.1 6.46.15 9.85.15 11.21 0 22.38-.53 32.78-1.1h.49a135.66 135.66 0 0 1 16.92-.94c5.81 0 11.81.26 17.61.5 6 .25 12.11.51 18.24.51 3.65 0 7-.09 10.22-.28 2.2 2.07 5.62 3.79 10.92 3.79a32.46 32.46 0 0 0 5-.42c15.25-1.59 30.7-3.46 45.65-5.26 19.78-2.39 40.21-4.86 60.34-6.72 8.49 4.53 19.14 7.26 31.7 8.13h.22c14.42.64 29.86.92 50.08.92 8.17 0 16.48 0 24.51-.08s16.3-.09 24.43-.09c6.68 0 12.63 0 18.19.09h.41c8.27-.39 17.77-1.19 26.6-4a37.82 37.82 0 0 0 13.5 2.39c.95 0 1.92 0 2.87-.09 8.94-.16 18.49-.24 29.17-.24 13.71 0 27.68.13 41.2.25s27.55.25 41.33.25c32.42 0 57.2-.73 80.33-2.36a52 52 0 0 0 17.67-4.08l6.93-.16c13.7-.31 27.87-.63 41.76-.63 19.22 0 35.1.61 50 1.91h.38c12.22.41 24.8 2.54 37 4.6 14.11 2.39 28.7 4.86 43.46 4.86a116.51 116.51 0 0 0 14.86-.91 12.71 12.71 0 0 0 11.86-8.86 14.76 14.76 0 0 0-4.68-16.16 240.15 240.15 0 0 0-29.09-20.9c3.07-17.59 5.3-35.05 6.64-52 10.32-23.56 16.45-48.48 22.38-72.59 2.54-10.32 5.17-21 8.07-31.34l.64-2.29-.88-2.2c-2.66-6.65-8.29-10.31-15.85-10.31-5.72 0-11.85 2.05-17.25 3.85-1.71.57-3.37 1.13-4.85 1.56-13.53-12-28.27-24.13-44.86-33.14 0-1.71.17-3.7.32-5.64.66-8.39 1.66-21.06-10-25.66l-2-.79-2.11.47c-11.42 2.58-21.75 7.66-30.75 13.38a29.87 29.87 0 0 0-2.15-9c-3.68-8.79-11.42-14-20.72-14h-.4c-17.74.73-34.77 8.9-48 23a84.48 84.48 0 0 0-18.19 30.77c-6-39.34-15.7-81.1-33.76-120.83l-.25-.55-.34-.5a24.15 24.15 0 0 1-1.54-3.19C598 7.62 594.62 0 586.32 0zM230.11 176c-2.52-1.87-5.07-3.63-7.59-5.38-4.35-3-8.47-5.87-12.25-9.09l-.07-.06-.06-.05c-14.55-11.85-24.63-32.71-15.73-49.67l.06-.11.06-.12a5.47 5.47 0 0 1 5.36-3.21 9.2 9.2 0 0 1 7.74 4.23l.69 1.17 1.08.83a19.44 19.44 0 0 0 11.83 4.22 18.8 18.8 0 0 0 10-3c-1 20.73-1.21 41-1.11 60.21z" fill="#fff"/><path d="M679.79 154.25c12.58 15.22 31.34 24.26 50.86 26.12-.36.6-1.1 1.79-1.46 2.38h.42c4.78 1.74 9.25 4.29 14.18 5.64-3-4.4-8.44-6.08-13.43-6.75l.53-1.33c12.16 1.67 24.76.85 36.12-4.08 5.43-3.35 12.63 2.82 11 8.71-1.78 24.88 17.83 47.74 41.62 53-4.41 14.61-14 27.53-17 42.4-.92 1.34-1.74 2.74-2.63 4.08-9.52 14.88-18.62 31-21.83 48.51-1.62 11.38 11.8 14.44 20.38 15.3 9.11 2.45 12.45-8.65 20.33-10.59 7 5.19 14.65 9.69 20.68 16-32.73 5.65-64.35-9.05-95.95-15.29a620.92 620.92 0 0 0-92.1-.52c-20.77 3.16-41.38 10.07-62.65 6.9 5.35-5.83 10.17-12.16 15.79-17.73 7-5.22 4.32-15.26 2.06-22.29-4.63-12.35-10.84-24.1-17.46-35.49-10.84-15.25-30.1-22.37-40.05-38.39 17.2-4 34.73 2 49.36 10.9 13.65 11.8 31.13 1.54 45.46-3.44l-.32 2.71c-1.14 9.23-4.3 19.87.84 28.37-.59 7.67 10.56 10.2 14.52 4.16 10.28-11.58 19.64-25.22 24.2-40 13.52-17.53-10.85-30.61-13.37-47.53 2.99-10.67 6.25-21.26 9.9-31.75zm81.68 24.11c2.77 9.47-2.06 24.48-15 19.91 2.67 2.38 6.46 2.29 9.83 2.1 1.1 2.41 1.07 5.95 4.06 6.88-5.34-9.28 3.12-19.95 12.16-19.78-4.82-1.39-8.05-5.33-11.05-9.11zm-35.84 12.85a30.32 30.32 0 0 0 15.68 2.39c-4.86-2.06-10.44-3.74-15.68-2.39zm49.1 15.79c2.42 3.32 4.74 7.58 8.77 9-1.91-3.67-4.32-8.29-8.77-9zm-32.91 2.31c-8.83 5.81 4.89 18.12 11.42 11.38 3.22-6.29-5.57-13.69-11.42-11.4zm30 1.9c1.2 4.33 3.88 8 6.54 11.56-.56-4.21-2.26-10.1-6.58-11.58z" fill="#fff"/><path d="M649.65 235.56c8.14-3.76 17.57-.44 23.92 5.26.42.81.85 1.63 1.3 2.45-3.11 3.32-5.58 7.15-8.43 10.67-4.5 1.87-8.59 9.19-13.89 5-4.79-6.77-1.73-15.72-2.9-23.38z" fill="#fff"/><path d="M706.47 130c14.78-12.56 31.61-25.09 51-29.46 10.21 4 3.74 20.16 5.6 29.21 18.35 9.33 34.32 22.67 49.55 36.37 9.94-1.6 28.37-12.71 33.4-.15-9.78 34.81-15.79 70.77-30.6 104.09a554 554 0 0 1-7.49 57.21 241.06 241.06 0 0 1 32.42 22.84c4.76 3.64 3.5 12.58-3.3 12.59-31.81 4.17-62.87-7.49-94.52-8.56-48.67-4.26-97.32-.06-146-.75-4.69.1-14-.43-12.37-7.29 5.17-7 11.42-13.28 17-20-3.07-9.08-7.2-17.74-10.88-26.57-16 4.47-32.84 3.8-49.21 2.52-30.33-7.53-63.9-27.36-68.53-61.07-5.61-32.71 3.6-70.28 30.56-91.41 14.82-11.49 34.85-17.06 53.3-12.82 13.49 2.9 18.35 21.67 9.44 31.58-9 12.36-25.25 5.62-37.45 10.19-27.35 8.33-33.18 43.31-23.27 66.87 13.31 25.23 45.25 30.77 71.16 27.46-5.33-12.88-19.44-19.1-26.67-30.94-3.25-4.27-9.13-11-4.09-16 10.28-4.18 21.52-5 32.48-5.43 28.09-18.27 57.88-33.73 87.39-49.55 9.34-17.26 20.02-36.74 41.08-40.93zm26.09-15.13c-9 3.83-16.07 10.88-23.2 17.27-11.14 3.8-23.57 8.44-28.68 20a12.53 12.53 0 0 0-1.93 2.31c-3.23 5.19-6.83 10.18-9.54 15.67-1.77 4.71-7.35 5.59-11.2 8-5 2.81-9.86 5.83-15.13 8.08l.1.19c-1.34.64-2.67 1.29-4 1.95-4.86 3.06-10.1 5.44-15 8.5a29.8 29.8 0 0 0-5.39 3c-4.69 2.47-9.08 5.51-13.95 7.63l.07.14c-1.61.86-3.2 1.76-4.74 2.7a150.27 150.27 0 0 1-13.31 8.09l.09.16a29.47 29.47 0 0 0-7.54 5.15c-9.95 1.24-29.43-2-32.39 9 8.45 16.37 26.65 24.76 33.94 41.58-6.93 3.05-15.18 1.84-22.65 2.38-5.21-.37-10.37-1.1-15.55-1.71-18.1-3.69-35.46-15.12-42.4-32.77-3.85-17.09-4.5-36.53 6.28-51.4 8.57-12.36 24.12-19 39-17.14 8.62.49 18.38-4.11 20.92-12.87 3.32-8.73-2.37-19.8-11.84-21.42-24.8-4.8-51.12 8.06-64.75 28.91-16 23.78-19.5 54.89-11.79 82.21 8.78 24.39 33 38.67 56.39 46.52 18.73 5.36 39.34 2.93 57.93-.48 4.11 10.17 9 20 12.27 30.55-5.62 5.57-10.44 11.9-15.79 17.73-4.69 8.61 13.82 4.85 19.45 5.51 52.18-.89 104.69-2.47 156.7 2.09 24.22 5 49.77 11.06 74.52 6.57a5.07 5.07 0 0 0 0-5.26c-6-6.35-13.69-10.85-20.68-16l.43-.18c-3.73-1.33-6.75-4-10-6.11l-2.25-.93.44-.06c-5.32-1.25-1.49-7.68-1.22-11.33a477.11 477.11 0 0 0 6.16-50 302.43 302.43 0 0 0 11.31-29.9c7.24-20.71 9.71-42.52 16.88-63.22 0-4 5.18-10.85 0-13-9.6.88-19.41 2.75-28.27 6.74-6.3-5.47-12.36-11.27-19.12-16.19l.05-.13c-4.51-3.35-8.9-6.83-13.42-10.15-6.34-4.22-12.7-8.51-19.7-11.57.11-9.29 0-18.57-.65-27.84-9.75-.02-18.7 6.16-26.85 11.04z" fill="#060606"/><path d="M729.17 145c17-.78 24.21 18.72 21.88 32.92l-2.36-1.17c-7.58.95-17.23 1.24-22.14-5.76-4.55-7.26-2.07-17.16 3.43-23.22zM728 169c4.27 7.42 14.52 7.9 21.84 5.44-.52-6.06-.78-12.51-4.11-17.81-1.48 5.66-8.53 6.31-13 8.84 1.38-5.07.31-13.69 6.44-15.38-1.91-.9-3.79-1.82-5.71-2.64-5.93 5.04-9.01 14.27-5.46 21.55zm1.61 13.79l.75-1.11c5 .67 10.47 2.35 13.43 6.75-4.93-1.35-9.4-3.9-14.18-5.64zm51.52 8.95c11.08-8.48 29.78-3 31.37 11.92l-2.7.17c-7.88 13.52-33.15 4.18-26.46-11.74zM785 202c4.59 8.77 19.72 8.24 23.73-.94-1.42-5.22-5-10.32-10.82-10.87 0 .86.08 2.57.11 3.43-2.65 2.62-4.6 6.73-8.48 7.55a62.37 62.37 0 0 1 .41-11.1c-6.75-.73-6.72 7.48-4.95 11.93zm-59.37-10.79c5.24-1.35 10.82.33 15.68 2.39a30.32 30.32 0 0 1-15.68-2.39zm49.1 15.79c4.45.73 6.86 5.35 8.77 9-4.03-1.44-6.35-5.7-8.77-9zM643.7 241c2.14-10.73 5.54-21.64 11.93-30.61-1.31 6-4.66 11.34-6.31 17.27-.84 2.95-1.43 6-2.15 8.95-1.39 9.77-4.42 21.76 1.27 30.45 7.66 1.06 13.25-7.95 18-13.15 2.85-3.52 5.32-7.35 8.43-10.67-.45-.82-.88-1.64-1.3-2.45a5.74 5.74 0 0 1 3 1.86c-8.65 9.95-16.19 30.84-32.06 26.72-5.11-8.47-1.95-19.11-.81-28.37zm128.08-29.81c4.32 1.48 6 7.37 6.54 11.56-2.66-3.55-5.32-7.23-6.54-11.56z" fill="#060606"/><path d="M742.51 162.73l3.94.17c2.41 2.79.93 6.51-2.61 7.15-.79-.79-1.57-1.57-2.35-2.33a8.16 8.16 0 0 1 1.02-4.99zM800.7 195c4.1-1.29 5.58 6.3 1.79 7-3.87.84-4.17-5.33-1.79-7z" fill="#eaf5c2"/><path d="M728 169c-3.53-7.26-.45-16.49 5.49-21.55 1.92.82 3.8 1.74 5.71 2.64-6.13 1.69-5.06 10.31-6.44 15.38 4.44-2.53 11.49-3.18 13-8.84 3.33 5.3 3.59 11.75 4.11 17.81-7.37 2.44-17.62 1.96-21.87-5.44zm14.53-6.25a8.16 8.16 0 0 0-1 5c.78.76 1.56 1.54 2.35 2.33 3.54-.64 5-4.36 2.61-7.15zM785 202c-1.76-4.4-1.79-12.61 5-11.93a62.37 62.37 0 0 0-.41 11.1c3.88-.82 5.83-4.93 8.48-7.55 0-.86-.08-2.57-.11-3.43 5.83.55 9.4 5.65 10.82 10.87-4.07 9.13-19.2 9.66-23.78.94zm15.71-7c-2.38 1.68-2.08 7.85 1.79 7 3.78-.71 2.3-8.3-1.8-7z" fill="#c0d9a2"/><path d="M678.75 154.51l1-.26c-3.65 10.49-6.91 21.08-9.9 31.77-.3-1.31-.53-2.63-.7-3.94a39.56 39.56 0 0 1 0-11.9c2.77-5.49 6.37-10.48 9.6-15.67zm63.07 54.78c5.85-2.31 14.64 5.11 11.42 11.38-6.53 6.74-20.24-5.57-11.42-11.38zm-194.93 23.46c.73-.62 1.49-1.22 2.27-1.81 10 16 29.21 23.14 40.05 38.39 6.62 11.39 12.83 23.14 17.46 35.49 2.26 7 5 17.07-2.06 22.29-3.22-10.52-8.16-20.38-12.27-30.55-4.17-7.23-7.63-14.84-11.51-22.23-7.29-16.82-25.49-25.21-33.94-41.58zm135.03 2.43l1.34-1.63c-4.56 14.79-13.92 28.43-24.2 40-4 6-15.11 3.51-14.52-4.16 15.87 4.12 23.41-16.77 32.06-26.72 1.82-2.46 3.34-5.14 5.32-7.49z" fill="#cabfcd"/><path d="M648.44 267.09c-5.69-8.69-2.66-20.68-1.27-30.45l2.48-1.08c1.17 7.66-1.89 16.61 2.9 23.34 5.3 4.23 9.39-3.09 13.89-5-4.75 5.24-10.34 14.25-18 13.19zM819.63 238l.48.15 3.59 1.05a302.43 302.43 0 0 1-11.31 29.9c-3.21 3.81-6.6 7.48-9.8 11.3 3-14.86 12.63-27.78 17.04-42.4zm-168.16 99.94a620.92 620.92 0 0 1 92.1.52c31.6 6.24 63.22 20.94 95.95 15.29a5.07 5.07 0 0 1 0 5.26c-24.75 4.49-50.3-1.59-74.52-6.57-12.32-5.31-24.58-12.43-38.43-12.08-27.94-1.2-56.32-3-84 1.45-11.36 3.06-22.39 7.56-34.23 8.54-5.63-.66-24.14 3.1-19.45-5.51 21.2 3.16 41.81-3.74 62.58-6.9z" fill="#cabfcd"/><path d="M761.47 178.36c3 3.78 6.23 7.72 11.1 9.11-9-.17-17.5 10.5-12.16 19.78-3-.93-3-4.47-4.06-6.88-3.37.19-7.16.28-9.83-2.1 12.89 4.57 17.72-10.44 14.95-19.91z" fill="#dd7f7f"/><path d="M732.56 114.88c8.15-4.87 17.1-11.06 26.88-11 .67 9.27.76 18.55.65 27.84 7 3.06 13.36 7.35 19.7 11.57-4.35 5.12-9.74 14.94-2.58 19.94 7.19 4.3 14.47-2.8 15.95-9.66 6.76 4.92 12.82 10.72 19.12 16.19 8.86-4 18.67-5.86 28.27-6.74 5.21 2.11 0 8.93 0 13-.1-.53-.29-1.59-.39-2.12-12.65 19.49-12.42 43-20.08 64.29l-.48-.15c-23.79-5.29-43.4-28.15-41.62-53 1.63-5.89-5.57-12.06-11-8.71-11.36 4.93-24 5.75-36.12 4.08l-.53 1.33-.75 1.11h-.42c.36-.59 1.1-1.78 1.46-2.38-19.52-1.86-38.28-10.9-50.86-26.12l-1 .26a12.53 12.53 0 0 1 1.93-2.31c8.72-4.93 17.66-9.56 27.19-12.73 11.66-4.2 15.72-17.15 24.68-24.69zm31.32 24.49c-3.65 2.24-5.06 9.3-.47 11.21 7.71 1.93 9.07-14.38.47-11.21zm-58 3.06c-5.83 5.68 6.71 18.91 12.29 12.27.37-5.98-6.24-12.7-12.3-12.27zm23.3 2.54l.81 2.77c-5.5 6.06-8 16-3.43 23.22 4.91 7 14.56 6.71 22.14 5.76l2.36 1.17c2.32-14.2-4.87-33.7-21.89-32.89zm-31.62 8.19c-8.72 7.78 13.67 21.21 15.86 9.73-2.57-5.44-9.57-10.6-15.87-9.73zm98 11c-5.41 1.9-2.68 10.11 2.92 7.75 6.27-1.4 3.01-11.43-2.89-7.76zm-14.46 27.59l2.21.35c-6.69 15.92 18.58 25.26 26.46 11.74l2.7-.17c-1.56-14.95-20.26-20.41-31.34-11.93zm31.81 18.7c-10 4.81 6.52 13.64 10.35 6.6 2.3-5.7-6.26-7.96-10.32-6.61zm-7.38 8.72c-8.37 7 14 17.82 12.29 6-3.18-3.17-7.45-7.11-12.26-6.01zm-145.05-32.04c3-1.37 7.08-1.69 8.71-5 .17 1.31.4 2.63.7 3.94 2.52 16.9 26.89 30 13.37 47.53l-1.34 1.63-.69-.78c-.82.78-1.64 1.56-2.42 2.36-5.64-9.94-19.25-14.22-29.49-9.07 1.65-5.93 5-11.25 6.31-17.27-6.39 9-9.79 19.88-11.93 30.61l.28-2.63c-14.33 5-31.81 15.24-45.46 3.44-14.63-8.94-32.16-14.92-49.36-10.9-.78.59-1.54 1.19-2.27 1.81 3-11 22.44-7.74 32.39-9a13.44 13.44 0 0 0 9.37-1.94c2.59 4.52 8 9.52 13.51 6.86 3.76-3.83 1.18-9.66-.65-13.85q2.88-1.17 5.81-2.27c2.93 4.24 7.49 9.76 13.33 7.64 4.82-3.23 2.31-10 .52-14.39q2.52-1.35 5.13-2.6c3 4.52 7.6 10.26 13.8 8.24 5-3.41 3.13-10.42 1.39-15.18 1.67-.83 3.3-1.74 5-2.61 5.84 8.86 18.3 4.66 13.99-6.57zm-.8 28.18c-5.74-.46-5.68 7.49-.2 7.48 7.93.52 15 7.48 22.72 5.89 2.18-11.5-13.55-16.15-22.52-13.37zM542.63 275c5.18.61 10.34 1.34 15.55 1.71 3.76 4.39 9.63 8.61 9.08 15-9.31.69-18.9.81-27.93-1.89a33.83 33.83 0 0 0 3.3-14.82zM800 284.49c1.15 12.31-1.35 24.74-.61 37.14-4 2.61-9.76 7.17-7.05 12.49 5.08 3.29 9.42-3.87 14.71-3.63l2.25.93c-5.57 3.9-13.32 8.78-10.75 16.88-8.58-.86-22-3.92-20.38-15.3 3.17-17.55 12.27-33.63 21.83-48.51z" fill="#756d56"/><path d="M709.36 132.15c7.13-6.39 14.23-13.44 23.2-17.27-9 7.54-13 20.49-24.69 24.59-9.53 3.17-18.47 7.8-27.19 12.73 5.11-11.61 17.54-16.2 28.68-20.05zM658 178.2c3.85-2.43 9.43-3.31 11.2-8a39.56 39.56 0 0 0 0 11.9c-1.63 3.36-5.67 3.68-8.71 5l-.55.3c-.72-3.04-1.36-6.11-1.94-9.2zm162.11 59.96c7.66-21.31 7.43-44.8 20.08-64.29.1.53.29 1.59.39 2.12-7.17 20.7-9.64 42.51-16.88 63.22zM639 188.42c1.31-.66 2.64-1.31 4-1.95 1.28 2.34 2.62 4.65 4 7l-.51.24c-1.67.87-3.3 1.78-5 2.61L641 195a39.24 39.24 0 0 1-2-6.58zm-20.34 11.48a29.8 29.8 0 0 1 5.39-3q1.05 3.17 2.25 6.3-2.61 1.25-5.13 2.6c-.77-1.99-1.6-3.97-2.51-5.9zM600 210.37c1.54-.94 3.13-1.84 4.74-2.7.8 1.64 1.61 3.3 2.54 4.9q-2.93 1.1-5.81 2.27c-.47-1.47-.98-2.98-1.47-4.47zm-20.72 13.4a29.47 29.47 0 0 1 7.54-5.15c.58 1.07 1.18 2.15 1.83 3.21a13.44 13.44 0 0 1-9.37 1.94zm223.31 56.64c3.2-3.82 6.59-7.49 9.8-11.3a477.11 477.11 0 0 1-6.16 50 57.18 57.18 0 0 0-6.88 2.53c-.74-12.4 1.76-24.83.61-37.14.89-1.35 1.71-2.75 2.63-4.09zm-221.76-6.08c3.88 7.39 7.34 15 11.51 22.23-18.59 3.41-39.2 5.84-57.93.48a36.69 36.69 0 0 0 4.92-7.18c9 2.7 18.62 2.58 27.93 1.89.55-6.43-5.32-10.65-9.08-15 7.47-.58 15.72.63 22.65-2.42zm61.67 67.48c27.72-4.43 56.1-2.65 84-1.45 13.85-.35 26.11 6.77 38.43 12.08-52-4.56-104.52-3-156.7-2.09 11.88-.98 22.91-5.48 34.27-8.54z" fill="#5d5246"/><path d="M489.81 168.31c13.63-20.85 39.95-33.71 64.75-28.91 9.47 1.62 15.16 12.69 11.84 21.42-8.56 9.28-21.47.32-31.91 3.92-35.05 3.6-49.25 49.23-34.26 77.49 6.94 17.65 24.3 29.08 42.4 32.77a33.83 33.83 0 0 1-3.3 14.86 36.69 36.69 0 0 1-4.92 7.18C511 289.19 486.8 274.91 478 250.52c-7.69-27.32-4.21-58.43 11.81-82.21zm274.07-28.94c8.6-3.17 7.24 13.14-.47 11.21-4.59-1.91-3.18-8.97.47-11.21zm-58.01 3.06c6.06-.43 12.67 6.29 12.29 12.27-5.58 6.64-18.16-6.59-12.29-12.27zm73.92.87c4.52 3.32 8.91 6.8 13.42 10.15l-.05.13c-1.48 6.86-8.76 14-15.95 9.66-7.16-5-1.77-14.82 2.58-19.94z" fill="#2f2b22"/><path d="M697.55 153.16c6.3-.87 13.3 4.29 15.86 9.73-2.19 11.48-24.58-1.95-15.86-9.73zm98.04 10.99c5.9-3.67 9.16 6.36 2.92 7.75-5.6 2.36-8.33-5.85-2.92-7.75zm-135.66 23.28l.55-.3c4.31 11.23-8.15 15.43-14 6.54l.51-.24a27.74 27.74 0 0 0 12.94-6zM641 195l.48 1.26c1.74 4.76 3.64 11.77-1.39 15.18-6.2 2-10.78-3.72-13.8-8.24 5.14-2.01 11.92-2.86 14.71-8.2zm-36.29 12.53c4.87-2.12 9.26-5.16 13.95-7.63.91 1.93 1.74 3.91 2.51 5.92 1.79 4.35 4.3 11.16-.52 14.39-5.84 2.12-10.4-3.4-13.33-7.64-.93-1.6-1.74-3.26-2.54-4.9zm-17.98 10.93a150.27 150.27 0 0 0 13.27-8.09c.45 1.49.91 3 1.47 4.47 1.83 4.19 4.41 10 .65 13.85-5.51 2.66-10.92-2.34-13.51-6.86-.65-1.06-1.25-2.14-1.83-3.21zm226.21-8.02c4.09-1.35 12.62.91 10.35 6.6-3.83 7.04-20.35-1.79-10.35-6.6zm-153.26 4.87c9-2.78 24.7 1.87 22.52 13.37-7.7 1.59-14.79-5.37-22.72-5.89-5.48.01-5.54-7.94.2-7.48z" fill="#2f2b22"/><path d="M805.56 219.16c4.81-1.1 9.08 2.88 12.29 6 1.68 11.84-20.66.95-12.29-6zm-156.24 8.53c10.24-5.15 23.85-.87 29.49 9.07.78-.8 1.6-1.58 2.42-2.36l.69.78c-2 2.35-3.5 5-5.32 7.5a5.74 5.74 0 0 0-3-1.86c-6.35-5.7-15.78-9-23.92-5.26l-2.48 1.08c.69-2.98 1.28-6 2.12-8.95zm150.03 93.94a57.18 57.18 0 0 1 6.88-2.53c-.27 3.65-4.1 10.08 1.22 11.33l-.44.06c-5.29-.24-9.63 6.92-14.71 3.63-2.71-5.32 3.06-9.88 7.05-12.49zm9.91 9.79c3.26 2.14 6.28 4.78 10 6.11l-.43.18c-7.88 1.94-11.22 13-20.33 10.59-2.56-8.1 5.19-12.98 10.76-16.88z" fill="#2f2b22"/><path d="M534.49 164.74c10.44-3.6 23.35 5.36 31.91-3.92-2.54 8.76-12.3 13.36-20.92 12.87-14.85-1.83-30.4 4.78-39 17.14-10.78 14.87-10.13 34.31-6.28 51.4-14.96-28.23-.76-73.89 34.29-77.49zm108.39 21.54C648.15 184 653 181 658 178.2c.57 3.09 1.21 6.16 1.92 9.23a27.74 27.74 0 0 1-13 6c-1.37-2.31-2.71-4.62-4-7zm-18.83 10.64c4.85-3.06 10.09-5.44 15-8.5a39.24 39.24 0 0 0 2 6.6c-2.8 5.32-9.58 6.17-14.71 8.2q-1.24-3.14-2.29-6.3z" fill="#25201c"/><path d="M88.8 263.85c-1.79-7.74 12.71-10.91 14-3 3.77 12.31 9.94 26.12 23 30.73 15.21 4.64 32.84-1.05 42.94-13.25 4.48 11.91 2.46 25.22-1 37.13v.17c-12.5 10.35-24.85 20.9-36.3 32.41-21.92 2.46-44.42 3.26-66.3.15-16-2.15-23.22-20-23.32-33.93 14.52 6.33 33.65 3.92 43.36-9.53 8.89-11.65 6.05-27.51 3.62-40.88zM99 296.11c2.33 2.48 6 2.37 9.07 3 1.69 4.61 3.3 9.25 5.18 13.8-2.66 1.52-5.44 3.15-6.94 6 5.56-3.62 12-5.14 18.19-6.84a43.82 43.82 0 0 0-10 .36c-1.09-4.64-2.89-9.06-4.33-13.58 1.44-2.45 3.49-4.74 3.47-7.76-3.27 5.68-8.64 6.64-14.64 5.02zm25.67 5.1a80.48 80.48 0 0 0 15.44-4.79c-5.39-.14-11.76.36-15.46 4.79zm1.81 6.22a69 69 0 0 0 15.67 0c-4.93-.79-11.56-3.31-15.69 0zm-48.29 7.17c5.35-1.19 11.32-2 15.94-4.91-5.66-.69-11.42 1.64-15.94 4.91zm6.09 11.4A36.56 36.56 0 0 0 96 316.26c-5.32.41-8.68 5.87-11.72 9.74zm32.07-5.85c-4.21.67-7.41 6.23-3.85 9.5 5.11 2.77 15.45-.36 13.46-7.48-1.68-3.71-6.44-3.06-9.61-2zm12.2 35.01c7.07-8.38 15.22-15.77 23-23.43C161.8 347.57 183.54 337 198 344c-21.81 8-47 11-69.45 11.16zm-102.97-6.38c4.85-1.1 10.21 1.62 12.82 5.71-8.92 1.63-18 .71-27 1.28 4.68-2.45 9.36-4.86 14.18-6.99z" fill="#fff"/><path d="M122.42 238c3.6-9.47 6.36-21.85 14.91-27.55 9.53 3.4 13 15.26 18.64 23.1 33.38-9.8 71.5-13 102.27 6.2 44.33 14 64.29 67 111.9 73.91 15.46 4.24 36-7.86 29-25.73-7.3-16.18 17.52-28.41 25.56-12.64 10.73 19.69-.91 45.34-19.48 55.77-20.23 11.12-44.85 7.11-65.53-.67-21.32-9.54-37-27.42-53.19-43.61 3.81 16.43 7.63 32.68 17.14 46.85 4.47 5.17 5.16 16.19-4.31 15.06-55.38.61-110.12 9.57-165.11 15.32-4.12.64-9.79 1-11.69-3.69-22.41 2-44.88-2.29-67.2.53-14 .77-28.14 1.38-42.2.94-3.89.13-8.5-4.32-4.66-7.67 10-5.91 20.89-10.23 31.57-14.76C29 311.15 25.41 280.77 21.49 251c-1.27-3.77 2.25-8.17 6.23-6.45 8.28 3.48 15.42 9.17 22.8 14.2C72.34 246 97.68 241.24 122.42 238zM88.8 263.85c2.43 13.37 5.27 29.23-3.68 40.86-9.71 13.45-28.84 15.86-43.36 9.53l.08-.2a27.12 27.12 0 0 1-7.63-4c4 17.68 9 40.94 29.82 45.42 19.6 2.53 39.61 2.52 59.38 1.78 2.45-3.26 5.24-6.22 8-9.23 11.45-11.51 23.8-22.06 36.3-32.41v-.17c3.57-2.61 6.77-5.69 10.29-8.37 1.33-11.62.33-24.13-6.28-34.12a45.32 45.32 0 0 1-3 5.36c-10.1 12.2-27.73 17.89-42.94 13.25-13.08-4.61-19.25-18.42-23-30.73-1.27-7.88-15.78-4.71-13.98 3.03zm44.11 4.51c5.26 1.27 2.52 7.78 3 11.6-3.7-1.58-10-2.49-9.19-7.79a65.36 65.36 0 0 0-7.17 6.95c2.92 7.31 13 10.11 19.25 5.49 5.65-5.13 3.51-13.58 2.16-20.11a25.52 25.52 0 0 0-8.05 3.86zm-59.26 19.79c3.94 3.27.88 8.09-1.07 11.6a44.66 44.66 0 0 1-7.45-7.09c.54-1.48 1.09-3 1.65-4.44-4.14.9-13.74-.53-9.22 6.24 3.44 15.18 28.65 11.54 24.31-5.2-2.65-.86-5.48-.81-8.22-1.11zm54.9 67c-1.7 1.68-4.68 5.88-.2 6.1 25.73-1.83 51.34-5.51 76.94-8.84A15.66 15.66 0 0 0 198 344c-14.5-7.06-36.24 3.53-46.45-12.31-7.78 7.7-15.93 15.09-23 23.47zm-103-6.38c-4.82 2.13-9.5 4.54-14.15 7-.38.49-1.14 1.48-1.51 2 17.1 2.73 34.83.13 52.14-.35a59.31 59.31 0 0 1-12.6-6.77c-6.23 1.23-13.2-.11-18-4.49-1.91.84-3.89 1.73-5.85 2.62z" fill="#060606"/><path d="M124.65 301.21c3.7-4.43 10.07-4.93 15.44-4.79a80.48 80.48 0 0 1-15.44 4.79zM78.19 314.6c4.52-3.27 10.28-5.59 15.94-4.91-4.62 2.92-10.59 3.72-15.94 4.91zm6.09 11.4c3-3.89 6.4-9.35 11.72-9.76A36.56 36.56 0 0 1 84.28 326z" fill="#060606"/><path d="M132.91 268.36a25.52 25.52 0 0 1 8.09-3.86c1.35 6.53 3.49 15-2.16 20.11-6.27 4.62-16.33 1.82-19.25-5.49a65.36 65.36 0 0 1 7.17-6.95c-.77 5.3 5.49 6.21 9.19 7.79-.52-3.82 2.22-10.33-3.04-11.6zm-59.26 19.79c2.74.3 5.57.25 8.22 1.11 4.34 16.74-20.87 20.38-24.31 5.2-4.52-6.77 5.08-5.34 9.22-6.24-.56 1.46-1.11 3-1.65 4.44a44.66 44.66 0 0 0 7.45 7.09c1.95-3.51 5.01-8.33 1.07-11.6zm3.68 3a7 7 0 0 0-.24 4.84h3.31a28.19 28.19 0 0 0 .06-5z" fill="#c0d9a2"/><path d="M171.71 273c6.61 10 7.61 22.5 6.28 34.12-3.52 2.68-6.72 5.76-10.29 8.37 3.47-11.91 5.49-25.22 1-37.13a45.32 45.32 0 0 0 3.01-5.36zm-137.5 37.05a27.12 27.12 0 0 0 7.63 4l-.08.2c.1 13.91 7.3 31.78 23.32 33.93 21.88 3.11 44.38 2.31 66.3-.15-2.73 3-5.52 6-8 9.23-19.77.74-39.78.75-59.38-1.78-20.76-4.48-25.76-27.75-29.79-45.43zm82.14 10.12c3.17-1.06 7.93-1.71 9.61 2 2 7.12-8.35 10.25-13.46 7.48-3.56-3.25-.36-8.81 3.85-9.48zM198 344a15.66 15.66 0 0 1 7.25 8.38c-25.6 3.33-51.21 7-76.94 8.84-4.48-.22-1.5-4.42.2-6.1C151 355 176.19 352 198 344z" fill="#cabfcd"/><path d="M25.58 348.78c2-.89 3.94-1.74 5.9-2.64 4.78 4.38 11.75 5.72 18 4.49a59.31 59.31 0 0 0 12.6 6.77c-17.31.48-35 3.08-52.14.35.37-.5 1.13-1.49 1.51-2 9-.57 18.05.35 27-1.28-2.66-4.07-8.02-6.79-12.87-5.69z" fill="#cabfcd"/><path d="M99 296.11c6 1.62 11.39.66 14.6-5 0 3-2 5.31-3.47 7.76 1.44 4.52 3.24 8.94 4.33 13.58a43.82 43.82 0 0 1 10-.36c-6.19 1.7-12.63 3.22-18.19 6.84 1.5-2.81 4.28-4.44 6.94-6-1.88-4.55-3.49-9.19-5.18-13.8-3.03-.65-6.72-.54-9.03-3.02z" fill="#dd7f7f"/><path d="M126.46 307.43c4.13-3.31 10.76-.79 15.67 0a69 69 0 0 1-15.67 0z" fill="#25201c"/><path d="M77.33 291.13l3.13-.19a28.19 28.19 0 0 1-.06 5h-3.31a7 7 0 0 1 .24-4.81z" fill="#f5f4f4"/><path d="M304.71 70c10.51-1.89 21.11-3.23 31.72-4.32h2.88c3.8 8.21 8.06 16.25 14.24 22.94-17.67-5-26.7 23.61-9.42 29.29 3.78 8.8 15.91 12.25 23.58 6.37 7.58-5.12 8.67-16.9 2.32-23.43 11.57 5.29 24.47 6.51 37.06 5.88 6.76 30.71 15.24 61.25 18.61 92.57-24.22 41.7-21.09 92.49-16.39 138.7.22 1.6.38 3.2.57 4.81-6 1-12 2.46-18.1 2.61-.26-19.68 1.13-39.42-.08-59-.42-2.92-2.18-.15-1.91 1.36-.34 3.57-1.38 7-2 10.54l-.84 1.16c-5.69 14.24-8.56 29.49-14.52 43.63-2.05 5.16-9.56 3.52-10.77-1.37-4.08-15.94-4-32.6-7.19-48.69l-.66-.89c0-.82.05-2.45.06-3.26-1.91 9.08-.43 18.53-.94 27.75-1.05 9.55.76 19.09.61 28.65-6.46.19-12.91.62-19.38.75-2.35-15.26-3.8-30.64-5-46-.35-3.45-.33-7-1.48-10.31-.2 3.4-.1 6.8-.25 10.2l-.33.75c-3.54 14-.75 28.88-1.61 43.19-.94 6-9.81 4.14-12.66.51-9.83-13.45-13.17-30.39-20.37-44.92 0-.48.05-1.45.07-1.93h-.76a6.52 6.52 0 0 0-.84-3.43c-.39-1.52-.68-3.07-1.18-4.55a21.44 21.44 0 0 0-1.3-2.29c-.86 20.06 3.42 39.87 6.78 59.54a89.79 89.79 0 0 1-18.34-2.13c-.21-1.65-.42-3.29-.57-4.94-1.94-39.53 3.36-86.15-25.74-117.52l-.79-.79c-.43-32.65-3.75-65.23-3.74-97.9 13.36 1.44 26.21-4 36.77-11.76-5 8.73.26 21.21 10.31 23 10.44 2.9 21.26-7.56 18.82-18.07-1.42-9.79-13-15.64-21.89-11.55 8.52-9.9 11.94-22.68 14.65-35.15zm17.51 60.07c.11.36.32 1.09.43 1.46-7.64-.69-13.6 7.4-10.26 14.38 4.17 7.4 15.92 6.07 19.35-1.42 2.76 6.13-2.07 9.78-4.25 14.79 4.79-4.39 9.17-5.78 15-2.22-3.16-4.11-9.65-5.62-8.4-12.12 4.35 2.21 10.07 3.31 14.22.09 5.54-5.75 1.07-18.72-8.06-16-5.48 1.83-11.17 8.56-18.03 1.04zm36.18 8.75c6.58-1.31 13.93-3.72 18.73-8.36a28.31 28.31 0 0 0-18.73 8.36zm-70.4 7.66a51.73 51.73 0 0 0 20.43-1.15c-6.25-2.33-14.9-2.77-20.43 1.15zm71.21-2.06c5.44 4.32 13.17 3.75 19.59 2.54-5.63-3.15-13.21-2.56-19.61-2.54zm-65.6 17c6.43-1.28 13.78-4.64 16.58-11-5.87 2.96-12.33 5.88-16.6 10.95zm53 11c-5.81 3.75-13.22 2.58-19.21 3.57-2.92 15.56 30.53 6.55 19.22-3.61z" fill="#fff"/><path d="M379.37 28c5.59-4.86 9.58 2.87 11.52 7.25 20.23 42.48 30.07 88.95 41 134.45 10.45 41.52 13.5 84.49 13.33 127.19-.57 17.39-3.48 35.77-13.69 50.3-10.41 11.18-26.87 13-41.31 13.71-39-.43-78 .89-117-.83C256.93 359 238 354 229.53 338.62c-4.95-12.79-1.37-26.86 1.21-39.81 4.88-18.88 4.85-38.59 5.68-57.95-6.32-19-21.38-33.85-38-44.23-22.17-13.58-39.51-36.38-42.62-62.64-2.47-19.3 3.1-41.15 19.08-53.43 16.55-13.46 44.45-10.91 57.06 6.69 10 11.57-4.72 32.65-18.25 22.29-5.42-9.16-20.38-11.05-25.44-.48-10.7 20.39 1 44.9 17.51 58.35 10.18 8.69 22.46 14.71 31.52 24.74-.56-49.22 0-98.75 8.75-147.33a5.09 5.09 0 0 1 8.7-2.34c9.21 9.62 16.37 20.94 23.84 31.89 26.71-10.17 55.75-11.67 84-13.49 3.31-11.88 9.52-22.96 16.8-32.88zM365 63.82c-9.47.42-19.32 1-28.52 1.86-10.61 1.09-21.21 2.43-31.72 4.32-9.4 1.92-18.78 4.21-27.56 8.16-8.42-11.72-15.23-26.82-27.42-34.41l.05.8c-6.44 25.33-6.65 52.36-9.28 78.44 1.86 0 3.73.16 5.59.28v.27c-1.84 0-3.67.14-5.5.16-.62 29.67-.08 59.38-.29 89.07-.77 25.08-.74 50.28-4.08 75.19-3 15.77-8.91 32.25-4.39 48.28 8.1 16.06 28.1 20.25 44.53 21 11.18.71 22.38.66 33.58.65-12.39-20.39-17.75-44.89-20.15-68.33.5 1.48.79 3 1.18 4.55a6.52 6.52 0 0 1 .84 3.43h.76c0 .48-.06 1.45-.07 1.93 4.12 18 9.12 36.29 18.39 52.44 3.27 7.37 14.26 7.82 20 3.93-1.1-18.3-3.47-36.84-3.78-55.18l.33-.75c.15-3.4.05-6.8.25-10.2 1.15 3.32 1.13 6.86 1.48 10.31 1.21 15.37 2.66 30.75 5 46 .57 3.91 1.15 7.92.37 11.85 7.17 0 14.34.08 21.51-.05-3.88-13.38-1.44-27.53-3.11-41.2.51-9.22-1-18.67.94-27.75 0 .81 0 2.44-.06 3.26l.66.89c.58 19.77 1.67 39.52 3.68 59.19 1.62 9.08 16.76 6.95 18.45-1.32 5.48-17 8.09-34.73 11.42-52.22l-1.07.78.84-1.16c.66-3.52 1.7-7 2-10.54l1.16-.63c-3 23.67-3.91 48.7-13.85 70.71 11.5.24 23.17.27 34.37-2.71 28.07-6.19 30.47-40.81 30.76-64.23-.46-34-1.94-68.21-9.2-101.48-5.57-27.89-12.39-55.54-19.94-83-.24-.74-.46-1.48-.68-2.22-7.28-24.35-13.76-49.58-26.81-71.58-.2-1.49-1.36-2.53-2.27-3.61-9.21 9.31-15 22.26-18.39 34.82zM164.88 97.6c-17 32.4.54 73.08 29.23 92.53 17.4 10.5 33.57 24.21 42.66 42.76 0-6.15.26-12.3.37-18.46.06-5.89.16-11.79 0-17.68-11.84-14.75-30.91-21.26-42.44-36.34-11.77-13.1-16.9-32.38-11.28-49.31 3.92-10.91 17.93-16.58 27.38-8.83 3.45 5 9.8 9.32 15.77 5.47 9.41-6.48 5-20.61-3.76-25.52-18.74-14.35-48.76-6.3-57.93 15.38z" fill="#060606"/><path d="M344.13 117.91c-7.56-15.41 14.87-30 25.9-17.06 6.35 6.53 5.26 18.31-2.32 23.43-7.71 5.88-19.8 2.43-23.58-6.37zm8.64-18.34c-15.57 6.6-3.91 32.05 11.36 24.11 15.94-6.44 4.12-32.49-11.36-24.11z" fill="#060606"/><path d="M352.43 112c2-3.29 3.87-7 7.24-9 6.27 4.84 8.35 12.23.48 16.75-3.08-2.05-5.29-5.04-7.72-7.75zm-62.37-6.81c8.88-4.09 20.47 1.76 21.89 11.55 2.44 10.51-8.38 21-18.82 18.07-10.05-1.82-15.33-14.3-10.31-23a21 21 0 0 1 7.24-6.62zm.71 2.37c-15.58 6.6-3.91 32.06 11.37 24.12 15.93-6.45 4.11-32.48-11.37-24.12z" fill="#060606"/><path d="M294.05 111.22a43.37 43.37 0 0 1 9.12 6.64 44.44 44.44 0 0 1-4.79 9.76c-9.18-1.79-9.38-9.99-4.33-16.4zm64.35 27.6a28.31 28.31 0 0 1 18.73-8.36c-4.8 4.64-12.13 7.05-18.73 8.36zm-70.4 7.66c5.55-3.92 14.2-3.5 20.43-1.15a51.73 51.73 0 0 1-20.43 1.15zm71.19-2.06c6.4 0 14-.61 19.59 2.54-6.42 1.21-14.15 1.78-19.59-2.54zm-65.6 16.95c4.27-5.07 10.73-8 16.58-11-2.8 6.36-10.17 9.72-16.58 11z" fill="#060606"/><path d="M365 63.82c3.44-12.56 9.23-25.51 18.38-34.77.91 1.08 2.07 2.12 2.27 3.61 6.71 23.5 14.94 46.62 20.24 70.54-.3 3.69 5.91 4.61 6.57 1 .22.74.44 1.48.68 2.22l-6 .27c-12.59.63-25.49-.59-37.06-5.88-11-12.91-33.46 1.65-25.9 17.06-17.28-5.68-8.25-34.33 9.42-29.29-6.18-6.69-10.44-14.73-14.24-22.94h-2.88c9.15-.82 19-1.4 28.52-1.82zM249.73 43.75c12.19 7.59 19 22.69 27.42 34.41 8.78-4 18.16-6.24 27.56-8.16-2.75 12.47-6.13 25.25-14.65 35.19a21 21 0 0 0-7.24 6.59c-10.56 7.77-23.41 13.2-36.77 11.76v-.27c1-26.2 2.57-52.5 3.69-78.72zM164.88 97.6c9.17-21.68 39.19-29.73 57.93-15.38 8.78 4.91 13.17 19 3.76 25.52-4.24-10.15-15.57-19.52-27-15.46-8.87 1.82-14.85 10.25-16.13 18.82-5.62 16.93-.49 36.21 11.28 49.31 11.53 15.08 30.6 21.58 42.46 36.34.14 5.89 0 11.79 0 17.68-12.87-16.67-32.57-25.5-47.92-39.48-21.89-18.72-31.39-49.49-24.38-77.35zM340.25 129c9.13-2.69 13.6 10.28 8.06 16-4.15 3.22-9.87 2.12-14.22-.09-2.98-6.16.77-12.61 6.16-15.91zm-27.86 16.91c-3.34-7 2.62-15.07 10.26-14.38 5.12 2.69 10.69 6.18 9.09 13-3.43 7.47-15.18 8.78-19.35 1.38zM425.7 199.3l.07.56c5.86 37.27 8.58 75.41 4.69 113-.89 12.46-7.13 25.88-20.11 29.38-.36-1.43-.73-2.83-1-4.25-4.74-46.2-7.87-96.99 16.35-138.69zm-175.12 22.93c29.1 31.37 23.8 78 25.74 117.52 0 1.69-.06 3.37-.06 5.06-8.14-2.12-18-5.08-20.88-14-9.63-25.36-.87-52.72-3.95-78.92.42-9.89-1.43-19.79-.85-29.66z" fill="#bc935d"/><path d="M385.6 32.66c13 22 19.53 47.23 26.81 71.58-.66 3.57-6.87 2.65-6.57-1-5.3-23.96-13.53-47.08-20.24-70.58zM240.5 123c2.63-26.08 2.84-53.11 9.28-78.44-1.12 26.22-2.68 52.52-3.69 78.72-1.86-.13-3.73-.28-5.59-.28zm-40.95-30.72c11.45-4.06 22.78 5.31 27 15.46-6 3.85-12.32-.51-15.77-5.47-9.45-7.75-23.46-2.08-27.38 8.83 1.3-8.57 7.28-17 16.15-18.82zm-34.67 5.32c-7 27.86 2.49 58.63 24.34 77.35 15.35 14 35.05 22.81 47.92 39.48-.11 6.16-.32 12.31-.37 18.46-9.09-18.55-25.26-32.26-42.66-42.76-28.69-19.45-46.28-60.13-29.23-92.53zm260.89 102.26a45.72 45.72 0 0 1 7.23-10.44c7.26 33.27 8.74 67.52 9.2 101.48-.29 23.42-2.69 58-30.76 64.23-.64-4.09-1.1-8.2-1.59-12.31-.19-1.61-.35-3.21-.57-4.81.31 1.42.68 2.82 1 4.25 13-3.5 19.22-16.92 20.11-29.38 3.96-37.61 1.24-75.75-4.62-113.02zm-185.51 12.91c3.27 2.78 6.49 5.64 9.53 8.67l.79.79c-.58 9.87 1.27 19.75.85 29.67 3.08 26.2-5.68 53.56 3.95 78.92 2.91 8.91 12.74 11.87 20.88 14 .06 4.15.12 8.29.06 12.44-16.43-.76-36.43-4.95-44.53-21-4.52-16 1.42-32.51 4.39-48.28 3.34-24.93 3.31-50.13 4.08-75.21z" fill="#976b4a"/><path d="M352.77 99.57c15.48-8.38 27.3 17.67 11.36 24.11-15.27 7.94-26.93-17.51-11.36-24.11zm10.76 1.63c-3.28 2.48 1.35 9 4.86 6.87 1.31-3.01-1.54-7.53-4.86-6.87zm-11.1 10.8c2.43 2.7 4.64 5.69 7.72 7.72 7.87-4.52 5.79-11.91-.48-16.75-3.37 2.08-5.27 5.75-7.24 9.03zm-61.66-4.44c15.48-8.36 27.3 17.67 11.37 24.12-15.28 7.94-26.95-17.52-11.37-24.12zm7.55 1.48c-3.38 3 4.46 8.92 6.78 4.79 1.38-3.58-3.73-7.2-6.78-4.83zm-4.27 2.18c-5 6.41-4.85 14.61 4.33 16.4a44.44 44.44 0 0 0 4.79-9.76 43.37 43.37 0 0 0-9.12-6.64z" fill="#e3be63"/><path d="M363.53 101.2c3.32-.66 6.17 3.86 4.86 6.87-3.51 2.09-8.14-4.39-4.86-6.87zm-65.21 7.8c3.05-2.41 8.16 1.21 6.78 4.79-2.32 4.21-10.16-1.79-6.78-4.79z" fill="#eaf5c2"/><path d="M407.09 106.73l6-.27c7.55 27.42 14.37 55.07 19.94 83a45.72 45.72 0 0 0-7.26 10.44l-.07-.56c-3.37-31.34-11.85-61.9-18.61-92.61zM240.55 123.7c1.83 0 3.66-.17 5.5-.16 0 32.67 3.31 65.25 3.74 97.9-3-3-6.26-5.89-9.53-8.67.21-29.69-.33-59.4.29-89.07zm106.07 48.68c11.31 10.16-22.14 19.17-19.21 3.57 5.99-.95 13.4.18 19.21-3.57zm43.17 115.38c-.27-1.51 1.49-4.28 1.91-1.36 1.21 19.61-.18 39.35.08 59 6.12-.15 12.08-1.62 18.1-2.61.49 4.11.95 8.22 1.59 12.31-11.2 3-22.87 2.95-34.37 2.71 9.94-22 10.84-47 13.85-70.71zm-101.34-.48a21.44 21.44 0 0 1 1.3 2.29c2.4 23.44 7.76 47.94 20.15 68.33-11.2 0-22.4.06-33.58-.65.06-4.15 0-8.29-.06-12.44 0-1.69.05-3.37.06-5.06.15 1.65.36 3.29.57 4.94a89.79 89.79 0 0 0 18.34 2.13c-3.36-19.67-7.64-39.48-6.78-59.54z" fill="#cabfcd"/><path d="M354.43 293c3.16 16.09 3.11 32.75 7.19 48.69 1.21 4.89 8.72 6.53 10.77 1.37 6-14.14 8.83-29.39 14.52-43.63l1.07-.78c-3.33 17.49-5.94 35.24-11.42 52.22-1.69 8.27-16.83 10.4-18.45 1.32-2.01-19.64-3.11-39.39-3.68-59.19zm-61.97 6.47c7.2 14.53 10.53 31.47 20.32 44.89 2.85 3.63 11.72 5.53 12.66-.51.86-14.31-1.93-29.19 1.61-43.19.31 18.34 2.68 36.88 3.78 55.18-5.72 3.89-16.71 3.44-20-3.93-9.25-16.15-14.25-34.42-18.37-52.44zm61.04 45.81c.15-9.56-1.66-19.1-.61-28.65 1.67 13.67-.77 27.82 3.11 41.2-7.17.13-14.34.05-21.51.05.78-3.93.2-7.94-.37-11.85 6.47-.13 12.88-.56 19.38-.75z" fill="#cabfcd"/><path d="M322.22 130.07c6.86 7.52 12.55.79 18-1.07-5.39 3.3-9.14 9.75-6.16 15.94-1.25 6.5 5.24 8 8.4 12.12-5.83-3.56-10.21-2.17-15 2.22 2.18-5 7-8.66 4.25-14.79 1.6-6.78-4-10.27-9.09-13-.08-.33-.29-1.06-.4-1.42z" fill="#dd7f7f"/><path d="M525.44 70.5L527 69a67.85 67.85 0 0 0 30.68 6.49c-12.3 9.78-25.11 23.3-24.72 40 2.08-1.55 4.23-4.79 6.79-2.17 22.74 14.75 53.07 7.18 72.67-9.4 4.28 14.34 4.84 29.41 7.29 44.11-5.56 18-18.32 35.87-37.62 40.39-9.27 3.26-20.35 2.22-27.85 9.52-6.35 7.16-8.12 18-5.08 27 3.91 10.45 16.44 14.15 20.31 24.6 3.46 9.67 3.23 20.71 9.39 29.37 10.37 12.27 25 19.67 36.92 30.24-2.2 12.82-7.45 25.12-13.93 36.33-8.45 7.9-21.09 5-31.58 5.55-3.06.61-4.05-2.7-3.9-5.09.47-21 5.75-41.61 6.27-62.53l-.12-1.23h.87c-.13-1.89.53-4-.52-5.73l-1 .43c-10.5 22.24-17.39 46.72-28.41 69-2.19 5.31-11.51 6.16-13.12 0-4-14-3.23-28.88-5.82-43.07l-.66-1.14a4 4 0 0 1 .61-3.32l-.78.4c-.25-4.32 0-8.68-.87-12.95-1.32 22.57-1.25 45.26-.87 67.86-.52-1-1-2-1.46-3-7.1.11-14.19 0-21.29.15q-.19 2.67-.39 5.37c.22-21.76-3-43.45-4.62-65.13a29.54 29.54 0 0 0-1-5c-.64 7.14.41 14.31-.15 21.46-1.59 13.39-.06 27.06-2.63 40.34-1.68 4.41-7.85 1.77-9.61-1.37-14.38-20.39-25.11-43.16-33.82-66.41 18.2-20.76 26.09-57.07 5.78-78.78-18.83-7.37-34.44-22.52-39.94-42.33 2.67-18.57 5.85-37.16 11.45-55.09a53.05 53.05 0 0 0 15 11.25c13.92 6.18 31.05 6.32 43.56-3.06a20 20 0 0 0 3.8 3.43c.7-7.5-2.57-15-6.91-21 12.7-12.44 34.57-9 45.72-23.99zm-28.25 37.57c.35 4.4 5.71 4.45 9 5.08-.14 9.22 4.09 34.22-12.15 24.57 0 4.58 5.78 4.84 9.07 3.94 5.59-5.77 14.39 5.17 19.29-3.78-17 8.48-14.52-14.41-13.17-24.74 3-.51 7-.93 8.34-4.18-5.79-3.96-14.1-3.7-20.38-.89zm-30 13.84c5.67.44 13.63 5.76 17.84 1.63-5.58-1.69-12.4-4.48-17.85-1.63zm63.25 1.9c4.13 4.17 12.19-1.06 17.83-1.64-5.49-2.72-12.27.11-17.84 1.64zm-61.18 14.74c5.83 0 11.94-2.62 16.75-5.87l-1.4-1.07c-5.42 1.39-11.04 3.31-15.36 6.94zm61.23-6.4c1.42 4.81 10.48 5.95 15.45 7-3.88-4.01-9.94-6.15-15.46-7zm-34.07 31.75c-7.14 17.47 31.32 16 23.75-.32a33.39 33.39 0 0 1-23.75.32zM415.73 304c9.12-7.46 18.31-15.87 28.88-20.85v3c.4 22 10.76 43 14.8 64.59-8.52-1-20.08 2.29-25.39-6.57-7.8-12.54-14.64-25.78-18.29-40.17z" fill="#fff"/><path d="M562.9 39.84c5.87-11.33 12.71-22.32 21.26-31.84 7.13-2.56 8.56 7.54 11.54 11.9 27.88 61.35 36.21 129.37 41.73 195.89 2.27 33.65 2.51 67.74-3.61 101 21.41-15.29 37.72-43.1 33.29-70-14.17-28.22-35.2-57.45-28-90.86 3-32.52 29.42-63.57 63.17-65 20-.05 21.19 32.22 3.94 37.92-15.66 5-34 14.6-35.92 32.89-5.39 33.71 23.39 57.68 31.27 88 2.6 22.53-6.81 44.6-19.92 62.5-13.68 19.76-30 43.42-56.48 44.74-63.52 4.5-128 1-191.92 2.09-9 .66-19.05-2.05-23.92-10.23-16.81-29.3-17.42-64.25-15.55-97.09 6.3-79.42 14.57-162.9 57.1-232.35 2.94-3.46 5.34-11.61 11.19-8.68 7.07 8.39 9.93 19.4 14.16 29.28 28.77-2.82 57.84-2.38 86.67-.16zm-45 20.25c.67 4.86 8.65 5.92 7.51 10.41-11.15 15-33 11.55-45.79 24 4.34 6 7.61 13.46 6.91 21a20 20 0 0 1-3.8-3.43c-12.51 9.38-29.64 9.24-43.56 3.06a53.05 53.05 0 0 1-15-11.25v-.13c-1.43-1.8-2.83-3.62-4.14-5.51-4.12 19.8-14.22 40.49-7.35 60.73 5.5 19.81 21.11 35 39.94 42.33 20.31 21.71 12.42 58-5.78 78.78-2.56.55-1.22 3.31-.76 4.88a373.77 373.77 0 0 0 29.16 65.9c3.74 6.67 14.37 7.07 19.87 3.12 1.79-15.52-1.66-31.41-1.58-47.09l-.63.63c.56-7.15-.49-14.32.15-21.46a29.54 29.54 0 0 1 1 5c1.62 21.68 4.84 43.37 4.62 65.13 8.08-.19 16.17 0 24.26-.11l-1.12-2.43c-.38-22.6-.45-45.29.87-67.86.84 4.27.62 8.63.87 12.95l.78-.4a4 4 0 0 0-.61 3.32l.66 1.14-.83-1c.75 17.31-.56 35 2.54 52 6.44 4 19.94 4.43 22.61-4.9 9.53-23.38 16.53-48.08 23.67-72h-.64l1-.43c1 1.69.39 3.84.52 5.73h-.87l.12 1.23c-7.94 24.09-11.31 50-22.7 72.76 20.08-.37 40.27.73 60.28-.57 19-6.63 22.5-35 5.56-46.45-11.89-10.57-26.55-18-36.92-30.24-6.16-8.66-5.93-19.7-9.39-29.37-3.87-10.45-16.4-14.15-20.31-24.6-3-9-1.27-19.83 5.08-27 7.5-7.3 18.58-6.26 27.85-9.52 19.3-4.52 32.06-22.4 37.62-40.39 8.64-15.78 1.46-33.6-1.68-49.84-1.76 2-3.68 3.88-5.61 5.73-19.6 16.58-49.93 24.15-72.67 9.4-2.56-2.62-4.71.62-6.79 2.17-.39-16.71 12.42-30.23 24.72-40 10.72 0 28.62-5.34 24.33-19.46-8-16.38-28.67-13.35-43.75-14.56-9.67-.74-25.35 6.69-20.19 18.6zm-74.16 33.64c2.51 17.6 26.22 25.83 39.18 14.31-1.48-8.71-6.68-17.83-15.2-21.18.44 2.9.92 5.8 1.29 8.71v4.74l-.46-.1c-2.07 3.31-3.06 7.5-6.05 10.11-3.5-8.32-4.34-17.32 1.36-24.86-7.31-.12-15.71 2.07-20.12 8.27zm92.94 14.72c13.41 11 36.37 2.8 38.9-14.78-4.5-6.14-12.47-9.09-19.94-8.31 1.27 2.84 2.51 5.7 3.69 8.59.31.84.95 2.51 1.27 3.34a92.86 92.86 0 0 1-3.35 12.92c-6.6-6.37-7.59-15.36-5.27-23.88-8.66 3.84-14.35 12.92-15.3 22.12zm132-1.28a64.05 64.05 0 0 0-21.39 29.43c4.2 3.54 8.33 7.23 13.2 9.84l-.17.22a63.35 63.35 0 0 0 9.84 4.33 42 42 0 0 1 18.17-17.46c-1.11-3.81-3.48-7-5.33-10.51l-.09.06c-4.04-5.76-8.17-12.27-14.24-15.91zM656.36 178l.21.36c-5.12.2-10.4.78-15.38-.73a104.19 104.19 0 0 0 11.38 35.26c5-2 9.77-4.61 14.6-7l-.1-.22a34.72 34.72 0 0 0 7.1-4.05c-3.33-8.72-6.43-17.64-7.17-27a36 36 0 0 1-10.64 3.38zM626 194.45c-24.41 17.85-28.6 59.65-1.52 77l-.06.24c3.49 2.38 7.18 4.48 10.58 7 2.13-30.34-.11-60.79-3.08-91a84.18 84.18 0 0 0-5.92 6.76zm-225.26 11.49c-3.34 29.48-5.63 59.2-4.05 88.87 6.33-1.87 9.22-9.22 14.15-13.31l-.11-.28c15.93-17.76 10.75-45.21-2.93-62.68l.11-.27a140.28 140.28 0 0 1-7.17-12.33zM682.36 235c-5.21.77-9.64 3.64-14.09 6.23 3.27 7.1 3.52 15 2.4 22.68a23.55 23.55 0 0 1 18.35 3.4c3 2.07 5.24 4.91 7.8 7.43 3.19-13.13 3.68-27.64-4.06-39.35-3.35-1.2-6.95-.69-10.4-.39zm-266.63 69c-7 6.31-16.56 15.55-11.67 25.75 3.75 10.47 8.1 24.48 21.07 26 16.33.76 32.75.28 49.11.25-13.42-21.58-22-45.81-29.64-69.9v-3c-10.6 5.05-19.75 13.46-28.87 20.9zm244.11-11.74c-3.88 6.8-8.74 12.93-13.63 19 5.46.39 10.08 3.59 14.24 6.88a40.57 40.57 0 0 1 6.16 9c5.32-7.7 19.57-17.87 9.19-26.86-4.13-4.37-9.65-8.22-15.96-8z" fill="#060606"/><path d="M467.18 121.91c5.45-2.85 12.27-.06 17.84 1.63-4.21 4.13-12.17-1.19-17.84-1.63zm63.25 1.9c5.59-1.53 12.35-4.36 17.83-1.64-5.64.58-13.7 5.83-17.83 1.64zm-61.18 14.74c4.32-3.63 9.94-5.54 15.35-6.94l1.4 1.07c-4.81 3.25-10.92 5.91-16.75 5.87zm61.23-6.4c5.48.8 11.58 3 15.45 7-4.93-1.05-14.03-2.15-15.45-7z" fill="#060606"/><path d="M517.93 60.09c-5.16-11.91 10.52-19.34 20.28-18.64C553.29 42.66 574 39.63 582 56c4.29 14.12-13.61 19.51-24.33 19.46A67.85 67.85 0 0 1 527 69l-1.51 1.52c1.09-4.52-6.89-5.52-7.56-10.43zm150.74 47.08c6.07 3.64 10.2 10.15 14.23 15.91-9.41 5.8-16.39 14.26-22.42 23.36-4.87-2.61-9-6.3-13.2-9.84a64.05 64.05 0 0 1 21.39-29.43zm-27.48 70.43c5 1.51 10.26.93 15.38.73 3.65 9 5.87 18.61 10.5 27.28l.1.22c-4.83 2.42-9.59 5-14.6 7a104.19 104.19 0 0 1-11.38-35.23zm-16.69 93.85c-27.08-17.35-22.89-59.15 1.52-77 1.52 25.55 2.85 51.66-1.52 77zm-213.77 9.77c-4.14-20.34-6.74-42.19-2.93-62.68 13.68 17.46 18.86 44.92 2.93 62.68zm257.54-39.95c4.45-2.59 8.88-5.46 14.09-6.23 8.15 8.34 9 21.42 6.66 32.31a23.55 23.55 0 0 0-18.35-3.4c1.12-7.63.87-15.58-2.4-22.68zm-8.43 51.01c6.31-.22 11.83 3.63 16 8.05-5.74 5.37-9.32 12.69-15.35 17.84-4.16-3.29-8.78-6.49-14.24-6.88 4.85-6.08 9.75-12.21 13.59-19.01z" fill="#976b4a"/><path d="M559.33 94c5.68-9.83 11.48 7 1.27 3.34-.32-.88-.96-2.55-1.27-3.34zM469 95.57c7.61-5.12 7.58 8.81 0 4.74q.06-2.37 0-4.74z" fill="#eaf5c2"/><path d="M443.74 93.73c4.41-6.2 12.81-8.39 20.12-8.27-5.7 7.54-4.86 16.54-1.33 24.86 3-2.61 4-6.8 6.05-10.11l.46.1c7.55 4.07 7.58-9.86 0-4.74-.37-2.91-.85-5.81-1.29-8.71 8.52 3.35 13.72 12.47 15.2 21.18-12.95 11.52-36.7 3.29-39.21-14.31zm92.94 14.72c1-9.2 6.64-18.28 15.3-22.12-2.32 8.52-1.33 17.51 5.27 23.88a92.86 92.86 0 0 0 3.35-12.92c10.21 3.64 4.41-13.17-1.27-3.34a284.46 284.46 0 0 0-3.69-8.59c7.47-.78 15.44 2.17 19.94 8.31-2.53 17.58-25.49 25.83-38.9 14.78z" fill="#c0d9a2"/><path d="M420.06 98.22c1.31 1.89 2.71 3.71 4.14 5.51v.13c-5.6 17.93-8.78 36.52-11.45 55.09-6.91-20.24 3.19-40.95 7.31-60.73zm192.31 5.69c1.93-1.85 3.85-3.71 5.61-5.73 3.14 16.24 10.32 34.06 1.68 49.84-2.45-14.7-3.01-29.77-7.29-44.11zM496.42 163.9a33.39 33.39 0 0 0 23.75-.32c7.57 16.33-30.89 17.79-23.75.32zm75.36 112.97h.64c-7.14 23.95-14.14 48.65-23.67 72-2.67 9.33-16.17 8.93-22.61 4.9-3.1-17-1.79-34.72-2.54-52l.83 1c2.59 14.19 1.83 29.09 5.82 43.07 1.61 6.12 10.93 5.27 13.12 0 11.02-22.25 17.91-46.73 28.41-68.97zm-125.67 8.07c-.46-1.57-1.8-4.33.76-4.88 8.71 23.25 19.44 46 33.82 66.41 1.76 3.14 7.93 5.78 9.61 1.37 2.57-13.28 1-26.95 2.63-40.34l.63-.63c-.08 15.68 3.37 31.57 1.58 47.09-5.5 4-16.13 3.55-19.87-3.12a373.77 373.77 0 0 1-29.16-65.9zm103.78 71.21c11.39-22.8 14.76-48.67 22.7-72.76-.52 20.92-5.8 41.56-6.27 62.53-.15 2.39.84 5.7 3.9 5.09 10.49-.53 23.13 2.35 31.58-5.55 6.48-11.21 11.73-23.51 13.93-36.33 16.94 11.44 13.41 39.82-5.56 46.45-20.01 1.3-40.17.2-60.28.57zM444.6 286.13c7.65 24.09 16.22 48.32 29.64 69.9-16.36 0-32.78.51-49.11-.25-13-1.53-17.32-15.54-21.07-26-4.89-10.2 4.68-19.44 11.67-25.75 3.65 14.37 10.49 27.61 18.28 40.13 5.31 8.86 16.87 5.61 25.39 6.57-4.04-21.62-14.4-42.6-14.8-64.6zm54.51 64.72c7.1-.17 14.19 0 21.29-.15.48 1 .94 2 1.46 3l1.12 2.43c-8.09.12-16.18-.08-24.26.11q.2-2.72.39-5.39z" fill="#cabfcd"/><path d="M497.19 108.07c6.28-2.81 14.59-3.1 20.4.89-1.39 3.25-5.3 3.67-8.34 4.18-1.35 10.33-3.8 33.22 13.17 24.74-4.9 9-13.7-2-19.29 3.78-3.29.9-9.1.64-9.07-3.94 16.24 9.65 12-15.35 12.15-24.57-3.31-.63-8.67-.68-9.02-5.08z" fill="#dd7f7f"/><path d="M682.9 123.08l.1-.08c1.85 3.46 4.22 6.7 5.33 10.51A42 42 0 0 0 670.15 151a63.35 63.35 0 0 1-9.84-4.33l.17-.22c6.03-9.11 13.01-17.57 22.42-23.37zM656.36 178a36 36 0 0 0 10.64-3.45c.74 9.37 3.84 18.29 7.17 27a34.72 34.72 0 0 1-7.1 4.05c-4.63-8.67-6.85-18.31-10.5-27.28zM626 194.45a84.18 84.18 0 0 1 5.92-6.74c3 30.21 5.21 60.66 3.08 91-3.4-2.54-7.09-4.64-10.58-7l.06-.24c4.39-25.36 3.06-51.47 1.52-77.02zm-225.26 11.49a140.28 140.28 0 0 0 7.17 12.33l-.11.27c-3.81 20.49-1.21 42.34 2.93 62.68l.11.28c-4.93 4.09-7.82 11.44-14.15 13.31-1.58-29.67.71-59.39 4.05-88.87zM682.36 235c3.45-.34 7-.85 10.4.39 7.74 11.71 7.25 26.22 4.06 39.35-2.56-2.52-4.84-5.36-7.8-7.43 2.32-10.85 1.49-23.93-6.66-32.31zm-21.91 83.17c6-5.15 9.61-12.47 15.35-17.84 10.38 9-3.87 19.16-9.19 26.86a40.57 40.57 0 0 0-6.16-9.02z" fill="#794e3b"/></g></g></svg>