<svg xmlns="http://www.w3.org/2000/svg" viewBox="0 0 153.47 80.73"><g data-name="Слой 2"><g data-name="Слой 1"><g data-name="Layer 1"><path d="M23.39 66a2.05 2.05 0 0 1-1.71-.7c-.65 0-1.34.06-2.09.06-1.09 0-2.19 0-3.26-.09s-2.13-.09-3.19-.09a27.07 27.07 0 0 0-3.14.22c-1.86.1-3.86.2-5.86.2H2.37A1.77 1.77 0 0 1 .7 64.5a1.27 1.27 0 0 1 .4-1.41h.05a42.2 42.2 0 0 1 5-2.38l.18-.07c-1.74-4.72-2.4-9.77-3-14.66l-.1-.75a1.59 1.59 0 0 1 .25-1.37 1.4 1.4 0 0 1 1.17-.62 1.42 1.42 0 0 1 .57.12 17.5 17.5 0 0 1 3.37 2l.52.36c3.85-2.14 8.23-3 12.44-3.56.07-.2.14-.41.22-.62.54-1.56 1.14-3.33 2.57-4.29l.26-.25.3.1c1.44.52 2.21 1.89 2.88 3.1.18.32.35.63.53.92a31.81 31.81 0 0 1 8.61-1.31 23.14 23.14 0 0 1 3.22.23 17.88 17.88 0 0 0-4.8-4.29 16.36 16.36 0 0 1-8-11.72c-.41-3.24.33-7.61 3.67-10.18A7.86 7.86 0 0 1 36 12.21a7.61 7.61 0 0 1 6.21 3 3.23 3.23 0 0 1 .37.54c.24-2.63.58-5.27 1-7.9a1.53 1.53 0 0 1 1.52-1.22 1.48 1.48 0 0 1 1.12.49A36.64 36.64 0 0 1 50 12l.32.47c4.57-1.63 9.47-1.95 14.21-2.25h.18a19.51 19.51 0 0 1 3-5.68v-.06h.06a1.6 1.6 0 0 1 1-.43c1.14 0 1.77 1.42 2 2a70 70 0 0 1 3.85 10.27 56.8 56.8 0 0 1 5.91-13.25 3.27 3.27 0 0 0 .32-.5c.36-.59.85-1.39 1.74-1.39a1.47 1.47 0 0 1 .71.18l.11.06.08.09a13.32 13.32 0 0 1 2.12 4.05c.11.31.23.63.36.94 2.28-.21 4.7-.32 7.17-.32s4.94.1 7.64.3a27.61 27.61 0 0 1 3.78-5.57l.11-.12.15-.05a1.73 1.73 0 0 1 .6-.11c1.07 0 1.53 1 1.87 1.81a4.27 4.27 0 0 0 .33.68c3.76 8.29 5.5 17.09 6.51 25.12l.09-.48a14.37 14.37 0 0 1 3.78-8.27 11.89 11.89 0 0 1 8.19-3.94 3.31 3.31 0 0 1 3.16 2.14 4.82 4.82 0 0 1 .3 2.58 18.18 18.18 0 0 1 6.33-3h.18l.18.07c1.67.66 1.52 2.5 1.4 4a10 10 0 0 0 0 1.45 43 43 0 0 1 8.51 6.27c.36-.09.79-.23 1.24-.38a9.88 9.88 0 0 1 2.9-.66 2.25 2.25 0 0 1 2.27 1.46l.08.2-.06.2c-.52 1.87-1 3.8-1.46 5.66a77.89 77.89 0 0 1-4 13 98.76 98.76 0 0 1-1.22 9.89 42.31 42.31 0 0 1 5.53 3.94 2 2 0 0 1 .64 2.21 1.68 1.68 0 0 1-1.58 1.17 20.94 20.94 0 0 1-2.62.16 46.08 46.08 0 0 1-7.72-.87 50.7 50.7 0 0 0-6.73-.83c-2.7-.24-5.57-.35-9-.35-2.51 0-5.06.06-7.53.11h-1.36a9.13 9.13 0 0 1-3.08.73c-4.13.29-8.58.42-14.4.42h-20.6a6 6 0 0 1-2.55-.46 17.59 17.59 0 0 1-4.83.76H58.08c-3.62 0-6.39 0-9-.17a13.35 13.35 0 0 1-5.63-1.48c-3.69.34-7.44.79-11.06 1.23-2.7.33-5.47.66-8.21 1a7.56 7.56 0 0 1-.79 0zm12.55-47.2a1.61 1.61 0 0 0-1.53.93c-1.76 3.34.18 7.42 3 9.71a26.45 26.45 0 0 0 2.26 1.68A27.28 27.28 0 0 1 42 33c0-4.32 0-9 .28-13.71a3.09 3.09 0 0 1-2.51 1.48 2.84 2.84 0 0 1-1.77-.68l-.1-.08-.06-.1a2.3 2.3 0 0 0-1.93-1.07z" fill="#fff"/><path d="M105.43 1.26c.95 0 1.21 1.51 1.68 2.21 4.3 9.46 6 19.81 7 30.11l.8-.44a12.32 12.32 0 0 1 0-5.2c.54-5.84 5.29-11.43 11.36-11.68 3.08 0 3.66 4.24 1.83 6.11a20.28 20.28 0 0 1 8.1-4.37c1.83.72.67 3.62 1 5.25a42.33 42.33 0 0 1 8.91 6.54c1.16-.18 3-1.09 4.32-1.09a1.64 1.64 0 0 1 1.68 1.07c-1.76 6.25-2.84 12.72-5.5 18.71a98.85 98.85 0 0 1-1.35 10.29 43.75 43.75 0 0 1 5.83 4.11c.86.65.63 2.26-.59 2.26a18.62 18.62 0 0 1-2.58.16c-4.83 0-9.58-1.53-14.42-1.7-3-.26-6.06-.35-9.1-.35s-6 .09-9 .15a8.06 8.06 0 0 1-3 .73c-4.76.34-9.56.42-14.37.42s-9.89-.09-14.84-.09h-5.76a5.39 5.39 0 0 1-2.38-.46 16.4 16.4 0 0 1-4.9.82H58.07c-2.93 0-6 0-9-.16a12.68 12.68 0 0 1-5.51-1.5c-6.51.59-13 1.52-19.5 2.2a4.52 4.52 0 0 1-.74.06 1.31 1.31 0 0 1-1.32-.75c-.81.08-1.62.1-2.44.1-2.16 0-4.3-.18-6.45-.18a24.52 24.52 0 0 0-3.2.18C8 64.88 6 65 4.1 65H2.34c-.69 0-1.48-.79-.8-1.38a47.14 47.14 0 0 1 5.67-2.65C5.2 55.84 4.55 50.38 3.84 45a.93.93 0 0 1 .8-1.23.88.88 0 0 1 .32.07 23.84 23.84 0 0 1 4.1 2.56C13 44.13 17.54 43.27 22 42.68c.65-1.7 1.15-3.93 2.68-5 1.72.61 2.34 2.74 3.36 4.15a31.69 31.69 0 0 1 8.88-1.41 20.62 20.62 0 0 1 4.56.5 17 17 0 0 0-5.8-5.73A15.8 15.8 0 0 1 28 24c-.44-3.47.56-7.4 3.44-9.61A7.22 7.22 0 0 1 36 12.84a7 7 0 0 1 5.72 2.74 2.83 2.83 0 0 1-1.92 4.51 2.28 2.28 0 0 1-1.37-.5 2.89 2.89 0 0 0-2.47-1.38 2.23 2.23 0 0 0-2.1 1.29C31.92 23.17 34 27.58 37 30c1.83 1.56 4 2.64 5.67 4.44-.1-8.85 0-17.75 1.57-26.49a.9.9 0 0 1 .9-.72.89.89 0 0 1 .66.3 43.57 43.57 0 0 1 4.28 5.73c4.81-1.83 10-2.1 15.11-2.42a18.41 18.41 0 0 1 3-5.91.94.94 0 0 1 .63-.28c.67 0 1.17 1 1.44 1.58a75.72 75.72 0 0 1 4.43 12.29A58 58 0 0 1 81.07 3.4c.45-.53.83-1.67 1.58-1.67a.92.92 0 0 1 .43.11c1.28 1.49 1.79 3.47 2.55 5.25 2.52-.25 5.05-.36 7.58-.36 2.68 0 5.35.12 8 .32A27.06 27.06 0 0 1 105 1.33a1 1 0 0 1 .39-.07m15.09 27.8c1.5-2.63 3.36-5.16 6.51-5.79l.61-.51a2.62 2.62 0 0 1-.65.32c-2.82.9-6.12 2.63-6.46 5.92v.06M105.43 0a2.24 2.24 0 0 0-.81.15l-.3.11-.21.23a27 27 0 0 0-3.61 5.25c-2.56-.18-5-.27-7.28-.27s-4.61.1-6.77.28c-.06-.16-.13-.32-.18-.49A13.86 13.86 0 0 0 84.05 1l-.17-.2-.23-.08a2.31 2.31 0 0 0-1-.25 2.82 2.82 0 0 0-2.27 1.7 3 3 0 0 1-.27.42l-.06.07v.09a55.69 55.69 0 0 0-5.27 11.41 67.22 67.22 0 0 0-3.3-8.45c-.29-.65-1-2.32-2.58-2.32a2.21 2.21 0 0 0-1.51.61l-.11.09-.08.12a20.55 20.55 0 0 0-3 5.45c-4.56.29-9.24.61-13.67 2.11v-.06a37.54 37.54 0 0 0-3.81-5A2.08 2.08 0 0 0 45.13 6 2.15 2.15 0 0 0 43 7.73c-.38 2.11-.67 4.24-.9 6.36a8.71 8.71 0 0 0-11.43-.7c-3.54 2.73-4.34 7.34-3.9 10.75A17 17 0 0 0 35 36.32a18 18 0 0 1 3.66 3c-.57 0-1.14-.06-1.73-.06a32 32 0 0 0-8.32 1.2l-.27-.49c-.73-1.31-1.55-2.79-3.22-3.39l-.6-.22-.53.36c-1.6 1.07-2.25 3-2.82 4.6l-.09.26a35.53 35.53 0 0 0-11.93 3.4L9 44.79a18.74 18.74 0 0 0-3.48-2.08 2 2 0 0 0-.81-.17 2.1 2.1 0 0 0-1.71.88 2.25 2.25 0 0 0-.36 1.86l.09.72a70.31 70.31 0 0 0 2.86 14.23 38.39 38.39 0 0 0-4.72 2.26l-.1.06-.09.07a1.88 1.88 0 0 0-.56 2.1 2.39 2.39 0 0 0 2.2 1.48H4.1c2 0 4-.1 5.89-.2h.09a23.73 23.73 0 0 1 3-.17c1 0 2.12 0 3.17.09s2.17.09 3.28.09c.65 0 1.26 0 1.83-.05a2.78 2.78 0 0 0 2 .68 5.46 5.46 0 0 0 .9-.07c2.74-.29 5.52-.62 8.21-.95 3.55-.43 7.23-.87 10.85-1.21a14.11 14.11 0 0 0 5.7 1.47c2.59.11 5.37.16 9 .16h12.22a19.12 19.12 0 0 0 4.76-.7 7 7 0 0 0 2.43.43 4.35 4.35 0 0 0 .51 0h20.09c5.83 0 10.29-.13 14.45-.43a9.16 9.16 0 0 0 3.17-.73h1.25c2.46 0 5-.11 7.51-.11 3.45 0 6.31.11 9 .34h.07a52.08 52.08 0 0 1 6.65.83 46.91 46.91 0 0 0 7.82.87 19.93 19.93 0 0 0 2.67-.16 2.29 2.29 0 0 0 2.13-1.59 2.66 2.66 0 0 0-.84-2.91 43.8 43.8 0 0 0-5.23-3.76c.55-3.16.95-6.3 1.19-9.35a79.72 79.72 0 0 0 4-13.05c.45-1.86.93-3.78 1.45-5.64l.11-.41-.16-.4a2.87 2.87 0 0 0-2.85-1.85 10.46 10.46 0 0 0-3.1.69c-.31.11-.6.21-.87.28a44.34 44.34 0 0 0-8.07-6c0-.3 0-.66.06-1 .12-1.51.3-3.79-1.8-4.61l-.36-.15-.38.09a17.81 17.81 0 0 0-5.53 2.4 5.26 5.26 0 0 0-.38-1.61A4 4 0 0 0 126.3 15h-.07a12.6 12.6 0 0 0-8.63 4.13 15.18 15.18 0 0 0-3.27 5.54A82.55 82.55 0 0 0 108.26 3l-.05-.1-.06-.09a3.77 3.77 0 0 1-.28-.57c-.34-.87-.95-2.24-2.44-2.24zM41.37 31.65c-.45-.34-.91-.65-1.36-1a27.27 27.27 0 0 1-2.2-1.63c-2.61-2.13-4.43-5.89-2.83-8.94a1 1 0 0 1 1-.57 1.63 1.63 0 0 1 1.39.76l.13.21.19.15a3.57 3.57 0 0 0 2.13.76 3.48 3.48 0 0 0 1.8-.54c-.18 3.72-.22 7.37-.2 10.82z" fill="#fff"/><path d="M122.24 27.74a13.51 13.51 0 0 0 9.14 4.69c-.06.11-.2.33-.26.43h.07c.86.32 1.67.77 2.55 1a3.32 3.32 0 0 0-2.41-1.22l.09-.24a12.12 12.12 0 0 0 6.5-.73 1.41 1.41 0 0 1 2 1.57c-.32 4.47 3.2 8.58 7.48 9.53-.79 2.62-2.52 5-3 7.62-.17.24-.32.49-.48.73a25 25 0 0 0-3.92 8.73c-.29 2 2.12 2.59 3.66 2.75 1.64.44 2.24-1.56 3.66-1.91a29.06 29.06 0 0 1 3.68 2.9c-5.89 1-11.58-1.63-17.26-2.75a111.63 111.63 0 0 0-16.56-.09c-3.73.57-7.44 1.81-11.27 1.24 1-1.05 1.83-2.19 2.84-3.19 1.26-.94.78-2.74.37-4a41.48 41.48 0 0 0-3.12-6.39c-1.94-2.74-5.41-4-7.2-6.9 3.1-.72 6.25.36 8.88 2 2.45 2.12 5.6.27 8.17-.62v.49c-.21 1.66-.78 3.57.15 5.1-.11 1.38 1.9 1.83 2.61.75a20.27 20.27 0 0 0 4.35-7.2c2.43-3.15-2-5.5-2.4-8.54.44-1.96 1.02-3.87 1.68-5.75zm14.68 4.33c.5 1.71-.37 4.4-2.69 3.58A2.36 2.36 0 0 0 136 36c.2.43.2 1.07.73 1.24a2.46 2.46 0 0 1 2.19-3.56 4.19 4.19 0 0 1-2-1.61zm-6.44 2.31a5.45 5.45 0 0 0 2.82.43 4.55 4.55 0 0 0-2.82-.43zm8.83 2.84c.43.6.85 1.37 1.58 1.62-.35-.66-.78-1.49-1.58-1.62zm-5.92.42c-1.59 1 .88 3.26 2.05 2 .58-1.13-1-2.46-2.05-2zm5.39.34a6.51 6.51 0 0 0 1.22 2.08c-.1-.76-.41-1.82-1.18-2.08z" fill="#fff"/><path d="M116.82 42.36a4.06 4.06 0 0 1 4.3.94c.07.15.15.3.23.45-.56.59-1 1.28-1.51 1.91-.81.34-1.55 1.66-2.5.9-.86-1.21-.34-2.82-.52-4.2z" fill="#fff"/><path d="M127 23.38c2.66-2.26 5.69-4.51 9.17-5.3 1.84.72.68 3.62 1 5.25a42.59 42.59 0 0 1 8.91 6.54c1.79-.29 5.1-2.28 6 0-1.76 6.26-2.84 12.73-5.5 18.72a98.85 98.85 0 0 1-1.35 10.29 43.75 43.75 0 0 1 5.88 4.12c.85.65.63 2.26-.6 2.26-5.72.75-11.3-1.35-17-1.54-8.75-.76-17.5 0-26.26-.13-.84 0-2.51-.08-2.22-1.31.93-1.26 2-2.39 3.06-3.6-.56-1.63-1.3-3.19-2-4.78a25.09 25.09 0 0 1-8.85.45C91.84 53 85.8 49.39 85 43.33c-1-5.88.65-12.63 5.49-16.43a11.72 11.72 0 0 1 9.59-2.31c2.42.52 3.3 3.9 1.7 5.68-1.62 2.22-4.55 1-6.74 1.83-4.92 1.5-6 7.79-4.18 12 2.39 4.53 8.13 5.53 12.79 4.93-1-2.31-3.49-3.43-4.79-5.56-.59-.77-1.64-2-.74-2.88a17 17 0 0 1 5.84-1c5-3.29 10.41-6.07 15.72-8.91 1.65-3.05 3.57-6.55 7.32-7.3zm4.7-2.72a15.83 15.83 0 0 0-4.18 3.1c-2 .68-4.24 1.52-5.15 3.6a2 2 0 0 0-.35.41c-.58.94-1.23 1.83-1.72 2.82-.31.85-1.32 1-2 1.44a28.36 28.36 0 0 1-2.72 1.45l-.72.35c-.88.55-1.82 1-2.7 1.53a4.61 4.61 0 0 0-1 .54c-.84.44-1.63 1-2.51 1.37-.29.16-.58.32-.86.49a27.63 27.63 0 0 1-2.39 1.45 5.29 5.29 0 0 0-1.36.93c-1.79.22-5.29-.36-5.82 1.62 1.51 2.94 4.79 4.45 6.1 7.47-1.25.55-2.73.33-4.07.43-.94-.07-1.87-.2-2.8-.31a10.24 10.24 0 0 1-7.63-5.89c-.69-3.07-.8-6.57 1.13-9.24a7.52 7.52 0 0 1 7-3.08 3.65 3.65 0 0 0 3.76-2.32 3 3 0 0 0-2.13-3.85 11.72 11.72 0 0 0-11.64 5.2A18 18 0 0 0 86 45c1.58 4.39 5.93 7 10.14 8.37 3.36 1 7.07.52 10.41-.09.74 1.83 1.62 3.6 2.21 5.49-1 1-1.88 2.14-2.84 3.19-.84 1.55 2.49.87 3.5 1 9.38-.16 18.82-.44 28.18.38 4.35.9 8.95 2 13.4 1.18a1 1 0 0 0 0-.95 26.52 26.52 0 0 0-3.72-2.87h.07a8.4 8.4 0 0 1-1.79-1.09l-.41-.17h.08c-1-.23-.27-1.38-.22-2a84.87 84.87 0 0 0 1.11-9 54.47 54.47 0 0 0 2-5.38c1.31-3.72 1.75-7.64 3-11.37 0-.71.93-1.95 0-2.33a15.86 15.86 0 0 0-5.08 1.21c-1.14-1-2.23-2-3.44-2.91-.82-.6-1.6-1.22-2.42-1.82a23.28 23.28 0 0 0-3.54-2.08c0-1.67 0-3.34-.12-5-1.75 0-3.36 1.11-4.82 2z" fill="#060606"/><path d="M131.12 26.07c3-.14 4.35 3.37 3.93 5.92l-.42-.21c-1.37.17-3.1.23-4-1a3.62 3.62 0 0 1 .62-4.18zm-.21 4.32c.76 1.33 2.61 1.42 3.92 1a6.9 6.9 0 0 0-.74-3.2c-.26 1-1.53 1.13-2.33 1.58.24-.91.05-2.46 1.15-2.76-.34-.16-.68-.33-1-.48a3.37 3.37 0 0 0-1 3.86zm.28 2.48l.14-.2a3.31 3.31 0 0 1 2.41 1.21c-.88-.24-1.69-.7-2.55-1.01zm9.27 1.61c2-1.53 5.35-.54 5.64 2.14h-.49c-1.41 2.43-6 .75-4.75-2.11zm.69 1.84a2.49 2.49 0 0 0 4.27-.17 2.42 2.42 0 0 0-1.94-1.95v.62c-.48.47-.83 1.21-1.53 1.35a11 11 0 0 1 .08-2c-1.2-.12-1.19 1.35-.88 2.15zm-10.67-1.94a4.55 4.55 0 0 1 2.82.43 5.45 5.45 0 0 1-2.82-.43zm8.83 2.84c.8.13 1.23 1 1.58 1.62-.73-.26-1.15-1.02-1.58-1.62zm-23.56 6.12a14.19 14.19 0 0 1 2.14-5.51c-.23 1.08-.84 2-1.13 3.11-.15.53-.26 1.08-.39 1.61-.25 1.75-.79 3.91.23 5.47 1.38.19 2.38-1.43 3.24-2.36.51-.63 1-1.32 1.51-1.92l-.23-.44a1 1 0 0 1 .54.33c-1.56 1.79-2.91 5.55-5.77 4.81-.89-1.52-.35-3.44-.14-5.1zM138.78 38c.77.26 1.08 1.32 1.17 2.08a6.79 6.79 0 0 1-1.17-2.08z" fill="#060606"/><path d="M133.51 29.26h.71a.76.76 0 0 1-.47 1.29l-.42-.42a1.48 1.48 0 0 1 .18-.87zM144 35.07c.74-.24 1 1.13.32 1.25s-.77-.95-.32-1.25z" fill="#eaf5c2"/><path d="M130.91 30.39a3.37 3.37 0 0 1 1-3.88c.35.15.69.32 1 .48-1.1.3-.91 1.85-1.16 2.76.8-.45 2.07-.57 2.34-1.58a7 7 0 0 1 .74 3.2c-1.32.44-3.16.35-3.92-.98zm2.61-1.12a1.39 1.39 0 0 0-.18.89l.42.42a.76.76 0 0 0 .47-1.28zm7.63 7.05c-.31-.79-.32-2.26.9-2.14a12 12 0 0 0-.07 2c.7-.14 1.05-.88 1.53-1.35v-.62a2.42 2.42 0 0 1 1.94 1.95 2.5 2.5 0 0 1-4.3.16zm2.85-1.25c-.43.3-.37 1.41.32 1.25s.42-1.49-.32-1.25z" fill="#c0d9a2"/><path d="M122.05 27.78h.18a94.31 94.31 0 0 0-1.78 5.71 5.89 5.89 0 0 1-.13-.71 7 7 0 0 1 0-2.14c.5-1.03 1.15-1.92 1.73-2.86zm11.34 9.85c1.05-.41 2.63.92 2.05 2-1.17 1.26-3.64-.95-2.05-2zm-35.05 4.22l.41-.32c1.79 2.87 5.25 4.16 7.2 6.9a43.39 43.39 0 0 1 3.14 6.38c.4 1.26.9 3.07-.37 4-.58-1.89-1.47-3.66-2.21-5.49-.75-1.3-1.37-2.67-2.07-4-1.31-3.01-4.58-4.52-6.1-7.47zm24.28.44l.24-.29a20.14 20.14 0 0 1-4.35 7.19c-.72 1.08-2.72.63-2.61-.75 2.85.74 4.21-3 5.76-4.8.34-.45.6-.93.96-1.35z" fill="#cabfcd"/><path d="M116.6 48c-1-1.56-.48-3.72-.23-5.48l.45-.19c.21 1.38-.34 3 .52 4.2 1 .76 1.69-.56 2.5-.9-.84.97-1.84 2.59-3.24 2.37zm30.78-5.2h.09l.64.19a54.47 54.47 0 0 1-2 5.38c-.58.68-1.19 1.34-1.76 2 .51-2.62 2.24-4.94 3.03-7.57zm-30.24 17.97a111.63 111.63 0 0 1 16.56.09c5.69 1.12 11.37 3.77 17.26 2.75a.9.9 0 0 1 0 1c-4.45.8-9.05-.29-13.4-1.18-2.22-1-4.42-2.24-6.91-2.18-5-.21-10.13-.54-15.11.26a35.26 35.26 0 0 1-6.15 1.49c-1-.12-4.34.56-3.5-1 3.81.58 7.52-.66 11.25-1.23z" fill="#cabfcd"/><path d="M136.92 32.07a4.17 4.17 0 0 0 2 1.64 2.46 2.46 0 0 0-2.19 3.56c-.54-.17-.54-.81-.73-1.24a2.36 2.36 0 0 1-1.76-.38c2.31.82 3.18-1.87 2.68-3.58z" fill="#dd7f7f"/><path d="M131.73 20.66c1.46-.88 3.07-2 4.83-2 .12 1.67.14 3.34.12 5a23.78 23.78 0 0 1 3.54 2.08c-.78.92-1.75 2.68-.47 3.58s2.61-.5 2.87-1.73c1.22.88 2.31 1.92 3.44 2.91a15.93 15.93 0 0 1 5.08-1.22c.94.38 0 1.61 0 2.34 0-.09 0-.28-.07-.38-2.27 3.51-2.23 7.73-3.61 11.56h-.08c-4.28-.95-7.81-5.06-7.49-9.53a1.4 1.4 0 0 0-2-1.56 12.19 12.19 0 0 1-6.49.73l-.1.24-.13.2h-.08l.27-.43a13.53 13.53 0 0 1-9.15-4.69h-.18a2.3 2.3 0 0 1 .35-.41 27.57 27.57 0 0 1 4.89-2.29c2.11-.72 2.84-3.06 4.46-4.4zm5.63 4.4c-.66.4-.91 1.67-.09 2 1.39.36 1.63-2.57.09-2zm-10.43.55c-1.05 1 1.2 3.4 2.21 2.21a2.3 2.3 0 0 0-2.21-2.21zm4.19.46l.14.5a3.58 3.58 0 0 0-.61 4.17c.88 1.26 2.61 1.21 4 1l.42.21c.42-2.56-.87-6.06-3.93-5.92zm-5.69 1.47c-1.57 1.4 2.46 3.82 2.85 1.75a3.07 3.07 0 0 0-2.85-1.75zm17.62 2a.75.75 0 1 0 .53 1.39c1.13-.25.54-2.05-.52-1.39zm-2.6 5l.4.06c-1.2 2.87 3.34 4.55 4.76 2.11h.48c-.28-2.68-3.64-3.67-5.63-2.14zm5.72 3.36c-1.79.87 1.18 2.46 1.86 1.19.42-1-1.12-1.43-1.85-1.19zm-1.32 1.57c-1.51 1.26 2.51 3.21 2.21 1.08-.58-.57-1.34-1.28-2.21-1.08zm-26.09-5.82c.54-.25 1.28-.3 1.57-.9a5.89 5.89 0 0 0 .13.71c.45 3 4.83 5.39 2.4 8.55l-.24.29-.13-.14-.43.42a4.16 4.16 0 0 0-5.3-1.63c.29-1.06.9-2 1.13-3.1a14.14 14.14 0 0 0-2.14 5.5v-.47c-2.58.9-5.72 2.74-8.18.62-2.63-1.61-5.78-2.69-8.87-2l-.41.32c.54-2 4-1.39 5.82-1.62a2.44 2.44 0 0 0 1.69-.34c.46.81 1.44 1.71 2.43 1.23.67-.69.21-1.74-.12-2.49l1-.41c.53.76 1.35 1.75 2.4 1.37.87-.58.42-1.79.09-2.58.31-.17.61-.32.93-.47.54.81 1.36 1.84 2.48 1.48.9-.61.56-1.87.25-2.73l.9-.47c1.14 1.63 3.38.88 2.6-1.14zm-.14 5.07a.67.67 0 1 0 0 1.34c1.43.1 2.7 1.35 4.09 1.06.35-2.07-2.48-2.9-4.09-2.4zM97.57 49.45c.93.11 1.86.24 2.8.31.67.79 1.73 1.55 1.63 2.7a14.13 14.13 0 0 1-5-.34 6 6 0 0 0 .57-2.67zm46.28 1.71c.21 2.21-.24 4.45-.11 6.68-.72.47-1.75 1.29-1.27 2.24.92.59 1.7-.69 2.65-.65l.4.17c-1 .7-2.39 1.58-1.93 3-1.54-.15-4-.7-3.66-2.75a24.61 24.61 0 0 1 3.92-8.69z" fill="#756d56"/><path d="M127.55 23.76a16.05 16.05 0 0 1 4.18-3.1c-1.62 1.35-2.34 3.68-4.44 4.42a27.24 27.24 0 0 0-4.89 2.29c.91-2.09 3.15-2.91 5.15-3.61zM118.32 32c.69-.43 1.69-.59 2-1.43a7 7 0 0 0 0 2.14c-.29.6-1 .66-1.56.89l-.1.06c-.12-.51-.24-1.06-.34-1.66zm29.15 10.83c1.38-3.84 1.33-8.06 3.61-11.56 0 .09 0 .28.07.38-1.29 3.72-1.73 7.64-3 11.36zm-32.57-8.95l.72-.35q.34.63.72 1.26h-.09l-.9.47-.09-.23a8.16 8.16 0 0 1-.36-1.15zM111.24 36a4.88 4.88 0 0 1 1-.54c.13.38.26.75.41 1.13-.32.15-.62.31-.93.47a9.91 9.91 0 0 0-.48-1.06zm-3.35 1.83l.85-.49a9.17 9.17 0 0 0 .46.88l-1 .41c-.13-.26-.2-.53-.31-.8zm-3.73 2.41a5.29 5.29 0 0 1 1.36-.93c.1.19.21.39.33.58a2.44 2.44 0 0 1-1.69.35zm40.16 10.18c.57-.68 1.18-1.34 1.76-2a84.55 84.55 0 0 1-1.11 9 10.69 10.69 0 0 0-1.23.46c-.14-2.23.31-4.47.11-6.68.15-.28.3-.54.47-.78zm-39.88-1.09c.7 1.33 1.32 2.7 2.07 4-3.34.61-7.05 1.05-10.42.08a6 6 0 0 0 .91-1.29 13.68 13.68 0 0 0 5 .34c.1-1.15-1-1.91-1.63-2.69 1.34-.11 2.82.11 4.07-.44zm11.09 12.13c5-.79 10.09-.47 15.11-.26 2.49-.06 4.69 1.22 6.91 2.18-9.35-.82-18.8-.54-28.18-.38a35.36 35.36 0 0 0 6.16-1.54z" fill="#5d5246"/><path d="M88.07 30.27a11.71 11.71 0 0 1 11.65-5.2 3 3 0 0 1 2.13 3.85c-1.54 1.67-3.86.06-5.74.7-6.3.65-8.86 8.86-6.16 13.94a10.24 10.24 0 0 0 7.62 5.89 5.61 5.61 0 0 1-1.48 4c-4.21-1.41-8.56-4-10.14-8.36a18.06 18.06 0 0 1 2.12-14.82zm49.29-5.21c1.54-.57 1.3 2.36-.09 2-.82-.33-.57-1.6.09-2zm-10.43.55a2.3 2.3 0 0 1 2.21 2.21c-1.01 1.18-3.27-1.19-2.21-2.21zm13.29.16c.81.6 1.6 1.22 2.41 1.82-.26 1.23-1.57 2.51-2.87 1.73s-.32-2.63.46-3.55z" fill="#2f2b22"/><path d="M125.43 27.54a3.07 3.07 0 0 1 2.85 1.75c-.39 2.07-4.42-.35-2.85-1.75zm17.63 1.98c1.06-.66 1.65 1.14.52 1.39a.74.74 0 1 1-.52-1.39zm-24.4 4.18l.1-.05c.78 2-1.46 2.77-2.51 1.18h.09a4.92 4.92 0 0 0 2.32-1.13zm-3.4 1.37l.09.22c.31.86.65 2.12-.25 2.73-1.12.36-1.94-.67-2.48-1.48.92-.36 2.14-.54 2.64-1.47zm-6.52 2.25c.87-.38 1.66-.93 2.5-1.37a9.91 9.91 0 0 1 .45 1.06c.33.78.78 2-.09 2.59-1 .38-1.87-.61-2.4-1.38-.16-.28-.31-.58-.45-.88zm-3.24 1.96a27.63 27.63 0 0 0 2.39-1.45c.08.27.16.54.26.8.33.76.8 1.8.12 2.49-1 .48-2-.42-2.43-1.23-.12-.19-.22-.39-.33-.58zm40.68-1.44c.73-.24 2.27.17 1.86 1.19-.69 1.26-3.66-.32-1.86-1.19zm-27.56.88c1.62-.5 4.44.33 4 2.4-1.39.29-2.66-1-4.09-1.06a.67.67 0 1 1 .09-1.34z" fill="#2f2b22"/><path d="M144.85 39.41c.87-.2 1.63.52 2.21 1.08.3 2.13-3.71.17-2.21-1.08zm-28.09 1.53a4.16 4.16 0 0 1 5.3 1.63l.43-.42.13.14c-.36.42-.63.9-1 1.35a1.07 1.07 0 0 0-.54-.34 4.07 4.07 0 0 0-4.3-.94l-.44.19c.16-.55.27-1.08.42-1.61zm26.98 16.9a10.69 10.69 0 0 1 1.23-.46c-.05.66-.73 1.81.22 2h-.08c-1 0-1.73 1.24-2.64.65-.47-.9.53-1.72 1.27-2.19zm1.78 1.76a8.47 8.47 0 0 0 1.8 1.09h-.08c-1.42.35-2 2.33-3.66 1.9-.46-1.41.94-2.29 1.94-2.99z" fill="#2f2b22"/><path d="M96.11 29.62c1.88-.64 4.2 1 5.74-.7a3.65 3.65 0 0 1-3.77 2.31 7.52 7.52 0 0 0-7 3.09c-1.94 2.67-1.82 6.16-1.13 9.24-2.7-5.08-.14-13.29 6.16-13.94zm19.49 3.88a28.45 28.45 0 0 0 2.72-1.5c.1.56.22 1.11.34 1.66a5 5 0 0 1-2.33 1.08q-.37-.62-.72-1.26zm-3.39 1.91c.87-.55 1.82-1 2.7-1.53a7.09 7.09 0 0 0 .36 1.19c-.5 1-1.72 1.11-2.65 1.47a37.6 37.6 0 0 1-.41-1.13z" fill="#25201c"/><path d="M16 47.45c-.32-1.4 2.29-2 2.52-.54.68 2.21 1.79 4.69 4.14 5.52a7.47 7.47 0 0 0 7.72-2.38 10.75 10.75 0 0 1-.18 6.68c-2.25 1.86-4.47 3.76-6.53 5.82a47.08 47.08 0 0 1-11.92 0c-2.88-.38-4.18-3.59-4.19-6.1 2.61 1.14 6.05.71 7.79-1.71 1.56-2.04 1.05-4.89.65-7.29zm1.84 5.8c.42.44 1.08.42 1.63.54.3.83.59 1.66.93 2.48a2.85 2.85 0 0 0-1.25 1.08 11.18 11.18 0 0 1 3.27-1.23 7.65 7.65 0 0 0-1.79.06c-.2-.83-.52-1.63-.78-2.44a2.82 2.82 0 0 0 .62-1.4 2.1 2.1 0 0 1-2.67.91zm4.61.91a14 14 0 0 0 2.78-.86 3.43 3.43 0 0 0-2.78.86zm.33 1.12a12.09 12.09 0 0 0 2.82 0c-.89-.14-2.08-.59-2.82 0zm-8.68 1.29a9 9 0 0 0 2.86-.88 4.12 4.12 0 0 0-2.9.88zm1.09 2a6.49 6.49 0 0 0 2.11-1.75c-1 .12-1.6 1.11-2.15 1.8zm5.77-1c-.76.12-1.33 1.12-.69 1.71.91.5 2.77-.07 2.42-1.35-.31-.66-1.16-.55-1.73-.36zm2.15 6.3c1.27-1.51 2.74-2.84 4.14-4.22 1.84 2.85 5.75 1 8.35 2.21a38.07 38.07 0 0 1-12.49 2.01zM4.6 62.72a2.27 2.27 0 0 1 2.3 1 39.28 39.28 0 0 1-4.85.28c.84-.47 1.68-.9 2.55-1.28z" fill="#fff"/><path d="M22 42.8c.65-1.71 1.14-3.93 2.68-5C26.4 38.45 27 40.59 28 42c6-1.77 12.86-2.34 18.39 1.11 8 2.52 11.56 12 20.12 13.29 2.78.77 6.48-1.41 5.22-4.62-1.31-2.91 3.15-5.11 4.6-2.28 1.92 3.54-.17 8.16-3.51 10-3.64 2-8.06 1.28-11.78-.12-3.83-1.71-6.65-4.93-9.57-7.84.69 3 1.38 5.88 3.09 8.42.8.93.92 2.91-.78 2.71-10 .11-19.8 1.72-29.69 2.76-.74.11-1.76.18-2.1-.67-4 .36-8.07-.41-12.08.1-2.52.14-5.07.25-7.59.17-.7 0-1.53-.78-.84-1.38A48.93 48.93 0 0 1 7.2 61c-1.99-5-2.64-10.51-3.34-15.86-.23-.68.4-1.47 1.12-1.16a23.56 23.56 0 0 1 4.1 2.55C13 44.24 17.56 43.38 22 42.8zm-6 4.65c.44 2.4.95 5.25-.66 7.34-1.74 2.42-5.18 2.86-7.8 1.72a4.73 4.73 0 0 1-1.37-.72c.72 3.18 1.62 7.36 5.36 8.17a65.61 65.61 0 0 0 10.68.32 20.63 20.63 0 0 1 1.44-1.66c2.05-2.07 4.28-4 6.52-5.83.65-.47 1.22-1 1.85-1.5a9.18 9.18 0 0 0-1.13-6.14 6 6 0 0 1-.54 1 7.46 7.46 0 0 1-7.72 2.39c-2.35-.83-3.46-3.32-4.13-5.53-.25-1.53-2.86-.96-2.5.44zm7.94.81c.94.23.45 1.4.54 2.08-.67-.28-1.8-.45-1.66-1.4a11.7 11.7 0 0 0-1.29 1.25 2.35 2.35 0 0 0 3.46 1c1-.92.64-2.44.39-3.62a4.48 4.48 0 0 0-1.44.7zm-10.7 3.56c.71.58.16 1.45-.19 2.08a7.69 7.69 0 0 1-1.34-1.27c.09-.27.19-.54.29-.8-.74.16-2.47-.1-1.65 1.12C11 55.68 15.5 55 14.72 52a7.41 7.41 0 0 0-1.48-.18zm9.87 12c-.3.31-.84 1.06 0 1.1 4.62-.33 9.23-1 13.83-1.59a2.78 2.78 0 0 0-1.31-1.51c-2.61-1.27-6.52.63-8.35-2.22-1.4 1.39-2.87 2.72-4.14 4.23zm-18.52-1.1c-.87.38-1.71.81-2.54 1.25l-.28.36c3.08.5 6.27 0 9.38-.06a10.58 10.58 0 0 1-2.27-1.22 3.73 3.73 0 0 1-3.23-.8l-1.05.47z" fill="#060606"/><path d="M22.41 54.16a3.43 3.43 0 0 1 2.78-.86 14.42 14.42 0 0 1-2.78.86zm-8.35 2.41a4.17 4.17 0 0 1 2.86-.88 9 9 0 0 1-2.86.88zm1.09 2.05c.54-.7 1.15-1.68 2.11-1.75a6.62 6.62 0 0 1-2.11 1.75z" fill="#060606"/><path d="M23.9 48.26a4.63 4.63 0 0 1 1.45-.7c.24 1.18.63 2.7-.39 3.62a2.35 2.35 0 0 1-3.46-1 11.7 11.7 0 0 1 1.29-1.25c-.14 1 1 1.12 1.65 1.4-.09-.67.4-1.84-.54-2.07zm-10.66 3.56a7.41 7.41 0 0 1 1.48.19c.78 3-3.76 3.67-4.37.94-.82-1.22.91-1 1.65-1.12-.1.26-.2.54-.29.8a7.69 7.69 0 0 0 1.34 1.27c.35-.63.95-1.5.19-2.08zm.66.53a1.27 1.27 0 0 0 0 .88h.59a4.51 4.51 0 0 0 0-.9z" fill="#c0d9a2"/><path d="M30.87 49.09A9.18 9.18 0 0 1 32 55.23c-.63.48-1.21 1-1.85 1.5a10.61 10.61 0 0 0 .18-6.68 8.17 8.17 0 0 0 .54-.96zM6.15 55.75a4.73 4.73 0 0 0 1.37.72c0 2.5 1.32 5.71 4.2 6.1a47.08 47.08 0 0 0 11.92 0c-.49.54-1 1.08-1.44 1.66a63.5 63.5 0 0 1-10.68-.32c-3.75-.79-4.65-4.98-5.37-8.16zm14.77 1.82c.57-.19 1.42-.3 1.73.36.36 1.28-1.51 1.85-2.42 1.35-.64-.59-.07-1.59.69-1.71zm14.68 4.29a2.76 2.76 0 0 1 1.3 1.51c-4.6.63-9.2 1.25-13.83 1.63-.81 0-.27-.79 0-1.09a37.81 37.81 0 0 0 12.53-2.05z" fill="#cabfcd"/><path d="M4.6 62.72l1.06-.48a3.74 3.74 0 0 0 3.23.81 10.58 10.58 0 0 0 2.27 1.22c-3.11.08-6.29.55-9.38.06.07-.09.21-.27.27-.36a41.51 41.51 0 0 0 4.86-.23 2.3 2.3 0 0 0-2.31-1.02z" fill="#cabfcd"/><path d="M17.8 53.25a2.08 2.08 0 0 0 2.62-.9 2.83 2.83 0 0 1-.62 1.39c.26.82.58 1.61.78 2.45a7.23 7.23 0 0 1 1.8-.07 11.25 11.25 0 0 0-3.27 1.23 2.89 2.89 0 0 1 1.24-1.08c-.33-.82-.62-1.65-.93-2.48-.54-.12-1.21-.1-1.62-.54z" fill="#dd7f7f"/><path d="M22.74 55.28c.74-.59 1.93-.14 2.81 0a12 12 0 0 1-2.81 0z" fill="#25201c"/><path d="M13.9 52.35h.56a4.51 4.51 0 0 1 0 .9h-.59a1.24 1.24 0 0 1 .03-.9z" fill="#f5f4f4"/><path d="M54.79 12.59c1.89-.34 3.79-.58 5.7-.78H61a15.6 15.6 0 0 0 2.56 4.13c-3.18-.9-4.8 4.24-1.69 5.26a2.83 2.83 0 1 0 4.65-3.07 14.09 14.09 0 0 0 6.67 1.06c1.21 5.52 2.74 11 3.35 16.65-4.36 7.5-3.8 16.63-3 24.94 0 .29.07.57.1.86a22.53 22.53 0 0 1-3.25.47c0-3.54.2-7.08 0-10.61-.07-.52-.39 0-.34.25-.06.64-.25 1.26-.36 1.89l-.15.21c-1 2.56-1.54 5.31-2.61 7.85-.37.93-1.72.63-1.94-.25-.73-2.86-.72-5.86-1.29-8.75l-.12-.16v-.59a33.17 33.17 0 0 0-.17 5c-.19 1.72.14 3.43.11 5.15-1.16 0-2.32.11-3.49.14-.42-2.75-.68-5.51-.89-8.27a8.27 8.27 0 0 0-.27-1.86c0 .61 0 1.22-.05 1.84l-.06.13c-.63 2.52-.13 5.19-.28 7.77-.17 1.08-1.77.74-2.28.09-1.77-2.42-2.37-5.47-3.66-8.08v-.35h-.14a1.09 1.09 0 0 0-.15-.61c-.07-.28-.12-.55-.21-.82a3.38 3.38 0 0 0-.24-.41c-.15 3.6.62 7.17 1.22 10.7a15.81 15.81 0 0 1-3.23-.37c0-.3-.08-.59-.11-.89-.35-7.11.61-15.51-4.62-21.11l-.15-.14c-.07-5.87-.67-11.73-.67-17.61a9.63 9.63 0 0 0 6.61-2.11 2.85 2.85 0 0 0 1.86 4.13A2.81 2.81 0 0 0 56.09 21a2.86 2.86 0 0 0-3.94-2.08 13.86 13.86 0 0 0 2.64-6.33zm3.15 10.8a2.5 2.5 0 0 1 .07.26 1.85 1.85 0 0 0-1.84 2.59 2 2 0 0 0 3.48-.24c.5 1.1-.37 1.76-.76 2.66a2 2 0 0 1 2.69-.4c-.57-.74-1.73-1-1.51-2.18a2.41 2.41 0 0 0 2.56 0c1-1 .19-3.37-1.45-2.88-.99.33-2.01 1.54-3.24.19zm6.5 1.61a6.77 6.77 0 0 0 3.37-1.5 5.11 5.11 0 0 0-3.37 1.5zm-12.66 1.34a9.14 9.14 0 0 0 3.68-.21 4.23 4.23 0 0 0-3.68.21zM64.59 26a4.37 4.37 0 0 0 3.52.46 7.31 7.31 0 0 0-3.52-.46zm-11.8 3a4 4 0 0 0 3-2 9.11 9.11 0 0 0-3 2zm9.53 2c-1 .68-2.37.47-3.45.65-.53 2.79 5.49 1.17 3.46-.65z" fill="#fff"/><path d="M68.21 5c1-.87 1.73.52 2.08 1.31 3.63 7.64 5.4 16 7.37 24.18a92 92 0 0 1 2.4 22.87c-.11 3.12-.63 6.43-2.47 9-1.87 2-4.83 2.34-7.42 2.47-7-.08-14 .16-21-.15-2.93-.19-6.34-1.09-7.86-3.86-.89-2.3-.25-4.83.22-7.16.87-3.39.87-6.94 1-10.42a15.67 15.67 0 0 0-6.83-8A15.79 15.79 0 0 1 28 24.09c-.44-3.47.56-7.4 3.43-9.6 3-2.42 8-2 10.26 1.2 1.8 2.08-.85 5.87-3.28 4-1-1.65-3.66-2-4.57-.09-1.92 3.68.16 8.09 3.16 10.5 1.83 1.57 4 2.65 5.66 4.45-.1-8.85 0-17.75 1.58-26.49a.91.91 0 0 1 1.09-.69.86.86 0 0 1 .47.27 42.77 42.77 0 0 1 4.29 5.73c4.8-1.83 10-2.1 15.1-2.42A19 19 0 0 1 68.21 5zm-2.58 6.45c-1.7.07-3.47.18-5.13.33-1.91.2-3.81.44-5.7.78a23.16 23.16 0 0 0-5 1.46c-1.47-2.02-2.7-4.79-4.89-6.15V8c-1.16 4.56-1.2 9.42-1.67 14.11.34 0 .67 0 1 .05h-1c-.11 5.34 0 10.68-.05 16a132.67 132.67 0 0 1-.74 13.52c-.54 2.84-1.6 5.8-.79 8.68 1.46 2.89 5.06 3.64 8 3.78 2 .13 4 .12 6 .12a29.63 29.63 0 0 1-3.63-12.29c.09.27.15.54.22.82a1.18 1.18 0 0 1 .15.61h.13v.35a33.81 33.81 0 0 0 3.31 9.43c.59 1.33 2.56 1.41 3.6.71-.2-3.29-.63-6.63-.68-9.93l.06-.13V52a8.18 8.18 0 0 1 .38 2c.21 2.76.47 5.53.9 8.27a6.35 6.35 0 0 1 .06 2.13h3.87c-.7-2.4-.26-5-.56-7.41a32 32 0 0 1 .17-5v.59l.12.16c.1 3.56.3 7.11.66 10.64.29 1.64 3 1.25 3.32-.23a79.37 79.37 0 0 0 2-9.39l-.19.14.15-.21c.12-.63.3-1.26.36-1.9l.21-.11c-.54 4.26-.71 8.76-2.49 12.72a22.53 22.53 0 0 0 6.22-.54c5-1.12 5.48-7.34 5.53-11.55a90.68 90.68 0 0 0-1.66-18.25c-1-5-2.22-10-3.58-14.93l-.12-.39c-1.31-4.38-2.48-8.92-4.82-12.88a1.5 1.5 0 0 0-.41-.65 14.2 14.2 0 0 0-3.31 6.27zm-36 6.07c-3.05 5.83.1 13.14 5.26 16.64a19.24 19.24 0 0 1 7.67 7.69c0-1.11 0-2.21.07-3.32s0-2.12 0-3.18c-2.13-2.65-5.56-3.82-7.63-6.53A9.22 9.22 0 0 1 33 20a3.2 3.2 0 0 1 4.92-1.59c.62.9 1.76 1.68 2.84 1 1.69-1.16.9-3.7-.68-4.59a7 7 0 0 0-10.44 2.73z" fill="#060606"/><path d="M61.88 21.2c-1.36-2.77 2.67-5.39 4.65-3.07a2.83 2.83 0 1 1-4.65 3.07zm1.55-3.3c-2.8 1.19-.7 5.77 2 4.34 2.87-1.16.74-5.84-2-4.34z" fill="#060606"/><path d="M63.37 20.14a4.4 4.4 0 0 1 1.3-1.62c1.13.87 1.5 2.2.09 3a7.62 7.62 0 0 1-1.39-1.38zm-11.22-1.22A2.86 2.86 0 0 1 56.09 21a2.82 2.82 0 0 1-3.38 3.25 2.86 2.86 0 0 1-1.86-4.13 3.7 3.7 0 0 1 1.3-1.2zm.13.42c-2.8 1.19-.7 5.77 2 4.34 2.91-1.16.79-5.84-2-4.34z" fill="#060606"/><path d="M52.87 20a7.73 7.73 0 0 1 1.64 1.19 7.76 7.76 0 0 1-.86 1.81c-1.65-.37-1.65-1.85-.78-3zm11.57 5a5.11 5.11 0 0 1 3.37-1.5 6.77 6.77 0 0 1-3.37 1.5zm-12.66 1.34a4.24 4.24 0 0 1 3.68-.21 9.14 9.14 0 0 1-3.68.21zM64.59 26a7.31 7.31 0 0 1 3.52.46 4.36 4.36 0 0 1-3.52-.46zm-11.8 3a9.3 9.3 0 0 1 3-2 4 4 0 0 1-3 2z" fill="#060606"/><path d="M65.63 11.48a14.31 14.31 0 0 1 3.31-6.26 1.39 1.39 0 0 1 .4.65C70.55 10.1 72 14.26 73 18.56c0 .66 1.07.83 1.18.18 0 .13.08.26.13.4l-1.08.05a14.32 14.32 0 0 1-6.67-1.06c-2-2.32-6 .29-4.65 3.07-3.11-1-1.49-6.18 1.69-5.27A15.44 15.44 0 0 1 61 11.8h-.5c1.65-.14 3.42-.25 5.13-.32zM44.9 7.87c2.19 1.36 3.42 4.08 4.93 6.18a23.16 23.16 0 0 1 5-1.46 14.05 14.05 0 0 1-2.64 6.33 3.77 3.77 0 0 0-1.3 1.18 9.64 9.64 0 0 1-6.61 2.12c.18-4.71.46-9.44.66-14.16zm-15.26 9.68a7 7 0 0 1 10.42-2.77c1.58.89 2.37 3.42.68 4.59-.76-1.82-2.8-3.51-4.86-2.78A4 4 0 0 0 33 20a9.22 9.22 0 0 0 2 8.87c2.07 2.71 5.5 3.88 7.64 6.53v3.18c-2.32-3-5.86-4.59-8.62-7.1a14 14 0 0 1-4.38-13.93zm31.54 5.65c1.64-.49 2.45 1.85 1.45 2.87a2.41 2.41 0 0 1-2.56 0 2.27 2.27 0 0 1 1.11-2.87zm-5.01 3.04A1.85 1.85 0 0 1 58 23.65c.93.49 1.93 1.11 1.64 2.34a2 2 0 0 1-3.47.25zm20.38 9.6v.1a79.07 79.07 0 0 1 .84 20.32c-.16 2.24-1.28 4.65-3.61 5.28a7.57 7.57 0 0 1-.18-.76c-.85-8.31-1.41-17.44 2.95-24.94zM45.06 40c5.23 5.64 4.27 14 4.62 21.13v.91c-1.46-.38-3.23-.91-3.75-2.51-1.73-4.56-.16-9.48-.71-14.19.06-1.82-.22-3.6-.16-5.34z" fill="#bc935d"/><path d="M69.33 5.87c2.34 4 3.52 8.5 4.83 12.87-.12.65-1.24.48-1.19-.18-.97-4.3-2.43-8.46-3.64-12.69zM43.24 22.12c.48-4.69.51-9.55 1.67-14.11-.2 4.72-.48 9.45-.66 14.16-.34-.03-.67-.05-1.01-.05zm-7.36-5.53c2.06-.73 4.1 1 4.85 2.78-1.07.7-2.21-.09-2.83-1A3.22 3.22 0 0 0 33 20a4 4 0 0 1 2.88-3.41zm-6.24.96A14.07 14.07 0 0 0 34 31.46c2.76 2.52 6.3 4.1 8.62 7.1 0 1.11-.06 2.21-.07 3.32a19.24 19.24 0 0 0-7.67-7.69c-5.14-3.5-8.3-10.81-5.24-16.64zm46.92 18.39a8.09 8.09 0 0 1 1.3-1.88 91.47 91.47 0 0 1 1.65 18.25C79.46 56.52 79 62.74 74 63.86c-.11-.74-.2-1.47-.28-2.21 0-.29-.07-.58-.11-.87l.18.77c2.34-.63 3.46-3 3.62-5.29a78.62 78.62 0 0 0-.85-20.32zM43.2 38.26c.59.5 1.17 1 1.71 1.56l.15.14c-.11 1.78.22 3.55.15 5.34.55 4.71-1 9.63.71 14.19.52 1.6 2.29 2.13 3.75 2.52v2.23c-3-.13-6.55-.89-8-3.77-.82-2.88.25-5.85.79-8.69a132.66 132.66 0 0 0 .74-13.52z" fill="#976b4a"/><path d="M63.43 17.9c2.78-1.5 4.91 3.18 2 4.34-2.7 1.43-4.8-3.15-2-4.34zm1.94.3c-.59.44.24 1.62.87 1.23.24-.54-.24-1.35-.87-1.23zm-2 1.94a7.62 7.62 0 0 0 1.39 1.39c1.41-.81 1-2.14-.09-3a4.39 4.39 0 0 0-1.3 1.61zm-11.09-.8c2.79-1.5 4.91 3.18 2 4.34-2.7 1.43-4.8-3.15-2-4.34zm1.36.27c-.61.54.8 1.6 1.22.86a.81.81 0 0 0-1.22-.87zm-.77.39c-.9 1.15-.87 2.63.78 2.95a7.76 7.76 0 0 0 .86-1.76A7.73 7.73 0 0 0 52.87 20z" fill="#e3be63"/><path d="M65.37 18.2c.59-.12 1.11.69.87 1.23-.63.38-1.46-.79-.87-1.23zm-11.73 1.4c.55-.43 1.47.22 1.22.86-.42.76-1.86-.32-1.22-.86z" fill="#eaf5c2"/><path d="M73.2 19.19l1.08-.05c1.36 4.93 2.58 9.91 3.58 14.93a7.89 7.89 0 0 0-1.3 1.93v-.1c-.62-5.69-2.15-11.19-3.36-16.71zm-29.95 3.05h1c0 5.87.6 11.73.67 17.6-.54-.54-1.12-1.06-1.71-1.56.03-5.36-.07-10.7.04-16.04zM62.33 31c2 1.82-4 3.44-3.46.64 1.13-.17 2.41.03 3.46-.64zm7.76 20.75c0-.28.27-.77.34-.25.22 3.53 0 7.08 0 10.61a23.78 23.78 0 0 0 3.25-.47c.09.74.17 1.48.29 2.21a22.15 22.15 0 0 1-6.18.49c1.78-4 2-8.45 2.49-12.71zm-18.23-.09a3.38 3.38 0 0 1 .24.41 29.43 29.43 0 0 0 3.62 12.29c-2 0-4 0-6-.12v-3.15c0 .3.07.6.11.89a16.52 16.52 0 0 0 3.29.39c-.64-3.54-1.41-7.1-1.26-10.71z" fill="#cabfcd"/><path d="M63.73 52.69c.57 2.89.56 5.89 1.29 8.75.22.88 1.57 1.18 1.94.25 1.08-2.54 1.59-5.29 2.61-7.85l.19-.14a78.51 78.51 0 0 1-2.05 9.39c-.3 1.49-3 1.87-3.32.24-.39-3.53-.56-7.08-.66-10.64zm-11.14 1.16c1.29 2.61 1.89 5.66 3.65 8.07.51.66 2.11 1 2.28-.09.15-2.57-.35-5.25.29-7.77 0 3.3.48 6.64.68 9.93-1 .7-3 .62-3.6-.71a34.11 34.11 0 0 1-3.3-9.43zm10.97 8.24c0-1.72-.3-3.44-.11-5.15.3 2.45-.14 5 .56 7.41h-3.87a6.36 6.36 0 0 0-.06-2.13c1.16-.02 2.31-.1 3.48-.13z" fill="#cabfcd"/><path d="M57.94 23.39c1.23 1.35 2.25.14 3.23-.19a2.26 2.26 0 0 0-1.1 2.86c-.23 1.17.94 1.44 1.51 2.18a2 2 0 0 0-2.7.4c.39-.9 1.26-1.56.76-2.66.29-1.22-.72-1.84-1.63-2.34-.01-.05-.01-.19-.07-.25z" fill="#dd7f7f"/><path d="M94.48 12.68l.28-.27a12.21 12.21 0 0 0 5.52 1.16c-2.21 1.76-4.52 4.19-4.45 7.2.38-.28.76-.86 1.22-.39 4.09 2.65 9.55 1.29 13.07-1.69a64.27 64.27 0 0 1 1.31 7.93c-1 3.24-3.29 6.45-6.76 7.26-1.67.59-3.66.4-5 1.71a5.06 5.06 0 0 0-.91 4.86c.7 1.88 3 2.54 3.65 4.42s.58 3.73 1.69 5.28c1.86 2.21 4.49 3.54 6.64 5.44a19.9 19.9 0 0 1-2.51 6.53c-1.52 1.43-3.79.9-5.68 1-.55.11-.73-.48-.7-.91.09-3.78 1-7.49 1.13-11.25v-.22h.15c0-.34.1-.72-.09-1l-.18.08c-1.89 4-3.13 8.4-5.11 12.41-.39.95-2.07 1.1-2.36 0-.72-2.52-.58-5.2-1-7.75l-.12-.2a.68.68 0 0 1 .11-.6l-.14.07a16.49 16.49 0 0 0-.24-2.36c-.24 4.06-.23 8.14-.16 12.21-.09-.18-.18-.36-.26-.54h-3.83c0 .32 0 .64-.07 1 0-3.91-.54-7.81-.83-11.71a4.49 4.49 0 0 0-.18-.9c-.11 1.28.08 2.57 0 3.86-.28 2.4 0 4.86-.47 7.25-.3.79-1.41.32-1.73-.25a52.89 52.89 0 0 1-6.08-11.94c3.27-3.73 4.69-10.26 1-14.16a11.77 11.77 0 0 1-7.18-7.62 63.07 63.07 0 0 1 2.06-9.9 9.41 9.41 0 0 0 2.7 2 7.83 7.83 0 0 0 7.83-.55 4 4 0 0 0 .68.62A5.74 5.74 0 0 0 86.26 17c2.28-2.25 6.22-1.63 8.22-4.32zm-5.08 6.75c.06.79 1 .8 1.62.92 0 1.65.73 6.15-2.19 4.41 0 .83 1 .88 1.64.71 1-1 2.58.93 3.46-.68-3.05 1.53-2.61-2.59-2.36-4.45.54-.09 1.25-.16 1.5-.75a3.94 3.94 0 0 0-3.67-.16zM84 21.92c1 .08 2.45 1 3.2.3-1-.31-2.23-.81-3.21-.3zm11.37.34c.74.75 2.19-.19 3.21-.29-1-.49-2.21 0-3.21.29zm-11 2.65a5.67 5.67 0 0 0 3-1.05l-.25-.19a6.85 6.85 0 0 0-2.76 1.24zm11-1.15c.25.87 1.88 1.07 2.78 1.26a5 5 0 0 0-2.78-1.26zm-6.13 5.71c-1.28 3.14 5.63 2.88 4.27 0a6 6 0 0 1-4.25 0zm-14.49 25.2A26.19 26.19 0 0 1 80 50.92v.54c.07 3.95 1.93 7.73 2.66 11.61-1.53-.18-3.61.41-4.57-1.18a26.18 26.18 0 0 1-3.34-7.22z" fill="#fff"/><path d="M101.22 7.16A27.06 27.06 0 0 1 105 1.44c1.28-.46 1.54 1.35 2.07 2.14 5 11 6.52 23.26 7.51 35.22A73.2 73.2 0 0 1 114 57c3.85-2.75 6.78-7.75 6-12.59-2.55-5.08-6.33-10.33-5-16.34.54-5.85 5.29-11.43 11.36-11.69 3.6 0 3.81 5.79.71 6.82-2.82.9-6.12 2.63-6.46 5.91-1 6.07 4.21 10.38 5.62 15.83.47 4.05-1.22 8-3.58 11.24-2.46 3.55-5.39 7.81-10.16 8-11.42.81-23 .18-34.51.38a4.49 4.49 0 0 1-4.3-1.84c-3-5.27-3.13-11.55-2.79-17.46C71.94 31 73.43 16 81.07 3.49c.53-.62 1-2.09 2-1.56 1.27 1.51 1.78 3.49 2.54 5.26a90.19 90.19 0 0 1 15.61-.03zm-8.1 3.65c.13.87 1.56 1.06 1.36 1.87-2 2.69-5.94 2.07-8.24 4.31a5.72 5.72 0 0 1 1.24 3.78 3.63 3.63 0 0 1-.68-.62 7.83 7.83 0 0 1-7.8.55 9.55 9.55 0 0 1-2.7-2c-.26-.33-.51-.65-.74-1-.78 3.53-2.56 7.3-1.36 10.89a11.74 11.74 0 0 0 7.19 7.61c3.65 3.9 2.23 10.43-1 14.16-.46.1-.22.6-.14.88a67.37 67.37 0 0 0 5.24 11.85c.68 1.2 2.59 1.27 3.58.56.32-2.79-.3-5.65-.29-8.46l-.11.11c.1-1.29-.09-2.58 0-3.86a6.52 6.52 0 0 1 .18.9c.29 3.9.87 7.8.83 11.71h4.36l-.2-.44c-.07-4.06-.08-8.14.15-12.2a15.12 15.12 0 0 1 .16 2.33l.14-.07a.73.73 0 0 0-.11.59l.12.21-.15-.18c.14 3.11-.1 6.29.46 9.35 1.16.72 3.58.8 4.06-.88 1.72-4.2 3-8.65 4.26-13h-.12l.18-.07c.18.3.07.69.1 1h-.16v.22c-1.42 4.33-2 9-4.08 13.08 3.61-.07 7.24.13 10.84-.1 3.42-1.19 4-6.3 1-8.35-2.14-1.91-4.77-3.24-6.64-5.44-1.11-1.56-1.06-3.55-1.69-5.28-.69-1.88-3-2.55-3.65-4.43a5.06 5.06 0 0 1 .91-4.85c1.35-1.32 3.35-1.13 5-1.71 3.47-.82 5.77-4 6.77-7.27 1.55-2.84.26-6-.3-9-.32.36-.67.7-1 1-3.53 3-9 4.34-13.07 1.69-.46-.47-.85.11-1.22.39-.07-3 2.23-5.43 4.44-7.19 1.93 0 5.15-1 4.38-3.5-1.44-2.95-5.16-2.4-7.87-2.62-1.74-.13-4.56 1.2-3.63 3.35zm-13.33 6a4.41 4.41 0 0 0 7 2.58 4.88 4.88 0 0 0-2.73-3.81c.08.52.17 1 .23 1.57V18h-.08a7.09 7.09 0 0 1-1.09 1.82 4.32 4.32 0 0 1 .25-4.47 4.32 4.32 0 0 0-3.58 1.5zM96.5 19.5a4.43 4.43 0 0 0 7-2.66 4 4 0 0 0-3.59-1.49c.23.51.45 1 .66 1.54l.23.6a15.62 15.62 0 0 1-.6 2.33 4.23 4.23 0 0 1-1-4.3 5 5 0 0 0-2.7 3.98zm23.74-.23a11.56 11.56 0 0 0-3.85 5.29 14.14 14.14 0 0 0 2.38 1.77 11.61 11.61 0 0 0 1.77.78 7.62 7.62 0 0 1 3.23-3.11 10.18 10.18 0 0 0-1-1.89 9.63 9.63 0 0 0-2.56-2.86zM118 32v.06a8.31 8.31 0 0 1-2.77-.13 18.87 18.87 0 0 0 2 6.34c.9-.36 1.76-.83 2.63-1.26a6.46 6.46 0 0 0 1.28-.72 17.56 17.56 0 0 1-1.29-4.86A6.52 6.52 0 0 1 118 32zm-5.46 3c-4.39 3.21-5.14 10.72-.27 13.84.63.42 1.29.8 1.9 1.25a98.3 98.3 0 0 0-.55-16.36 15.56 15.56 0 0 0-1.06 1.27zm-40.48 2a96 96 0 0 0-.73 16c1.14-.33 1.66-1.65 2.54-2.39 2.87-3.19 1.94-8.13-.52-11.27A24.63 24.63 0 0 1 72.06 37zm50.64 5.23a7.23 7.23 0 0 0-2.54 1.12 7.19 7.19 0 0 1 .44 4.08 4.24 4.24 0 0 1 3.3.61 11 11 0 0 1 1.4 1.33c.57-2.36.66-5-.73-7.07a4.21 4.21 0 0 0-1.87-.04zM74.75 54.67c-1.26 1.13-3 2.79-2.1 4.63.68 1.88 1.46 4.4 3.79 4.67 2.94.14 5.89 0 8.83 0a55.5 55.5 0 0 1-5.33-12.57v-.54a27.43 27.43 0 0 0-5.19 3.81zm43.9-2.12A25.93 25.93 0 0 1 116.2 56a4.85 4.85 0 0 1 2.56 1.24 7.51 7.51 0 0 1 1.11 1.62c.95-1.39 3.52-3.22 1.65-4.83a3.92 3.92 0 0 0-2.87-1.44z" fill="#060606"/><path d="M84 21.92c1-.51 2.21 0 3.21.3-.75.78-2.21-.22-3.21-.3zm11.38.34c1-.27 2.22-.78 3.2-.29-1.01.1-2.46 1.03-3.2.29zm-11 2.65a6.85 6.85 0 0 1 2.76-1.24l.25.19a5.64 5.64 0 0 1-3.01 1.05zm11.01-1.15A5 5 0 0 1 98.17 25c-.89-.17-2.53-.36-2.78-1.24z" fill="#060606"/><path d="M93.13 10.81C92.2 8.66 95 7.33 96.78 7.45c2.71.22 6.43-.32 7.87 2.62.77 2.54-2.45 3.51-4.37 3.5a12.21 12.21 0 0 1-5.52-1.16l-.27.27c.2-.81-1.24-.99-1.36-1.87zm27.11 8.46a9.63 9.63 0 0 1 2.56 2.86 13.61 13.61 0 0 0-4 4.2 14.47 14.47 0 0 1-2.37-1.77 11.49 11.49 0 0 1 3.81-5.29zm-4.95 12.67a8.58 8.58 0 0 0 2.77.13A51.05 51.05 0 0 0 120 37c-.87.44-1.73.9-2.63 1.26a18.89 18.89 0 0 1-2.08-6.32zm-3 16.87c-4.87-3.12-4.11-10.63.28-13.84a60.42 60.42 0 0 1-.28 13.84zm-38.44 1.76a30 30 0 0 1-.52-11.27c2.46 3.14 3.39 8.08.52 11.27zm46.31-7.18a7.06 7.06 0 0 1 2.54-1.12c1.46 1.49 1.62 3.85 1.2 5.81a4.24 4.24 0 0 0-3.3-.62 7.17 7.17 0 0 0-.44-4.07zm-1.51 9.17a3.93 3.93 0 0 1 2.88 1.44c-1 1-1.68 2.28-2.76 3.2a4.83 4.83 0 0 0-2.57-1.2 26.34 26.34 0 0 0 2.45-3.44z" fill="#976b4a"/><path d="M100.57 16.9c1-1.76 2.07 1.26.23.6-.05-.15-.17-.45-.23-.6zm-16.24.29c1.37-.93 1.36 1.58 0 .85.01-.29.01-.57 0-.85z" fill="#eaf5c2"/><path d="M79.79 16.85a4.32 4.32 0 0 1 3.62-1.48 4.3 4.3 0 0 0-.24 4.47A7.09 7.09 0 0 0 84.26 18h.08c1.36.73 1.36-1.78 0-.85-.07-.53-.15-1.05-.23-1.57a4.91 4.91 0 0 1 2.73 3.81 4.42 4.42 0 0 1-7.05-2.54zM96.5 19.5a5 5 0 0 1 2.75-4 4.23 4.23 0 0 0 1 4.3 15.62 15.62 0 0 0 .6-2.33c1.84.66.8-2.36-.23-.6-.21-.52-.43-1-.66-1.54a4 4 0 0 1 3.59 1.49 4.42 4.42 0 0 1-7.05 2.68z" fill="#c0d9a2"/><path d="M75.53 17.66q.36.51.75 1a62.83 62.83 0 0 0-2.06 9.9c-1.22-3.62.57-7.34 1.31-10.9zm34.58 1.03c.35-.34.69-.67 1-1 .57 2.93 1.86 6.13.3 9a63.65 63.65 0 0 0-1.3-8zM89.26 29.47a6 6 0 0 0 4.27 0c1.36 2.88-5.53 3.14-4.27 0zm13.55 20.32h.12c-1.29 4.3-2.54 8.75-4.26 12.94-.48 1.68-2.91 1.61-4.06.89-.56-3.06-.33-6.25-.46-9.36l.15.18c.46 2.56.33 5.24 1 7.75.29 1.1 2 1 2.35 0 2.04-4 3.28-8.4 5.16-12.4zm-22.59 1.45c-.09-.28-.33-.78.13-.88a53.1 53.1 0 0 0 6.08 11.94c.32.57 1.43 1 1.73.25.46-2.39.18-4.85.47-7.26l.12-.11c0 2.82.6 5.68.28 8.47a2.6 2.6 0 0 1-3.57-.56 66.64 66.64 0 0 1-5.24-11.85zM98.88 64c2.05-4.1 2.65-8.75 4.08-13.08-.09 3.76-1 7.47-1.13 11.24 0 .43.15 1 .7.92 1.89-.1 4.16.42 5.68-1a20 20 0 0 0 2.51-6.53c3 2.06 2.41 7.16-1 8.35-3.6.27-7.23.1-10.84.1zM79.94 51.45A55.5 55.5 0 0 0 85.27 64c-2.94 0-5.89.09-8.83 0-2.33-.28-3.11-2.8-3.79-4.68-.88-1.83.85-3.49 2.1-4.63a26.05 26.05 0 0 0 3.25 7.2c.95 1.59 3 1 4.57 1.18-.69-3.89-2.57-7.66-2.63-11.62zm9.81 11.64h3.82c.09.18.17.36.27.54L94 64h-4.36c.06-.27.08-.59.11-.91z" fill="#cabfcd"/><path d="M89.4 19.43a3.94 3.94 0 0 1 3.67.16c-.25.59-.95.66-1.5.75-.24 1.86-.68 6 2.37 4.45-.88 1.62-2.47-.36-3.47.68-.59.17-1.64.12-1.63-.71C91.76 26.5 91 22 91 20.35c-.57-.12-1.54-.13-1.6-.92z" fill="#dd7f7f"/><path d="M122.8 22.13a9.6 9.6 0 0 1 1 1.89 7.57 7.57 0 0 0-3.27 3.14 11.61 11.61 0 0 1-1.77-.78 13.61 13.61 0 0 1 4.04-4.25zM118 32a6.85 6.85 0 0 0 1.92-.62 17.4 17.4 0 0 0 1.29 4.85A6 6 0 0 1 120 37a52.09 52.09 0 0 1-1.89-4.9zm-5.44 3a15.56 15.56 0 0 1 1.07-1.22 97.36 97.36 0 0 1 .55 16.37c-.61-.46-1.27-.84-1.9-1.26a60 60 0 0 0 .28-13.89zm-40.5 2a24.63 24.63 0 0 0 1.29 2.22 30 30 0 0 0 .52 11.27c-.88.74-1.4 2.06-2.54 2.39A96 96 0 0 1 72.06 37zm50.64 5.26a4.22 4.22 0 0 1 1.87.07c1.39 2.1 1.3 4.71.73 7.07a11.72 11.72 0 0 0-1.4-1.33c.41-1.95.26-4.31-1.2-5.81zm-3.94 14.95c1.08-.92 1.73-2.24 2.76-3.2 1.87 1.61-.7 3.44-1.65 4.83a7.57 7.57 0 0 0-1.11-1.63z" fill="#794e3b"/></g><path d="M6.38 80.57V71h4.45a3.43 3.43 0 0 1 2.51.85 2.36 2.36 0 0 1-.6 3.73 3.16 3.16 0 0 1 1.34.9 2.27 2.27 0 0 1 .45 1.48 2.24 2.24 0 0 1-1 2 4.49 4.49 0 0 1-2.63.67zm2.06-5.71h1.94c1 0 1.52-.35 1.52-1a.85.85 0 0 0-.35-.73 1.76 1.76 0 0 0-1-.26H8.44zm0 3.86h2.5c1 0 1.5-.35 1.5-1.07s-.52-1-1.56-1H8.44zm7.82 1.85v-10h2.08v10zm6.23.14a2.67 2.67 0 0 1-1.8-.61 2 2 0 0 1-.69-1.67 2 2 0 0 1 .8-1.75 3.57 3.57 0 0 1 2.16-.59 5.51 5.51 0 0 1 1.79.3v-.12c0-.89-.53-1.34-1.58-1.34a5.75 5.75 0 0 0-2 .4l-.52-1.59a7 7 0 0 1 2.85-.59 3.33 3.33 0 0 1 2.47.82 3.17 3.17 0 0 1 .8 2.34v4.26h-2v-.79a2.85 2.85 0 0 1-2.28.93zm.63-1.44a1.82 1.82 0 0 0 1.17-.36 1.12 1.12 0 0 0 .46-.93v-.37a3.19 3.19 0 0 0-1.33-.27 1.79 1.79 0 0 0-1.06.27.88.88 0 0 0-.38.77.78.78 0 0 0 .32.65 1.31 1.31 0 0 0 .82.24zm8.97 1.46a3.68 3.68 0 0 1-2.74-1.1 3.76 3.76 0 0 1-1.08-2.72A3.87 3.87 0 0 1 35 74.38l-1.22 1.23a2.44 2.44 0 0 0-1.71-.72 1.57 1.57 0 0 0-1.27.59 2.29 2.29 0 0 0 0 2.88 1.73 1.73 0 0 0 1.35.58 2.46 2.46 0 0 0 1.69-.78l1.22 1.23a4.69 4.69 0 0 1-1.29 1 3.8 3.8 0 0 1-1.68.34zm4.46-.16v-10h2.08v5.33l2.44-2.67h2.49l-2.79 2.89 2.89 4.45h-2.39l-1.91-3-.73.77v2.23zm8.45 0V71h2.1v3.8H51V71h2.11v9.59H51v-3.87h-3.91v3.85zm16.73-.94a3.92 3.92 0 0 1-2.84 1.1 3.85 3.85 0 0 1-2.83-1.1 3.81 3.81 0 0 1 0-5.43 3.91 3.91 0 0 1 2.84-1.11 3.88 3.88 0 0 1 2.83 1.11 3.81 3.81 0 0 1 0 5.43zm-2.82-.69a1.77 1.77 0 0 0 1.39-.58 2.13 2.13 0 0 0 .52-1.45 2 2 0 0 0-.55-1.43 1.8 1.8 0 0 0-1.38-.59 1.77 1.77 0 0 0-1.39.58 2.12 2.12 0 0 0-.5 1.44 2.08 2.08 0 0 0 .54 1.44 1.82 1.82 0 0 0 1.37.59zm5.67 1.63v-10h2.08v10zm7.63.16a3.74 3.74 0 0 1-2.75-1.06 3.65 3.65 0 0 1-1.09-2.76 3.88 3.88 0 0 1 1-2.71A3.39 3.39 0 0 1 72 73.09a3.22 3.22 0 0 1 2.66 1.15 4.44 4.44 0 0 1 .92 2.84v.55h-5.14a1.77 1.77 0 0 0 .62 1.06 1.81 1.81 0 0 0 1.18.37 2.58 2.58 0 0 0 1.76-.75l1.19 1.06a3.66 3.66 0 0 1-2.98 1.36zm-1.79-4.4h3.13a1.94 1.94 0 0 0-.5-1.14 1.4 1.4 0 0 0-1-.43 1.39 1.39 0 0 0-1 .42 2 2 0 0 0-.63 1.15zm11.25 4.24V71h2.11v7.67h4.78v1.92zm8.41-8.15v-1.85h2.19v1.85zm0 8.15v-7.34h2.08v7.34zm6.68.12a2.25 2.25 0 0 1-1.58-.5 2.2 2.2 0 0 1-.56-1.7V75h-.87v-1.77h.87v-1.88h2.09v1.88h1.72V75h-1.72v3.14c0 .47.22.71.67.71a2.15 2.15 0 0 0 1-.26v1.67a3.15 3.15 0 0 1-1.62.43zm5.79 0a2.25 2.25 0 0 1-1.58-.5 2.2 2.2 0 0 1-.55-1.7V75h-.88v-1.77h.88v-1.88h2.08v1.88h1.72V75h-1.72v3.14c0 .47.22.71.67.71a2.19 2.19 0 0 0 1-.26v1.67a3.21 3.21 0 0 1-1.62.43zm6.8.04a3.76 3.76 0 0 1-2.76-1.06 3.68 3.68 0 0 1-1.08-2.76 3.83 3.83 0 0 1 1-2.71 3.38 3.38 0 0 1 2.6-1.11 3.22 3.22 0 0 1 2.66 1.15 4.43 4.43 0 0 1 .91 2.84v.55h-5.11a1.72 1.72 0 0 0 .62 1.06 1.8 1.8 0 0 0 1.17.37 2.56 2.56 0 0 0 1.78-.75l1.19 1.06a3.64 3.64 0 0 1-2.98 1.36zm-1.8-4.4h3.14a2 2 0 0 0-.5-1.14 1.4 1.4 0 0 0-1-.43 1.42 1.42 0 0 0-1 .42 2 2 0 0 0-.64 1.15zm6.82 4.24v-7.34h2.08v1.48a2.32 2.32 0 0 1 2.34-1.62v2.18h-.11a2.12 2.12 0 0 0-1.65.65 2.88 2.88 0 0 0-.58 1.94v2.71zm10.27 0V71h2.27l2.52 4 2.57-4h2.28v9.59h-2.1v-6.28l-2.7 4.1h-.05l-2.67-4.06v6.22zm13.86.14a2.67 2.67 0 0 1-1.8-.61 2.31 2.31 0 0 1 .08-3.42 3.57 3.57 0 0 1 2.16-.59 5.47 5.47 0 0 1 1.79.3v-.12c0-.89-.52-1.34-1.57-1.34a5.8 5.8 0 0 0-2 .4l-.52-1.59a7 7 0 0 1 2.85-.59 3.37 3.37 0 0 1 2.48.82 3.17 3.17 0 0 1 .79 2.34v4.26h-2v-.79a2.85 2.85 0 0 1-2.26.93zm.63-1.44a1.84 1.84 0 0 0 1.18-.36 1.14 1.14 0 0 0 .45-.93v-.37a3.16 3.16 0 0 0-1.33-.27 1.79 1.79 0 0 0-1.06.27.88.88 0 0 0-.38.77.78.78 0 0 0 .32.65 1.31 1.31 0 0 0 .82.24zm7.98 1.42a2.25 2.25 0 0 1-1.58-.5 2.2 2.2 0 0 1-.55-1.7V75h-.88v-1.77h.9v-1.88h2.08v1.88h1.72V75h-1.72v3.14c0 .47.22.71.67.71a2.19 2.19 0 0 0 1-.26v1.67a3.21 3.21 0 0 1-1.64.43z" fill="#fff"/></g></g></svg>