<svg xmlns="http://www.w3.org/2000/svg" viewBox="0 0 290.05 334.53"><g data-name="Слой 2"><g data-name="Layer 1"><path d="M149.51 43.54c10.51-1.89 21.11-3.23 31.72-4.32h2.88c3.8 8.21 8.06 16.25 14.24 22.94-17.67-5-26.7 23.61-9.42 29.29 3.78 8.8 15.91 12.25 23.58 6.37 7.58-5.12 8.67-16.9 2.32-23.43 11.57 5.29 24.47 6.51 37.06 5.88 6.76 30.71 15.24 61.25 18.61 92.57-24.22 41.73-21.09 92.49-16.39 138.71.22 1.6.38 3.2.57 4.81-6 1-12 2.46-18.1 2.61-.26-19.68 1.13-39.42-.08-59-.42-2.92-2.18-.15-1.91 1.36-.34 3.57-1.38 7-2 10.54l-.84 1.16c-5.69 14.24-8.56 29.49-14.52 43.63-2.05 5.16-9.56 3.52-10.77-1.37-4.08-15.94-4-32.6-7.19-48.69l-.66-.89c0-.82.05-2.45.06-3.26-1.91 9.08-.43 18.53-.94 27.75-1.05 9.55.76 19.09.61 28.65-6.46.19-12.91.62-19.38.75-2.35-15.26-3.8-30.64-5-46-.35-3.45-.33-7-1.48-10.31-.2 3.4-.1 6.8-.25 10.2l-.33.75c-3.54 14-.75 28.88-1.61 43.19-.94 6-9.81 4.14-12.66.51-9.79-13.42-13.12-30.36-20.32-44.89 0-.48.05-1.45.07-1.93h-.76a6.52 6.52 0 0 0-.84-3.43c-.39-1.52-.68-3.07-1.18-4.55a21.44 21.44 0 0 0-1.3-2.29c-.86 20.06 3.42 39.87 6.78 59.54a89.79 89.79 0 0 1-18.34-2.13c-.21-1.65-.42-3.29-.57-4.94-1.94-39.53 3.36-86.15-25.74-117.52-.19-.2-.59-.59-.79-.79-.43-32.65-3.75-65.23-3.74-97.9 13.36 1.44 26.21-4 36.77-11.76-5 8.73.26 21.21 10.31 23 10.44 2.9 21.26-7.56 18.82-18.07-1.42-9.79-13-15.64-21.89-11.55 8.47-9.94 11.85-22.73 14.6-35.19zM167 103.61c.11.36.32 1.09.43 1.46-7.64-.69-13.6 7.4-10.26 14.38 4.17 7.4 15.92 6.07 19.35-1.42 2.76 6.13-2.07 9.78-4.25 14.79 4.79-4.39 9.17-5.78 15-2.22-3.16-4.11-9.65-5.62-8.4-12.12 4.35 2.21 10.07 3.31 14.22.09 5.54-5.75 1.07-18.72-8.06-16-5.46 1.83-11.15 8.56-18.03 1.04zm36.18 8.75c6.58-1.31 13.93-3.72 18.73-8.36a28.31 28.31 0 0 0-18.71 8.36zm-70.4 7.64a51.73 51.73 0 0 0 20.43-1.15c-6.21-2.33-14.88-2.75-20.43 1.15zm71.22-2c5.44 4.32 13.17 3.75 19.59 2.54-5.59-3.19-13.2-2.6-19.59-2.54zm-65.6 17c6.43-1.28 13.78-4.64 16.58-11-5.86 2.92-12.32 5.84-16.59 10.91zm53 11c-5.81 3.75-13.22 2.58-19.21 3.57-2.91 15.52 30.54 6.51 19.23-3.65z" fill="#fff"/><path d="M224.17 1.55c5.59-4.86 9.58 2.87 11.52 7.25 20.23 42.48 30.07 89 41 134.45 10.45 41.52 13.5 84.49 13.33 127.19-.57 17.39-3.48 35.77-13.69 50.3-10.41 11.18-26.87 13-41.31 13.71-39-.43-78 .89-117-.83-16.33-1.13-35.24-6.07-43.73-21.46-5-12.79-1.37-26.86 1.21-39.81 4.88-18.88 4.85-38.59 5.68-58-6.32-19-21.38-33.85-38-44.23C21 156.59 3.67 133.79.56 107.53c-2.47-19.3 3.1-41.15 19.08-53.43 16.55-13.46 44.45-10.91 57.06 6.69 10 11.57-4.72 32.65-18.25 22.29C53 73.92 38.07 72 33 82.6 22.31 103 34 127.5 50.52 141 60.7 149.64 73 155.66 82 165.69c-.56-49.22 0-98.75 8.75-147.33A5.09 5.09 0 0 1 99.49 16c9.21 9.62 16.37 20.94 23.84 31.89 26.71-10.17 55.75-11.67 84-13.49 3.35-11.89 9.56-22.94 16.84-32.85zm-14.42 35.81c-9.47.42-19.32 1-28.52 1.86-10.61 1.09-21.21 2.43-31.72 4.32-9.4 1.92-18.78 4.21-27.56 8.16-8.42-11.7-15.23-26.82-27.42-34.41v.8c-6.44 25.33-6.65 52.36-9.28 78.44 1.86 0 3.73.16 5.59.28v.27c-1.84 0-3.67.14-5.5.16-.62 29.67-.08 59.38-.29 89.07-.77 25.08-.74 50.28-4.08 75.19-3 15.77-8.91 32.25-4.39 48.28 8.1 16.06 28.1 20.25 44.53 21 11.18.71 22.38.66 33.58.65-12.39-20.39-17.75-44.89-20.15-68.33.5 1.48.79 3 1.18 4.55a6.52 6.52 0 0 1 .84 3.43h.76c0 .48-.06 1.45-.07 1.93 4.12 18 9.12 36.29 18.39 52.44 3.27 7.37 14.26 7.82 20 3.93-1.1-18.3-3.47-36.84-3.78-55.18l.33-.75c.15-3.4 0-6.8.25-10.2 1.15 3.32 1.13 6.86 1.48 10.31 1.21 15.37 2.66 30.75 5 46 .57 3.91 1.15 7.92.37 11.85 7.17 0 14.34.08 21.51-.05-3.88-13.38-1.44-27.53-3.11-41.2.51-9.22-1-18.67.94-27.75 0 .81 0 2.44-.06 3.26l.66.89c.58 19.77 1.67 39.52 3.68 59.19 1.62 9.08 16.76 6.95 18.45-1.32 5.48-17 8.09-34.73 11.42-52.22l-1.07.78.84-1.16c.66-3.52 1.7-7 2-10.54l1.16-.63c-3 23.67-3.91 48.7-13.85 70.71 11.5.24 23.17.27 34.37-2.71 28.07-6.19 30.47-40.81 30.76-64.23-.46-34-1.94-68.21-9.2-101.48-5.57-27.89-12.39-55.54-19.94-83-.24-.74-.46-1.48-.68-2.22-7.24-24.3-13.72-49.53-26.77-71.53-.2-1.49-1.36-2.53-2.27-3.61-9.13 9.26-14.94 22.21-18.38 34.77zM9.68 71.14c-17 32.4.54 73.08 29.23 92.53 17.4 10.5 33.57 24.21 42.66 42.76.05-6.15.26-12.3.37-18.46.06-5.89.16-11.79 0-17.68C70.1 155.53 51 149 39.5 134c-11.77-13.1-16.9-32.38-11.28-49.31 3.92-10.91 17.93-16.58 27.38-8.83 3.45 5 9.8 9.32 15.77 5.47 9.41-6.48 5-20.61-3.76-25.52-18.74-14.4-48.76-6.35-57.93 15.33z" fill="#060606"/><path d="M188.93 91.45c-7.56-15.41 14.87-30 25.9-17.06 6.35 6.53 5.26 18.31-2.32 23.43-7.67 5.88-19.8 2.43-23.58-6.37zm8.64-18.34c-15.57 6.6-3.91 32.05 11.36 24.11 15.94-6.44 4.12-32.49-11.36-24.11z" fill="#060606"/><path d="M197.23 85.55c2-3.29 3.87-7 7.24-9 6.27 4.84 8.35 12.23.48 16.75-3.08-2.06-5.29-5.05-7.72-7.75zm-62.37-6.82c8.88-4.09 20.47 1.76 21.89 11.55 2.44 10.51-8.38 21-18.82 18.07-10.05-1.82-15.33-14.3-10.31-23a21 21 0 0 1 7.24-6.62zm.71 2.37c-15.58 6.6-3.91 32.06 11.37 24.12 15.93-6.45 4.11-32.48-11.37-24.12z" fill="#060606"/><path d="M138.85 84.76A43.37 43.37 0 0 1 148 91.4a44.44 44.44 0 0 1-4.79 9.76c-9.21-1.79-9.37-9.99-4.36-16.4zm64.35 27.6a28.31 28.31 0 0 1 18.73-8.36c-4.8 4.64-12.15 7.05-18.73 8.36zM132.78 120c5.55-3.92 14.2-3.5 20.43-1.15a51.73 51.73 0 0 1-20.43 1.15zm71.22-2c6.4 0 14-.61 19.59 2.54-6.43 1.17-14.16 1.74-19.59-2.54zm-65.61 16.91c4.27-5.07 10.73-8 16.58-11-2.8 6.36-10.15 9.72-16.58 11z" fill="#060606"/><path d="M209.75 37.36c3.44-12.56 9.25-25.51 18.38-34.77.91 1.08 2.07 2.12 2.27 3.61 6.71 23.5 14.94 46.62 20.24 70.54-.3 3.69 5.91 4.61 6.57 1 .22.74.44 1.48.68 2.22l-6 .27c-12.59.63-25.49-.59-37.06-5.88-11-12.91-33.46 1.65-25.9 17.06-17.28-5.68-8.25-34.33 9.42-29.29-6.18-6.69-10.44-14.73-14.24-22.94h-2.88c9.2-.82 19.05-1.4 28.52-1.82zM94.53 17.29c12.19 7.59 19 22.71 27.47 34.41 8.78-4 18.16-6.24 27.56-8.16-2.75 12.47-6.13 25.25-14.65 35.19a21 21 0 0 0-7.24 6.59c-10.56 7.77-23.41 13.2-36.77 11.76v-.27c1-26.2 2.57-52.5 3.69-78.72zM9.68 71.14c9.17-21.68 39.19-29.73 57.93-15.38 8.78 4.91 13.17 19 3.76 25.52-4.24-10.15-15.57-19.52-27-15.46-8.89 1.82-14.87 10.25-16.15 18.82-5.62 16.93-.49 36.21 11.28 49.36C51 149 70.1 155.53 82 170.29c.14 5.89 0 11.79 0 17.68-12.93-16.67-32.63-25.5-48-39.48C12.17 129.77 2.67 99 9.68 71.14zm175.37 31.4c9.13-2.69 13.6 10.28 8.06 16-4.15 3.22-9.87 2.12-14.22-.09-2.98-6.16.77-12.61 6.16-15.91zm-27.86 16.91c-3.34-7 2.62-15.07 10.26-14.38 5.12 2.69 10.69 6.18 9.09 13-3.43 7.45-15.18 8.78-19.35 1.38zm113.31 53.39l.07.56c5.86 37.27 8.58 75.41 4.69 113-.89 12.46-7.13 25.88-20.11 29.38-.36-1.43-.73-2.83-1-4.25-4.74-46.2-7.87-96.96 16.35-138.69zM95.38 195.77c29.1 31.37 23.8 78 25.74 117.52 0 1.69-.06 3.37-.06 5.06-8.14-2.12-18-5.08-20.88-14-9.63-25.36-.87-52.72-4-78.92.47-9.91-1.38-19.79-.8-29.66z" fill="#bc935d"/><path d="M230.4 6.2c13 22 19.53 47.23 26.81 71.58-.66 3.57-6.87 2.65-6.57-1-5.3-23.96-13.53-47.08-20.24-70.58zM85.3 96.53c2.63-26.08 2.84-53.11 9.28-78.44-1.12 26.22-2.68 52.52-3.69 78.72-1.89-.12-3.73-.26-5.59-.28zM44.35 65.82c11.45-4.06 22.78 5.31 27 15.46-6 3.85-12.32-.51-15.77-5.47-9.45-7.75-23.46-2.08-27.38 8.83 1.3-8.57 7.28-17 16.15-18.82zM9.68 71.14C2.67 99 12.17 129.77 34 148.49c15.35 14 35 22.81 47.92 39.48-.11 6.16-.32 12.31-.37 18.46-9.09-18.55-25.26-32.26-42.66-42.76-28.67-19.45-46.26-60.13-29.21-92.53zM270.57 173.4a45.72 45.72 0 0 1 7.26-10.4c7.26 33.27 8.74 67.52 9.2 101.48-.29 23.42-2.69 58-30.76 64.23-.64-4.09-1.1-8.2-1.59-12.31-.19-1.61-.35-3.21-.57-4.81.31 1.42.68 2.82 1 4.25 13-3.5 19.22-16.92 20.11-29.38 3.93-37.65 1.21-75.79-4.65-113.06zM85.06 186.31c3.27 2.78 6.49 5.64 9.53 8.67.2.2.6.59.79.79-.58 9.87 1.27 19.75.85 29.67 3.08 26.2-5.68 53.56 4 78.92 2.91 8.91 12.74 11.87 20.88 14 .06 4.15.12 8.29.06 12.44-16.43-.76-36.43-5-44.53-21-4.52-16 1.42-32.51 4.39-48.28 3.29-24.93 3.26-50.13 4.03-75.21z" fill="#976b4a"/><path d="M197.57 73.11c15.48-8.38 27.3 17.67 11.36 24.11-15.27 7.94-26.93-17.51-11.36-24.11zm10.76 1.63c-3.28 2.48 1.35 9 4.86 6.87 1.31-3.01-1.54-7.53-4.86-6.87zm-11.1 10.81c2.43 2.7 4.64 5.69 7.72 7.72 7.87-4.52 5.79-11.91-.48-16.75-3.37 2.07-5.27 5.74-7.24 9.03zm-61.66-4.45c15.48-8.36 27.3 17.67 11.37 24.12-15.28 7.94-26.94-17.52-11.37-24.12zm7.55 1.48c-3.38 3 4.46 8.92 6.78 4.79 1.38-3.58-3.73-7.2-6.78-4.79zm-4.27 2.18c-5 6.41-4.85 14.61 4.33 16.4A44.44 44.44 0 0 0 148 91.4a43.37 43.37 0 0 0-9.15-6.64z" fill="#e3be63"/><path d="M208.33 74.74c3.32-.66 6.17 3.86 4.86 6.87-3.51 2.09-8.14-4.39-4.86-6.87zm-65.21 7.84c3-2.41 8.16 1.21 6.78 4.79-2.32 4.13-10.16-1.81-6.78-4.79z" fill="#eaf5c2"/><path d="M251.89 80.27l6-.27c7.55 27.42 14.37 55.07 19.94 83a45.72 45.72 0 0 0-7.26 10.44l-.07-.56c-3.37-31.36-11.85-61.88-18.61-92.61zM85.35 97.24c1.83 0 3.66-.17 5.5-.16 0 32.67 3.31 65.25 3.74 97.9-3-3-6.26-5.89-9.53-8.67.21-29.69-.33-59.4.29-89.07zm106.07 48.68c11.31 10.16-22.14 19.17-19.21 3.57 5.99-.99 13.4.18 19.21-3.57zm43.17 115.38c-.27-1.51 1.49-4.28 1.91-1.36 1.21 19.61-.18 39.35.08 59 6.12-.15 12.08-1.62 18.1-2.61.49 4.11.95 8.22 1.59 12.31-11.2 3-22.87 2.95-34.37 2.71 9.94-22 10.84-47 13.85-70.71zm-101.34-.48a21.44 21.44 0 0 1 1.3 2.29c2.4 23.44 7.76 47.94 20.15 68.33-11.2 0-22.4.06-33.58-.65.06-4.15 0-8.29-.06-12.44 0-1.69 0-3.37.06-5.06.15 1.65.36 3.29.57 4.94a89.79 89.79 0 0 0 18.31 2.13c-3.33-19.67-7.61-39.48-6.75-59.54z" fill="#cabfcd"/><path d="M199.23 266.57c3.16 16.09 3.11 32.75 7.19 48.69 1.21 4.89 8.72 6.53 10.77 1.37 6-14.14 8.83-29.39 14.52-43.63l1.07-.78c-3.33 17.49-5.94 35.24-11.42 52.22-1.69 8.27-16.83 10.4-18.45 1.32-2.01-19.67-3.1-39.42-3.68-59.19zM137.26 273c7.2 14.53 10.53 31.47 20.32 44.89 2.85 3.63 11.72 5.53 12.66-.51.86-14.31-1.93-29.19 1.61-43.19.31 18.34 2.68 36.88 3.78 55.18-5.72 3.89-16.71 3.44-20-3.93-9.25-16.14-14.25-34.44-18.37-52.44zm61.04 45.82c.15-9.56-1.66-19.1-.61-28.65 1.67 13.67-.77 27.82 3.11 41.2-7.17.13-14.34.05-21.51.05.78-3.93.2-7.94-.37-11.85 6.47-.13 12.92-.57 19.38-.75z" fill="#cabfcd"/><path d="M167 103.61c6.86 7.52 12.55.79 18-1.07-5.39 3.3-9.14 9.75-6.16 15.94-1.25 6.5 5.24 8 8.4 12.12-5.83-3.56-10.21-2.17-15 2.22 2.18-5 7-8.66 4.25-14.79 1.6-6.78-4-10.27-9.09-13-.06-.33-.27-1.03-.4-1.42z" fill="#dd7f7f"/></g></g></svg>